%TF.GenerationSoftware,KiCad,Pcbnew,(6.0.1)*%
%TF.CreationDate,2022-03-10T08:51:34-07:00*%
%TF.ProjectId,MShaw_PICO_Edition_4gbNandExtensionQSB_V2.6,4d536861-775f-4504-9943-4f5f45646974,rev?*%
%TF.SameCoordinates,Original*%
%TF.FileFunction,Legend,Top*%
%TF.FilePolarity,Positive*%
%FSLAX46Y46*%
G04 Gerber Fmt 4.6, Leading zero omitted, Abs format (unit mm)*
G04 Created by KiCad (PCBNEW (6.0.1)) date 2022-03-10 08:51:34*
%MOMM*%
%LPD*%
G01*
G04 APERTURE LIST*
G04 Aperture macros list*
%AMRoundRect*
0 Rectangle with rounded corners*
0 $1 Rounding radius*
0 $2 $3 $4 $5 $6 $7 $8 $9 X,Y pos of 4 corners*
0 Add a 4 corners polygon primitive as box body*
4,1,4,$2,$3,$4,$5,$6,$7,$8,$9,$2,$3,0*
0 Add four circle primitives for the rounded corners*
1,1,$1+$1,$2,$3*
1,1,$1+$1,$4,$5*
1,1,$1+$1,$6,$7*
1,1,$1+$1,$8,$9*
0 Add four rect primitives between the rounded corners*
20,1,$1+$1,$2,$3,$4,$5,0*
20,1,$1+$1,$4,$5,$6,$7,0*
20,1,$1+$1,$6,$7,$8,$9,0*
20,1,$1+$1,$8,$9,$2,$3,0*%
G04 Aperture macros list end*
%ADD10C,0.100000*%
%ADD11C,0.150000*%
%ADD12C,0.075000*%
%ADD13C,0.080000*%
%ADD14C,0.093750*%
%ADD15C,0.120000*%
%ADD16RoundRect,0.250000X0.450000X-0.262500X0.450000X0.262500X-0.450000X0.262500X-0.450000X-0.262500X0*%
%ADD17RoundRect,0.250000X0.250000X-0.750000X0.250000X0.750000X-0.250000X0.750000X-0.250000X-0.750000X0*%
%ADD18RoundRect,0.750000X0.750000X-0.750000X0.750000X0.750000X-0.750000X0.750000X-0.750000X-0.750000X0*%
%ADD19RoundRect,0.625000X-0.625000X-0.625000X0.625000X-0.625000X0.625000X0.625000X-0.625000X0.625000X0*%
%ADD20RoundRect,0.750000X-0.750000X-0.750000X0.750000X-0.750000X0.750000X0.750000X-0.750000X0.750000X0*%
G04 APERTURE END LIST*
D10*
X135235000Y-96150000D02*
X135485000Y-95900000D01*
X139070000Y-95900000D02*
X139320000Y-96150000D01*
X134750000Y-98900000D02*
X139835000Y-98900000D01*
X140370000Y-95900000D02*
X140620000Y-96150000D01*
X133480000Y-98900000D02*
X133485000Y-95675000D01*
X137785000Y-98400000D02*
X138035000Y-98650000D01*
X132695000Y-98400000D02*
X132945000Y-98650000D01*
X137785000Y-98650000D02*
X138035000Y-98400000D01*
D11*
X130940000Y-98720000D02*
X130940000Y-95700000D01*
D10*
X136535000Y-96150000D02*
X136785000Y-95900000D01*
X133985000Y-96150000D02*
X134235000Y-95900000D01*
X138560000Y-98900000D02*
X138560000Y-95700000D01*
X132210000Y-98800000D02*
X132210000Y-95700000D01*
D11*
X141100000Y-98900000D02*
X141090000Y-95710000D01*
D10*
X136535000Y-95900000D02*
X136785000Y-96150000D01*
X137820000Y-95900000D02*
X138070000Y-96150000D01*
X135260000Y-98650000D02*
X135510000Y-98400000D01*
X135235000Y-95900000D02*
X135485000Y-96150000D01*
X133985000Y-95900000D02*
X134235000Y-96150000D01*
X139125000Y-98650000D02*
X139375000Y-98400000D01*
X139070000Y-96150000D02*
X139320000Y-95900000D01*
X130960000Y-97400000D02*
X141100000Y-97400000D01*
X135260000Y-98400000D02*
X135510000Y-98650000D01*
X132210000Y-98900000D02*
X133480000Y-98900000D01*
X137290000Y-98800000D02*
X137290000Y-95675000D01*
X136020000Y-98900000D02*
X136010000Y-95680000D01*
X139125000Y-98400000D02*
X139375000Y-98650000D01*
X137820000Y-96150000D02*
X138070000Y-95900000D01*
X132695000Y-98650000D02*
X132945000Y-98400000D01*
X136510000Y-98400000D02*
X136760000Y-98650000D01*
D11*
X161445000Y-100970000D02*
X172035000Y-100970000D01*
X172035000Y-100970000D02*
X172035000Y-104030000D01*
X172035000Y-104030000D02*
X161445000Y-104030000D01*
X161445000Y-104030000D02*
X161445000Y-100970000D01*
D10*
X136510000Y-98650000D02*
X136760000Y-98400000D01*
X134750000Y-98900000D02*
X134750000Y-95675000D01*
X140370000Y-96150000D02*
X140620000Y-95900000D01*
X141110000Y-95680000D02*
X133510000Y-95675000D01*
X139835000Y-98900000D02*
X139830000Y-95700000D01*
X157464285Y-105375000D02*
X157392857Y-105339285D01*
X157285714Y-105339285D01*
X157178571Y-105375000D01*
X157107142Y-105446428D01*
X157071428Y-105517857D01*
X157035714Y-105660714D01*
X157035714Y-105767857D01*
X157071428Y-105910714D01*
X157107142Y-105982142D01*
X157178571Y-106053571D01*
X157285714Y-106089285D01*
X157357142Y-106089285D01*
X157464285Y-106053571D01*
X157500000Y-106017857D01*
X157500000Y-105767857D01*
X157357142Y-105767857D01*
X157821428Y-106089285D02*
X157821428Y-105339285D01*
X158107142Y-105339285D01*
X158178571Y-105375000D01*
X158214285Y-105410714D01*
X158250000Y-105482142D01*
X158250000Y-105589285D01*
X158214285Y-105660714D01*
X158178571Y-105696428D01*
X158107142Y-105732142D01*
X157821428Y-105732142D01*
X158607142Y-106089285D02*
X158750000Y-106089285D01*
X158821428Y-106053571D01*
X158857142Y-106017857D01*
X158928571Y-105910714D01*
X158964285Y-105767857D01*
X158964285Y-105482142D01*
X158928571Y-105410714D01*
X158892857Y-105375000D01*
X158821428Y-105339285D01*
X158678571Y-105339285D01*
X158607142Y-105375000D01*
X158571428Y-105410714D01*
X158535714Y-105482142D01*
X158535714Y-105660714D01*
X158571428Y-105732142D01*
X158607142Y-105767857D01*
X158678571Y-105803571D01*
X158821428Y-105803571D01*
X158892857Y-105767857D01*
X158928571Y-105732142D01*
X158964285Y-105660714D01*
X156157142Y-98289285D02*
X156300000Y-98289285D01*
X156371428Y-98325000D01*
X156442857Y-98396428D01*
X156478571Y-98539285D01*
X156478571Y-98789285D01*
X156442857Y-98932142D01*
X156371428Y-99003571D01*
X156300000Y-99039285D01*
X156157142Y-99039285D01*
X156085714Y-99003571D01*
X156014285Y-98932142D01*
X155978571Y-98789285D01*
X155978571Y-98539285D01*
X156014285Y-98396428D01*
X156085714Y-98325000D01*
X156157142Y-98289285D01*
X156800000Y-99039285D02*
X156800000Y-98539285D01*
X156800000Y-98682142D02*
X156835714Y-98610714D01*
X156871428Y-98575000D01*
X156942857Y-98539285D01*
X157014285Y-98539285D01*
X157585714Y-99039285D02*
X157585714Y-98646428D01*
X157550000Y-98575000D01*
X157478571Y-98539285D01*
X157335714Y-98539285D01*
X157264285Y-98575000D01*
X157585714Y-99003571D02*
X157514285Y-99039285D01*
X157335714Y-99039285D01*
X157264285Y-99003571D01*
X157228571Y-98932142D01*
X157228571Y-98860714D01*
X157264285Y-98789285D01*
X157335714Y-98753571D01*
X157514285Y-98753571D01*
X157585714Y-98717857D01*
X157942857Y-98539285D02*
X157942857Y-99039285D01*
X157942857Y-98610714D02*
X157978571Y-98575000D01*
X158050000Y-98539285D01*
X158157142Y-98539285D01*
X158228571Y-98575000D01*
X158264285Y-98646428D01*
X158264285Y-99039285D01*
X158942857Y-98539285D02*
X158942857Y-99146428D01*
X158907142Y-99217857D01*
X158871428Y-99253571D01*
X158800000Y-99289285D01*
X158692857Y-99289285D01*
X158621428Y-99253571D01*
X158942857Y-99003571D02*
X158871428Y-99039285D01*
X158728571Y-99039285D01*
X158657142Y-99003571D01*
X158621428Y-98967857D01*
X158585714Y-98896428D01*
X158585714Y-98682142D01*
X158621428Y-98610714D01*
X158657142Y-98575000D01*
X158728571Y-98539285D01*
X158871428Y-98539285D01*
X158942857Y-98575000D01*
X159585714Y-99003571D02*
X159514285Y-99039285D01*
X159371428Y-99039285D01*
X159300000Y-99003571D01*
X159264285Y-98932142D01*
X159264285Y-98646428D01*
X159300000Y-98575000D01*
X159371428Y-98539285D01*
X159514285Y-98539285D01*
X159585714Y-98575000D01*
X159621428Y-98646428D01*
X159621428Y-98717857D01*
X159264285Y-98789285D01*
D11*
X147107142Y-112037857D02*
X147071428Y-112073571D01*
X146964285Y-112109285D01*
X146892857Y-112109285D01*
X146785714Y-112073571D01*
X146714285Y-112002142D01*
X146678571Y-111930714D01*
X146642857Y-111787857D01*
X146642857Y-111680714D01*
X146678571Y-111537857D01*
X146714285Y-111466428D01*
X146785714Y-111395000D01*
X146892857Y-111359285D01*
X146964285Y-111359285D01*
X147071428Y-111395000D01*
X147107142Y-111430714D01*
X147535714Y-112109285D02*
X147464285Y-112073571D01*
X147428571Y-112037857D01*
X147392857Y-111966428D01*
X147392857Y-111752142D01*
X147428571Y-111680714D01*
X147464285Y-111645000D01*
X147535714Y-111609285D01*
X147642857Y-111609285D01*
X147714285Y-111645000D01*
X147750000Y-111680714D01*
X147785714Y-111752142D01*
X147785714Y-111966428D01*
X147750000Y-112037857D01*
X147714285Y-112073571D01*
X147642857Y-112109285D01*
X147535714Y-112109285D01*
X148107142Y-112109285D02*
X148107142Y-111609285D01*
X148107142Y-111752142D02*
X148142857Y-111680714D01*
X148178571Y-111645000D01*
X148250000Y-111609285D01*
X148321428Y-111609285D01*
X148678571Y-112109285D02*
X148607142Y-112073571D01*
X148571428Y-112037857D01*
X148535714Y-111966428D01*
X148535714Y-111752142D01*
X148571428Y-111680714D01*
X148607142Y-111645000D01*
X148678571Y-111609285D01*
X148785714Y-111609285D01*
X148857142Y-111645000D01*
X148892857Y-111680714D01*
X148928571Y-111752142D01*
X148928571Y-111966428D01*
X148892857Y-112037857D01*
X148857142Y-112073571D01*
X148785714Y-112109285D01*
X148678571Y-112109285D01*
X149250000Y-111609285D02*
X149250000Y-112109285D01*
X149250000Y-111680714D02*
X149285714Y-111645000D01*
X149357142Y-111609285D01*
X149464285Y-111609285D01*
X149535714Y-111645000D01*
X149571428Y-111716428D01*
X149571428Y-112109285D01*
X150250000Y-112109285D02*
X150250000Y-111716428D01*
X150214285Y-111645000D01*
X150142857Y-111609285D01*
X150000000Y-111609285D01*
X149928571Y-111645000D01*
X150250000Y-112073571D02*
X150178571Y-112109285D01*
X150000000Y-112109285D01*
X149928571Y-112073571D01*
X149892857Y-112002142D01*
X149892857Y-111930714D01*
X149928571Y-111859285D01*
X150000000Y-111823571D01*
X150178571Y-111823571D01*
X150250000Y-111787857D01*
X151500000Y-111609285D02*
X151500000Y-112109285D01*
X151321428Y-111323571D02*
X151142857Y-111859285D01*
X151607142Y-111859285D01*
X152285714Y-111395000D02*
X152214285Y-111359285D01*
X152107142Y-111359285D01*
X152000000Y-111395000D01*
X151928571Y-111466428D01*
X151892857Y-111537857D01*
X151857142Y-111680714D01*
X151857142Y-111787857D01*
X151892857Y-111930714D01*
X151928571Y-112002142D01*
X152000000Y-112073571D01*
X152107142Y-112109285D01*
X152178571Y-112109285D01*
X152285714Y-112073571D01*
X152321428Y-112037857D01*
X152321428Y-111787857D01*
X152178571Y-111787857D01*
X152892857Y-111716428D02*
X153000000Y-111752142D01*
X153035714Y-111787857D01*
X153071428Y-111859285D01*
X153071428Y-111966428D01*
X153035714Y-112037857D01*
X153000000Y-112073571D01*
X152928571Y-112109285D01*
X152642857Y-112109285D01*
X152642857Y-111359285D01*
X152892857Y-111359285D01*
X152964285Y-111395000D01*
X153000000Y-111430714D01*
X153035714Y-111502142D01*
X153035714Y-111573571D01*
X153000000Y-111645000D01*
X152964285Y-111680714D01*
X152892857Y-111716428D01*
X152642857Y-111716428D01*
X153964285Y-112109285D02*
X153964285Y-111359285D01*
X154392857Y-112109285D01*
X154392857Y-111359285D01*
X154714285Y-111895000D02*
X155071428Y-111895000D01*
X154642857Y-112109285D02*
X154892857Y-111359285D01*
X155142857Y-112109285D01*
X155392857Y-112109285D02*
X155392857Y-111359285D01*
X155821428Y-112109285D01*
X155821428Y-111359285D01*
X156178571Y-112109285D02*
X156178571Y-111359285D01*
X156357142Y-111359285D01*
X156464285Y-111395000D01*
X156535714Y-111466428D01*
X156571428Y-111537857D01*
X156607142Y-111680714D01*
X156607142Y-111787857D01*
X156571428Y-111930714D01*
X156535714Y-112002142D01*
X156464285Y-112073571D01*
X156357142Y-112109285D01*
X156178571Y-112109285D01*
X157500000Y-111716428D02*
X157750000Y-111716428D01*
X157857142Y-112109285D02*
X157500000Y-112109285D01*
X157500000Y-111359285D01*
X157857142Y-111359285D01*
X158107142Y-112109285D02*
X158500000Y-111609285D01*
X158107142Y-111609285D02*
X158500000Y-112109285D01*
X158678571Y-111609285D02*
X158964285Y-111609285D01*
X158785714Y-111359285D02*
X158785714Y-112002142D01*
X158821428Y-112073571D01*
X158892857Y-112109285D01*
X158964285Y-112109285D01*
X159500000Y-112073571D02*
X159428571Y-112109285D01*
X159285714Y-112109285D01*
X159214285Y-112073571D01*
X159178571Y-112002142D01*
X159178571Y-111716428D01*
X159214285Y-111645000D01*
X159285714Y-111609285D01*
X159428571Y-111609285D01*
X159500000Y-111645000D01*
X159535714Y-111716428D01*
X159535714Y-111787857D01*
X159178571Y-111859285D01*
X159857142Y-111609285D02*
X159857142Y-112109285D01*
X159857142Y-111680714D02*
X159892857Y-111645000D01*
X159964285Y-111609285D01*
X160071428Y-111609285D01*
X160142857Y-111645000D01*
X160178571Y-111716428D01*
X160178571Y-112109285D01*
X160500000Y-112073571D02*
X160571428Y-112109285D01*
X160714285Y-112109285D01*
X160785714Y-112073571D01*
X160821428Y-112002142D01*
X160821428Y-111966428D01*
X160785714Y-111895000D01*
X160714285Y-111859285D01*
X160607142Y-111859285D01*
X160535714Y-111823571D01*
X160500000Y-111752142D01*
X160500000Y-111716428D01*
X160535714Y-111645000D01*
X160607142Y-111609285D01*
X160714285Y-111609285D01*
X160785714Y-111645000D01*
X161142857Y-112109285D02*
X161142857Y-111609285D01*
X161142857Y-111359285D02*
X161107142Y-111395000D01*
X161142857Y-111430714D01*
X161178571Y-111395000D01*
X161142857Y-111359285D01*
X161142857Y-111430714D01*
X161607142Y-112109285D02*
X161535714Y-112073571D01*
X161500000Y-112037857D01*
X161464285Y-111966428D01*
X161464285Y-111752142D01*
X161500000Y-111680714D01*
X161535714Y-111645000D01*
X161607142Y-111609285D01*
X161714285Y-111609285D01*
X161785714Y-111645000D01*
X161821428Y-111680714D01*
X161857142Y-111752142D01*
X161857142Y-111966428D01*
X161821428Y-112037857D01*
X161785714Y-112073571D01*
X161714285Y-112109285D01*
X161607142Y-112109285D01*
X162178571Y-111609285D02*
X162178571Y-112109285D01*
X162178571Y-111680714D02*
X162214285Y-111645000D01*
X162285714Y-111609285D01*
X162392857Y-111609285D01*
X162464285Y-111645000D01*
X162500000Y-111716428D01*
X162500000Y-112109285D01*
X163928571Y-112180714D02*
X163857142Y-112145000D01*
X163785714Y-112073571D01*
X163678571Y-111966428D01*
X163607142Y-111930714D01*
X163535714Y-111930714D01*
X163571428Y-112109285D02*
X163500000Y-112073571D01*
X163428571Y-112002142D01*
X163392857Y-111859285D01*
X163392857Y-111609285D01*
X163428571Y-111466428D01*
X163500000Y-111395000D01*
X163571428Y-111359285D01*
X163714285Y-111359285D01*
X163785714Y-111395000D01*
X163857142Y-111466428D01*
X163892857Y-111609285D01*
X163892857Y-111859285D01*
X163857142Y-112002142D01*
X163785714Y-112073571D01*
X163714285Y-112109285D01*
X163571428Y-112109285D01*
X164178571Y-112073571D02*
X164285714Y-112109285D01*
X164464285Y-112109285D01*
X164535714Y-112073571D01*
X164571428Y-112037857D01*
X164607142Y-111966428D01*
X164607142Y-111895000D01*
X164571428Y-111823571D01*
X164535714Y-111787857D01*
X164464285Y-111752142D01*
X164321428Y-111716428D01*
X164250000Y-111680714D01*
X164214285Y-111645000D01*
X164178571Y-111573571D01*
X164178571Y-111502142D01*
X164214285Y-111430714D01*
X164250000Y-111395000D01*
X164321428Y-111359285D01*
X164500000Y-111359285D01*
X164607142Y-111395000D01*
X165178571Y-111716428D02*
X165285714Y-111752142D01*
X165321428Y-111787857D01*
X165357142Y-111859285D01*
X165357142Y-111966428D01*
X165321428Y-112037857D01*
X165285714Y-112073571D01*
X165214285Y-112109285D01*
X164928571Y-112109285D01*
X164928571Y-111359285D01*
X165178571Y-111359285D01*
X165250000Y-111395000D01*
X165285714Y-111430714D01*
X165321428Y-111502142D01*
X165321428Y-111573571D01*
X165285714Y-111645000D01*
X165250000Y-111680714D01*
X165178571Y-111716428D01*
X164928571Y-111716428D01*
D10*
X162162857Y-102989285D02*
X162162857Y-103525000D01*
X162127142Y-103632142D01*
X162055714Y-103703571D01*
X161948571Y-103739285D01*
X161877142Y-103739285D01*
X162484285Y-103060714D02*
X162520000Y-103025000D01*
X162591428Y-102989285D01*
X162770000Y-102989285D01*
X162841428Y-103025000D01*
X162877142Y-103060714D01*
X162912857Y-103132142D01*
X162912857Y-103203571D01*
X162877142Y-103310714D01*
X162448571Y-103739285D01*
X162912857Y-103739285D01*
X163662857Y-103667857D02*
X163627142Y-103703571D01*
X163520000Y-103739285D01*
X163448571Y-103739285D01*
X163341428Y-103703571D01*
X163270000Y-103632142D01*
X163234285Y-103560714D01*
X163198571Y-103417857D01*
X163198571Y-103310714D01*
X163234285Y-103167857D01*
X163270000Y-103096428D01*
X163341428Y-103025000D01*
X163448571Y-102989285D01*
X163520000Y-102989285D01*
X163627142Y-103025000D01*
X163662857Y-103060714D01*
X163912857Y-102989285D02*
X164377142Y-102989285D01*
X164127142Y-103275000D01*
X164234285Y-103275000D01*
X164305714Y-103310714D01*
X164341428Y-103346428D01*
X164377142Y-103417857D01*
X164377142Y-103596428D01*
X164341428Y-103667857D01*
X164305714Y-103703571D01*
X164234285Y-103739285D01*
X164020000Y-103739285D01*
X163948571Y-103703571D01*
X163912857Y-103667857D01*
X164698571Y-103453571D02*
X165270000Y-103453571D01*
X165627142Y-103739285D02*
X165627142Y-102989285D01*
X165912857Y-102989285D01*
X165984285Y-103025000D01*
X166020000Y-103060714D01*
X166055714Y-103132142D01*
X166055714Y-103239285D01*
X166020000Y-103310714D01*
X165984285Y-103346428D01*
X165912857Y-103382142D01*
X165627142Y-103382142D01*
X166377142Y-103739285D02*
X166377142Y-103239285D01*
X166377142Y-102989285D02*
X166341428Y-103025000D01*
X166377142Y-103060714D01*
X166412857Y-103025000D01*
X166377142Y-102989285D01*
X166377142Y-103060714D01*
X166734285Y-103239285D02*
X166734285Y-103739285D01*
X166734285Y-103310714D02*
X166770000Y-103275000D01*
X166841428Y-103239285D01*
X166948571Y-103239285D01*
X167020000Y-103275000D01*
X167055714Y-103346428D01*
X167055714Y-103739285D01*
X168341428Y-102989285D02*
X167984285Y-102989285D01*
X167948571Y-103346428D01*
X167984285Y-103310714D01*
X168055714Y-103275000D01*
X168234285Y-103275000D01*
X168305714Y-103310714D01*
X168341428Y-103346428D01*
X168377142Y-103417857D01*
X168377142Y-103596428D01*
X168341428Y-103667857D01*
X168305714Y-103703571D01*
X168234285Y-103739285D01*
X168055714Y-103739285D01*
X167984285Y-103703571D01*
X167948571Y-103667857D01*
X156553571Y-110282142D02*
X156553571Y-110639285D01*
X156303571Y-109889285D02*
X156553571Y-110282142D01*
X156803571Y-109889285D01*
X157339285Y-110603571D02*
X157267857Y-110639285D01*
X157125000Y-110639285D01*
X157053571Y-110603571D01*
X157017857Y-110532142D01*
X157017857Y-110246428D01*
X157053571Y-110175000D01*
X157125000Y-110139285D01*
X157267857Y-110139285D01*
X157339285Y-110175000D01*
X157375000Y-110246428D01*
X157375000Y-110317857D01*
X157017857Y-110389285D01*
X157803571Y-110639285D02*
X157732142Y-110603571D01*
X157696428Y-110532142D01*
X157696428Y-109889285D01*
X158196428Y-110639285D02*
X158125000Y-110603571D01*
X158089285Y-110532142D01*
X158089285Y-109889285D01*
X158589285Y-110639285D02*
X158517857Y-110603571D01*
X158482142Y-110567857D01*
X158446428Y-110496428D01*
X158446428Y-110282142D01*
X158482142Y-110210714D01*
X158517857Y-110175000D01*
X158589285Y-110139285D01*
X158696428Y-110139285D01*
X158767857Y-110175000D01*
X158803571Y-110210714D01*
X158839285Y-110282142D01*
X158839285Y-110496428D01*
X158803571Y-110567857D01*
X158767857Y-110603571D01*
X158696428Y-110639285D01*
X158589285Y-110639285D01*
X159089285Y-110139285D02*
X159232142Y-110639285D01*
X159375000Y-110282142D01*
X159517857Y-110639285D01*
X159660714Y-110139285D01*
X166774285Y-109575000D02*
X166702857Y-109539285D01*
X166595714Y-109539285D01*
X166488571Y-109575000D01*
X166417142Y-109646428D01*
X166381428Y-109717857D01*
X166345714Y-109860714D01*
X166345714Y-109967857D01*
X166381428Y-110110714D01*
X166417142Y-110182142D01*
X166488571Y-110253571D01*
X166595714Y-110289285D01*
X166667142Y-110289285D01*
X166774285Y-110253571D01*
X166810000Y-110217857D01*
X166810000Y-109967857D01*
X166667142Y-109967857D01*
X167131428Y-110289285D02*
X167131428Y-109539285D01*
X167417142Y-109539285D01*
X167488571Y-109575000D01*
X167524285Y-109610714D01*
X167560000Y-109682142D01*
X167560000Y-109789285D01*
X167524285Y-109860714D01*
X167488571Y-109896428D01*
X167417142Y-109932142D01*
X167131428Y-109932142D01*
X167845714Y-109610714D02*
X167881428Y-109575000D01*
X167952857Y-109539285D01*
X168131428Y-109539285D01*
X168202857Y-109575000D01*
X168238571Y-109610714D01*
X168274285Y-109682142D01*
X168274285Y-109753571D01*
X168238571Y-109860714D01*
X167810000Y-110289285D01*
X168274285Y-110289285D01*
X168988571Y-110289285D02*
X168560000Y-110289285D01*
X168774285Y-110289285D02*
X168774285Y-109539285D01*
X168702857Y-109646428D01*
X168631428Y-109717857D01*
X168560000Y-109753571D01*
X169845714Y-109503571D02*
X169202857Y-110467857D01*
D12*
X146511904Y-110976190D02*
X146511904Y-110476190D01*
X146702380Y-110476190D01*
X146750000Y-110500000D01*
X146773809Y-110523809D01*
X146797619Y-110571428D01*
X146797619Y-110642857D01*
X146773809Y-110690476D01*
X146750000Y-110714285D01*
X146702380Y-110738095D01*
X146511904Y-110738095D01*
X147011904Y-110976190D02*
X147011904Y-110476190D01*
X147535714Y-110928571D02*
X147511904Y-110952380D01*
X147440476Y-110976190D01*
X147392857Y-110976190D01*
X147321428Y-110952380D01*
X147273809Y-110904761D01*
X147250000Y-110857142D01*
X147226190Y-110761904D01*
X147226190Y-110690476D01*
X147250000Y-110595238D01*
X147273809Y-110547619D01*
X147321428Y-110500000D01*
X147392857Y-110476190D01*
X147440476Y-110476190D01*
X147511904Y-110500000D01*
X147535714Y-110523809D01*
X147845238Y-110476190D02*
X147940476Y-110476190D01*
X147988095Y-110500000D01*
X148035714Y-110547619D01*
X148059523Y-110642857D01*
X148059523Y-110809523D01*
X148035714Y-110904761D01*
X147988095Y-110952380D01*
X147940476Y-110976190D01*
X147845238Y-110976190D01*
X147797619Y-110952380D01*
X147750000Y-110904761D01*
X147726190Y-110809523D01*
X147726190Y-110642857D01*
X147750000Y-110547619D01*
X147797619Y-110500000D01*
X147845238Y-110476190D01*
X148654761Y-110714285D02*
X148821428Y-110714285D01*
X148892857Y-110976190D02*
X148654761Y-110976190D01*
X148654761Y-110476190D01*
X148892857Y-110476190D01*
X149321428Y-110976190D02*
X149321428Y-110476190D01*
X149321428Y-110952380D02*
X149273809Y-110976190D01*
X149178571Y-110976190D01*
X149130952Y-110952380D01*
X149107142Y-110928571D01*
X149083333Y-110880952D01*
X149083333Y-110738095D01*
X149107142Y-110690476D01*
X149130952Y-110666666D01*
X149178571Y-110642857D01*
X149273809Y-110642857D01*
X149321428Y-110666666D01*
X149559523Y-110976190D02*
X149559523Y-110642857D01*
X149559523Y-110476190D02*
X149535714Y-110500000D01*
X149559523Y-110523809D01*
X149583333Y-110500000D01*
X149559523Y-110476190D01*
X149559523Y-110523809D01*
X149726190Y-110642857D02*
X149916666Y-110642857D01*
X149797619Y-110476190D02*
X149797619Y-110904761D01*
X149821428Y-110952380D01*
X149869047Y-110976190D01*
X149916666Y-110976190D01*
X150083333Y-110976190D02*
X150083333Y-110642857D01*
X150083333Y-110476190D02*
X150059523Y-110500000D01*
X150083333Y-110523809D01*
X150107142Y-110500000D01*
X150083333Y-110476190D01*
X150083333Y-110523809D01*
X150392857Y-110976190D02*
X150345238Y-110952380D01*
X150321428Y-110928571D01*
X150297619Y-110880952D01*
X150297619Y-110738095D01*
X150321428Y-110690476D01*
X150345238Y-110666666D01*
X150392857Y-110642857D01*
X150464285Y-110642857D01*
X150511904Y-110666666D01*
X150535714Y-110690476D01*
X150559523Y-110738095D01*
X150559523Y-110880952D01*
X150535714Y-110928571D01*
X150511904Y-110952380D01*
X150464285Y-110976190D01*
X150392857Y-110976190D01*
X150773809Y-110642857D02*
X150773809Y-110976190D01*
X150773809Y-110690476D02*
X150797619Y-110666666D01*
X150845238Y-110642857D01*
X150916666Y-110642857D01*
X150964285Y-110666666D01*
X150988095Y-110714285D01*
X150988095Y-110976190D01*
D10*
X182925714Y-101658035D02*
X182925714Y-100908035D01*
X183104285Y-100908035D01*
X183211428Y-100943750D01*
X183282857Y-101015178D01*
X183318571Y-101086607D01*
X183354285Y-101229464D01*
X183354285Y-101336607D01*
X183318571Y-101479464D01*
X183282857Y-101550892D01*
X183211428Y-101622321D01*
X183104285Y-101658035D01*
X182925714Y-101658035D01*
X183782857Y-101658035D02*
X183711428Y-101622321D01*
X183675714Y-101586607D01*
X183640000Y-101515178D01*
X183640000Y-101300892D01*
X183675714Y-101229464D01*
X183711428Y-101193750D01*
X183782857Y-101158035D01*
X183890000Y-101158035D01*
X183961428Y-101193750D01*
X183997142Y-101229464D01*
X184032857Y-101300892D01*
X184032857Y-101515178D01*
X183997142Y-101586607D01*
X183961428Y-101622321D01*
X183890000Y-101658035D01*
X183782857Y-101658035D01*
X184925714Y-101158035D02*
X184925714Y-101658035D01*
X184925714Y-101229464D02*
X184961428Y-101193750D01*
X185032857Y-101158035D01*
X185140000Y-101158035D01*
X185211428Y-101193750D01*
X185247142Y-101265178D01*
X185247142Y-101658035D01*
X185711428Y-101658035D02*
X185640000Y-101622321D01*
X185604285Y-101586607D01*
X185568571Y-101515178D01*
X185568571Y-101300892D01*
X185604285Y-101229464D01*
X185640000Y-101193750D01*
X185711428Y-101158035D01*
X185818571Y-101158035D01*
X185890000Y-101193750D01*
X185925714Y-101229464D01*
X185961428Y-101300892D01*
X185961428Y-101515178D01*
X185925714Y-101586607D01*
X185890000Y-101622321D01*
X185818571Y-101658035D01*
X185711428Y-101658035D01*
X186175714Y-101158035D02*
X186461428Y-101158035D01*
X186282857Y-100908035D02*
X186282857Y-101550892D01*
X186318571Y-101622321D01*
X186390000Y-101658035D01*
X186461428Y-101658035D01*
X187604285Y-101158035D02*
X187604285Y-101765178D01*
X187568571Y-101836607D01*
X187532857Y-101872321D01*
X187461428Y-101908035D01*
X187354285Y-101908035D01*
X187282857Y-101872321D01*
X187604285Y-101622321D02*
X187532857Y-101658035D01*
X187390000Y-101658035D01*
X187318571Y-101622321D01*
X187282857Y-101586607D01*
X187247142Y-101515178D01*
X187247142Y-101300892D01*
X187282857Y-101229464D01*
X187318571Y-101193750D01*
X187390000Y-101158035D01*
X187532857Y-101158035D01*
X187604285Y-101193750D01*
X187961428Y-101658035D02*
X187961428Y-101158035D01*
X187961428Y-101300892D02*
X187997142Y-101229464D01*
X188032857Y-101193750D01*
X188104285Y-101158035D01*
X188175714Y-101158035D01*
X188532857Y-101658035D02*
X188461428Y-101622321D01*
X188425714Y-101586607D01*
X188390000Y-101515178D01*
X188390000Y-101300892D01*
X188425714Y-101229464D01*
X188461428Y-101193750D01*
X188532857Y-101158035D01*
X188640000Y-101158035D01*
X188711428Y-101193750D01*
X188747142Y-101229464D01*
X188782857Y-101300892D01*
X188782857Y-101515178D01*
X188747142Y-101586607D01*
X188711428Y-101622321D01*
X188640000Y-101658035D01*
X188532857Y-101658035D01*
X189425714Y-101158035D02*
X189425714Y-101658035D01*
X189104285Y-101158035D02*
X189104285Y-101550892D01*
X189140000Y-101622321D01*
X189211428Y-101658035D01*
X189318571Y-101658035D01*
X189390000Y-101622321D01*
X189425714Y-101586607D01*
X189782857Y-101158035D02*
X189782857Y-101658035D01*
X189782857Y-101229464D02*
X189818571Y-101193750D01*
X189890000Y-101158035D01*
X189997142Y-101158035D01*
X190068571Y-101193750D01*
X190104285Y-101265178D01*
X190104285Y-101658035D01*
X190782857Y-101658035D02*
X190782857Y-100908035D01*
X190782857Y-101622321D02*
X190711428Y-101658035D01*
X190568571Y-101658035D01*
X190497142Y-101622321D01*
X190461428Y-101586607D01*
X190425714Y-101515178D01*
X190425714Y-101300892D01*
X190461428Y-101229464D01*
X190497142Y-101193750D01*
X190568571Y-101158035D01*
X190711428Y-101158035D01*
X190782857Y-101193750D01*
X183068571Y-102365535D02*
X183354285Y-102365535D01*
X183175714Y-102115535D02*
X183175714Y-102758392D01*
X183211428Y-102829821D01*
X183282857Y-102865535D01*
X183354285Y-102865535D01*
X183604285Y-102865535D02*
X183604285Y-102115535D01*
X183925714Y-102865535D02*
X183925714Y-102472678D01*
X183890000Y-102401250D01*
X183818571Y-102365535D01*
X183711428Y-102365535D01*
X183640000Y-102401250D01*
X183604285Y-102436964D01*
X184568571Y-102829821D02*
X184497142Y-102865535D01*
X184354285Y-102865535D01*
X184282857Y-102829821D01*
X184247142Y-102758392D01*
X184247142Y-102472678D01*
X184282857Y-102401250D01*
X184354285Y-102365535D01*
X184497142Y-102365535D01*
X184568571Y-102401250D01*
X184604285Y-102472678D01*
X184604285Y-102544107D01*
X184247142Y-102615535D01*
X185425714Y-102115535D02*
X185925714Y-102865535D01*
X185925714Y-102115535D02*
X185425714Y-102865535D01*
X186211428Y-102865535D02*
X186211428Y-102115535D01*
X186211428Y-102401250D02*
X186282857Y-102365535D01*
X186425714Y-102365535D01*
X186497142Y-102401250D01*
X186532857Y-102436964D01*
X186568571Y-102508392D01*
X186568571Y-102722678D01*
X186532857Y-102794107D01*
X186497142Y-102829821D01*
X186425714Y-102865535D01*
X186282857Y-102865535D01*
X186211428Y-102829821D01*
X186997142Y-102865535D02*
X186925714Y-102829821D01*
X186890000Y-102794107D01*
X186854285Y-102722678D01*
X186854285Y-102508392D01*
X186890000Y-102436964D01*
X186925714Y-102401250D01*
X186997142Y-102365535D01*
X187104285Y-102365535D01*
X187175714Y-102401250D01*
X187211428Y-102436964D01*
X187247142Y-102508392D01*
X187247142Y-102722678D01*
X187211428Y-102794107D01*
X187175714Y-102829821D01*
X187104285Y-102865535D01*
X186997142Y-102865535D01*
X187497142Y-102865535D02*
X187890000Y-102365535D01*
X187497142Y-102365535D02*
X187890000Y-102865535D01*
X188675714Y-102115535D02*
X189140000Y-102115535D01*
X188890000Y-102401250D01*
X188997142Y-102401250D01*
X189068571Y-102436964D01*
X189104285Y-102472678D01*
X189140000Y-102544107D01*
X189140000Y-102722678D01*
X189104285Y-102794107D01*
X189068571Y-102829821D01*
X188997142Y-102865535D01*
X188782857Y-102865535D01*
X188711428Y-102829821D01*
X188675714Y-102794107D01*
X189782857Y-102115535D02*
X189640000Y-102115535D01*
X189568571Y-102151250D01*
X189532857Y-102186964D01*
X189461428Y-102294107D01*
X189425714Y-102436964D01*
X189425714Y-102722678D01*
X189461428Y-102794107D01*
X189497142Y-102829821D01*
X189568571Y-102865535D01*
X189711428Y-102865535D01*
X189782857Y-102829821D01*
X189818571Y-102794107D01*
X189854285Y-102722678D01*
X189854285Y-102544107D01*
X189818571Y-102472678D01*
X189782857Y-102436964D01*
X189711428Y-102401250D01*
X189568571Y-102401250D01*
X189497142Y-102436964D01*
X189461428Y-102472678D01*
X189425714Y-102544107D01*
X190318571Y-102115535D02*
X190390000Y-102115535D01*
X190461428Y-102151250D01*
X190497142Y-102186964D01*
X190532857Y-102258392D01*
X190568571Y-102401250D01*
X190568571Y-102579821D01*
X190532857Y-102722678D01*
X190497142Y-102794107D01*
X190461428Y-102829821D01*
X190390000Y-102865535D01*
X190318571Y-102865535D01*
X190247142Y-102829821D01*
X190211428Y-102794107D01*
X190175714Y-102722678D01*
X190140000Y-102579821D01*
X190140000Y-102401250D01*
X190175714Y-102258392D01*
X190211428Y-102186964D01*
X190247142Y-102151250D01*
X190318571Y-102115535D01*
X183050714Y-104001607D02*
X183015000Y-104037321D01*
X182907857Y-104073035D01*
X182836428Y-104073035D01*
X182729285Y-104037321D01*
X182657857Y-103965892D01*
X182622142Y-103894464D01*
X182586428Y-103751607D01*
X182586428Y-103644464D01*
X182622142Y-103501607D01*
X182657857Y-103430178D01*
X182729285Y-103358750D01*
X182836428Y-103323035D01*
X182907857Y-103323035D01*
X183015000Y-103358750D01*
X183050714Y-103394464D01*
X183372142Y-104073035D02*
X183372142Y-103573035D01*
X183372142Y-103715892D02*
X183407857Y-103644464D01*
X183443571Y-103608750D01*
X183515000Y-103573035D01*
X183586428Y-103573035D01*
X183765000Y-103573035D02*
X183943571Y-104073035D01*
X184122142Y-103573035D02*
X183943571Y-104073035D01*
X183872142Y-104251607D01*
X183836428Y-104287321D01*
X183765000Y-104323035D01*
X184372142Y-104037321D02*
X184443571Y-104073035D01*
X184586428Y-104073035D01*
X184657857Y-104037321D01*
X184693571Y-103965892D01*
X184693571Y-103930178D01*
X184657857Y-103858750D01*
X184586428Y-103823035D01*
X184479285Y-103823035D01*
X184407857Y-103787321D01*
X184372142Y-103715892D01*
X184372142Y-103680178D01*
X184407857Y-103608750D01*
X184479285Y-103573035D01*
X184586428Y-103573035D01*
X184657857Y-103608750D01*
X184907857Y-103573035D02*
X185193571Y-103573035D01*
X185015000Y-103323035D02*
X185015000Y-103965892D01*
X185050714Y-104037321D01*
X185122142Y-104073035D01*
X185193571Y-104073035D01*
X185765000Y-104073035D02*
X185765000Y-103680178D01*
X185729285Y-103608750D01*
X185657857Y-103573035D01*
X185515000Y-103573035D01*
X185443571Y-103608750D01*
X185765000Y-104037321D02*
X185693571Y-104073035D01*
X185515000Y-104073035D01*
X185443571Y-104037321D01*
X185407857Y-103965892D01*
X185407857Y-103894464D01*
X185443571Y-103823035D01*
X185515000Y-103787321D01*
X185693571Y-103787321D01*
X185765000Y-103751607D01*
X186229285Y-104073035D02*
X186157857Y-104037321D01*
X186122142Y-103965892D01*
X186122142Y-103323035D01*
X187086428Y-104073035D02*
X187086428Y-103323035D01*
X187336428Y-103573035D02*
X187622142Y-103573035D01*
X187443571Y-104073035D02*
X187443571Y-103430178D01*
X187479285Y-103358750D01*
X187550714Y-103323035D01*
X187622142Y-103323035D01*
X188765000Y-103573035D02*
X188765000Y-104073035D01*
X188443571Y-103573035D02*
X188443571Y-103965892D01*
X188479285Y-104037321D01*
X188550714Y-104073035D01*
X188657857Y-104073035D01*
X188729285Y-104037321D01*
X188765000Y-104001607D01*
X189086428Y-104037321D02*
X189157857Y-104073035D01*
X189300714Y-104073035D01*
X189372142Y-104037321D01*
X189407857Y-103965892D01*
X189407857Y-103930178D01*
X189372142Y-103858750D01*
X189300714Y-103823035D01*
X189193571Y-103823035D01*
X189122142Y-103787321D01*
X189086428Y-103715892D01*
X189086428Y-103680178D01*
X189122142Y-103608750D01*
X189193571Y-103573035D01*
X189300714Y-103573035D01*
X189372142Y-103608750D01*
X189729285Y-104073035D02*
X189729285Y-103573035D01*
X189729285Y-103323035D02*
X189693571Y-103358750D01*
X189729285Y-103394464D01*
X189765000Y-103358750D01*
X189729285Y-103323035D01*
X189729285Y-103394464D01*
X190086428Y-103573035D02*
X190086428Y-104073035D01*
X190086428Y-103644464D02*
X190122142Y-103608750D01*
X190193571Y-103573035D01*
X190300714Y-103573035D01*
X190372142Y-103608750D01*
X190407857Y-103680178D01*
X190407857Y-104073035D01*
X191086428Y-103573035D02*
X191086428Y-104180178D01*
X191050714Y-104251607D01*
X191015000Y-104287321D01*
X190943571Y-104323035D01*
X190836428Y-104323035D01*
X190765000Y-104287321D01*
X191086428Y-104037321D02*
X191015000Y-104073035D01*
X190872142Y-104073035D01*
X190800714Y-104037321D01*
X190765000Y-104001607D01*
X190729285Y-103930178D01*
X190729285Y-103715892D01*
X190765000Y-103644464D01*
X190800714Y-103608750D01*
X190872142Y-103573035D01*
X191015000Y-103573035D01*
X191086428Y-103608750D01*
X182711428Y-104530535D02*
X183140000Y-104530535D01*
X182925714Y-105280535D02*
X182925714Y-104530535D01*
X183390000Y-105280535D02*
X183390000Y-104530535D01*
X183711428Y-105280535D02*
X183711428Y-104887678D01*
X183675714Y-104816250D01*
X183604285Y-104780535D01*
X183497142Y-104780535D01*
X183425714Y-104816250D01*
X183390000Y-104851964D01*
X184354285Y-105244821D02*
X184282857Y-105280535D01*
X184140000Y-105280535D01*
X184068571Y-105244821D01*
X184032857Y-105173392D01*
X184032857Y-104887678D01*
X184068571Y-104816250D01*
X184140000Y-104780535D01*
X184282857Y-104780535D01*
X184354285Y-104816250D01*
X184390000Y-104887678D01*
X184390000Y-104959107D01*
X184032857Y-105030535D01*
X185282857Y-105280535D02*
X185282857Y-104530535D01*
X185568571Y-104530535D01*
X185640000Y-104566250D01*
X185675714Y-104601964D01*
X185711428Y-104673392D01*
X185711428Y-104780535D01*
X185675714Y-104851964D01*
X185640000Y-104887678D01*
X185568571Y-104923392D01*
X185282857Y-104923392D01*
X186032857Y-105280535D02*
X186032857Y-104780535D01*
X186032857Y-104530535D02*
X185997142Y-104566250D01*
X186032857Y-104601964D01*
X186068571Y-104566250D01*
X186032857Y-104530535D01*
X186032857Y-104601964D01*
X186711428Y-105244821D02*
X186640000Y-105280535D01*
X186497142Y-105280535D01*
X186425714Y-105244821D01*
X186390000Y-105209107D01*
X186354285Y-105137678D01*
X186354285Y-104923392D01*
X186390000Y-104851964D01*
X186425714Y-104816250D01*
X186497142Y-104780535D01*
X186640000Y-104780535D01*
X186711428Y-104816250D01*
X187140000Y-105280535D02*
X187068571Y-105244821D01*
X187032857Y-105209107D01*
X186997142Y-105137678D01*
X186997142Y-104923392D01*
X187032857Y-104851964D01*
X187068571Y-104816250D01*
X187140000Y-104780535D01*
X187247142Y-104780535D01*
X187318571Y-104816250D01*
X187354285Y-104851964D01*
X187390000Y-104923392D01*
X187390000Y-105137678D01*
X187354285Y-105209107D01*
X187318571Y-105244821D01*
X187247142Y-105280535D01*
X187140000Y-105280535D01*
X187961428Y-104887678D02*
X187711428Y-104887678D01*
X187711428Y-105280535D02*
X187711428Y-104530535D01*
X188068571Y-104530535D01*
X188461428Y-105280535D02*
X188390000Y-105244821D01*
X188354285Y-105173392D01*
X188354285Y-104530535D01*
X189068571Y-105280535D02*
X189068571Y-104887678D01*
X189032857Y-104816250D01*
X188961428Y-104780535D01*
X188818571Y-104780535D01*
X188747142Y-104816250D01*
X189068571Y-105244821D02*
X188997142Y-105280535D01*
X188818571Y-105280535D01*
X188747142Y-105244821D01*
X188711428Y-105173392D01*
X188711428Y-105101964D01*
X188747142Y-105030535D01*
X188818571Y-104994821D01*
X188997142Y-104994821D01*
X189068571Y-104959107D01*
X189390000Y-105244821D02*
X189461428Y-105280535D01*
X189604285Y-105280535D01*
X189675714Y-105244821D01*
X189711428Y-105173392D01*
X189711428Y-105137678D01*
X189675714Y-105066250D01*
X189604285Y-105030535D01*
X189497142Y-105030535D01*
X189425714Y-104994821D01*
X189390000Y-104923392D01*
X189390000Y-104887678D01*
X189425714Y-104816250D01*
X189497142Y-104780535D01*
X189604285Y-104780535D01*
X189675714Y-104816250D01*
X190032857Y-105280535D02*
X190032857Y-104530535D01*
X190354285Y-105280535D02*
X190354285Y-104887678D01*
X190318571Y-104816250D01*
X190247142Y-104780535D01*
X190140000Y-104780535D01*
X190068571Y-104816250D01*
X190032857Y-104851964D01*
X190997142Y-105244821D02*
X190925714Y-105280535D01*
X190782857Y-105280535D01*
X190711428Y-105244821D01*
X190675714Y-105173392D01*
X190675714Y-104887678D01*
X190711428Y-104816250D01*
X190782857Y-104780535D01*
X190925714Y-104780535D01*
X190997142Y-104816250D01*
X191032857Y-104887678D01*
X191032857Y-104959107D01*
X190675714Y-105030535D01*
X191354285Y-105280535D02*
X191354285Y-104780535D01*
X191354285Y-104923392D02*
X191390000Y-104851964D01*
X191425714Y-104816250D01*
X191497142Y-104780535D01*
X191568571Y-104780535D01*
X162374285Y-105375000D02*
X162302857Y-105339285D01*
X162195714Y-105339285D01*
X162088571Y-105375000D01*
X162017142Y-105446428D01*
X161981428Y-105517857D01*
X161945714Y-105660714D01*
X161945714Y-105767857D01*
X161981428Y-105910714D01*
X162017142Y-105982142D01*
X162088571Y-106053571D01*
X162195714Y-106089285D01*
X162267142Y-106089285D01*
X162374285Y-106053571D01*
X162410000Y-106017857D01*
X162410000Y-105767857D01*
X162267142Y-105767857D01*
X162731428Y-106089285D02*
X162731428Y-105339285D01*
X163017142Y-105339285D01*
X163088571Y-105375000D01*
X163124285Y-105410714D01*
X163160000Y-105482142D01*
X163160000Y-105589285D01*
X163124285Y-105660714D01*
X163088571Y-105696428D01*
X163017142Y-105732142D01*
X162731428Y-105732142D01*
X163802857Y-105339285D02*
X163660000Y-105339285D01*
X163588571Y-105375000D01*
X163552857Y-105410714D01*
X163481428Y-105517857D01*
X163445714Y-105660714D01*
X163445714Y-105946428D01*
X163481428Y-106017857D01*
X163517142Y-106053571D01*
X163588571Y-106089285D01*
X163731428Y-106089285D01*
X163802857Y-106053571D01*
X163838571Y-106017857D01*
X163874285Y-105946428D01*
X163874285Y-105767857D01*
X163838571Y-105696428D01*
X163802857Y-105660714D01*
X163731428Y-105625000D01*
X163588571Y-105625000D01*
X163517142Y-105660714D01*
X163481428Y-105696428D01*
X163445714Y-105767857D01*
D12*
X161687857Y-101353690D02*
X161973571Y-101353690D01*
X161830714Y-101853690D02*
X161830714Y-101353690D01*
X162140238Y-101853690D02*
X162140238Y-101353690D01*
X162354523Y-101853690D02*
X162354523Y-101591785D01*
X162330714Y-101544166D01*
X162283095Y-101520357D01*
X162211666Y-101520357D01*
X162164047Y-101544166D01*
X162140238Y-101567976D01*
X162592619Y-101853690D02*
X162592619Y-101520357D01*
X162592619Y-101353690D02*
X162568809Y-101377500D01*
X162592619Y-101401309D01*
X162616428Y-101377500D01*
X162592619Y-101353690D01*
X162592619Y-101401309D01*
X162806904Y-101829880D02*
X162854523Y-101853690D01*
X162949761Y-101853690D01*
X162997380Y-101829880D01*
X163021190Y-101782261D01*
X163021190Y-101758452D01*
X162997380Y-101710833D01*
X162949761Y-101687023D01*
X162878333Y-101687023D01*
X162830714Y-101663214D01*
X162806904Y-101615595D01*
X162806904Y-101591785D01*
X162830714Y-101544166D01*
X162878333Y-101520357D01*
X162949761Y-101520357D01*
X162997380Y-101544166D01*
X163616428Y-101520357D02*
X163616428Y-102020357D01*
X163616428Y-101544166D02*
X163664047Y-101520357D01*
X163759285Y-101520357D01*
X163806904Y-101544166D01*
X163830714Y-101567976D01*
X163854523Y-101615595D01*
X163854523Y-101758452D01*
X163830714Y-101806071D01*
X163806904Y-101829880D01*
X163759285Y-101853690D01*
X163664047Y-101853690D01*
X163616428Y-101829880D01*
X164283095Y-101853690D02*
X164283095Y-101591785D01*
X164259285Y-101544166D01*
X164211666Y-101520357D01*
X164116428Y-101520357D01*
X164068809Y-101544166D01*
X164283095Y-101829880D02*
X164235476Y-101853690D01*
X164116428Y-101853690D01*
X164068809Y-101829880D01*
X164045000Y-101782261D01*
X164045000Y-101734642D01*
X164068809Y-101687023D01*
X164116428Y-101663214D01*
X164235476Y-101663214D01*
X164283095Y-101639404D01*
X164735476Y-101853690D02*
X164735476Y-101353690D01*
X164735476Y-101829880D02*
X164687857Y-101853690D01*
X164592619Y-101853690D01*
X164545000Y-101829880D01*
X164521190Y-101806071D01*
X164497380Y-101758452D01*
X164497380Y-101615595D01*
X164521190Y-101567976D01*
X164545000Y-101544166D01*
X164592619Y-101520357D01*
X164687857Y-101520357D01*
X164735476Y-101544166D01*
X165568809Y-101829880D02*
X165521190Y-101853690D01*
X165425952Y-101853690D01*
X165378333Y-101829880D01*
X165354523Y-101806071D01*
X165330714Y-101758452D01*
X165330714Y-101615595D01*
X165354523Y-101567976D01*
X165378333Y-101544166D01*
X165425952Y-101520357D01*
X165521190Y-101520357D01*
X165568809Y-101544166D01*
X165854523Y-101853690D02*
X165806904Y-101829880D01*
X165783095Y-101806071D01*
X165759285Y-101758452D01*
X165759285Y-101615595D01*
X165783095Y-101567976D01*
X165806904Y-101544166D01*
X165854523Y-101520357D01*
X165925952Y-101520357D01*
X165973571Y-101544166D01*
X165997380Y-101567976D01*
X166021190Y-101615595D01*
X166021190Y-101758452D01*
X165997380Y-101806071D01*
X165973571Y-101829880D01*
X165925952Y-101853690D01*
X165854523Y-101853690D01*
X166235476Y-101520357D02*
X166235476Y-101853690D01*
X166235476Y-101567976D02*
X166259285Y-101544166D01*
X166306904Y-101520357D01*
X166378333Y-101520357D01*
X166425952Y-101544166D01*
X166449761Y-101591785D01*
X166449761Y-101853690D01*
X166687857Y-101520357D02*
X166687857Y-101853690D01*
X166687857Y-101567976D02*
X166711666Y-101544166D01*
X166759285Y-101520357D01*
X166830714Y-101520357D01*
X166878333Y-101544166D01*
X166902142Y-101591785D01*
X166902142Y-101853690D01*
X167330714Y-101829880D02*
X167283095Y-101853690D01*
X167187857Y-101853690D01*
X167140238Y-101829880D01*
X167116428Y-101782261D01*
X167116428Y-101591785D01*
X167140238Y-101544166D01*
X167187857Y-101520357D01*
X167283095Y-101520357D01*
X167330714Y-101544166D01*
X167354523Y-101591785D01*
X167354523Y-101639404D01*
X167116428Y-101687023D01*
X167783095Y-101829880D02*
X167735476Y-101853690D01*
X167640238Y-101853690D01*
X167592619Y-101829880D01*
X167568809Y-101806071D01*
X167545000Y-101758452D01*
X167545000Y-101615595D01*
X167568809Y-101567976D01*
X167592619Y-101544166D01*
X167640238Y-101520357D01*
X167735476Y-101520357D01*
X167783095Y-101544166D01*
X167925952Y-101520357D02*
X168116428Y-101520357D01*
X167997380Y-101353690D02*
X167997380Y-101782261D01*
X168021190Y-101829880D01*
X168068809Y-101853690D01*
X168116428Y-101853690D01*
X168259285Y-101829880D02*
X168306904Y-101853690D01*
X168402142Y-101853690D01*
X168449761Y-101829880D01*
X168473571Y-101782261D01*
X168473571Y-101758452D01*
X168449761Y-101710833D01*
X168402142Y-101687023D01*
X168330714Y-101687023D01*
X168283095Y-101663214D01*
X168259285Y-101615595D01*
X168259285Y-101591785D01*
X168283095Y-101544166D01*
X168330714Y-101520357D01*
X168402142Y-101520357D01*
X168449761Y-101544166D01*
X162985476Y-102325357D02*
X163175952Y-102325357D01*
X163056904Y-102158690D02*
X163056904Y-102587261D01*
X163080714Y-102634880D01*
X163128333Y-102658690D01*
X163175952Y-102658690D01*
X163414047Y-102658690D02*
X163366428Y-102634880D01*
X163342619Y-102611071D01*
X163318809Y-102563452D01*
X163318809Y-102420595D01*
X163342619Y-102372976D01*
X163366428Y-102349166D01*
X163414047Y-102325357D01*
X163485476Y-102325357D01*
X163533095Y-102349166D01*
X163556904Y-102372976D01*
X163580714Y-102420595D01*
X163580714Y-102563452D01*
X163556904Y-102611071D01*
X163533095Y-102634880D01*
X163485476Y-102658690D01*
X163414047Y-102658690D01*
X164128333Y-102158690D02*
X164461666Y-102658690D01*
X164461666Y-102158690D02*
X164128333Y-102658690D01*
X164652142Y-102658690D02*
X164652142Y-102158690D01*
X164652142Y-102349166D02*
X164699761Y-102325357D01*
X164795000Y-102325357D01*
X164842619Y-102349166D01*
X164866428Y-102372976D01*
X164890238Y-102420595D01*
X164890238Y-102563452D01*
X164866428Y-102611071D01*
X164842619Y-102634880D01*
X164795000Y-102658690D01*
X164699761Y-102658690D01*
X164652142Y-102634880D01*
X165175952Y-102658690D02*
X165128333Y-102634880D01*
X165104523Y-102611071D01*
X165080714Y-102563452D01*
X165080714Y-102420595D01*
X165104523Y-102372976D01*
X165128333Y-102349166D01*
X165175952Y-102325357D01*
X165247380Y-102325357D01*
X165295000Y-102349166D01*
X165318809Y-102372976D01*
X165342619Y-102420595D01*
X165342619Y-102563452D01*
X165318809Y-102611071D01*
X165295000Y-102634880D01*
X165247380Y-102658690D01*
X165175952Y-102658690D01*
X165509285Y-102658690D02*
X165771190Y-102325357D01*
X165509285Y-102325357D02*
X165771190Y-102658690D01*
X166295000Y-102158690D02*
X166604523Y-102158690D01*
X166437857Y-102349166D01*
X166509285Y-102349166D01*
X166556904Y-102372976D01*
X166580714Y-102396785D01*
X166604523Y-102444404D01*
X166604523Y-102563452D01*
X166580714Y-102611071D01*
X166556904Y-102634880D01*
X166509285Y-102658690D01*
X166366428Y-102658690D01*
X166318809Y-102634880D01*
X166295000Y-102611071D01*
X167033095Y-102158690D02*
X166937857Y-102158690D01*
X166890238Y-102182500D01*
X166866428Y-102206309D01*
X166818809Y-102277738D01*
X166795000Y-102372976D01*
X166795000Y-102563452D01*
X166818809Y-102611071D01*
X166842619Y-102634880D01*
X166890238Y-102658690D01*
X166985476Y-102658690D01*
X167033095Y-102634880D01*
X167056904Y-102611071D01*
X167080714Y-102563452D01*
X167080714Y-102444404D01*
X167056904Y-102396785D01*
X167033095Y-102372976D01*
X166985476Y-102349166D01*
X166890238Y-102349166D01*
X166842619Y-102372976D01*
X166818809Y-102396785D01*
X166795000Y-102444404D01*
X167390238Y-102158690D02*
X167437857Y-102158690D01*
X167485476Y-102182500D01*
X167509285Y-102206309D01*
X167533095Y-102253928D01*
X167556904Y-102349166D01*
X167556904Y-102468214D01*
X167533095Y-102563452D01*
X167509285Y-102611071D01*
X167485476Y-102634880D01*
X167437857Y-102658690D01*
X167390238Y-102658690D01*
X167342619Y-102634880D01*
X167318809Y-102611071D01*
X167295000Y-102563452D01*
X167271190Y-102468214D01*
X167271190Y-102349166D01*
X167295000Y-102253928D01*
X167318809Y-102206309D01*
X167342619Y-102182500D01*
X167390238Y-102158690D01*
D13*
X129833690Y-97359523D02*
X129833690Y-97645238D01*
X129833690Y-97502380D02*
X129333690Y-97502380D01*
X129405119Y-97550000D01*
X129452738Y-97597619D01*
X129476547Y-97645238D01*
X129833690Y-97145238D02*
X129333690Y-97145238D01*
X129643214Y-97097619D02*
X129833690Y-96954761D01*
X129500357Y-96954761D02*
X129690833Y-97145238D01*
X130638690Y-98407142D02*
X130400595Y-98573809D01*
X130638690Y-98692857D02*
X130138690Y-98692857D01*
X130138690Y-98502380D01*
X130162500Y-98454761D01*
X130186309Y-98430952D01*
X130233928Y-98407142D01*
X130305357Y-98407142D01*
X130352976Y-98430952D01*
X130376785Y-98454761D01*
X130400595Y-98502380D01*
X130400595Y-98692857D01*
X130614880Y-98002380D02*
X130638690Y-98050000D01*
X130638690Y-98145238D01*
X130614880Y-98192857D01*
X130567261Y-98216666D01*
X130376785Y-98216666D01*
X130329166Y-98192857D01*
X130305357Y-98145238D01*
X130305357Y-98050000D01*
X130329166Y-98002380D01*
X130376785Y-97978571D01*
X130424404Y-97978571D01*
X130472023Y-98216666D01*
X130614880Y-97788095D02*
X130638690Y-97740476D01*
X130638690Y-97645238D01*
X130614880Y-97597619D01*
X130567261Y-97573809D01*
X130543452Y-97573809D01*
X130495833Y-97597619D01*
X130472023Y-97645238D01*
X130472023Y-97716666D01*
X130448214Y-97764285D01*
X130400595Y-97788095D01*
X130376785Y-97788095D01*
X130329166Y-97764285D01*
X130305357Y-97716666D01*
X130305357Y-97645238D01*
X130329166Y-97597619D01*
X130638690Y-97359523D02*
X130305357Y-97359523D01*
X130138690Y-97359523D02*
X130162500Y-97383333D01*
X130186309Y-97359523D01*
X130162500Y-97335714D01*
X130138690Y-97359523D01*
X130186309Y-97359523D01*
X130614880Y-97145238D02*
X130638690Y-97097619D01*
X130638690Y-97002380D01*
X130614880Y-96954761D01*
X130567261Y-96930952D01*
X130543452Y-96930952D01*
X130495833Y-96954761D01*
X130472023Y-97002380D01*
X130472023Y-97073809D01*
X130448214Y-97121428D01*
X130400595Y-97145238D01*
X130376785Y-97145238D01*
X130329166Y-97121428D01*
X130305357Y-97073809D01*
X130305357Y-97002380D01*
X130329166Y-96954761D01*
X130305357Y-96788095D02*
X130305357Y-96597619D01*
X130138690Y-96716666D02*
X130567261Y-96716666D01*
X130614880Y-96692857D01*
X130638690Y-96645238D01*
X130638690Y-96597619D01*
X130638690Y-96359523D02*
X130614880Y-96407142D01*
X130591071Y-96430952D01*
X130543452Y-96454761D01*
X130400595Y-96454761D01*
X130352976Y-96430952D01*
X130329166Y-96407142D01*
X130305357Y-96359523D01*
X130305357Y-96288095D01*
X130329166Y-96240476D01*
X130352976Y-96216666D01*
X130400595Y-96192857D01*
X130543452Y-96192857D01*
X130591071Y-96216666D01*
X130614880Y-96240476D01*
X130638690Y-96288095D01*
X130638690Y-96359523D01*
X130638690Y-95978571D02*
X130305357Y-95978571D01*
X130400595Y-95978571D02*
X130352976Y-95954761D01*
X130329166Y-95930952D01*
X130305357Y-95883333D01*
X130305357Y-95835714D01*
D10*
X162671428Y-110639285D02*
X162421428Y-110282142D01*
X162242857Y-110639285D02*
X162242857Y-109889285D01*
X162528571Y-109889285D01*
X162600000Y-109925000D01*
X162635714Y-109960714D01*
X162671428Y-110032142D01*
X162671428Y-110139285D01*
X162635714Y-110210714D01*
X162600000Y-110246428D01*
X162528571Y-110282142D01*
X162242857Y-110282142D01*
X163278571Y-110603571D02*
X163207142Y-110639285D01*
X163064285Y-110639285D01*
X162992857Y-110603571D01*
X162957142Y-110532142D01*
X162957142Y-110246428D01*
X162992857Y-110175000D01*
X163064285Y-110139285D01*
X163207142Y-110139285D01*
X163278571Y-110175000D01*
X163314285Y-110246428D01*
X163314285Y-110317857D01*
X162957142Y-110389285D01*
X163957142Y-110639285D02*
X163957142Y-109889285D01*
X163957142Y-110603571D02*
X163885714Y-110639285D01*
X163742857Y-110639285D01*
X163671428Y-110603571D01*
X163635714Y-110567857D01*
X163600000Y-110496428D01*
X163600000Y-110282142D01*
X163635714Y-110210714D01*
X163671428Y-110175000D01*
X163742857Y-110139285D01*
X163885714Y-110139285D01*
X163957142Y-110175000D01*
X170552142Y-109605000D02*
X170480714Y-109569285D01*
X170373571Y-109569285D01*
X170266428Y-109605000D01*
X170195000Y-109676428D01*
X170159285Y-109747857D01*
X170123571Y-109890714D01*
X170123571Y-109997857D01*
X170159285Y-110140714D01*
X170195000Y-110212142D01*
X170266428Y-110283571D01*
X170373571Y-110319285D01*
X170445000Y-110319285D01*
X170552142Y-110283571D01*
X170587857Y-110247857D01*
X170587857Y-109997857D01*
X170445000Y-109997857D01*
X170909285Y-110319285D02*
X170909285Y-109819285D01*
X170909285Y-109962142D02*
X170945000Y-109890714D01*
X170980714Y-109855000D01*
X171052142Y-109819285D01*
X171123571Y-109819285D01*
X171659285Y-110283571D02*
X171587857Y-110319285D01*
X171445000Y-110319285D01*
X171373571Y-110283571D01*
X171337857Y-110212142D01*
X171337857Y-109926428D01*
X171373571Y-109855000D01*
X171445000Y-109819285D01*
X171587857Y-109819285D01*
X171659285Y-109855000D01*
X171695000Y-109926428D01*
X171695000Y-109997857D01*
X171337857Y-110069285D01*
X172302142Y-110283571D02*
X172230714Y-110319285D01*
X172087857Y-110319285D01*
X172016428Y-110283571D01*
X171980714Y-110212142D01*
X171980714Y-109926428D01*
X172016428Y-109855000D01*
X172087857Y-109819285D01*
X172230714Y-109819285D01*
X172302142Y-109855000D01*
X172337857Y-109926428D01*
X172337857Y-109997857D01*
X171980714Y-110069285D01*
X172659285Y-109819285D02*
X172659285Y-110319285D01*
X172659285Y-109890714D02*
X172695000Y-109855000D01*
X172766428Y-109819285D01*
X172873571Y-109819285D01*
X172945000Y-109855000D01*
X172980714Y-109926428D01*
X172980714Y-110319285D01*
X152196428Y-110246428D02*
X152303571Y-110282142D01*
X152339285Y-110317857D01*
X152375000Y-110389285D01*
X152375000Y-110496428D01*
X152339285Y-110567857D01*
X152303571Y-110603571D01*
X152232142Y-110639285D01*
X151946428Y-110639285D01*
X151946428Y-109889285D01*
X152196428Y-109889285D01*
X152267857Y-109925000D01*
X152303571Y-109960714D01*
X152339285Y-110032142D01*
X152339285Y-110103571D01*
X152303571Y-110175000D01*
X152267857Y-110210714D01*
X152196428Y-110246428D01*
X151946428Y-110246428D01*
X152803571Y-110639285D02*
X152732142Y-110603571D01*
X152696428Y-110532142D01*
X152696428Y-109889285D01*
X153410714Y-110139285D02*
X153410714Y-110639285D01*
X153089285Y-110139285D02*
X153089285Y-110532142D01*
X153125000Y-110603571D01*
X153196428Y-110639285D01*
X153303571Y-110639285D01*
X153375000Y-110603571D01*
X153410714Y-110567857D01*
X154053571Y-110603571D02*
X153982142Y-110639285D01*
X153839285Y-110639285D01*
X153767857Y-110603571D01*
X153732142Y-110532142D01*
X153732142Y-110246428D01*
X153767857Y-110175000D01*
X153839285Y-110139285D01*
X153982142Y-110139285D01*
X154053571Y-110175000D01*
X154089285Y-110246428D01*
X154089285Y-110317857D01*
X153732142Y-110389285D01*
X157464285Y-102875000D02*
X157392857Y-102839285D01*
X157285714Y-102839285D01*
X157178571Y-102875000D01*
X157107142Y-102946428D01*
X157071428Y-103017857D01*
X157035714Y-103160714D01*
X157035714Y-103267857D01*
X157071428Y-103410714D01*
X157107142Y-103482142D01*
X157178571Y-103553571D01*
X157285714Y-103589285D01*
X157357142Y-103589285D01*
X157464285Y-103553571D01*
X157500000Y-103517857D01*
X157500000Y-103267857D01*
X157357142Y-103267857D01*
X157821428Y-103589285D02*
X157821428Y-102839285D01*
X158107142Y-102839285D01*
X158178571Y-102875000D01*
X158214285Y-102910714D01*
X158250000Y-102982142D01*
X158250000Y-103089285D01*
X158214285Y-103160714D01*
X158178571Y-103196428D01*
X158107142Y-103232142D01*
X157821428Y-103232142D01*
X158500000Y-102839285D02*
X159000000Y-102839285D01*
X158678571Y-103589285D01*
D13*
X124333690Y-98288095D02*
X123833690Y-98288095D01*
X123833690Y-98097619D01*
X123857500Y-98050000D01*
X123881309Y-98026190D01*
X123928928Y-98002380D01*
X124000357Y-98002380D01*
X124047976Y-98026190D01*
X124071785Y-98050000D01*
X124095595Y-98097619D01*
X124095595Y-98288095D01*
X124333690Y-97716666D02*
X124309880Y-97764285D01*
X124286071Y-97788095D01*
X124238452Y-97811904D01*
X124095595Y-97811904D01*
X124047976Y-97788095D01*
X124024166Y-97764285D01*
X124000357Y-97716666D01*
X124000357Y-97645238D01*
X124024166Y-97597619D01*
X124047976Y-97573809D01*
X124095595Y-97550000D01*
X124238452Y-97550000D01*
X124286071Y-97573809D01*
X124309880Y-97597619D01*
X124333690Y-97645238D01*
X124333690Y-97716666D01*
X124000357Y-97383333D02*
X124333690Y-97288095D01*
X124095595Y-97192857D01*
X124333690Y-97097619D01*
X124000357Y-97002380D01*
X124309880Y-96621428D02*
X124333690Y-96669047D01*
X124333690Y-96764285D01*
X124309880Y-96811904D01*
X124262261Y-96835714D01*
X124071785Y-96835714D01*
X124024166Y-96811904D01*
X124000357Y-96764285D01*
X124000357Y-96669047D01*
X124024166Y-96621428D01*
X124071785Y-96597619D01*
X124119404Y-96597619D01*
X124167023Y-96835714D01*
X124333690Y-96383333D02*
X124000357Y-96383333D01*
X124095595Y-96383333D02*
X124047976Y-96359523D01*
X124024166Y-96335714D01*
X124000357Y-96288095D01*
X124000357Y-96240476D01*
X125138690Y-97621428D02*
X125138690Y-97859523D01*
X124638690Y-97859523D01*
X124876785Y-97454761D02*
X124876785Y-97288095D01*
X125138690Y-97216666D02*
X125138690Y-97454761D01*
X124638690Y-97454761D01*
X124638690Y-97216666D01*
X125138690Y-97002380D02*
X124638690Y-97002380D01*
X124638690Y-96883333D01*
X124662500Y-96811904D01*
X124710119Y-96764285D01*
X124757738Y-96740476D01*
X124852976Y-96716666D01*
X124924404Y-96716666D01*
X125019642Y-96740476D01*
X125067261Y-96764285D01*
X125114880Y-96811904D01*
X125138690Y-96883333D01*
X125138690Y-97002380D01*
D10*
X152464285Y-105375000D02*
X152392857Y-105339285D01*
X152285714Y-105339285D01*
X152178571Y-105375000D01*
X152107142Y-105446428D01*
X152071428Y-105517857D01*
X152035714Y-105660714D01*
X152035714Y-105767857D01*
X152071428Y-105910714D01*
X152107142Y-105982142D01*
X152178571Y-106053571D01*
X152285714Y-106089285D01*
X152357142Y-106089285D01*
X152464285Y-106053571D01*
X152500000Y-106017857D01*
X152500000Y-105767857D01*
X152357142Y-105767857D01*
X152821428Y-106089285D02*
X152821428Y-105339285D01*
X153107142Y-105339285D01*
X153178571Y-105375000D01*
X153214285Y-105410714D01*
X153250000Y-105482142D01*
X153250000Y-105589285D01*
X153214285Y-105660714D01*
X153178571Y-105696428D01*
X153107142Y-105732142D01*
X152821428Y-105732142D01*
X153678571Y-105660714D02*
X153607142Y-105625000D01*
X153571428Y-105589285D01*
X153535714Y-105517857D01*
X153535714Y-105482142D01*
X153571428Y-105410714D01*
X153607142Y-105375000D01*
X153678571Y-105339285D01*
X153821428Y-105339285D01*
X153892857Y-105375000D01*
X153928571Y-105410714D01*
X153964285Y-105482142D01*
X153964285Y-105517857D01*
X153928571Y-105589285D01*
X153892857Y-105625000D01*
X153821428Y-105660714D01*
X153678571Y-105660714D01*
X153607142Y-105696428D01*
X153571428Y-105732142D01*
X153535714Y-105803571D01*
X153535714Y-105946428D01*
X153571428Y-106017857D01*
X153607142Y-106053571D01*
X153678571Y-106089285D01*
X153821428Y-106089285D01*
X153892857Y-106053571D01*
X153928571Y-106017857D01*
X153964285Y-105946428D01*
X153964285Y-105803571D01*
X153928571Y-105732142D01*
X153892857Y-105696428D01*
X153821428Y-105660714D01*
X151792857Y-98746428D02*
X151900000Y-98782142D01*
X151935714Y-98817857D01*
X151971428Y-98889285D01*
X151971428Y-98996428D01*
X151935714Y-99067857D01*
X151900000Y-99103571D01*
X151828571Y-99139285D01*
X151542857Y-99139285D01*
X151542857Y-98389285D01*
X151792857Y-98389285D01*
X151864285Y-98425000D01*
X151900000Y-98460714D01*
X151935714Y-98532142D01*
X151935714Y-98603571D01*
X151900000Y-98675000D01*
X151864285Y-98710714D01*
X151792857Y-98746428D01*
X151542857Y-98746428D01*
X152400000Y-99139285D02*
X152328571Y-99103571D01*
X152292857Y-99032142D01*
X152292857Y-98389285D01*
X153007142Y-99139285D02*
X153007142Y-98746428D01*
X152971428Y-98675000D01*
X152900000Y-98639285D01*
X152757142Y-98639285D01*
X152685714Y-98675000D01*
X153007142Y-99103571D02*
X152935714Y-99139285D01*
X152757142Y-99139285D01*
X152685714Y-99103571D01*
X152650000Y-99032142D01*
X152650000Y-98960714D01*
X152685714Y-98889285D01*
X152757142Y-98853571D01*
X152935714Y-98853571D01*
X153007142Y-98817857D01*
X153685714Y-99103571D02*
X153614285Y-99139285D01*
X153471428Y-99139285D01*
X153400000Y-99103571D01*
X153364285Y-99067857D01*
X153328571Y-98996428D01*
X153328571Y-98782142D01*
X153364285Y-98710714D01*
X153400000Y-98675000D01*
X153471428Y-98639285D01*
X153614285Y-98639285D01*
X153685714Y-98675000D01*
X154007142Y-99139285D02*
X154007142Y-98389285D01*
X154078571Y-98853571D02*
X154292857Y-99139285D01*
X154292857Y-98639285D02*
X154007142Y-98925000D01*
D14*
X152477857Y-102875000D02*
X152406428Y-102839285D01*
X152299285Y-102839285D01*
X152192142Y-102875000D01*
X152120714Y-102946428D01*
X152085000Y-103017857D01*
X152049285Y-103160714D01*
X152049285Y-103267857D01*
X152085000Y-103410714D01*
X152120714Y-103482142D01*
X152192142Y-103553571D01*
X152299285Y-103589285D01*
X152370714Y-103589285D01*
X152477857Y-103553571D01*
X152513571Y-103517857D01*
X152513571Y-103267857D01*
X152370714Y-103267857D01*
X152835000Y-103089285D02*
X152835000Y-103589285D01*
X152835000Y-103160714D02*
X152870714Y-103125000D01*
X152942142Y-103089285D01*
X153049285Y-103089285D01*
X153120714Y-103125000D01*
X153156428Y-103196428D01*
X153156428Y-103589285D01*
X153835000Y-103589285D02*
X153835000Y-102839285D01*
X153835000Y-103553571D02*
X153763571Y-103589285D01*
X153620714Y-103589285D01*
X153549285Y-103553571D01*
X153513571Y-103517857D01*
X153477857Y-103446428D01*
X153477857Y-103232142D01*
X153513571Y-103160714D01*
X153549285Y-103125000D01*
X153620714Y-103089285D01*
X153763571Y-103089285D01*
X153835000Y-103125000D01*
D15*
%TO.C,R1*%
X127525000Y-97527064D02*
X127525000Y-97072936D01*
X128995000Y-97527064D02*
X128995000Y-97072936D01*
%TO.C,G\u002A\u002A\u002A*%
G36*
X150393174Y-100173640D02*
G01*
X150210398Y-100614554D01*
X150017694Y-101079534D01*
X149845979Y-101493973D01*
X149782313Y-101647675D01*
X149639636Y-101972004D01*
X149528640Y-102163621D01*
X149426516Y-102253787D01*
X149325298Y-102274035D01*
X149210280Y-102246995D01*
X149107714Y-102144653D01*
X148994140Y-101935176D01*
X148879788Y-101669555D01*
X148754681Y-101380711D01*
X148649409Y-101166913D01*
X148583645Y-101067504D01*
X148577407Y-101064793D01*
X148521063Y-101138586D01*
X148421597Y-101334060D01*
X148298677Y-101611917D01*
X148275026Y-101668992D01*
X148133874Y-101989718D01*
X148022001Y-102176436D01*
X147917073Y-102260039D01*
X147837833Y-102273754D01*
X147667688Y-102244577D01*
X147603742Y-102201544D01*
X147557156Y-102100531D01*
X147457382Y-101868268D01*
X147316540Y-101533476D01*
X147146745Y-101124878D01*
X147029680Y-100840830D01*
X146847334Y-100397098D01*
X146686384Y-100005614D01*
X146559049Y-99696087D01*
X146477550Y-99498227D01*
X146455378Y-99444614D01*
X146489070Y-99361791D01*
X146667462Y-99336620D01*
X146772840Y-99343121D01*
X146857435Y-99379550D01*
X146936640Y-99471298D01*
X147025852Y-99643755D01*
X147140465Y-99922312D01*
X147295874Y-100332360D01*
X147335357Y-100438151D01*
X147490585Y-100847358D01*
X147628699Y-101198398D01*
X147736728Y-101459233D01*
X147801698Y-101597826D01*
X147809703Y-101609631D01*
X147871652Y-101574126D01*
X147970509Y-101412413D01*
X148073957Y-101185140D01*
X148274635Y-100690701D01*
X148072799Y-100121654D01*
X147965966Y-99820781D01*
X147879467Y-99577771D01*
X147831935Y-99444970D01*
X147831806Y-99444614D01*
X147869845Y-99359277D01*
X148003846Y-99336620D01*
X148134240Y-99361564D01*
X148232482Y-99461827D01*
X148328510Y-99675556D01*
X148376403Y-99811334D01*
X148470383Y-100053390D01*
X148550560Y-100199891D01*
X148592142Y-100221708D01*
X148651494Y-100108623D01*
X148742361Y-99891837D01*
X148797539Y-99746994D01*
X148906536Y-99493942D01*
X149013025Y-99370287D01*
X149151534Y-99336651D01*
X149157396Y-99336620D01*
X149316403Y-99344269D01*
X149365920Y-99358219D01*
X149336707Y-99442908D01*
X149259440Y-99648497D01*
X149149193Y-99935042D01*
X149116696Y-100018622D01*
X148867789Y-100657427D01*
X149045135Y-101098554D01*
X149153930Y-101356108D01*
X149243892Y-101546306D01*
X149280736Y-101608134D01*
X149330101Y-101557067D01*
X149426355Y-101370275D01*
X149557291Y-101074405D01*
X149710705Y-100696102D01*
X149775427Y-100528202D01*
X149948799Y-100076194D01*
X150077143Y-99760749D01*
X150175643Y-99556471D01*
X150259485Y-99437968D01*
X150343854Y-99379843D01*
X150443937Y-99356702D01*
X150478242Y-99352892D01*
X150744623Y-99325966D01*
X150393174Y-100173640D01*
G37*
%TO.C,D1*%
X126995000Y-97527064D02*
X126995000Y-97072936D01*
X125525000Y-97527064D02*
X125525000Y-97072936D01*
%TD*%
%LPC*%
D16*
%TO.C,R1*%
X128260000Y-98212500D03*
X128260000Y-96387500D03*
%TD*%
D17*
%TO.C,J3*%
X131570000Y-95500000D03*
X132840000Y-95500000D03*
%TD*%
D18*
%TO.C,J4*%
X152910000Y-108000000D03*
X152910000Y-101000000D03*
X157910000Y-108000000D03*
X157910000Y-101000000D03*
X162910000Y-108000000D03*
%TD*%
D19*
%TO.C,J5*%
X170090000Y-102500000D03*
D20*
X170090000Y-107500000D03*
%TD*%
D16*
%TO.C,D1*%
X126260000Y-98212500D03*
X126260000Y-96387500D03*
%TD*%
D17*
%TO.C,J1*%
X131570000Y-99050000D03*
X134110000Y-99050000D03*
X140460000Y-99050000D03*
%TD*%
M02*
