%TF.GenerationSoftware,KiCad,Pcbnew,(6.0.1)*%
%TF.CreationDate,2022-03-10T08:51:34-07:00*%
%TF.ProjectId,MShaw_PICO_Edition_4gbNandExtensionQSB_V2.6,4d536861-775f-4504-9943-4f5f45646974,rev?*%
%TF.SameCoordinates,Original*%
%TF.FileFunction,Profile,NP*%
%FSLAX46Y46*%
G04 Gerber Fmt 4.6, Leading zero omitted, Abs format (unit mm)*
G04 Created by KiCad (PCBNEW (6.0.1)) date 2022-03-10 08:51:34*
%MOMM*%
%LPD*%
G01*
G04 APERTURE LIST*
%TA.AperFunction,Profile*%
%ADD10C,0.100000*%
%TD*%
G04 APERTURE END LIST*
D10*
X142110000Y-96550000D02*
X142760000Y-96550000D01*
X141610000Y-95550000D02*
X141610000Y-96050000D01*
X154240000Y-96000000D02*
X153490000Y-96000000D01*
X145510000Y-112000000D02*
X145510000Y-102800000D01*
X151890000Y-113000000D02*
X153500000Y-114500000D01*
X146510000Y-113000000D02*
X151890000Y-113000000D01*
X145510000Y-98300000D02*
X145760000Y-98050000D01*
X144510000Y-98300000D02*
X145510000Y-98300000D01*
X173910000Y-99550000D02*
X174910000Y-100550000D01*
X159600000Y-97500000D02*
X157990000Y-96000000D01*
X159610000Y-113000000D02*
X164950000Y-113000000D01*
X151880000Y-97500000D02*
X146310000Y-97500000D01*
X167150000Y-99550000D02*
X173910000Y-99550000D01*
X139700000Y-100100000D02*
X139200000Y-100600000D01*
X158000000Y-114500000D02*
X159610000Y-113000000D01*
X172410000Y-111050000D02*
X173910000Y-111050000D01*
X134100000Y-94000000D02*
X140050000Y-94000000D01*
X145510000Y-112000000D02*
X146510000Y-113000000D01*
X139200000Y-100600000D02*
X135375000Y-100600000D01*
X140550000Y-94500000D02*
X140550000Y-95550000D01*
X153500000Y-114500000D02*
X154250000Y-114500000D01*
X133600000Y-94500000D02*
X134100000Y-94000000D01*
X153490000Y-96000000D02*
X151880000Y-97500000D01*
X134875000Y-100100000D02*
X135375000Y-100600000D01*
X159600000Y-97500000D02*
X164950000Y-97500000D01*
X140550000Y-94500000D02*
X140050000Y-94000000D01*
X142760000Y-96550000D02*
X144510000Y-98300000D01*
X134875000Y-100100000D02*
X134875000Y-99050000D01*
X167150000Y-99550000D02*
X164950000Y-97500000D01*
X141760000Y-99050000D02*
X145510000Y-102800000D01*
X140550000Y-95550000D02*
X141610000Y-95550000D01*
X154240000Y-96000000D02*
G75*
G03*
X157240000Y-96000000I1500000J0D01*
G01*
X145760000Y-98050000D02*
X146310000Y-97500000D01*
X141610000Y-96050000D02*
X142110000Y-96550000D01*
X139700000Y-99050000D02*
X141760000Y-99050000D01*
X166950000Y-111050000D02*
X172410000Y-111050000D01*
X139700000Y-99050000D02*
X139700000Y-100100000D01*
X164950000Y-113000000D02*
X166950000Y-111050000D01*
X122510000Y-95550000D02*
X133600000Y-95550000D01*
X122510000Y-98550000D02*
G75*
G03*
X122510000Y-96050000I0J1250000D01*
G01*
X133600000Y-95550000D02*
X133600000Y-94500000D01*
X174910000Y-100550000D02*
X174910000Y-110050000D01*
X173910000Y-111050000D02*
X174910000Y-110050000D01*
X157240000Y-96000000D02*
X157990000Y-96000000D01*
X122510000Y-96050000D02*
X122510000Y-95550000D01*
X157250000Y-114500000D02*
G75*
G03*
X154250000Y-114500000I-1500000J0D01*
G01*
X157250000Y-114500000D02*
X158000000Y-114500000D01*
X122510000Y-99050000D02*
X134875000Y-99050000D01*
X122510000Y-98550000D02*
X122510000Y-99050000D01*
M02*
