%TF.GenerationSoftware,KiCad,Pcbnew,(6.0.1)*%
%TF.CreationDate,2022-03-10T08:51:33-07:00*%
%TF.ProjectId,MShaw_PICO_Edition_4gbNandExtensionQSB_V2.6,4d536861-775f-4504-9943-4f5f45646974,rev?*%
%TF.SameCoordinates,Original*%
%TF.FileFunction,Copper,L2,Bot*%
%TF.FilePolarity,Positive*%
%FSLAX46Y46*%
G04 Gerber Fmt 4.6, Leading zero omitted, Abs format (unit mm)*
G04 Created by KiCad (PCBNEW (6.0.1)) date 2022-03-10 08:51:33*
%MOMM*%
%LPD*%
G01*
G04 APERTURE LIST*
G04 Aperture macros list*
%AMRoundRect*
0 Rectangle with rounded corners*
0 $1 Rounding radius*
0 $2 $3 $4 $5 $6 $7 $8 $9 X,Y pos of 4 corners*
0 Add a 4 corners polygon primitive as box body*
4,1,4,$2,$3,$4,$5,$6,$7,$8,$9,$2,$3,0*
0 Add four circle primitives for the rounded corners*
1,1,$1+$1,$2,$3*
1,1,$1+$1,$4,$5*
1,1,$1+$1,$6,$7*
1,1,$1+$1,$8,$9*
0 Add four rect primitives between the rounded corners*
20,1,$1+$1,$2,$3,$4,$5,0*
20,1,$1+$1,$4,$5,$6,$7,0*
20,1,$1+$1,$6,$7,$8,$9,0*
20,1,$1+$1,$8,$9,$2,$3,0*%
G04 Aperture macros list end*
%TA.AperFunction,ComponentPad*%
%ADD10RoundRect,0.250000X0.250000X-0.750000X0.250000X0.750000X-0.250000X0.750000X-0.250000X-0.750000X0*%
%TD*%
%TA.AperFunction,ViaPad*%
%ADD11C,0.800000*%
%TD*%
%TA.AperFunction,Conductor*%
%ADD12C,0.250000*%
%TD*%
G04 APERTURE END LIST*
D10*
%TO.P,J3,1,Pin_1*%
%TO.N,GP9*%
X131570000Y-95500000D03*
%TO.P,J3,2,Pin_2*%
%TO.N,GP8*%
X132840000Y-95500000D03*
%TD*%
%TO.P,J1,1,Pin_1*%
%TO.N,GP7*%
X131570000Y-99050000D03*
%TO.P,J1,3,Pin_3*%
%TO.N,GND*%
X134110000Y-99050000D03*
%TO.P,J1,8,Pin_8*%
%TO.N,GP6*%
X140460000Y-99050000D03*
%TD*%
D11*
%TO.N,GND*%
X149750000Y-109250000D03*
X124760000Y-98300000D03*
X157850000Y-97170000D03*
X163500000Y-99500000D03*
X149450000Y-103070000D03*
X155350000Y-105420000D03*
%TO.N,GP6*%
X160410000Y-108000000D03*
%TO.N,GP8*%
X151910000Y-104640000D03*
%TD*%
D12*
%TO.N,GND*%
X143492859Y-99367141D02*
X147075718Y-102950000D01*
X147075718Y-102950000D02*
X149610000Y-102950000D01*
X141851198Y-97725480D02*
X134834520Y-97725480D01*
X134834520Y-97725480D02*
X134660000Y-97900000D01*
X130260000Y-98050000D02*
X130584520Y-97725480D01*
X130584520Y-97725480D02*
X132910500Y-97725480D01*
X130260000Y-98050000D02*
X130010000Y-98300000D01*
X134110000Y-98924980D02*
X134110000Y-98450000D01*
X130010000Y-98300000D02*
X124760000Y-98300000D01*
X143492859Y-99367141D02*
X141851198Y-97725480D01*
X132910500Y-97725480D02*
X134110000Y-98924980D01*
X134110000Y-98450000D02*
X134660000Y-97900000D01*
%TO.N,GP6*%
X146025000Y-102535000D02*
X142040000Y-98550000D01*
X142040000Y-98550000D02*
X141010000Y-98550000D01*
X141010000Y-98550000D02*
X140635020Y-98924980D01*
X146025000Y-102535000D02*
X151370000Y-107880000D01*
X140635020Y-98924980D02*
X140460000Y-98924980D01*
X151370000Y-107880000D02*
X160570000Y-107880000D01*
%TO.N,GP8*%
X145791436Y-101030000D02*
X142037395Y-97275960D01*
X152070000Y-104520000D02*
X152070000Y-102680000D01*
X152070000Y-102680000D02*
X150420000Y-101030000D01*
X132840000Y-96530000D02*
X132840000Y-95675020D01*
X133585960Y-97275960D02*
X132840000Y-96530000D01*
X142037395Y-97275960D02*
X133585960Y-97275960D01*
X150420000Y-101030000D02*
X145791436Y-101030000D01*
%TD*%
%TA.AperFunction,Conductor*%
%TO.N,GND*%
G36*
X157828399Y-96549798D02*
G01*
X157855627Y-96569120D01*
X158449785Y-97122683D01*
X159162861Y-97787039D01*
X159201799Y-97823317D01*
X159206164Y-97827882D01*
X159209160Y-97832631D01*
X159258557Y-97876257D01*
X159261000Y-97878474D01*
X159280400Y-97896548D01*
X159284083Y-97899110D01*
X159285962Y-97900626D01*
X159290240Y-97904238D01*
X159318228Y-97928956D01*
X159335525Y-97937077D01*
X159353922Y-97947694D01*
X159369604Y-97958603D01*
X159403804Y-97970063D01*
X159417301Y-97975471D01*
X159449948Y-97990799D01*
X159458821Y-97992180D01*
X159458823Y-97992181D01*
X159468819Y-97993737D01*
X159489462Y-97998763D01*
X159507579Y-98004834D01*
X159516548Y-98005182D01*
X159516551Y-98005183D01*
X159543611Y-98006234D01*
X159550759Y-98006927D01*
X159550763Y-98006876D01*
X159555611Y-98007251D01*
X159560423Y-98008000D01*
X159586641Y-98008000D01*
X159591532Y-98008095D01*
X159644013Y-98010134D01*
X159644016Y-98010134D01*
X159652984Y-98010482D01*
X159660749Y-98008535D01*
X159671092Y-98008000D01*
X164700397Y-98008000D01*
X164768518Y-98028002D01*
X164786294Y-98041817D01*
X166751780Y-99873293D01*
X166756158Y-99877872D01*
X166759160Y-99882631D01*
X166765888Y-99888573D01*
X166808501Y-99926207D01*
X166810992Y-99928467D01*
X166830370Y-99946524D01*
X166834049Y-99949084D01*
X166835980Y-99950642D01*
X166840254Y-99954251D01*
X166856472Y-99968573D01*
X166868228Y-99978956D01*
X166876352Y-99982770D01*
X166876353Y-99982771D01*
X166879716Y-99984350D01*
X166885500Y-99987065D01*
X166903905Y-99997687D01*
X166919570Y-100008586D01*
X166928081Y-100011439D01*
X166928082Y-100011439D01*
X166953787Y-100020054D01*
X166967287Y-100025465D01*
X166999948Y-100040799D01*
X167018800Y-100043734D01*
X167039453Y-100048765D01*
X167049028Y-100051974D01*
X167049030Y-100051974D01*
X167057541Y-100054827D01*
X167076961Y-100055583D01*
X167093600Y-100056231D01*
X167100757Y-100056925D01*
X167100761Y-100056876D01*
X167105613Y-100057251D01*
X167110423Y-100058000D01*
X167136611Y-100058000D01*
X167141511Y-100058095D01*
X167193975Y-100060137D01*
X167193976Y-100060137D01*
X167202946Y-100060486D01*
X167210725Y-100058536D01*
X167221097Y-100058000D01*
X173647389Y-100058000D01*
X173715510Y-100078002D01*
X173736485Y-100094905D01*
X174365096Y-100723517D01*
X174399121Y-100785829D01*
X174402000Y-100812612D01*
X174402000Y-109787388D01*
X174381998Y-109855509D01*
X174365096Y-109876483D01*
X173736485Y-110505095D01*
X173674172Y-110539120D01*
X173647389Y-110542000D01*
X167022070Y-110542000D01*
X167010375Y-110541456D01*
X167006361Y-110541082D01*
X166997632Y-110538990D01*
X166988670Y-110539432D01*
X166988667Y-110539432D01*
X166939736Y-110541847D01*
X166933526Y-110542000D01*
X166913523Y-110542000D01*
X166909087Y-110542635D01*
X166909076Y-110542636D01*
X166907171Y-110542909D01*
X166895520Y-110544029D01*
X166852295Y-110546162D01*
X166841100Y-110550044D01*
X166817680Y-110555726D01*
X166805955Y-110557405D01*
X166797781Y-110561121D01*
X166797779Y-110561122D01*
X166766572Y-110575311D01*
X166755703Y-110579656D01*
X166723291Y-110590895D01*
X166723289Y-110590896D01*
X166714811Y-110593836D01*
X166707497Y-110599038D01*
X166707496Y-110599039D01*
X166705154Y-110600705D01*
X166684281Y-110612726D01*
X166673490Y-110617633D01*
X166666689Y-110623493D01*
X166640702Y-110645884D01*
X166631497Y-110653098D01*
X166627682Y-110655812D01*
X166627678Y-110655815D01*
X166623703Y-110658643D01*
X166609811Y-110672188D01*
X166604106Y-110677417D01*
X166570055Y-110706757D01*
X166570051Y-110706762D01*
X166563253Y-110712619D01*
X166558372Y-110720149D01*
X166552469Y-110726916D01*
X166552090Y-110726585D01*
X166544414Y-110735949D01*
X165697623Y-111561571D01*
X164781188Y-112455096D01*
X164780039Y-112456216D01*
X164717301Y-112489450D01*
X164692078Y-112492000D01*
X159680940Y-112492000D01*
X159674645Y-112491636D01*
X159669217Y-112490204D01*
X159627018Y-112491327D01*
X159603419Y-112491955D01*
X159600067Y-112492000D01*
X159573523Y-112492000D01*
X159569081Y-112492636D01*
X159566657Y-112492809D01*
X159561063Y-112493082D01*
X159541909Y-112493592D01*
X159532730Y-112493836D01*
X159532729Y-112493836D01*
X159523754Y-112494075D01*
X159505565Y-112499923D01*
X159484862Y-112504697D01*
X159474839Y-112506132D01*
X159474835Y-112506133D01*
X159465955Y-112507405D01*
X159457789Y-112511118D01*
X159457785Y-112511119D01*
X159433137Y-112522326D01*
X159419556Y-112527577D01*
X159412198Y-112529943D01*
X159385224Y-112538616D01*
X159369405Y-112549336D01*
X159350875Y-112559729D01*
X159333490Y-112567633D01*
X159326692Y-112573490D01*
X159326691Y-112573491D01*
X159306168Y-112591175D01*
X159300466Y-112595540D01*
X159300498Y-112595581D01*
X159296707Y-112598602D01*
X159292668Y-112601339D01*
X159289103Y-112604661D01*
X159289096Y-112604666D01*
X159273481Y-112619214D01*
X159269844Y-112622473D01*
X159223253Y-112662619D01*
X159218899Y-112669336D01*
X159211692Y-112676782D01*
X157865627Y-113930880D01*
X157802151Y-113962681D01*
X157731559Y-113955116D01*
X157676263Y-113910587D01*
X157661012Y-113880886D01*
X157597504Y-113702194D01*
X157596064Y-113698141D01*
X157469683Y-113454238D01*
X157311268Y-113229814D01*
X157308329Y-113226667D01*
X157126706Y-113032196D01*
X157126701Y-113032191D01*
X157123769Y-113029052D01*
X156910680Y-112855691D01*
X156675969Y-112712961D01*
X156672022Y-112711247D01*
X156672019Y-112711245D01*
X156427961Y-112605235D01*
X156427959Y-112605234D01*
X156424010Y-112603519D01*
X156419869Y-112602359D01*
X156419867Y-112602358D01*
X156282676Y-112563919D01*
X156159494Y-112529405D01*
X155887351Y-112492000D01*
X155612649Y-112492000D01*
X155340506Y-112529405D01*
X155217324Y-112563919D01*
X155080133Y-112602358D01*
X155080131Y-112602359D01*
X155075990Y-112603519D01*
X155072041Y-112605234D01*
X155072039Y-112605235D01*
X154827981Y-112711245D01*
X154827978Y-112711247D01*
X154824031Y-112712961D01*
X154589320Y-112855691D01*
X154376231Y-113029052D01*
X154373299Y-113032191D01*
X154373294Y-113032196D01*
X154191671Y-113226667D01*
X154188732Y-113229814D01*
X154030317Y-113454238D01*
X153903936Y-113698141D01*
X153902496Y-113702194D01*
X153838988Y-113880886D01*
X153797328Y-113938375D01*
X153731201Y-113964215D01*
X153661601Y-113950202D01*
X153634373Y-113930880D01*
X152477936Y-112853455D01*
X152288200Y-112676682D01*
X152283836Y-112672118D01*
X152280840Y-112667369D01*
X152231443Y-112623743D01*
X152228983Y-112621511D01*
X152228302Y-112620876D01*
X152209600Y-112603452D01*
X152205917Y-112600890D01*
X152204038Y-112599374D01*
X152199749Y-112595753D01*
X152171772Y-112571044D01*
X152154475Y-112562923D01*
X152136078Y-112552306D01*
X152120396Y-112541397D01*
X152086196Y-112529937D01*
X152072699Y-112524529D01*
X152040052Y-112509201D01*
X152031179Y-112507820D01*
X152031177Y-112507819D01*
X152021181Y-112506263D01*
X152000538Y-112501237D01*
X151982421Y-112495166D01*
X151973452Y-112494818D01*
X151973449Y-112494817D01*
X151946389Y-112493766D01*
X151939241Y-112493073D01*
X151939237Y-112493124D01*
X151934389Y-112492749D01*
X151929577Y-112492000D01*
X151903359Y-112492000D01*
X151898468Y-112491905D01*
X151845987Y-112489866D01*
X151845984Y-112489866D01*
X151837016Y-112489518D01*
X151829251Y-112491465D01*
X151818908Y-112492000D01*
X146772612Y-112492000D01*
X146704491Y-112471998D01*
X146683517Y-112455096D01*
X146054905Y-111826485D01*
X146020880Y-111764172D01*
X146018000Y-111737389D01*
X146018000Y-103728094D01*
X146038002Y-103659973D01*
X146091658Y-103613480D01*
X146161932Y-103603376D01*
X146226512Y-103632870D01*
X146233095Y-103638999D01*
X150866343Y-108272247D01*
X150873887Y-108280537D01*
X150878000Y-108287018D01*
X150883777Y-108292443D01*
X150927667Y-108333658D01*
X150930509Y-108336413D01*
X150950230Y-108356134D01*
X150953425Y-108358612D01*
X150962447Y-108366318D01*
X150994679Y-108396586D01*
X151001628Y-108400406D01*
X151012432Y-108406346D01*
X151028956Y-108417199D01*
X151044959Y-108429613D01*
X151085543Y-108447176D01*
X151096173Y-108452383D01*
X151134940Y-108473695D01*
X151142617Y-108475666D01*
X151142622Y-108475668D01*
X151154558Y-108478732D01*
X151173266Y-108485137D01*
X151191855Y-108493181D01*
X151199680Y-108494420D01*
X151199682Y-108494421D01*
X151235519Y-108500097D01*
X151247140Y-108502504D01*
X151282289Y-108511528D01*
X151289970Y-108513500D01*
X151310231Y-108513500D01*
X151329940Y-108515051D01*
X151349943Y-108518219D01*
X151357835Y-108517473D01*
X151363062Y-108516979D01*
X151393954Y-108514059D01*
X151405811Y-108513500D01*
X159593753Y-108513500D01*
X159661874Y-108533502D01*
X159687388Y-108555189D01*
X159798747Y-108678866D01*
X159953248Y-108791118D01*
X159959276Y-108793802D01*
X159959278Y-108793803D01*
X160121681Y-108866109D01*
X160127712Y-108868794D01*
X160221113Y-108888647D01*
X160308056Y-108907128D01*
X160308061Y-108907128D01*
X160314513Y-108908500D01*
X160505487Y-108908500D01*
X160511939Y-108907128D01*
X160511944Y-108907128D01*
X160598887Y-108888647D01*
X160692288Y-108868794D01*
X160698319Y-108866109D01*
X160860722Y-108793803D01*
X160860724Y-108793802D01*
X160866752Y-108791118D01*
X161021253Y-108678866D01*
X161149040Y-108536944D01*
X161224441Y-108406346D01*
X161241223Y-108377279D01*
X161241224Y-108377278D01*
X161244527Y-108371556D01*
X161303542Y-108189928D01*
X161323504Y-108000000D01*
X161303542Y-107810072D01*
X161244527Y-107628444D01*
X161149040Y-107463056D01*
X161021253Y-107321134D01*
X160866752Y-107208882D01*
X160860724Y-107206198D01*
X160860722Y-107206197D01*
X160698319Y-107133891D01*
X160698318Y-107133891D01*
X160692288Y-107131206D01*
X160598888Y-107111353D01*
X160511944Y-107092872D01*
X160511939Y-107092872D01*
X160505487Y-107091500D01*
X160314513Y-107091500D01*
X160308061Y-107092872D01*
X160308056Y-107092872D01*
X160221112Y-107111353D01*
X160127712Y-107131206D01*
X160121682Y-107133891D01*
X160121681Y-107133891D01*
X159959278Y-107206197D01*
X159959276Y-107206198D01*
X159953248Y-107208882D01*
X159947910Y-107212760D01*
X159947907Y-107212762D01*
X159934591Y-107222437D01*
X159860531Y-107246500D01*
X151684595Y-107246500D01*
X151616474Y-107226498D01*
X151595500Y-107209595D01*
X146444770Y-102058865D01*
X146444766Y-102058862D01*
X146264499Y-101878595D01*
X146230473Y-101816283D01*
X146235538Y-101745468D01*
X146278085Y-101688632D01*
X146344605Y-101663821D01*
X146353594Y-101663500D01*
X150105406Y-101663500D01*
X150173527Y-101683502D01*
X150194501Y-101700405D01*
X151399595Y-102905499D01*
X151433621Y-102967811D01*
X151436500Y-102994594D01*
X151436500Y-103796850D01*
X151416498Y-103864971D01*
X151384561Y-103898786D01*
X151298747Y-103961134D01*
X151170960Y-104103056D01*
X151075473Y-104268444D01*
X151016458Y-104450072D01*
X150996496Y-104640000D01*
X151016458Y-104829928D01*
X151075473Y-105011556D01*
X151170960Y-105176944D01*
X151298747Y-105318866D01*
X151453248Y-105431118D01*
X151459276Y-105433802D01*
X151459278Y-105433803D01*
X151621681Y-105506109D01*
X151627712Y-105508794D01*
X151721112Y-105528647D01*
X151808056Y-105547128D01*
X151808061Y-105547128D01*
X151814513Y-105548500D01*
X152005487Y-105548500D01*
X152011939Y-105547128D01*
X152011944Y-105547128D01*
X152098887Y-105528647D01*
X152192288Y-105508794D01*
X152198319Y-105506109D01*
X152360722Y-105433803D01*
X152360724Y-105433802D01*
X152366752Y-105431118D01*
X152521253Y-105318866D01*
X152649040Y-105176944D01*
X152744527Y-105011556D01*
X152803542Y-104829928D01*
X152823504Y-104640000D01*
X152803542Y-104450072D01*
X152744527Y-104268444D01*
X152720381Y-104226622D01*
X152703500Y-104163622D01*
X152703500Y-102758763D01*
X152704027Y-102747579D01*
X152705701Y-102740091D01*
X152703562Y-102672032D01*
X152703500Y-102668075D01*
X152703500Y-102640144D01*
X152702994Y-102636138D01*
X152702061Y-102624292D01*
X152700922Y-102588037D01*
X152700673Y-102580110D01*
X152695022Y-102560658D01*
X152691014Y-102541306D01*
X152689468Y-102529068D01*
X152689467Y-102529066D01*
X152688474Y-102521203D01*
X152672194Y-102480086D01*
X152668359Y-102468885D01*
X152656018Y-102426406D01*
X152651985Y-102419587D01*
X152651983Y-102419582D01*
X152645707Y-102408971D01*
X152637010Y-102391221D01*
X152629552Y-102372383D01*
X152603571Y-102336623D01*
X152597053Y-102326701D01*
X152578578Y-102295460D01*
X152578574Y-102295455D01*
X152574542Y-102288637D01*
X152560218Y-102274313D01*
X152547376Y-102259278D01*
X152535472Y-102242893D01*
X152501406Y-102214711D01*
X152492627Y-102206722D01*
X150923652Y-100637747D01*
X150916112Y-100629461D01*
X150912000Y-100622982D01*
X150862348Y-100576356D01*
X150859507Y-100573602D01*
X150839770Y-100553865D01*
X150836573Y-100551385D01*
X150827551Y-100543680D01*
X150801100Y-100518841D01*
X150795321Y-100513414D01*
X150788375Y-100509595D01*
X150788372Y-100509593D01*
X150777566Y-100503652D01*
X150761047Y-100492801D01*
X150759434Y-100491550D01*
X150745041Y-100480386D01*
X150737772Y-100477241D01*
X150737768Y-100477238D01*
X150704463Y-100462826D01*
X150693813Y-100457609D01*
X150655060Y-100436305D01*
X150635437Y-100431267D01*
X150616734Y-100424863D01*
X150605420Y-100419967D01*
X150605419Y-100419967D01*
X150598145Y-100416819D01*
X150590322Y-100415580D01*
X150590312Y-100415577D01*
X150554476Y-100409901D01*
X150542856Y-100407495D01*
X150507711Y-100398472D01*
X150507710Y-100398472D01*
X150500030Y-100396500D01*
X150479776Y-100396500D01*
X150460065Y-100394949D01*
X150447886Y-100393020D01*
X150440057Y-100391780D01*
X150432165Y-100392526D01*
X150396039Y-100395941D01*
X150384181Y-100396500D01*
X146106030Y-100396500D01*
X146037909Y-100376498D01*
X146016935Y-100359595D01*
X144680435Y-99023095D01*
X144646409Y-98960783D01*
X144651474Y-98889968D01*
X144694021Y-98833132D01*
X144760541Y-98808321D01*
X144769530Y-98808000D01*
X145438980Y-98808000D01*
X145451096Y-98809354D01*
X145451135Y-98808870D01*
X145460086Y-98809590D01*
X145468840Y-98811571D01*
X145522501Y-98808242D01*
X145530303Y-98808000D01*
X145546477Y-98808000D01*
X145550918Y-98807364D01*
X145550919Y-98807364D01*
X145556813Y-98806520D01*
X145566872Y-98805490D01*
X145584196Y-98804415D01*
X145605117Y-98803117D01*
X145605119Y-98803117D01*
X145614075Y-98802561D01*
X145622513Y-98799515D01*
X145625424Y-98798912D01*
X145642292Y-98794706D01*
X145645159Y-98793868D01*
X145654045Y-98792595D01*
X145662216Y-98788880D01*
X145662219Y-98788879D01*
X145697092Y-98773023D01*
X145706461Y-98769209D01*
X145742501Y-98756199D01*
X145742505Y-98756197D01*
X145750945Y-98753150D01*
X145758194Y-98747854D01*
X145760829Y-98746453D01*
X145775814Y-98737697D01*
X145778339Y-98736082D01*
X145786510Y-98732367D01*
X145822338Y-98701496D01*
X145830256Y-98695209D01*
X145837286Y-98690073D01*
X145837289Y-98690071D01*
X145841225Y-98687195D01*
X145852177Y-98676243D01*
X145859025Y-98669885D01*
X145889944Y-98643244D01*
X145889948Y-98643239D01*
X145896747Y-98637381D01*
X145901630Y-98629847D01*
X145907104Y-98623572D01*
X145916668Y-98611752D01*
X146483515Y-98044905D01*
X146545827Y-98010879D01*
X146572610Y-98008000D01*
X151809052Y-98008000D01*
X151815352Y-98008364D01*
X151820783Y-98009797D01*
X151829762Y-98009558D01*
X151886601Y-98008045D01*
X151889954Y-98008000D01*
X151916477Y-98008000D01*
X151920910Y-98007365D01*
X151923336Y-98007192D01*
X151928939Y-98006918D01*
X151957270Y-98006164D01*
X151957271Y-98006164D01*
X151966245Y-98005925D01*
X151974791Y-98003177D01*
X151974793Y-98003177D01*
X151984432Y-98000078D01*
X152005130Y-97995304D01*
X152007893Y-97994908D01*
X152024045Y-97992595D01*
X152032211Y-97988882D01*
X152032218Y-97988880D01*
X152056866Y-97977673D01*
X152070451Y-97972420D01*
X152070588Y-97972376D01*
X152104776Y-97961384D01*
X152120595Y-97950664D01*
X152139125Y-97940271D01*
X152156510Y-97932367D01*
X152183836Y-97908822D01*
X152189534Y-97904460D01*
X152189502Y-97904419D01*
X152193293Y-97901398D01*
X152197332Y-97898661D01*
X152200897Y-97895339D01*
X152200904Y-97895334D01*
X152216519Y-97880786D01*
X152220161Y-97877522D01*
X152259946Y-97843241D01*
X152266747Y-97837381D01*
X152271101Y-97830664D01*
X152278308Y-97823218D01*
X153624373Y-96569120D01*
X153687849Y-96537319D01*
X153758441Y-96544884D01*
X153813737Y-96589413D01*
X153828988Y-96619114D01*
X153842626Y-96657486D01*
X153893936Y-96801859D01*
X154020317Y-97045762D01*
X154178732Y-97270186D01*
X154181670Y-97273332D01*
X154181671Y-97273333D01*
X154363294Y-97467804D01*
X154363299Y-97467809D01*
X154366231Y-97470948D01*
X154579320Y-97644309D01*
X154814031Y-97787039D01*
X154817978Y-97788753D01*
X154817981Y-97788755D01*
X155059104Y-97893490D01*
X155065990Y-97896481D01*
X155070131Y-97897641D01*
X155070133Y-97897642D01*
X155159576Y-97922703D01*
X155330506Y-97970595D01*
X155602649Y-98008000D01*
X155877351Y-98008000D01*
X156149494Y-97970595D01*
X156320424Y-97922703D01*
X156409867Y-97897642D01*
X156409869Y-97897641D01*
X156414010Y-97896481D01*
X156420896Y-97893490D01*
X156662019Y-97788755D01*
X156662022Y-97788753D01*
X156665969Y-97787039D01*
X156900680Y-97644309D01*
X157113769Y-97470948D01*
X157116701Y-97467809D01*
X157116706Y-97467804D01*
X157298329Y-97273333D01*
X157298330Y-97273332D01*
X157301268Y-97270186D01*
X157459683Y-97045762D01*
X157586064Y-96801859D01*
X157637374Y-96657486D01*
X157651012Y-96619114D01*
X157692672Y-96561625D01*
X157758799Y-96535785D01*
X157828399Y-96549798D01*
G37*
%TD.AperFunction*%
%TD*%
M02*
