%TF.GenerationSoftware,KiCad,Pcbnew,(6.0.1)*%
%TF.CreationDate,2022-02-28T00:58:12-07:00*%
%TF.ProjectId,MShaw_4gbNandExtensionQSB_V2,4d536861-775f-4346-9762-4e616e644578,rev?*%
%TF.SameCoordinates,Original*%
%TF.FileFunction,Legend,Top*%
%TF.FilePolarity,Positive*%
%FSLAX46Y46*%
G04 Gerber Fmt 4.6, Leading zero omitted, Abs format (unit mm)*
G04 Created by KiCad (PCBNEW (6.0.1)) date 2022-02-28 00:58:12*
%MOMM*%
%LPD*%
G01*
G04 APERTURE LIST*
G04 Aperture macros list*
%AMRoundRect*
0 Rectangle with rounded corners*
0 $1 Rounding radius*
0 $2 $3 $4 $5 $6 $7 $8 $9 X,Y pos of 4 corners*
0 Add a 4 corners polygon primitive as box body*
4,1,4,$2,$3,$4,$5,$6,$7,$8,$9,$2,$3,0*
0 Add four circle primitives for the rounded corners*
1,1,$1+$1,$2,$3*
1,1,$1+$1,$4,$5*
1,1,$1+$1,$6,$7*
1,1,$1+$1,$8,$9*
0 Add four rect primitives between the rounded corners*
20,1,$1+$1,$2,$3,$4,$5,0*
20,1,$1+$1,$4,$5,$6,$7,0*
20,1,$1+$1,$6,$7,$8,$9,0*
20,1,$1+$1,$8,$9,$2,$3,0*%
G04 Aperture macros list end*
%ADD10C,0.100000*%
%ADD11C,0.150000*%
%ADD12C,0.300000*%
%ADD13C,0.400000*%
%ADD14C,0.093750*%
%ADD15C,0.080000*%
%ADD16C,0.075000*%
%ADD17C,0.120000*%
%ADD18RoundRect,0.750000X0.750000X-0.750000X0.750000X0.750000X-0.750000X0.750000X-0.750000X-0.750000X0*%
%ADD19RoundRect,0.250000X0.250000X-0.750000X0.250000X0.750000X-0.250000X0.750000X-0.250000X-0.750000X0*%
%ADD20RoundRect,0.750000X-0.750000X-0.750000X0.750000X-0.750000X0.750000X0.750000X-0.750000X0.750000X0*%
%ADD21RoundRect,0.500000X-0.500000X-0.500000X0.500000X-0.500000X0.500000X0.500000X-0.500000X0.500000X0*%
%ADD22RoundRect,0.250000X0.450000X-0.350000X0.450000X0.350000X-0.450000X0.350000X-0.450000X-0.350000X0*%
%ADD23RoundRect,0.250000X0.450000X-0.325000X0.450000X0.325000X-0.450000X0.325000X-0.450000X-0.325000X0*%
G04 APERTURE END LIST*
D10*
D11*
X177002200Y-166007200D02*
X177002200Y-198007200D01*
X285002200Y-198007200D01*
X285002200Y-166007200D01*
X177002200Y-166007200D01*
D10*
D11*
X10000000Y-10000000D02*
X10000000Y-200007200D01*
X287002200Y-200007200D01*
X287002200Y-10000000D01*
X10000000Y-10000000D01*
D10*
D11*
X12000000Y-12000000D02*
X12000000Y-198007200D01*
X285002200Y-198007200D01*
X285002200Y-12000000D01*
X12000000Y-12000000D01*
D10*
D11*
X60000000Y-12000000D02*
X60000000Y-10000000D01*
D10*
D11*
X110000000Y-12000000D02*
X110000000Y-10000000D01*
D10*
D11*
X160000000Y-12000000D02*
X160000000Y-10000000D01*
D10*
D11*
X210000000Y-12000000D02*
X210000000Y-10000000D01*
D10*
D11*
X260000000Y-12000000D02*
X260000000Y-10000000D01*
D10*
D11*
X36065476Y-11588095D02*
X35322619Y-11588095D01*
X35694047Y-11588095D02*
X35694047Y-10288095D01*
X35570238Y-10473809D01*
X35446428Y-10597619D01*
X35322619Y-10659523D01*
D10*
D11*
X85322619Y-10411904D02*
X85384523Y-10350000D01*
X85508333Y-10288095D01*
X85817857Y-10288095D01*
X85941666Y-10350000D01*
X86003571Y-10411904D01*
X86065476Y-10535714D01*
X86065476Y-10659523D01*
X86003571Y-10845238D01*
X85260714Y-11588095D01*
X86065476Y-11588095D01*
D10*
D11*
X135260714Y-10288095D02*
X136065476Y-10288095D01*
X135632142Y-10783333D01*
X135817857Y-10783333D01*
X135941666Y-10845238D01*
X136003571Y-10907142D01*
X136065476Y-11030952D01*
X136065476Y-11340476D01*
X136003571Y-11464285D01*
X135941666Y-11526190D01*
X135817857Y-11588095D01*
X135446428Y-11588095D01*
X135322619Y-11526190D01*
X135260714Y-11464285D01*
D10*
D11*
X185941666Y-10721428D02*
X185941666Y-11588095D01*
X185632142Y-10226190D02*
X185322619Y-11154761D01*
X186127380Y-11154761D01*
D10*
D11*
X236003571Y-10288095D02*
X235384523Y-10288095D01*
X235322619Y-10907142D01*
X235384523Y-10845238D01*
X235508333Y-10783333D01*
X235817857Y-10783333D01*
X235941666Y-10845238D01*
X236003571Y-10907142D01*
X236065476Y-11030952D01*
X236065476Y-11340476D01*
X236003571Y-11464285D01*
X235941666Y-11526190D01*
X235817857Y-11588095D01*
X235508333Y-11588095D01*
X235384523Y-11526190D01*
X235322619Y-11464285D01*
D10*
D11*
X285941666Y-10288095D02*
X285694047Y-10288095D01*
X285570238Y-10350000D01*
X285508333Y-10411904D01*
X285384523Y-10597619D01*
X285322619Y-10845238D01*
X285322619Y-11340476D01*
X285384523Y-11464285D01*
X285446428Y-11526190D01*
X285570238Y-11588095D01*
X285817857Y-11588095D01*
X285941666Y-11526190D01*
X286003571Y-11464285D01*
X286065476Y-11340476D01*
X286065476Y-11030952D01*
X286003571Y-10907142D01*
X285941666Y-10845238D01*
X285817857Y-10783333D01*
X285570238Y-10783333D01*
X285446428Y-10845238D01*
X285384523Y-10907142D01*
X285322619Y-11030952D01*
D10*
D11*
X60000000Y-198007200D02*
X60000000Y-200007200D01*
D10*
D11*
X110000000Y-198007200D02*
X110000000Y-200007200D01*
D10*
D11*
X160000000Y-198007200D02*
X160000000Y-200007200D01*
D10*
D11*
X210000000Y-198007200D02*
X210000000Y-200007200D01*
D10*
D11*
X260000000Y-198007200D02*
X260000000Y-200007200D01*
D10*
D11*
X36065476Y-199595295D02*
X35322619Y-199595295D01*
X35694047Y-199595295D02*
X35694047Y-198295295D01*
X35570238Y-198481009D01*
X35446428Y-198604819D01*
X35322619Y-198666723D01*
D10*
D11*
X85322619Y-198419104D02*
X85384523Y-198357200D01*
X85508333Y-198295295D01*
X85817857Y-198295295D01*
X85941666Y-198357200D01*
X86003571Y-198419104D01*
X86065476Y-198542914D01*
X86065476Y-198666723D01*
X86003571Y-198852438D01*
X85260714Y-199595295D01*
X86065476Y-199595295D01*
D10*
D11*
X135260714Y-198295295D02*
X136065476Y-198295295D01*
X135632142Y-198790533D01*
X135817857Y-198790533D01*
X135941666Y-198852438D01*
X136003571Y-198914342D01*
X136065476Y-199038152D01*
X136065476Y-199347676D01*
X136003571Y-199471485D01*
X135941666Y-199533390D01*
X135817857Y-199595295D01*
X135446428Y-199595295D01*
X135322619Y-199533390D01*
X135260714Y-199471485D01*
D10*
D11*
X185941666Y-198728628D02*
X185941666Y-199595295D01*
X185632142Y-198233390D02*
X185322619Y-199161961D01*
X186127380Y-199161961D01*
D10*
D11*
X236003571Y-198295295D02*
X235384523Y-198295295D01*
X235322619Y-198914342D01*
X235384523Y-198852438D01*
X235508333Y-198790533D01*
X235817857Y-198790533D01*
X235941666Y-198852438D01*
X236003571Y-198914342D01*
X236065476Y-199038152D01*
X236065476Y-199347676D01*
X236003571Y-199471485D01*
X235941666Y-199533390D01*
X235817857Y-199595295D01*
X235508333Y-199595295D01*
X235384523Y-199533390D01*
X235322619Y-199471485D01*
D10*
D11*
X285941666Y-198295295D02*
X285694047Y-198295295D01*
X285570238Y-198357200D01*
X285508333Y-198419104D01*
X285384523Y-198604819D01*
X285322619Y-198852438D01*
X285322619Y-199347676D01*
X285384523Y-199471485D01*
X285446428Y-199533390D01*
X285570238Y-199595295D01*
X285817857Y-199595295D01*
X285941666Y-199533390D01*
X286003571Y-199471485D01*
X286065476Y-199347676D01*
X286065476Y-199038152D01*
X286003571Y-198914342D01*
X285941666Y-198852438D01*
X285817857Y-198790533D01*
X285570238Y-198790533D01*
X285446428Y-198852438D01*
X285384523Y-198914342D01*
X285322619Y-199038152D01*
D10*
D11*
X10000000Y-60000000D02*
X12000000Y-60000000D01*
D10*
D11*
X10000000Y-110000000D02*
X12000000Y-110000000D01*
D10*
D11*
X10000000Y-160000000D02*
X12000000Y-160000000D01*
D10*
D11*
X10690476Y-35216666D02*
X11309523Y-35216666D01*
X10566666Y-35588095D02*
X11000000Y-34288095D01*
X11433333Y-35588095D01*
D10*
D11*
X11092857Y-84907142D02*
X11278571Y-84969047D01*
X11340476Y-85030952D01*
X11402380Y-85154761D01*
X11402380Y-85340476D01*
X11340476Y-85464285D01*
X11278571Y-85526190D01*
X11154761Y-85588095D01*
X10659523Y-85588095D01*
X10659523Y-84288095D01*
X11092857Y-84288095D01*
X11216666Y-84350000D01*
X11278571Y-84411904D01*
X11340476Y-84535714D01*
X11340476Y-84659523D01*
X11278571Y-84783333D01*
X11216666Y-84845238D01*
X11092857Y-84907142D01*
X10659523Y-84907142D01*
D10*
D11*
X11402380Y-135464285D02*
X11340476Y-135526190D01*
X11154761Y-135588095D01*
X11030952Y-135588095D01*
X10845238Y-135526190D01*
X10721428Y-135402380D01*
X10659523Y-135278571D01*
X10597619Y-135030952D01*
X10597619Y-134845238D01*
X10659523Y-134597619D01*
X10721428Y-134473809D01*
X10845238Y-134350000D01*
X11030952Y-134288095D01*
X11154761Y-134288095D01*
X11340476Y-134350000D01*
X11402380Y-134411904D01*
D10*
D11*
X10659523Y-185588095D02*
X10659523Y-184288095D01*
X10969047Y-184288095D01*
X11154761Y-184350000D01*
X11278571Y-184473809D01*
X11340476Y-184597619D01*
X11402380Y-184845238D01*
X11402380Y-185030952D01*
X11340476Y-185278571D01*
X11278571Y-185402380D01*
X11154761Y-185526190D01*
X10969047Y-185588095D01*
X10659523Y-185588095D01*
D10*
D11*
X287002200Y-60000000D02*
X285002200Y-60000000D01*
D10*
D11*
X287002200Y-110000000D02*
X285002200Y-110000000D01*
D10*
D11*
X287002200Y-160000000D02*
X285002200Y-160000000D01*
D10*
D11*
X285692676Y-35216666D02*
X286311723Y-35216666D01*
X285568866Y-35588095D02*
X286002200Y-34288095D01*
X286435533Y-35588095D01*
D10*
D11*
X286095057Y-84907142D02*
X286280771Y-84969047D01*
X286342676Y-85030952D01*
X286404580Y-85154761D01*
X286404580Y-85340476D01*
X286342676Y-85464285D01*
X286280771Y-85526190D01*
X286156961Y-85588095D01*
X285661723Y-85588095D01*
X285661723Y-84288095D01*
X286095057Y-84288095D01*
X286218866Y-84350000D01*
X286280771Y-84411904D01*
X286342676Y-84535714D01*
X286342676Y-84659523D01*
X286280771Y-84783333D01*
X286218866Y-84845238D01*
X286095057Y-84907142D01*
X285661723Y-84907142D01*
D10*
D11*
X286404580Y-135464285D02*
X286342676Y-135526190D01*
X286156961Y-135588095D01*
X286033152Y-135588095D01*
X285847438Y-135526190D01*
X285723628Y-135402380D01*
X285661723Y-135278571D01*
X285599819Y-135030952D01*
X285599819Y-134845238D01*
X285661723Y-134597619D01*
X285723628Y-134473809D01*
X285847438Y-134350000D01*
X286033152Y-134288095D01*
X286156961Y-134288095D01*
X286342676Y-134350000D01*
X286404580Y-134411904D01*
D10*
D11*
X285661723Y-185588095D02*
X285661723Y-184288095D01*
X285971247Y-184288095D01*
X286156961Y-184350000D01*
X286280771Y-184473809D01*
X286342676Y-184597619D01*
X286404580Y-184845238D01*
X286404580Y-185030952D01*
X286342676Y-185278571D01*
X286280771Y-185402380D01*
X286156961Y-185526190D01*
X285971247Y-185588095D01*
X285661723Y-185588095D01*
D10*
D11*
X200434342Y-193785771D02*
X200434342Y-192285771D01*
X200791485Y-192285771D01*
X201005771Y-192357200D01*
X201148628Y-192500057D01*
X201220057Y-192642914D01*
X201291485Y-192928628D01*
X201291485Y-193142914D01*
X201220057Y-193428628D01*
X201148628Y-193571485D01*
X201005771Y-193714342D01*
X200791485Y-193785771D01*
X200434342Y-193785771D01*
X202577200Y-193785771D02*
X202577200Y-193000057D01*
X202505771Y-192857200D01*
X202362914Y-192785771D01*
X202077200Y-192785771D01*
X201934342Y-192857200D01*
X202577200Y-193714342D02*
X202434342Y-193785771D01*
X202077200Y-193785771D01*
X201934342Y-193714342D01*
X201862914Y-193571485D01*
X201862914Y-193428628D01*
X201934342Y-193285771D01*
X202077200Y-193214342D01*
X202434342Y-193214342D01*
X202577200Y-193142914D01*
X203077200Y-192785771D02*
X203648628Y-192785771D01*
X203291485Y-192285771D02*
X203291485Y-193571485D01*
X203362914Y-193714342D01*
X203505771Y-193785771D01*
X203648628Y-193785771D01*
X204720057Y-193714342D02*
X204577200Y-193785771D01*
X204291485Y-193785771D01*
X204148628Y-193714342D01*
X204077200Y-193571485D01*
X204077200Y-193000057D01*
X204148628Y-192857200D01*
X204291485Y-192785771D01*
X204577200Y-192785771D01*
X204720057Y-192857200D01*
X204791485Y-193000057D01*
X204791485Y-193142914D01*
X204077200Y-193285771D01*
X205434342Y-193642914D02*
X205505771Y-193714342D01*
X205434342Y-193785771D01*
X205362914Y-193714342D01*
X205434342Y-193642914D01*
X205434342Y-193785771D01*
X205434342Y-192857200D02*
X205505771Y-192928628D01*
X205434342Y-193000057D01*
X205362914Y-192928628D01*
X205434342Y-192857200D01*
X205434342Y-193000057D01*
D10*
D11*
X177002200Y-194507200D02*
X285002200Y-194507200D01*
D10*
D11*
X178434342Y-196585771D02*
X178434342Y-195085771D01*
X179291485Y-196585771D02*
X178648628Y-195728628D01*
X179291485Y-195085771D02*
X178434342Y-195942914D01*
X179934342Y-196585771D02*
X179934342Y-195585771D01*
X179934342Y-195085771D02*
X179862914Y-195157200D01*
X179934342Y-195228628D01*
X180005771Y-195157200D01*
X179934342Y-195085771D01*
X179934342Y-195228628D01*
X181505771Y-196442914D02*
X181434342Y-196514342D01*
X181220057Y-196585771D01*
X181077200Y-196585771D01*
X180862914Y-196514342D01*
X180720057Y-196371485D01*
X180648628Y-196228628D01*
X180577200Y-195942914D01*
X180577200Y-195728628D01*
X180648628Y-195442914D01*
X180720057Y-195300057D01*
X180862914Y-195157200D01*
X181077200Y-195085771D01*
X181220057Y-195085771D01*
X181434342Y-195157200D01*
X181505771Y-195228628D01*
X182791485Y-196585771D02*
X182791485Y-195800057D01*
X182720057Y-195657200D01*
X182577200Y-195585771D01*
X182291485Y-195585771D01*
X182148628Y-195657200D01*
X182791485Y-196514342D02*
X182648628Y-196585771D01*
X182291485Y-196585771D01*
X182148628Y-196514342D01*
X182077200Y-196371485D01*
X182077200Y-196228628D01*
X182148628Y-196085771D01*
X182291485Y-196014342D01*
X182648628Y-196014342D01*
X182791485Y-195942914D01*
X184148628Y-196585771D02*
X184148628Y-195085771D01*
X184148628Y-196514342D02*
X184005771Y-196585771D01*
X183720057Y-196585771D01*
X183577200Y-196514342D01*
X183505771Y-196442914D01*
X183434342Y-196300057D01*
X183434342Y-195871485D01*
X183505771Y-195728628D01*
X183577200Y-195657200D01*
X183720057Y-195585771D01*
X184005771Y-195585771D01*
X184148628Y-195657200D01*
X186005771Y-195800057D02*
X186505771Y-195800057D01*
X186720057Y-196585771D02*
X186005771Y-196585771D01*
X186005771Y-195085771D01*
X186720057Y-195085771D01*
X187362914Y-196442914D02*
X187434342Y-196514342D01*
X187362914Y-196585771D01*
X187291485Y-196514342D01*
X187362914Y-196442914D01*
X187362914Y-196585771D01*
X188077200Y-196585771D02*
X188077200Y-195085771D01*
X188434342Y-195085771D01*
X188648628Y-195157200D01*
X188791485Y-195300057D01*
X188862914Y-195442914D01*
X188934342Y-195728628D01*
X188934342Y-195942914D01*
X188862914Y-196228628D01*
X188791485Y-196371485D01*
X188648628Y-196514342D01*
X188434342Y-196585771D01*
X188077200Y-196585771D01*
X189577200Y-196442914D02*
X189648628Y-196514342D01*
X189577200Y-196585771D01*
X189505771Y-196514342D01*
X189577200Y-196442914D01*
X189577200Y-196585771D01*
X190220057Y-196157200D02*
X190934342Y-196157200D01*
X190077200Y-196585771D02*
X190577200Y-195085771D01*
X191077200Y-196585771D01*
X191577200Y-196442914D02*
X191648628Y-196514342D01*
X191577200Y-196585771D01*
X191505771Y-196514342D01*
X191577200Y-196442914D01*
X191577200Y-196585771D01*
X194577200Y-196585771D02*
X194577200Y-195085771D01*
X194720057Y-196014342D02*
X195148628Y-196585771D01*
X195148628Y-195585771D02*
X194577200Y-196157200D01*
X195791485Y-196585771D02*
X195791485Y-195585771D01*
X195791485Y-195085771D02*
X195720057Y-195157200D01*
X195791485Y-195228628D01*
X195862914Y-195157200D01*
X195791485Y-195085771D01*
X195791485Y-195228628D01*
X197148628Y-196514342D02*
X197005771Y-196585771D01*
X196720057Y-196585771D01*
X196577200Y-196514342D01*
X196505771Y-196442914D01*
X196434342Y-196300057D01*
X196434342Y-195871485D01*
X196505771Y-195728628D01*
X196577200Y-195657200D01*
X196720057Y-195585771D01*
X197005771Y-195585771D01*
X197148628Y-195657200D01*
X198434342Y-196585771D02*
X198434342Y-195800057D01*
X198362914Y-195657200D01*
X198220057Y-195585771D01*
X197934342Y-195585771D01*
X197791485Y-195657200D01*
X198434342Y-196514342D02*
X198291485Y-196585771D01*
X197934342Y-196585771D01*
X197791485Y-196514342D01*
X197720057Y-196371485D01*
X197720057Y-196228628D01*
X197791485Y-196085771D01*
X197934342Y-196014342D01*
X198291485Y-196014342D01*
X198434342Y-195942914D01*
X199791485Y-196585771D02*
X199791485Y-195085771D01*
X199791485Y-196514342D02*
X199648628Y-196585771D01*
X199362914Y-196585771D01*
X199220057Y-196514342D01*
X199148628Y-196442914D01*
X199077200Y-196300057D01*
X199077200Y-195871485D01*
X199148628Y-195728628D01*
X199220057Y-195657200D01*
X199362914Y-195585771D01*
X199648628Y-195585771D01*
X199791485Y-195657200D01*
X202077200Y-197157200D02*
X202005771Y-197085771D01*
X201862914Y-196871485D01*
X201791485Y-196728628D01*
X201720057Y-196514342D01*
X201648628Y-196157200D01*
X201648628Y-195871485D01*
X201720057Y-195514342D01*
X201791485Y-195300057D01*
X201862914Y-195157200D01*
X202005771Y-194942914D01*
X202077200Y-194871485D01*
X203291485Y-195085771D02*
X203005771Y-195085771D01*
X202862914Y-195157200D01*
X202791485Y-195228628D01*
X202648628Y-195442914D01*
X202577200Y-195728628D01*
X202577200Y-196300057D01*
X202648628Y-196442914D01*
X202720057Y-196514342D01*
X202862914Y-196585771D01*
X203148628Y-196585771D01*
X203291485Y-196514342D01*
X203362914Y-196442914D01*
X203434342Y-196300057D01*
X203434342Y-195942914D01*
X203362914Y-195800057D01*
X203291485Y-195728628D01*
X203148628Y-195657200D01*
X202862914Y-195657200D01*
X202720057Y-195728628D01*
X202648628Y-195800057D01*
X202577200Y-195942914D01*
X204077200Y-196442914D02*
X204148628Y-196514342D01*
X204077200Y-196585771D01*
X204005771Y-196514342D01*
X204077200Y-196442914D01*
X204077200Y-196585771D01*
X205077200Y-195085771D02*
X205220057Y-195085771D01*
X205362914Y-195157200D01*
X205434342Y-195228628D01*
X205505771Y-195371485D01*
X205577200Y-195657200D01*
X205577200Y-196014342D01*
X205505771Y-196300057D01*
X205434342Y-196442914D01*
X205362914Y-196514342D01*
X205220057Y-196585771D01*
X205077200Y-196585771D01*
X204934342Y-196514342D01*
X204862914Y-196442914D01*
X204791485Y-196300057D01*
X204720057Y-196014342D01*
X204720057Y-195657200D01*
X204791485Y-195371485D01*
X204862914Y-195228628D01*
X204934342Y-195157200D01*
X205077200Y-195085771D01*
X206220057Y-196442914D02*
X206291485Y-196514342D01*
X206220057Y-196585771D01*
X206148628Y-196514342D01*
X206220057Y-196442914D01*
X206220057Y-196585771D01*
X207720057Y-196585771D02*
X206862914Y-196585771D01*
X207291485Y-196585771D02*
X207291485Y-195085771D01*
X207148628Y-195300057D01*
X207005771Y-195442914D01*
X206862914Y-195514342D01*
X208220057Y-197157200D02*
X208291485Y-197085771D01*
X208434342Y-196871485D01*
X208505771Y-196728628D01*
X208577200Y-196514342D01*
X208648628Y-196157200D01*
X208648628Y-195871485D01*
X208577200Y-195514342D01*
X208505771Y-195300057D01*
X208434342Y-195157200D01*
X208291485Y-194942914D01*
X208220057Y-194871485D01*
D10*
D11*
X177002200Y-191507200D02*
X285002200Y-191507200D01*
D10*
D12*
X264411485Y-193785771D02*
X263911485Y-193071485D01*
X263554342Y-193785771D02*
X263554342Y-192285771D01*
X264125771Y-192285771D01*
X264268628Y-192357200D01*
X264340057Y-192428628D01*
X264411485Y-192571485D01*
X264411485Y-192785771D01*
X264340057Y-192928628D01*
X264268628Y-193000057D01*
X264125771Y-193071485D01*
X263554342Y-193071485D01*
X265625771Y-193714342D02*
X265482914Y-193785771D01*
X265197200Y-193785771D01*
X265054342Y-193714342D01*
X264982914Y-193571485D01*
X264982914Y-193000057D01*
X265054342Y-192857200D01*
X265197200Y-192785771D01*
X265482914Y-192785771D01*
X265625771Y-192857200D01*
X265697200Y-193000057D01*
X265697200Y-193142914D01*
X264982914Y-193285771D01*
X266197200Y-192785771D02*
X266554342Y-193785771D01*
X266911485Y-192785771D01*
X267482914Y-193642914D02*
X267554342Y-193714342D01*
X267482914Y-193785771D01*
X267411485Y-193714342D01*
X267482914Y-193642914D01*
X267482914Y-193785771D01*
X267482914Y-192857200D02*
X267554342Y-192928628D01*
X267482914Y-193000057D01*
X267411485Y-192928628D01*
X267482914Y-192857200D01*
X267482914Y-193000057D01*
D10*
D11*
X178362914Y-193714342D02*
X178577200Y-193785771D01*
X178934342Y-193785771D01*
X179077200Y-193714342D01*
X179148628Y-193642914D01*
X179220057Y-193500057D01*
X179220057Y-193357200D01*
X179148628Y-193214342D01*
X179077200Y-193142914D01*
X178934342Y-193071485D01*
X178648628Y-193000057D01*
X178505771Y-192928628D01*
X178434342Y-192857200D01*
X178362914Y-192714342D01*
X178362914Y-192571485D01*
X178434342Y-192428628D01*
X178505771Y-192357200D01*
X178648628Y-192285771D01*
X179005771Y-192285771D01*
X179220057Y-192357200D01*
X179862914Y-193785771D02*
X179862914Y-192785771D01*
X179862914Y-192285771D02*
X179791485Y-192357200D01*
X179862914Y-192428628D01*
X179934342Y-192357200D01*
X179862914Y-192285771D01*
X179862914Y-192428628D01*
X180434342Y-192785771D02*
X181220057Y-192785771D01*
X180434342Y-193785771D01*
X181220057Y-193785771D01*
X182362914Y-193714342D02*
X182220057Y-193785771D01*
X181934342Y-193785771D01*
X181791485Y-193714342D01*
X181720057Y-193571485D01*
X181720057Y-193000057D01*
X181791485Y-192857200D01*
X181934342Y-192785771D01*
X182220057Y-192785771D01*
X182362914Y-192857200D01*
X182434342Y-193000057D01*
X182434342Y-193142914D01*
X181720057Y-193285771D01*
X183077200Y-193642914D02*
X183148628Y-193714342D01*
X183077200Y-193785771D01*
X183005771Y-193714342D01*
X183077200Y-193642914D01*
X183077200Y-193785771D01*
X183077200Y-192857200D02*
X183148628Y-192928628D01*
X183077200Y-193000057D01*
X183005771Y-192928628D01*
X183077200Y-192857200D01*
X183077200Y-193000057D01*
X184862914Y-193357200D02*
X185577200Y-193357200D01*
X184720057Y-193785771D02*
X185220057Y-192285771D01*
X185720057Y-193785771D01*
X186862914Y-192785771D02*
X186862914Y-193785771D01*
X186505771Y-192214342D02*
X186148628Y-193285771D01*
X187077200Y-193285771D01*
D10*
D11*
X263434342Y-196585771D02*
X263434342Y-195085771D01*
X264791485Y-196585771D02*
X264791485Y-195085771D01*
X264791485Y-196514342D02*
X264648628Y-196585771D01*
X264362914Y-196585771D01*
X264220057Y-196514342D01*
X264148628Y-196442914D01*
X264077200Y-196300057D01*
X264077200Y-195871485D01*
X264148628Y-195728628D01*
X264220057Y-195657200D01*
X264362914Y-195585771D01*
X264648628Y-195585771D01*
X264791485Y-195657200D01*
X265505771Y-196442914D02*
X265577200Y-196514342D01*
X265505771Y-196585771D01*
X265434342Y-196514342D01*
X265505771Y-196442914D01*
X265505771Y-196585771D01*
X265505771Y-195657200D02*
X265577200Y-195728628D01*
X265505771Y-195800057D01*
X265434342Y-195728628D01*
X265505771Y-195657200D01*
X265505771Y-195800057D01*
X268148628Y-196585771D02*
X267291485Y-196585771D01*
X267720057Y-196585771D02*
X267720057Y-195085771D01*
X267577200Y-195300057D01*
X267434342Y-195442914D01*
X267291485Y-195514342D01*
X269862914Y-195014342D02*
X268577200Y-196942914D01*
X271148628Y-196585771D02*
X270291485Y-196585771D01*
X270720057Y-196585771D02*
X270720057Y-195085771D01*
X270577200Y-195300057D01*
X270434342Y-195442914D01*
X270291485Y-195514342D01*
D10*
D11*
X177002200Y-187507200D02*
X285002200Y-187507200D01*
D10*
D13*
X178714580Y-188211961D02*
X179857438Y-188211961D01*
X179036009Y-190211961D02*
X179286009Y-188211961D01*
X180274104Y-190211961D02*
X180440771Y-188878628D01*
X180524104Y-188211961D02*
X180416961Y-188307200D01*
X180500295Y-188402438D01*
X180607438Y-188307200D01*
X180524104Y-188211961D01*
X180500295Y-188402438D01*
X181107438Y-188878628D02*
X181869342Y-188878628D01*
X181476485Y-188211961D02*
X181262200Y-189926247D01*
X181333628Y-190116723D01*
X181512200Y-190211961D01*
X181702676Y-190211961D01*
X182655057Y-190211961D02*
X182476485Y-190116723D01*
X182405057Y-189926247D01*
X182619342Y-188211961D01*
X184190771Y-190116723D02*
X183988390Y-190211961D01*
X183607438Y-190211961D01*
X183428866Y-190116723D01*
X183357438Y-189926247D01*
X183452676Y-189164342D01*
X183571723Y-188973866D01*
X183774104Y-188878628D01*
X184155057Y-188878628D01*
X184333628Y-188973866D01*
X184405057Y-189164342D01*
X184381247Y-189354819D01*
X183405057Y-189545295D01*
X185155057Y-190021485D02*
X185238390Y-190116723D01*
X185131247Y-190211961D01*
X185047914Y-190116723D01*
X185155057Y-190021485D01*
X185131247Y-190211961D01*
X185286009Y-188973866D02*
X185369342Y-189069104D01*
X185262200Y-189164342D01*
X185178866Y-189069104D01*
X185286009Y-188973866D01*
X185262200Y-189164342D01*
D10*
D11*
X178934342Y-185600057D02*
X178434342Y-185600057D01*
X178434342Y-186385771D02*
X178434342Y-184885771D01*
X179148628Y-184885771D01*
X179720057Y-186385771D02*
X179720057Y-185385771D01*
X179720057Y-184885771D02*
X179648628Y-184957200D01*
X179720057Y-185028628D01*
X179791485Y-184957200D01*
X179720057Y-184885771D01*
X179720057Y-185028628D01*
X180648628Y-186385771D02*
X180505771Y-186314342D01*
X180434342Y-186171485D01*
X180434342Y-184885771D01*
X181791485Y-186314342D02*
X181648628Y-186385771D01*
X181362914Y-186385771D01*
X181220057Y-186314342D01*
X181148628Y-186171485D01*
X181148628Y-185600057D01*
X181220057Y-185457200D01*
X181362914Y-185385771D01*
X181648628Y-185385771D01*
X181791485Y-185457200D01*
X181862914Y-185600057D01*
X181862914Y-185742914D01*
X181148628Y-185885771D01*
X182505771Y-186242914D02*
X182577200Y-186314342D01*
X182505771Y-186385771D01*
X182434342Y-186314342D01*
X182505771Y-186242914D01*
X182505771Y-186385771D01*
X182505771Y-185457200D02*
X182577200Y-185528628D01*
X182505771Y-185600057D01*
X182434342Y-185528628D01*
X182505771Y-185457200D01*
X182505771Y-185600057D01*
X184362914Y-186385771D02*
X184362914Y-184885771D01*
X184862914Y-185957200D01*
X185362914Y-184885771D01*
X185362914Y-186385771D01*
X186005771Y-186314342D02*
X186220057Y-186385771D01*
X186577200Y-186385771D01*
X186720057Y-186314342D01*
X186791485Y-186242914D01*
X186862914Y-186100057D01*
X186862914Y-185957200D01*
X186791485Y-185814342D01*
X186720057Y-185742914D01*
X186577200Y-185671485D01*
X186291485Y-185600057D01*
X186148628Y-185528628D01*
X186077200Y-185457200D01*
X186005771Y-185314342D01*
X186005771Y-185171485D01*
X186077200Y-185028628D01*
X186148628Y-184957200D01*
X186291485Y-184885771D01*
X186648628Y-184885771D01*
X186862914Y-184957200D01*
X187505771Y-186385771D02*
X187505771Y-184885771D01*
X188148628Y-186385771D02*
X188148628Y-185600057D01*
X188077200Y-185457200D01*
X187934342Y-185385771D01*
X187720057Y-185385771D01*
X187577200Y-185457200D01*
X187505771Y-185528628D01*
X189505771Y-186385771D02*
X189505771Y-185600057D01*
X189434342Y-185457200D01*
X189291485Y-185385771D01*
X189005771Y-185385771D01*
X188862914Y-185457200D01*
X189505771Y-186314342D02*
X189362914Y-186385771D01*
X189005771Y-186385771D01*
X188862914Y-186314342D01*
X188791485Y-186171485D01*
X188791485Y-186028628D01*
X188862914Y-185885771D01*
X189005771Y-185814342D01*
X189362914Y-185814342D01*
X189505771Y-185742914D01*
X190077200Y-185385771D02*
X190362914Y-186385771D01*
X190648628Y-185671485D01*
X190934342Y-186385771D01*
X191220057Y-185385771D01*
X191434342Y-186528628D02*
X192577200Y-186528628D01*
X193577200Y-185385771D02*
X193577200Y-186385771D01*
X193220057Y-184814342D02*
X192862914Y-185885771D01*
X193791485Y-185885771D01*
X195005771Y-185385771D02*
X195005771Y-186600057D01*
X194934342Y-186742914D01*
X194862914Y-186814342D01*
X194720057Y-186885771D01*
X194505771Y-186885771D01*
X194362914Y-186814342D01*
X195005771Y-186314342D02*
X194862914Y-186385771D01*
X194577200Y-186385771D01*
X194434342Y-186314342D01*
X194362914Y-186242914D01*
X194291485Y-186100057D01*
X194291485Y-185671485D01*
X194362914Y-185528628D01*
X194434342Y-185457200D01*
X194577200Y-185385771D01*
X194862914Y-185385771D01*
X195005771Y-185457200D01*
X195720057Y-186385771D02*
X195720057Y-184885771D01*
X195720057Y-185457200D02*
X195862914Y-185385771D01*
X196148628Y-185385771D01*
X196291485Y-185457200D01*
X196362914Y-185528628D01*
X196434342Y-185671485D01*
X196434342Y-186100057D01*
X196362914Y-186242914D01*
X196291485Y-186314342D01*
X196148628Y-186385771D01*
X195862914Y-186385771D01*
X195720057Y-186314342D01*
X197077200Y-186385771D02*
X197077200Y-184885771D01*
X197934342Y-186385771D01*
X197934342Y-184885771D01*
X199291485Y-186385771D02*
X199291485Y-185600057D01*
X199220057Y-185457200D01*
X199077200Y-185385771D01*
X198791485Y-185385771D01*
X198648628Y-185457200D01*
X199291485Y-186314342D02*
X199148628Y-186385771D01*
X198791485Y-186385771D01*
X198648628Y-186314342D01*
X198577200Y-186171485D01*
X198577200Y-186028628D01*
X198648628Y-185885771D01*
X198791485Y-185814342D01*
X199148628Y-185814342D01*
X199291485Y-185742914D01*
X200005771Y-185385771D02*
X200005771Y-186385771D01*
X200005771Y-185528628D02*
X200077200Y-185457200D01*
X200220057Y-185385771D01*
X200434342Y-185385771D01*
X200577200Y-185457200D01*
X200648628Y-185600057D01*
X200648628Y-186385771D01*
X202005771Y-186385771D02*
X202005771Y-184885771D01*
X202005771Y-186314342D02*
X201862914Y-186385771D01*
X201577200Y-186385771D01*
X201434342Y-186314342D01*
X201362914Y-186242914D01*
X201291485Y-186100057D01*
X201291485Y-185671485D01*
X201362914Y-185528628D01*
X201434342Y-185457200D01*
X201577200Y-185385771D01*
X201862914Y-185385771D01*
X202005771Y-185457200D01*
X202720057Y-185600057D02*
X203220057Y-185600057D01*
X203434342Y-186385771D02*
X202720057Y-186385771D01*
X202720057Y-184885771D01*
X203434342Y-184885771D01*
X203934342Y-186385771D02*
X204720057Y-185385771D01*
X203934342Y-185385771D02*
X204720057Y-186385771D01*
X205077200Y-185385771D02*
X205648628Y-185385771D01*
X205291485Y-184885771D02*
X205291485Y-186171485D01*
X205362914Y-186314342D01*
X205505771Y-186385771D01*
X205648628Y-186385771D01*
X206720057Y-186314342D02*
X206577200Y-186385771D01*
X206291485Y-186385771D01*
X206148628Y-186314342D01*
X206077200Y-186171485D01*
X206077200Y-185600057D01*
X206148628Y-185457200D01*
X206291485Y-185385771D01*
X206577200Y-185385771D01*
X206720057Y-185457200D01*
X206791485Y-185600057D01*
X206791485Y-185742914D01*
X206077200Y-185885771D01*
X207434342Y-185385771D02*
X207434342Y-186385771D01*
X207434342Y-185528628D02*
X207505771Y-185457200D01*
X207648628Y-185385771D01*
X207862914Y-185385771D01*
X208005771Y-185457200D01*
X208077200Y-185600057D01*
X208077200Y-186385771D01*
X208720057Y-186314342D02*
X208862914Y-186385771D01*
X209148628Y-186385771D01*
X209291485Y-186314342D01*
X209362914Y-186171485D01*
X209362914Y-186100057D01*
X209291485Y-185957200D01*
X209148628Y-185885771D01*
X208934342Y-185885771D01*
X208791485Y-185814342D01*
X208720057Y-185671485D01*
X208720057Y-185600057D01*
X208791485Y-185457200D01*
X208934342Y-185385771D01*
X209148628Y-185385771D01*
X209291485Y-185457200D01*
X210005771Y-186385771D02*
X210005771Y-185385771D01*
X210005771Y-184885771D02*
X209934342Y-184957200D01*
X210005771Y-185028628D01*
X210077200Y-184957200D01*
X210005771Y-184885771D01*
X210005771Y-185028628D01*
X210934342Y-186385771D02*
X210791485Y-186314342D01*
X210720057Y-186242914D01*
X210648628Y-186100057D01*
X210648628Y-185671485D01*
X210720057Y-185528628D01*
X210791485Y-185457200D01*
X210934342Y-185385771D01*
X211148628Y-185385771D01*
X211291485Y-185457200D01*
X211362914Y-185528628D01*
X211434342Y-185671485D01*
X211434342Y-186100057D01*
X211362914Y-186242914D01*
X211291485Y-186314342D01*
X211148628Y-186385771D01*
X210934342Y-186385771D01*
X212077200Y-185385771D02*
X212077200Y-186385771D01*
X212077200Y-185528628D02*
X212148628Y-185457200D01*
X212291485Y-185385771D01*
X212505771Y-185385771D01*
X212648628Y-185457200D01*
X212720057Y-185600057D01*
X212720057Y-186385771D01*
X214434342Y-186528628D02*
X214291485Y-186457200D01*
X214148628Y-186314342D01*
X213934342Y-186100057D01*
X213791485Y-186028628D01*
X213648628Y-186028628D01*
X213720057Y-186385771D02*
X213577200Y-186314342D01*
X213434342Y-186171485D01*
X213362914Y-185885771D01*
X213362914Y-185385771D01*
X213434342Y-185100057D01*
X213577200Y-184957200D01*
X213720057Y-184885771D01*
X214005771Y-184885771D01*
X214148628Y-184957200D01*
X214291485Y-185100057D01*
X214362914Y-185385771D01*
X214362914Y-185885771D01*
X214291485Y-186171485D01*
X214148628Y-186314342D01*
X214005771Y-186385771D01*
X213720057Y-186385771D01*
X214934342Y-186314342D02*
X215148628Y-186385771D01*
X215505771Y-186385771D01*
X215648628Y-186314342D01*
X215720057Y-186242914D01*
X215791485Y-186100057D01*
X215791485Y-185957200D01*
X215720057Y-185814342D01*
X215648628Y-185742914D01*
X215505771Y-185671485D01*
X215220057Y-185600057D01*
X215077200Y-185528628D01*
X215005771Y-185457200D01*
X214934342Y-185314342D01*
X214934342Y-185171485D01*
X215005771Y-185028628D01*
X215077200Y-184957200D01*
X215220057Y-184885771D01*
X215577200Y-184885771D01*
X215791485Y-184957200D01*
X216934342Y-185600057D02*
X217148628Y-185671485D01*
X217220057Y-185742914D01*
X217291485Y-185885771D01*
X217291485Y-186100057D01*
X217220057Y-186242914D01*
X217148628Y-186314342D01*
X217005771Y-186385771D01*
X216434342Y-186385771D01*
X216434342Y-184885771D01*
X216934342Y-184885771D01*
X217077200Y-184957200D01*
X217148628Y-185028628D01*
X217220057Y-185171485D01*
X217220057Y-185314342D01*
X217148628Y-185457200D01*
X217077200Y-185528628D01*
X216934342Y-185600057D01*
X216434342Y-185600057D01*
X217577200Y-186528628D02*
X218720057Y-186528628D01*
X218862914Y-184885771D02*
X219362914Y-186385771D01*
X219862914Y-184885771D01*
X220291485Y-185028628D02*
X220362914Y-184957200D01*
X220505771Y-184885771D01*
X220862914Y-184885771D01*
X221005771Y-184957200D01*
X221077200Y-185028628D01*
X221148628Y-185171485D01*
X221148628Y-185314342D01*
X221077200Y-185528628D01*
X220220057Y-186385771D01*
X221148628Y-186385771D01*
X221791485Y-186242914D02*
X221862914Y-186314342D01*
X221791485Y-186385771D01*
X221720057Y-186314342D01*
X221791485Y-186242914D01*
X221791485Y-186385771D01*
X222505771Y-186385771D02*
X222505771Y-184885771D01*
X222648628Y-185814342D02*
X223077200Y-186385771D01*
X223077200Y-185385771D02*
X222505771Y-185957200D01*
X223720057Y-186385771D02*
X223720057Y-185385771D01*
X223720057Y-184885771D02*
X223648628Y-184957200D01*
X223720057Y-185028628D01*
X223791485Y-184957200D01*
X223720057Y-184885771D01*
X223720057Y-185028628D01*
X225077200Y-186314342D02*
X224934342Y-186385771D01*
X224648628Y-186385771D01*
X224505771Y-186314342D01*
X224434342Y-186242914D01*
X224362914Y-186100057D01*
X224362914Y-185671485D01*
X224434342Y-185528628D01*
X224505771Y-185457200D01*
X224648628Y-185385771D01*
X224934342Y-185385771D01*
X225077200Y-185457200D01*
X226362914Y-186385771D02*
X226362914Y-185600057D01*
X226291485Y-185457200D01*
X226148628Y-185385771D01*
X225862914Y-185385771D01*
X225720057Y-185457200D01*
X226362914Y-186314342D02*
X226220057Y-186385771D01*
X225862914Y-186385771D01*
X225720057Y-186314342D01*
X225648628Y-186171485D01*
X225648628Y-186028628D01*
X225720057Y-185885771D01*
X225862914Y-185814342D01*
X226220057Y-185814342D01*
X226362914Y-185742914D01*
X227720057Y-186385771D02*
X227720057Y-184885771D01*
X227720057Y-186314342D02*
X227577200Y-186385771D01*
X227291485Y-186385771D01*
X227148628Y-186314342D01*
X227077200Y-186242914D01*
X227005771Y-186100057D01*
X227005771Y-185671485D01*
X227077200Y-185528628D01*
X227148628Y-185457200D01*
X227291485Y-185385771D01*
X227577200Y-185385771D01*
X227720057Y-185457200D01*
X228077200Y-186528628D02*
X229220057Y-186528628D01*
X229577200Y-185385771D02*
X229577200Y-186885771D01*
X229577200Y-185457200D02*
X229720057Y-185385771D01*
X230005771Y-185385771D01*
X230148628Y-185457200D01*
X230220057Y-185528628D01*
X230291485Y-185671485D01*
X230291485Y-186100057D01*
X230220057Y-186242914D01*
X230148628Y-186314342D01*
X230005771Y-186385771D01*
X229720057Y-186385771D01*
X229577200Y-186314342D01*
X231577200Y-186314342D02*
X231434342Y-186385771D01*
X231148628Y-186385771D01*
X231005771Y-186314342D01*
X230934342Y-186242914D01*
X230862914Y-186100057D01*
X230862914Y-185671485D01*
X230934342Y-185528628D01*
X231005771Y-185457200D01*
X231148628Y-185385771D01*
X231434342Y-185385771D01*
X231577200Y-185457200D01*
X232220057Y-186385771D02*
X232220057Y-184885771D01*
X232220057Y-185457200D02*
X232362914Y-185385771D01*
X232648628Y-185385771D01*
X232791485Y-185457200D01*
X232862914Y-185528628D01*
X232934342Y-185671485D01*
X232934342Y-186100057D01*
X232862914Y-186242914D01*
X232791485Y-186314342D01*
X232648628Y-186385771D01*
X232362914Y-186385771D01*
X232220057Y-186314342D01*
D10*
D11*
X177002200Y-181507200D02*
X285002200Y-181507200D01*
D10*
D11*
X178362914Y-183614342D02*
X178577200Y-183685771D01*
X178934342Y-183685771D01*
X179077200Y-183614342D01*
X179148628Y-183542914D01*
X179220057Y-183400057D01*
X179220057Y-183257200D01*
X179148628Y-183114342D01*
X179077200Y-183042914D01*
X178934342Y-182971485D01*
X178648628Y-182900057D01*
X178505771Y-182828628D01*
X178434342Y-182757200D01*
X178362914Y-182614342D01*
X178362914Y-182471485D01*
X178434342Y-182328628D01*
X178505771Y-182257200D01*
X178648628Y-182185771D01*
X179005771Y-182185771D01*
X179220057Y-182257200D01*
X179862914Y-183685771D02*
X179862914Y-182185771D01*
X180505771Y-183685771D02*
X180505771Y-182900057D01*
X180434342Y-182757200D01*
X180291485Y-182685771D01*
X180077200Y-182685771D01*
X179934342Y-182757200D01*
X179862914Y-182828628D01*
X181791485Y-183614342D02*
X181648628Y-183685771D01*
X181362914Y-183685771D01*
X181220057Y-183614342D01*
X181148628Y-183471485D01*
X181148628Y-182900057D01*
X181220057Y-182757200D01*
X181362914Y-182685771D01*
X181648628Y-182685771D01*
X181791485Y-182757200D01*
X181862914Y-182900057D01*
X181862914Y-183042914D01*
X181148628Y-183185771D01*
X183077200Y-183614342D02*
X182934342Y-183685771D01*
X182648628Y-183685771D01*
X182505771Y-183614342D01*
X182434342Y-183471485D01*
X182434342Y-182900057D01*
X182505771Y-182757200D01*
X182648628Y-182685771D01*
X182934342Y-182685771D01*
X183077200Y-182757200D01*
X183148628Y-182900057D01*
X183148628Y-183042914D01*
X182434342Y-183185771D01*
X183577200Y-182685771D02*
X184148628Y-182685771D01*
X183791485Y-182185771D02*
X183791485Y-183471485D01*
X183862914Y-183614342D01*
X184005771Y-183685771D01*
X184148628Y-183685771D01*
X184648628Y-183542914D02*
X184720057Y-183614342D01*
X184648628Y-183685771D01*
X184577200Y-183614342D01*
X184648628Y-183542914D01*
X184648628Y-183685771D01*
X184648628Y-182757200D02*
X184720057Y-182828628D01*
X184648628Y-182900057D01*
X184577200Y-182828628D01*
X184648628Y-182757200D01*
X184648628Y-182900057D01*
D10*
D12*
D10*
D11*
D10*
D11*
D10*
D11*
D10*
D11*
D10*
D11*
X197002200Y-191507200D02*
X197002200Y-194507200D01*
D10*
D11*
X261002200Y-191507200D02*
X261002200Y-198007200D01*
D10*
X98310000Y-61020000D02*
X99000000Y-61020000D01*
X90740000Y-65260000D02*
X91970000Y-65260000D01*
X89430000Y-65270000D02*
X89430000Y-60985000D01*
X98320000Y-65220000D02*
X98310000Y-61020000D01*
X97050000Y-65270000D02*
X97050000Y-61010000D01*
X95780000Y-65400000D02*
X95780000Y-61010000D01*
X94510000Y-65400000D02*
X94520000Y-60900000D01*
X93240000Y-65270000D02*
X93240000Y-60900000D01*
X91970000Y-65260000D02*
X91970000Y-60985000D01*
X90700000Y-65260000D02*
X90700000Y-60985000D01*
D11*
X124060000Y-76880000D02*
X131060000Y-76880000D01*
X129017500Y-75250000D02*
X128667500Y-74800000D01*
X99750000Y-65250000D02*
X99750000Y-62250000D01*
X128667500Y-74800000D02*
X129017500Y-74350000D01*
X124060000Y-66380000D02*
X131060000Y-66380000D01*
X124060000Y-66880000D02*
X124060000Y-66380000D01*
X124060000Y-76380000D02*
X124060000Y-66880000D01*
D10*
X93600000Y-65400000D02*
X96800000Y-65400000D01*
D11*
X129532500Y-74800000D02*
X128667500Y-74800000D01*
D10*
X92300000Y-60900000D02*
X95500000Y-60900000D01*
D11*
X124060000Y-76380000D02*
X124060000Y-76880000D01*
D10*
X97556190Y-64044047D02*
X97184761Y-64044047D01*
X97370476Y-64044047D02*
X97370476Y-63394047D01*
X97308571Y-63486904D01*
X97246666Y-63548809D01*
X97184761Y-63579761D01*
X98113333Y-63610714D02*
X98113333Y-64044047D01*
X97958571Y-63363095D02*
X97803809Y-63827380D01*
X98206190Y-63827380D01*
X116774285Y-72339285D02*
X116345714Y-72339285D01*
X116560000Y-72339285D02*
X116560000Y-71589285D01*
X116488571Y-71696428D01*
X116417142Y-71767857D01*
X116345714Y-71803571D01*
X129492321Y-73728571D02*
X129528035Y-73621428D01*
X129528035Y-73442857D01*
X129492321Y-73371428D01*
X129456607Y-73335714D01*
X129385178Y-73300000D01*
X129313750Y-73300000D01*
X129242321Y-73335714D01*
X129206607Y-73371428D01*
X129170892Y-73442857D01*
X129135178Y-73585714D01*
X129099464Y-73657142D01*
X129063750Y-73692857D01*
X128992321Y-73728571D01*
X128920892Y-73728571D01*
X128849464Y-73692857D01*
X128813750Y-73657142D01*
X128778035Y-73585714D01*
X128778035Y-73407142D01*
X128813750Y-73300000D01*
X129528035Y-72871428D02*
X129492321Y-72942857D01*
X129456607Y-72978571D01*
X129385178Y-73014285D01*
X129170892Y-73014285D01*
X129099464Y-72978571D01*
X129063750Y-72942857D01*
X129028035Y-72871428D01*
X129028035Y-72764285D01*
X129063750Y-72692857D01*
X129099464Y-72657142D01*
X129170892Y-72621428D01*
X129385178Y-72621428D01*
X129456607Y-72657142D01*
X129492321Y-72692857D01*
X129528035Y-72764285D01*
X129528035Y-72871428D01*
X129528035Y-72192857D02*
X129492321Y-72264285D01*
X129420892Y-72300000D01*
X128778035Y-72300000D01*
X129528035Y-71585714D02*
X128778035Y-71585714D01*
X129492321Y-71585714D02*
X129528035Y-71657142D01*
X129528035Y-71800000D01*
X129492321Y-71871428D01*
X129456607Y-71907142D01*
X129385178Y-71942857D01*
X129170892Y-71942857D01*
X129099464Y-71907142D01*
X129063750Y-71871428D01*
X129028035Y-71800000D01*
X129028035Y-71657142D01*
X129063750Y-71585714D01*
X129492321Y-70942857D02*
X129528035Y-71014285D01*
X129528035Y-71157142D01*
X129492321Y-71228571D01*
X129420892Y-71264285D01*
X129135178Y-71264285D01*
X129063750Y-71228571D01*
X129028035Y-71157142D01*
X129028035Y-71014285D01*
X129063750Y-70942857D01*
X129135178Y-70907142D01*
X129206607Y-70907142D01*
X129278035Y-71264285D01*
X129528035Y-70585714D02*
X129028035Y-70585714D01*
X129170892Y-70585714D02*
X129099464Y-70550000D01*
X129063750Y-70514285D01*
X129028035Y-70442857D01*
X129028035Y-70371428D01*
X130342678Y-74692857D02*
X130378392Y-74585714D01*
X130414107Y-74550000D01*
X130485535Y-74514285D01*
X130592678Y-74514285D01*
X130664107Y-74550000D01*
X130699821Y-74585714D01*
X130735535Y-74657142D01*
X130735535Y-74942857D01*
X129985535Y-74942857D01*
X129985535Y-74692857D01*
X130021250Y-74621428D01*
X130056964Y-74585714D01*
X130128392Y-74550000D01*
X130199821Y-74550000D01*
X130271250Y-74585714D01*
X130306964Y-74621428D01*
X130342678Y-74692857D01*
X130342678Y-74942857D01*
X130735535Y-74085714D02*
X130699821Y-74157142D01*
X130664107Y-74192857D01*
X130592678Y-74228571D01*
X130378392Y-74228571D01*
X130306964Y-74192857D01*
X130271250Y-74157142D01*
X130235535Y-74085714D01*
X130235535Y-73978571D01*
X130271250Y-73907142D01*
X130306964Y-73871428D01*
X130378392Y-73835714D01*
X130592678Y-73835714D01*
X130664107Y-73871428D01*
X130699821Y-73907142D01*
X130735535Y-73978571D01*
X130735535Y-74085714D01*
X130235535Y-73621428D02*
X130235535Y-73335714D01*
X129985535Y-73514285D02*
X130628392Y-73514285D01*
X130699821Y-73478571D01*
X130735535Y-73407142D01*
X130735535Y-73335714D01*
X130235535Y-73192857D02*
X130235535Y-72907142D01*
X129985535Y-73085714D02*
X130628392Y-73085714D01*
X130699821Y-73050000D01*
X130735535Y-72978571D01*
X130735535Y-72907142D01*
X130735535Y-72550000D02*
X130699821Y-72621428D01*
X130664107Y-72657142D01*
X130592678Y-72692857D01*
X130378392Y-72692857D01*
X130306964Y-72657142D01*
X130271250Y-72621428D01*
X130235535Y-72550000D01*
X130235535Y-72442857D01*
X130271250Y-72371428D01*
X130306964Y-72335714D01*
X130378392Y-72300000D01*
X130592678Y-72300000D01*
X130664107Y-72335714D01*
X130699821Y-72371428D01*
X130735535Y-72442857D01*
X130735535Y-72550000D01*
X130735535Y-71978571D02*
X130235535Y-71978571D01*
X130306964Y-71978571D02*
X130271250Y-71942857D01*
X130235535Y-71871428D01*
X130235535Y-71764285D01*
X130271250Y-71692857D01*
X130342678Y-71657142D01*
X130735535Y-71657142D01*
X130342678Y-71657142D02*
X130271250Y-71621428D01*
X130235535Y-71550000D01*
X130235535Y-71442857D01*
X130271250Y-71371428D01*
X130342678Y-71335714D01*
X130735535Y-71335714D01*
X130735535Y-70407142D02*
X129985535Y-70407142D01*
X129985535Y-70121428D01*
X130021250Y-70050000D01*
X130056964Y-70014285D01*
X130128392Y-69978571D01*
X130235535Y-69978571D01*
X130306964Y-70014285D01*
X130342678Y-70050000D01*
X130378392Y-70121428D01*
X130378392Y-70407142D01*
X130735535Y-69335714D02*
X130342678Y-69335714D01*
X130271250Y-69371428D01*
X130235535Y-69442857D01*
X130235535Y-69585714D01*
X130271250Y-69657142D01*
X130699821Y-69335714D02*
X130735535Y-69407142D01*
X130735535Y-69585714D01*
X130699821Y-69657142D01*
X130628392Y-69692857D01*
X130556964Y-69692857D01*
X130485535Y-69657142D01*
X130449821Y-69585714D01*
X130449821Y-69407142D01*
X130414107Y-69335714D01*
X130735535Y-68657142D02*
X129985535Y-68657142D01*
X130699821Y-68657142D02*
X130735535Y-68728571D01*
X130735535Y-68871428D01*
X130699821Y-68942857D01*
X130664107Y-68978571D01*
X130592678Y-69014285D01*
X130378392Y-69014285D01*
X130306964Y-68978571D01*
X130271250Y-68942857D01*
X130235535Y-68871428D01*
X130235535Y-68728571D01*
X130271250Y-68657142D01*
X131443035Y-75550000D02*
X131443035Y-75264285D01*
X131193035Y-75442857D02*
X131835892Y-75442857D01*
X131907321Y-75407142D01*
X131943035Y-75335714D01*
X131943035Y-75264285D01*
X131943035Y-74907142D02*
X131907321Y-74978571D01*
X131871607Y-75014285D01*
X131800178Y-75050000D01*
X131585892Y-75050000D01*
X131514464Y-75014285D01*
X131478750Y-74978571D01*
X131443035Y-74907142D01*
X131443035Y-74800000D01*
X131478750Y-74728571D01*
X131514464Y-74692857D01*
X131585892Y-74657142D01*
X131800178Y-74657142D01*
X131871607Y-74692857D01*
X131907321Y-74728571D01*
X131943035Y-74800000D01*
X131943035Y-74907142D01*
X131193035Y-73835714D02*
X131943035Y-73335714D01*
X131193035Y-73335714D02*
X131943035Y-73835714D01*
X131943035Y-73050000D02*
X131193035Y-73050000D01*
X131478750Y-73050000D02*
X131443035Y-72978571D01*
X131443035Y-72835714D01*
X131478750Y-72764285D01*
X131514464Y-72728571D01*
X131585892Y-72692857D01*
X131800178Y-72692857D01*
X131871607Y-72728571D01*
X131907321Y-72764285D01*
X131943035Y-72835714D01*
X131943035Y-72978571D01*
X131907321Y-73050000D01*
X131943035Y-72264285D02*
X131907321Y-72335714D01*
X131871607Y-72371428D01*
X131800178Y-72407142D01*
X131585892Y-72407142D01*
X131514464Y-72371428D01*
X131478750Y-72335714D01*
X131443035Y-72264285D01*
X131443035Y-72157142D01*
X131478750Y-72085714D01*
X131514464Y-72050000D01*
X131585892Y-72014285D01*
X131800178Y-72014285D01*
X131871607Y-72050000D01*
X131907321Y-72085714D01*
X131943035Y-72157142D01*
X131943035Y-72264285D01*
X131943035Y-71764285D02*
X131443035Y-71371428D01*
X131443035Y-71764285D02*
X131943035Y-71371428D01*
X131193035Y-70585714D02*
X131193035Y-70121428D01*
X131478750Y-70371428D01*
X131478750Y-70264285D01*
X131514464Y-70192857D01*
X131550178Y-70157142D01*
X131621607Y-70121428D01*
X131800178Y-70121428D01*
X131871607Y-70157142D01*
X131907321Y-70192857D01*
X131943035Y-70264285D01*
X131943035Y-70478571D01*
X131907321Y-70550000D01*
X131871607Y-70585714D01*
X131193035Y-69478571D02*
X131193035Y-69621428D01*
X131228750Y-69692857D01*
X131264464Y-69728571D01*
X131371607Y-69800000D01*
X131514464Y-69835714D01*
X131800178Y-69835714D01*
X131871607Y-69800000D01*
X131907321Y-69764285D01*
X131943035Y-69692857D01*
X131943035Y-69550000D01*
X131907321Y-69478571D01*
X131871607Y-69442857D01*
X131800178Y-69407142D01*
X131621607Y-69407142D01*
X131550178Y-69442857D01*
X131514464Y-69478571D01*
X131478750Y-69550000D01*
X131478750Y-69692857D01*
X131514464Y-69764285D01*
X131550178Y-69800000D01*
X131621607Y-69835714D01*
X131193035Y-68942857D02*
X131193035Y-68871428D01*
X131228750Y-68800000D01*
X131264464Y-68764285D01*
X131335892Y-68728571D01*
X131478750Y-68692857D01*
X131657321Y-68692857D01*
X131800178Y-68728571D01*
X131871607Y-68764285D01*
X131907321Y-68800000D01*
X131943035Y-68871428D01*
X131943035Y-68942857D01*
X131907321Y-69014285D01*
X131871607Y-69050000D01*
X131800178Y-69085714D01*
X131657321Y-69121428D01*
X131478750Y-69121428D01*
X131335892Y-69085714D01*
X131264464Y-69050000D01*
X131228750Y-69014285D01*
X131193035Y-68942857D01*
X133079107Y-73139285D02*
X133114821Y-73175000D01*
X133150535Y-73282142D01*
X133150535Y-73353571D01*
X133114821Y-73460714D01*
X133043392Y-73532142D01*
X132971964Y-73567857D01*
X132829107Y-73603571D01*
X132721964Y-73603571D01*
X132579107Y-73567857D01*
X132507678Y-73532142D01*
X132436250Y-73460714D01*
X132400535Y-73353571D01*
X132400535Y-73282142D01*
X132436250Y-73175000D01*
X132471964Y-73139285D01*
X133150535Y-72817857D02*
X132650535Y-72817857D01*
X132793392Y-72817857D02*
X132721964Y-72782142D01*
X132686250Y-72746428D01*
X132650535Y-72675000D01*
X132650535Y-72603571D01*
X132650535Y-72425000D02*
X133150535Y-72246428D01*
X132650535Y-72067857D02*
X133150535Y-72246428D01*
X133329107Y-72317857D01*
X133364821Y-72353571D01*
X133400535Y-72425000D01*
X133114821Y-71817857D02*
X133150535Y-71746428D01*
X133150535Y-71603571D01*
X133114821Y-71532142D01*
X133043392Y-71496428D01*
X133007678Y-71496428D01*
X132936250Y-71532142D01*
X132900535Y-71603571D01*
X132900535Y-71710714D01*
X132864821Y-71782142D01*
X132793392Y-71817857D01*
X132757678Y-71817857D01*
X132686250Y-71782142D01*
X132650535Y-71710714D01*
X132650535Y-71603571D01*
X132686250Y-71532142D01*
X132650535Y-71282142D02*
X132650535Y-70996428D01*
X132400535Y-71175000D02*
X133043392Y-71175000D01*
X133114821Y-71139285D01*
X133150535Y-71067857D01*
X133150535Y-70996428D01*
X133150535Y-70425000D02*
X132757678Y-70425000D01*
X132686250Y-70460714D01*
X132650535Y-70532142D01*
X132650535Y-70675000D01*
X132686250Y-70746428D01*
X133114821Y-70425000D02*
X133150535Y-70496428D01*
X133150535Y-70675000D01*
X133114821Y-70746428D01*
X133043392Y-70782142D01*
X132971964Y-70782142D01*
X132900535Y-70746428D01*
X132864821Y-70675000D01*
X132864821Y-70496428D01*
X132829107Y-70425000D01*
X133150535Y-69960714D02*
X133114821Y-70032142D01*
X133043392Y-70067857D01*
X132400535Y-70067857D01*
X106417142Y-70139285D02*
X105988571Y-70139285D01*
X106202857Y-70139285D02*
X106202857Y-69389285D01*
X106131428Y-69496428D01*
X106060000Y-69567857D01*
X105988571Y-69603571D01*
X107131428Y-70139285D02*
X106702857Y-70139285D01*
X106917142Y-70139285D02*
X106917142Y-69389285D01*
X106845714Y-69496428D01*
X106774285Y-69567857D01*
X106702857Y-69603571D01*
X110702857Y-64776428D02*
X110810000Y-64812142D01*
X110845714Y-64847857D01*
X110881428Y-64919285D01*
X110881428Y-65026428D01*
X110845714Y-65097857D01*
X110810000Y-65133571D01*
X110738571Y-65169285D01*
X110452857Y-65169285D01*
X110452857Y-64419285D01*
X110702857Y-64419285D01*
X110774285Y-64455000D01*
X110810000Y-64490714D01*
X110845714Y-64562142D01*
X110845714Y-64633571D01*
X110810000Y-64705000D01*
X110774285Y-64740714D01*
X110702857Y-64776428D01*
X110452857Y-64776428D01*
X111310000Y-65169285D02*
X111238571Y-65133571D01*
X111202857Y-65062142D01*
X111202857Y-64419285D01*
X111917142Y-65169285D02*
X111917142Y-64776428D01*
X111881428Y-64705000D01*
X111810000Y-64669285D01*
X111667142Y-64669285D01*
X111595714Y-64705000D01*
X111917142Y-65133571D02*
X111845714Y-65169285D01*
X111667142Y-65169285D01*
X111595714Y-65133571D01*
X111560000Y-65062142D01*
X111560000Y-64990714D01*
X111595714Y-64919285D01*
X111667142Y-64883571D01*
X111845714Y-64883571D01*
X111917142Y-64847857D01*
X112595714Y-65133571D02*
X112524285Y-65169285D01*
X112381428Y-65169285D01*
X112310000Y-65133571D01*
X112274285Y-65097857D01*
X112238571Y-65026428D01*
X112238571Y-64812142D01*
X112274285Y-64740714D01*
X112310000Y-64705000D01*
X112381428Y-64669285D01*
X112524285Y-64669285D01*
X112595714Y-64705000D01*
X112917142Y-65169285D02*
X112917142Y-64419285D01*
X112988571Y-64883571D02*
X113202857Y-65169285D01*
X113202857Y-64669285D02*
X112917142Y-64955000D01*
X115113571Y-76562142D02*
X115113571Y-76919285D01*
X114863571Y-76169285D02*
X115113571Y-76562142D01*
X115363571Y-76169285D01*
X115899285Y-76883571D02*
X115827857Y-76919285D01*
X115685000Y-76919285D01*
X115613571Y-76883571D01*
X115577857Y-76812142D01*
X115577857Y-76526428D01*
X115613571Y-76455000D01*
X115685000Y-76419285D01*
X115827857Y-76419285D01*
X115899285Y-76455000D01*
X115935000Y-76526428D01*
X115935000Y-76597857D01*
X115577857Y-76669285D01*
X116363571Y-76919285D02*
X116292142Y-76883571D01*
X116256428Y-76812142D01*
X116256428Y-76169285D01*
X116756428Y-76919285D02*
X116685000Y-76883571D01*
X116649285Y-76812142D01*
X116649285Y-76169285D01*
X117149285Y-76919285D02*
X117077857Y-76883571D01*
X117042142Y-76847857D01*
X117006428Y-76776428D01*
X117006428Y-76562142D01*
X117042142Y-76490714D01*
X117077857Y-76455000D01*
X117149285Y-76419285D01*
X117256428Y-76419285D01*
X117327857Y-76455000D01*
X117363571Y-76490714D01*
X117399285Y-76562142D01*
X117399285Y-76776428D01*
X117363571Y-76847857D01*
X117327857Y-76883571D01*
X117256428Y-76919285D01*
X117149285Y-76919285D01*
X117649285Y-76419285D02*
X117792142Y-76919285D01*
X117935000Y-76562142D01*
X118077857Y-76919285D01*
X118220714Y-76419285D01*
X91093333Y-62244047D02*
X91495714Y-62244047D01*
X91279047Y-62491666D01*
X91371904Y-62491666D01*
X91433809Y-62522619D01*
X91464761Y-62553571D01*
X91495714Y-62615476D01*
X91495714Y-62770238D01*
X91464761Y-62832142D01*
X91433809Y-62863095D01*
X91371904Y-62894047D01*
X91186190Y-62894047D01*
X91124285Y-62863095D01*
X91093333Y-62832142D01*
X89874285Y-63405952D02*
X89905238Y-63375000D01*
X89967142Y-63344047D01*
X90121904Y-63344047D01*
X90183809Y-63375000D01*
X90214761Y-63405952D01*
X90245714Y-63467857D01*
X90245714Y-63529761D01*
X90214761Y-63622619D01*
X89843333Y-63994047D01*
X90245714Y-63994047D01*
X121417142Y-70139285D02*
X120988571Y-70139285D01*
X121202857Y-70139285D02*
X121202857Y-69389285D01*
X121131428Y-69496428D01*
X121060000Y-69567857D01*
X120988571Y-69603571D01*
X121667142Y-69389285D02*
X122131428Y-69389285D01*
X121881428Y-69675000D01*
X121988571Y-69675000D01*
X122060000Y-69710714D01*
X122095714Y-69746428D01*
X122131428Y-69817857D01*
X122131428Y-69996428D01*
X122095714Y-70067857D01*
X122060000Y-70103571D01*
X121988571Y-70139285D01*
X121774285Y-70139285D01*
X121702857Y-70103571D01*
X121667142Y-70067857D01*
X106417142Y-72339285D02*
X105988571Y-72339285D01*
X106202857Y-72339285D02*
X106202857Y-71589285D01*
X106131428Y-71696428D01*
X106060000Y-71767857D01*
X105988571Y-71803571D01*
X107060000Y-71839285D02*
X107060000Y-72339285D01*
X106881428Y-71553571D02*
X106702857Y-72089285D01*
X107167142Y-72089285D01*
X92730238Y-63375000D02*
X92668333Y-63344047D01*
X92575476Y-63344047D01*
X92482619Y-63375000D01*
X92420714Y-63436904D01*
X92389761Y-63498809D01*
X92358809Y-63622619D01*
X92358809Y-63715476D01*
X92389761Y-63839285D01*
X92420714Y-63901190D01*
X92482619Y-63963095D01*
X92575476Y-63994047D01*
X92637380Y-63994047D01*
X92730238Y-63963095D01*
X92761190Y-63932142D01*
X92761190Y-63715476D01*
X92637380Y-63715476D01*
D14*
X111127857Y-69425000D02*
X111056428Y-69389285D01*
X110949285Y-69389285D01*
X110842142Y-69425000D01*
X110770714Y-69496428D01*
X110735000Y-69567857D01*
X110699285Y-69710714D01*
X110699285Y-69817857D01*
X110735000Y-69960714D01*
X110770714Y-70032142D01*
X110842142Y-70103571D01*
X110949285Y-70139285D01*
X111020714Y-70139285D01*
X111127857Y-70103571D01*
X111163571Y-70067857D01*
X111163571Y-69817857D01*
X111020714Y-69817857D01*
X111485000Y-69639285D02*
X111485000Y-70139285D01*
X111485000Y-69710714D02*
X111520714Y-69675000D01*
X111592142Y-69639285D01*
X111699285Y-69639285D01*
X111770714Y-69675000D01*
X111806428Y-69746428D01*
X111806428Y-70139285D01*
X112485000Y-70139285D02*
X112485000Y-69389285D01*
X112485000Y-70103571D02*
X112413571Y-70139285D01*
X112270714Y-70139285D01*
X112199285Y-70103571D01*
X112163571Y-70067857D01*
X112127857Y-69996428D01*
X112127857Y-69782142D01*
X112163571Y-69710714D01*
X112199285Y-69675000D01*
X112270714Y-69639285D01*
X112413571Y-69639285D01*
X112485000Y-69675000D01*
D10*
X121131428Y-76919285D02*
X120881428Y-76562142D01*
X120702857Y-76919285D02*
X120702857Y-76169285D01*
X120988571Y-76169285D01*
X121060000Y-76205000D01*
X121095714Y-76240714D01*
X121131428Y-76312142D01*
X121131428Y-76419285D01*
X121095714Y-76490714D01*
X121060000Y-76526428D01*
X120988571Y-76562142D01*
X120702857Y-76562142D01*
X121738571Y-76883571D02*
X121667142Y-76919285D01*
X121524285Y-76919285D01*
X121452857Y-76883571D01*
X121417142Y-76812142D01*
X121417142Y-76526428D01*
X121452857Y-76455000D01*
X121524285Y-76419285D01*
X121667142Y-76419285D01*
X121738571Y-76455000D01*
X121774285Y-76526428D01*
X121774285Y-76597857D01*
X121417142Y-76669285D01*
X122417142Y-76919285D02*
X122417142Y-76169285D01*
X122417142Y-76883571D02*
X122345714Y-76919285D01*
X122202857Y-76919285D01*
X122131428Y-76883571D01*
X122095714Y-76847857D01*
X122060000Y-76776428D01*
X122060000Y-76562142D01*
X122095714Y-76490714D01*
X122131428Y-76455000D01*
X122202857Y-76419285D01*
X122345714Y-76419285D01*
X122417142Y-76455000D01*
X90285714Y-62894047D02*
X89914285Y-62894047D01*
X90100000Y-62894047D02*
X90100000Y-62244047D01*
X90038095Y-62336904D01*
X89976190Y-62398809D01*
X89914285Y-62429761D01*
D11*
X105757142Y-78367857D02*
X105721428Y-78403571D01*
X105614285Y-78439285D01*
X105542857Y-78439285D01*
X105435714Y-78403571D01*
X105364285Y-78332142D01*
X105328571Y-78260714D01*
X105292857Y-78117857D01*
X105292857Y-78010714D01*
X105328571Y-77867857D01*
X105364285Y-77796428D01*
X105435714Y-77725000D01*
X105542857Y-77689285D01*
X105614285Y-77689285D01*
X105721428Y-77725000D01*
X105757142Y-77760714D01*
X106185714Y-78439285D02*
X106114285Y-78403571D01*
X106078571Y-78367857D01*
X106042857Y-78296428D01*
X106042857Y-78082142D01*
X106078571Y-78010714D01*
X106114285Y-77975000D01*
X106185714Y-77939285D01*
X106292857Y-77939285D01*
X106364285Y-77975000D01*
X106400000Y-78010714D01*
X106435714Y-78082142D01*
X106435714Y-78296428D01*
X106400000Y-78367857D01*
X106364285Y-78403571D01*
X106292857Y-78439285D01*
X106185714Y-78439285D01*
X106757142Y-78439285D02*
X106757142Y-77939285D01*
X106757142Y-78082142D02*
X106792857Y-78010714D01*
X106828571Y-77975000D01*
X106900000Y-77939285D01*
X106971428Y-77939285D01*
X107328571Y-78439285D02*
X107257142Y-78403571D01*
X107221428Y-78367857D01*
X107185714Y-78296428D01*
X107185714Y-78082142D01*
X107221428Y-78010714D01*
X107257142Y-77975000D01*
X107328571Y-77939285D01*
X107435714Y-77939285D01*
X107507142Y-77975000D01*
X107542857Y-78010714D01*
X107578571Y-78082142D01*
X107578571Y-78296428D01*
X107542857Y-78367857D01*
X107507142Y-78403571D01*
X107435714Y-78439285D01*
X107328571Y-78439285D01*
X107900000Y-77939285D02*
X107900000Y-78439285D01*
X107900000Y-78010714D02*
X107935714Y-77975000D01*
X108007142Y-77939285D01*
X108114285Y-77939285D01*
X108185714Y-77975000D01*
X108221428Y-78046428D01*
X108221428Y-78439285D01*
X108900000Y-78439285D02*
X108900000Y-78046428D01*
X108864285Y-77975000D01*
X108792857Y-77939285D01*
X108650000Y-77939285D01*
X108578571Y-77975000D01*
X108900000Y-78403571D02*
X108828571Y-78439285D01*
X108650000Y-78439285D01*
X108578571Y-78403571D01*
X108542857Y-78332142D01*
X108542857Y-78260714D01*
X108578571Y-78189285D01*
X108650000Y-78153571D01*
X108828571Y-78153571D01*
X108900000Y-78117857D01*
X110150000Y-77939285D02*
X110150000Y-78439285D01*
X109971428Y-77653571D02*
X109792857Y-78189285D01*
X110257142Y-78189285D01*
X110935714Y-77725000D02*
X110864285Y-77689285D01*
X110757142Y-77689285D01*
X110650000Y-77725000D01*
X110578571Y-77796428D01*
X110542857Y-77867857D01*
X110507142Y-78010714D01*
X110507142Y-78117857D01*
X110542857Y-78260714D01*
X110578571Y-78332142D01*
X110650000Y-78403571D01*
X110757142Y-78439285D01*
X110828571Y-78439285D01*
X110935714Y-78403571D01*
X110971428Y-78367857D01*
X110971428Y-78117857D01*
X110828571Y-78117857D01*
X111542857Y-78046428D02*
X111650000Y-78082142D01*
X111685714Y-78117857D01*
X111721428Y-78189285D01*
X111721428Y-78296428D01*
X111685714Y-78367857D01*
X111650000Y-78403571D01*
X111578571Y-78439285D01*
X111292857Y-78439285D01*
X111292857Y-77689285D01*
X111542857Y-77689285D01*
X111614285Y-77725000D01*
X111650000Y-77760714D01*
X111685714Y-77832142D01*
X111685714Y-77903571D01*
X111650000Y-77975000D01*
X111614285Y-78010714D01*
X111542857Y-78046428D01*
X111292857Y-78046428D01*
X112614285Y-78439285D02*
X112614285Y-77689285D01*
X113042857Y-78439285D01*
X113042857Y-77689285D01*
X113364285Y-78225000D02*
X113721428Y-78225000D01*
X113292857Y-78439285D02*
X113542857Y-77689285D01*
X113792857Y-78439285D01*
X114042857Y-78439285D02*
X114042857Y-77689285D01*
X114471428Y-78439285D01*
X114471428Y-77689285D01*
X114828571Y-78439285D02*
X114828571Y-77689285D01*
X115007142Y-77689285D01*
X115114285Y-77725000D01*
X115185714Y-77796428D01*
X115221428Y-77867857D01*
X115257142Y-78010714D01*
X115257142Y-78117857D01*
X115221428Y-78260714D01*
X115185714Y-78332142D01*
X115114285Y-78403571D01*
X115007142Y-78439285D01*
X114828571Y-78439285D01*
X116150000Y-78046428D02*
X116400000Y-78046428D01*
X116507142Y-78439285D02*
X116150000Y-78439285D01*
X116150000Y-77689285D01*
X116507142Y-77689285D01*
X116757142Y-78439285D02*
X117150000Y-77939285D01*
X116757142Y-77939285D02*
X117150000Y-78439285D01*
X117328571Y-77939285D02*
X117614285Y-77939285D01*
X117435714Y-77689285D02*
X117435714Y-78332142D01*
X117471428Y-78403571D01*
X117542857Y-78439285D01*
X117614285Y-78439285D01*
X118150000Y-78403571D02*
X118078571Y-78439285D01*
X117935714Y-78439285D01*
X117864285Y-78403571D01*
X117828571Y-78332142D01*
X117828571Y-78046428D01*
X117864285Y-77975000D01*
X117935714Y-77939285D01*
X118078571Y-77939285D01*
X118150000Y-77975000D01*
X118185714Y-78046428D01*
X118185714Y-78117857D01*
X117828571Y-78189285D01*
X118507142Y-77939285D02*
X118507142Y-78439285D01*
X118507142Y-78010714D02*
X118542857Y-77975000D01*
X118614285Y-77939285D01*
X118721428Y-77939285D01*
X118792857Y-77975000D01*
X118828571Y-78046428D01*
X118828571Y-78439285D01*
X119150000Y-78403571D02*
X119221428Y-78439285D01*
X119364285Y-78439285D01*
X119435714Y-78403571D01*
X119471428Y-78332142D01*
X119471428Y-78296428D01*
X119435714Y-78225000D01*
X119364285Y-78189285D01*
X119257142Y-78189285D01*
X119185714Y-78153571D01*
X119150000Y-78082142D01*
X119150000Y-78046428D01*
X119185714Y-77975000D01*
X119257142Y-77939285D01*
X119364285Y-77939285D01*
X119435714Y-77975000D01*
X119792857Y-78439285D02*
X119792857Y-77939285D01*
X119792857Y-77689285D02*
X119757142Y-77725000D01*
X119792857Y-77760714D01*
X119828571Y-77725000D01*
X119792857Y-77689285D01*
X119792857Y-77760714D01*
X120257142Y-78439285D02*
X120185714Y-78403571D01*
X120150000Y-78367857D01*
X120114285Y-78296428D01*
X120114285Y-78082142D01*
X120150000Y-78010714D01*
X120185714Y-77975000D01*
X120257142Y-77939285D01*
X120364285Y-77939285D01*
X120435714Y-77975000D01*
X120471428Y-78010714D01*
X120507142Y-78082142D01*
X120507142Y-78296428D01*
X120471428Y-78367857D01*
X120435714Y-78403571D01*
X120364285Y-78439285D01*
X120257142Y-78439285D01*
X120828571Y-77939285D02*
X120828571Y-78439285D01*
X120828571Y-78010714D02*
X120864285Y-77975000D01*
X120935714Y-77939285D01*
X121042857Y-77939285D01*
X121114285Y-77975000D01*
X121150000Y-78046428D01*
X121150000Y-78439285D01*
X122578571Y-78510714D02*
X122507142Y-78475000D01*
X122435714Y-78403571D01*
X122328571Y-78296428D01*
X122257142Y-78260714D01*
X122185714Y-78260714D01*
X122221428Y-78439285D02*
X122150000Y-78403571D01*
X122078571Y-78332142D01*
X122042857Y-78189285D01*
X122042857Y-77939285D01*
X122078571Y-77796428D01*
X122150000Y-77725000D01*
X122221428Y-77689285D01*
X122364285Y-77689285D01*
X122435714Y-77725000D01*
X122507142Y-77796428D01*
X122542857Y-77939285D01*
X122542857Y-78189285D01*
X122507142Y-78332142D01*
X122435714Y-78403571D01*
X122364285Y-78439285D01*
X122221428Y-78439285D01*
X122828571Y-78403571D02*
X122935714Y-78439285D01*
X123114285Y-78439285D01*
X123185714Y-78403571D01*
X123221428Y-78367857D01*
X123257142Y-78296428D01*
X123257142Y-78225000D01*
X123221428Y-78153571D01*
X123185714Y-78117857D01*
X123114285Y-78082142D01*
X122971428Y-78046428D01*
X122900000Y-78010714D01*
X122864285Y-77975000D01*
X122828571Y-77903571D01*
X122828571Y-77832142D01*
X122864285Y-77760714D01*
X122900000Y-77725000D01*
X122971428Y-77689285D01*
X123150000Y-77689285D01*
X123257142Y-77725000D01*
X123828571Y-78046428D02*
X123935714Y-78082142D01*
X123971428Y-78117857D01*
X124007142Y-78189285D01*
X124007142Y-78296428D01*
X123971428Y-78367857D01*
X123935714Y-78403571D01*
X123864285Y-78439285D01*
X123578571Y-78439285D01*
X123578571Y-77689285D01*
X123828571Y-77689285D01*
X123900000Y-77725000D01*
X123935714Y-77760714D01*
X123971428Y-77832142D01*
X123971428Y-77903571D01*
X123935714Y-77975000D01*
X123900000Y-78010714D01*
X123828571Y-78046428D01*
X123578571Y-78046428D01*
D10*
X120310000Y-64776428D02*
X120417142Y-64812142D01*
X120452857Y-64847857D01*
X120488571Y-64919285D01*
X120488571Y-65026428D01*
X120452857Y-65097857D01*
X120417142Y-65133571D01*
X120345714Y-65169285D01*
X120060000Y-65169285D01*
X120060000Y-64419285D01*
X120310000Y-64419285D01*
X120381428Y-64455000D01*
X120417142Y-64490714D01*
X120452857Y-64562142D01*
X120452857Y-64633571D01*
X120417142Y-64705000D01*
X120381428Y-64740714D01*
X120310000Y-64776428D01*
X120060000Y-64776428D01*
X120810000Y-65169285D02*
X120810000Y-64669285D01*
X120810000Y-64812142D02*
X120845714Y-64740714D01*
X120881428Y-64705000D01*
X120952857Y-64669285D01*
X121024285Y-64669285D01*
X121381428Y-65169285D02*
X121310000Y-65133571D01*
X121274285Y-65097857D01*
X121238571Y-65026428D01*
X121238571Y-64812142D01*
X121274285Y-64740714D01*
X121310000Y-64705000D01*
X121381428Y-64669285D01*
X121488571Y-64669285D01*
X121560000Y-64705000D01*
X121595714Y-64740714D01*
X121631428Y-64812142D01*
X121631428Y-65026428D01*
X121595714Y-65097857D01*
X121560000Y-65133571D01*
X121488571Y-65169285D01*
X121381428Y-65169285D01*
X121881428Y-64669285D02*
X122024285Y-65169285D01*
X122167142Y-64812142D01*
X122310000Y-65169285D01*
X122452857Y-64669285D01*
X122738571Y-64669285D02*
X122738571Y-65169285D01*
X122738571Y-64740714D02*
X122774285Y-64705000D01*
X122845714Y-64669285D01*
X122952857Y-64669285D01*
X123024285Y-64705000D01*
X123060000Y-64776428D01*
X123060000Y-65169285D01*
X105185000Y-65169285D02*
X105185000Y-64419285D01*
X105470714Y-64419285D01*
X105542142Y-64455000D01*
X105577857Y-64490714D01*
X105613571Y-64562142D01*
X105613571Y-64669285D01*
X105577857Y-64740714D01*
X105542142Y-64776428D01*
X105470714Y-64812142D01*
X105185000Y-64812142D01*
X106256428Y-64669285D02*
X106256428Y-65169285D01*
X105935000Y-64669285D02*
X105935000Y-65062142D01*
X105970714Y-65133571D01*
X106042142Y-65169285D01*
X106149285Y-65169285D01*
X106220714Y-65133571D01*
X106256428Y-65097857D01*
X106613571Y-65169285D02*
X106613571Y-64669285D01*
X106613571Y-64812142D02*
X106649285Y-64740714D01*
X106685000Y-64705000D01*
X106756428Y-64669285D01*
X106827857Y-64669285D01*
X107077857Y-64669285D02*
X107077857Y-65419285D01*
X107077857Y-64705000D02*
X107149285Y-64669285D01*
X107292142Y-64669285D01*
X107363571Y-64705000D01*
X107399285Y-64740714D01*
X107435000Y-64812142D01*
X107435000Y-65026428D01*
X107399285Y-65097857D01*
X107363571Y-65133571D01*
X107292142Y-65169285D01*
X107149285Y-65169285D01*
X107077857Y-65133571D01*
X107863571Y-65169285D02*
X107792142Y-65133571D01*
X107756428Y-65062142D01*
X107756428Y-64419285D01*
X108435000Y-65133571D02*
X108363571Y-65169285D01*
X108220714Y-65169285D01*
X108149285Y-65133571D01*
X108113571Y-65062142D01*
X108113571Y-64776428D01*
X108149285Y-64705000D01*
X108220714Y-64669285D01*
X108363571Y-64669285D01*
X108435000Y-64705000D01*
X108470714Y-64776428D01*
X108470714Y-64847857D01*
X108113571Y-64919285D01*
D15*
X88536190Y-64987142D02*
X88036190Y-64987142D01*
X88036190Y-64796666D01*
X88060000Y-64749047D01*
X88083809Y-64725238D01*
X88131428Y-64701428D01*
X88202857Y-64701428D01*
X88250476Y-64725238D01*
X88274285Y-64749047D01*
X88298095Y-64796666D01*
X88298095Y-64987142D01*
X88536190Y-64415714D02*
X88512380Y-64463333D01*
X88488571Y-64487142D01*
X88440952Y-64510952D01*
X88298095Y-64510952D01*
X88250476Y-64487142D01*
X88226666Y-64463333D01*
X88202857Y-64415714D01*
X88202857Y-64344285D01*
X88226666Y-64296666D01*
X88250476Y-64272857D01*
X88298095Y-64249047D01*
X88440952Y-64249047D01*
X88488571Y-64272857D01*
X88512380Y-64296666D01*
X88536190Y-64344285D01*
X88536190Y-64415714D01*
X88202857Y-64082380D02*
X88536190Y-63987142D01*
X88298095Y-63891904D01*
X88536190Y-63796666D01*
X88202857Y-63701428D01*
X88512380Y-63320476D02*
X88536190Y-63368095D01*
X88536190Y-63463333D01*
X88512380Y-63510952D01*
X88464761Y-63534761D01*
X88274285Y-63534761D01*
X88226666Y-63510952D01*
X88202857Y-63463333D01*
X88202857Y-63368095D01*
X88226666Y-63320476D01*
X88274285Y-63296666D01*
X88321904Y-63296666D01*
X88369523Y-63534761D01*
X88536190Y-63082380D02*
X88202857Y-63082380D01*
X88298095Y-63082380D02*
X88250476Y-63058571D01*
X88226666Y-63034761D01*
X88202857Y-62987142D01*
X88202857Y-62939523D01*
X88536190Y-62153809D02*
X88536190Y-62391904D01*
X88036190Y-62391904D01*
X88274285Y-61987142D02*
X88274285Y-61820476D01*
X88536190Y-61749047D02*
X88536190Y-61987142D01*
X88036190Y-61987142D01*
X88036190Y-61749047D01*
X88536190Y-61534761D02*
X88036190Y-61534761D01*
X88036190Y-61415714D01*
X88060000Y-61344285D01*
X88107619Y-61296666D01*
X88155238Y-61272857D01*
X88250476Y-61249047D01*
X88321904Y-61249047D01*
X88417142Y-61272857D01*
X88464761Y-61296666D01*
X88512380Y-61344285D01*
X88536190Y-61415714D01*
X88536190Y-61534761D01*
D10*
X114917142Y-64419285D02*
X115060000Y-64419285D01*
X115131428Y-64455000D01*
X115202857Y-64526428D01*
X115238571Y-64669285D01*
X115238571Y-64919285D01*
X115202857Y-65062142D01*
X115131428Y-65133571D01*
X115060000Y-65169285D01*
X114917142Y-65169285D01*
X114845714Y-65133571D01*
X114774285Y-65062142D01*
X114738571Y-64919285D01*
X114738571Y-64669285D01*
X114774285Y-64526428D01*
X114845714Y-64455000D01*
X114917142Y-64419285D01*
X115560000Y-65169285D02*
X115560000Y-64669285D01*
X115560000Y-64812142D02*
X115595714Y-64740714D01*
X115631428Y-64705000D01*
X115702857Y-64669285D01*
X115774285Y-64669285D01*
X116345714Y-65169285D02*
X116345714Y-64776428D01*
X116310000Y-64705000D01*
X116238571Y-64669285D01*
X116095714Y-64669285D01*
X116024285Y-64705000D01*
X116345714Y-65133571D02*
X116274285Y-65169285D01*
X116095714Y-65169285D01*
X116024285Y-65133571D01*
X115988571Y-65062142D01*
X115988571Y-64990714D01*
X116024285Y-64919285D01*
X116095714Y-64883571D01*
X116274285Y-64883571D01*
X116345714Y-64847857D01*
X116702857Y-64669285D02*
X116702857Y-65169285D01*
X116702857Y-64740714D02*
X116738571Y-64705000D01*
X116810000Y-64669285D01*
X116917142Y-64669285D01*
X116988571Y-64705000D01*
X117024285Y-64776428D01*
X117024285Y-65169285D01*
X117702857Y-64669285D02*
X117702857Y-65276428D01*
X117667142Y-65347857D01*
X117631428Y-65383571D01*
X117560000Y-65419285D01*
X117452857Y-65419285D01*
X117381428Y-65383571D01*
X117702857Y-65133571D02*
X117631428Y-65169285D01*
X117488571Y-65169285D01*
X117417142Y-65133571D01*
X117381428Y-65097857D01*
X117345714Y-65026428D01*
X117345714Y-64812142D01*
X117381428Y-64740714D01*
X117417142Y-64705000D01*
X117488571Y-64669285D01*
X117631428Y-64669285D01*
X117702857Y-64705000D01*
X118345714Y-65133571D02*
X118274285Y-65169285D01*
X118131428Y-65169285D01*
X118060000Y-65133571D01*
X118024285Y-65062142D01*
X118024285Y-64776428D01*
X118060000Y-64705000D01*
X118131428Y-64669285D01*
X118274285Y-64669285D01*
X118345714Y-64705000D01*
X118381428Y-64776428D01*
X118381428Y-64847857D01*
X118024285Y-64919285D01*
X97566190Y-62844047D02*
X97194761Y-62844047D01*
X97380476Y-62844047D02*
X97380476Y-62194047D01*
X97318571Y-62286904D01*
X97256666Y-62348809D01*
X97194761Y-62379761D01*
X97782857Y-62194047D02*
X98185238Y-62194047D01*
X97968571Y-62441666D01*
X98061428Y-62441666D01*
X98123333Y-62472619D01*
X98154285Y-62503571D01*
X98185238Y-62565476D01*
X98185238Y-62720238D01*
X98154285Y-62782142D01*
X98123333Y-62813095D01*
X98061428Y-62844047D01*
X97875714Y-62844047D01*
X97813809Y-62813095D01*
X97782857Y-62782142D01*
X116345714Y-69460714D02*
X116381428Y-69425000D01*
X116452857Y-69389285D01*
X116631428Y-69389285D01*
X116702857Y-69425000D01*
X116738571Y-69460714D01*
X116774285Y-69532142D01*
X116774285Y-69603571D01*
X116738571Y-69710714D01*
X116310000Y-70139285D01*
X116774285Y-70139285D01*
X98926190Y-64064047D02*
X98554761Y-64064047D01*
X98740476Y-64064047D02*
X98740476Y-63414047D01*
X98678571Y-63506904D01*
X98616666Y-63568809D01*
X98554761Y-63599761D01*
X99483333Y-63414047D02*
X99359523Y-63414047D01*
X99297619Y-63445000D01*
X99266666Y-63475952D01*
X99204761Y-63568809D01*
X99173809Y-63692619D01*
X99173809Y-63940238D01*
X99204761Y-64002142D01*
X99235714Y-64033095D01*
X99297619Y-64064047D01*
X99421428Y-64064047D01*
X99483333Y-64033095D01*
X99514285Y-64002142D01*
X99545238Y-63940238D01*
X99545238Y-63785476D01*
X99514285Y-63723571D01*
X99483333Y-63692619D01*
X99421428Y-63661666D01*
X99297619Y-63661666D01*
X99235714Y-63692619D01*
X99204761Y-63723571D01*
X99173809Y-63785476D01*
X96296190Y-62854047D02*
X95924761Y-62854047D01*
X96110476Y-62854047D02*
X96110476Y-62204047D01*
X96048571Y-62296904D01*
X95986666Y-62358809D01*
X95924761Y-62389761D01*
X96915238Y-62854047D02*
X96543809Y-62854047D01*
X96729523Y-62854047D02*
X96729523Y-62204047D01*
X96667619Y-62296904D01*
X96605714Y-62358809D01*
X96543809Y-62389761D01*
X121417142Y-72339285D02*
X120988571Y-72339285D01*
X121202857Y-72339285D02*
X121202857Y-71589285D01*
X121131428Y-71696428D01*
X121060000Y-71767857D01*
X120988571Y-71803571D01*
X122060000Y-71589285D02*
X121917142Y-71589285D01*
X121845714Y-71625000D01*
X121810000Y-71660714D01*
X121738571Y-71767857D01*
X121702857Y-71910714D01*
X121702857Y-72196428D01*
X121738571Y-72267857D01*
X121774285Y-72303571D01*
X121845714Y-72339285D01*
X121988571Y-72339285D01*
X122060000Y-72303571D01*
X122095714Y-72267857D01*
X122131428Y-72196428D01*
X122131428Y-72017857D01*
X122095714Y-71946428D01*
X122060000Y-71910714D01*
X121988571Y-71875000D01*
X121845714Y-71875000D01*
X121774285Y-71910714D01*
X121738571Y-71946428D01*
X121702857Y-72017857D01*
X110756428Y-76526428D02*
X110863571Y-76562142D01*
X110899285Y-76597857D01*
X110935000Y-76669285D01*
X110935000Y-76776428D01*
X110899285Y-76847857D01*
X110863571Y-76883571D01*
X110792142Y-76919285D01*
X110506428Y-76919285D01*
X110506428Y-76169285D01*
X110756428Y-76169285D01*
X110827857Y-76205000D01*
X110863571Y-76240714D01*
X110899285Y-76312142D01*
X110899285Y-76383571D01*
X110863571Y-76455000D01*
X110827857Y-76490714D01*
X110756428Y-76526428D01*
X110506428Y-76526428D01*
X111363571Y-76919285D02*
X111292142Y-76883571D01*
X111256428Y-76812142D01*
X111256428Y-76169285D01*
X111970714Y-76419285D02*
X111970714Y-76919285D01*
X111649285Y-76419285D02*
X111649285Y-76812142D01*
X111685000Y-76883571D01*
X111756428Y-76919285D01*
X111863571Y-76919285D01*
X111935000Y-76883571D01*
X111970714Y-76847857D01*
X112613571Y-76883571D02*
X112542142Y-76919285D01*
X112399285Y-76919285D01*
X112327857Y-76883571D01*
X112292142Y-76812142D01*
X112292142Y-76526428D01*
X112327857Y-76455000D01*
X112399285Y-76419285D01*
X112542142Y-76419285D01*
X112613571Y-76455000D01*
X112649285Y-76526428D01*
X112649285Y-76597857D01*
X112292142Y-76669285D01*
X105917142Y-76205000D02*
X105845714Y-76169285D01*
X105738571Y-76169285D01*
X105631428Y-76205000D01*
X105560000Y-76276428D01*
X105524285Y-76347857D01*
X105488571Y-76490714D01*
X105488571Y-76597857D01*
X105524285Y-76740714D01*
X105560000Y-76812142D01*
X105631428Y-76883571D01*
X105738571Y-76919285D01*
X105810000Y-76919285D01*
X105917142Y-76883571D01*
X105952857Y-76847857D01*
X105952857Y-76597857D01*
X105810000Y-76597857D01*
X106274285Y-76919285D02*
X106274285Y-76419285D01*
X106274285Y-76562142D02*
X106310000Y-76490714D01*
X106345714Y-76455000D01*
X106417142Y-76419285D01*
X106488571Y-76419285D01*
X107024285Y-76883571D02*
X106952857Y-76919285D01*
X106810000Y-76919285D01*
X106738571Y-76883571D01*
X106702857Y-76812142D01*
X106702857Y-76526428D01*
X106738571Y-76455000D01*
X106810000Y-76419285D01*
X106952857Y-76419285D01*
X107024285Y-76455000D01*
X107060000Y-76526428D01*
X107060000Y-76597857D01*
X106702857Y-76669285D01*
X107310000Y-76419285D02*
X107488571Y-76919285D01*
X107667142Y-76419285D02*
X107488571Y-76919285D01*
X107417142Y-77097857D01*
X107381428Y-77133571D01*
X107310000Y-77169285D01*
X111310000Y-71589285D02*
X111774285Y-71589285D01*
X111524285Y-71875000D01*
X111631428Y-71875000D01*
X111702857Y-71910714D01*
X111738571Y-71946428D01*
X111774285Y-72017857D01*
X111774285Y-72196428D01*
X111738571Y-72267857D01*
X111702857Y-72303571D01*
X111631428Y-72339285D01*
X111417142Y-72339285D01*
X111345714Y-72303571D01*
X111310000Y-72267857D01*
X125214285Y-66875000D02*
X125142857Y-66839285D01*
X125035714Y-66839285D01*
X124928571Y-66875000D01*
X124857142Y-66946428D01*
X124821428Y-67017857D01*
X124785714Y-67160714D01*
X124785714Y-67267857D01*
X124821428Y-67410714D01*
X124857142Y-67482142D01*
X124928571Y-67553571D01*
X125035714Y-67589285D01*
X125107142Y-67589285D01*
X125214285Y-67553571D01*
X125250000Y-67517857D01*
X125250000Y-67267857D01*
X125107142Y-67267857D01*
X125571428Y-67589285D02*
X125571428Y-67089285D01*
X125571428Y-67232142D02*
X125607142Y-67160714D01*
X125642857Y-67125000D01*
X125714285Y-67089285D01*
X125785714Y-67089285D01*
X126321428Y-67553571D02*
X126250000Y-67589285D01*
X126107142Y-67589285D01*
X126035714Y-67553571D01*
X126000000Y-67482142D01*
X126000000Y-67196428D01*
X126035714Y-67125000D01*
X126107142Y-67089285D01*
X126250000Y-67089285D01*
X126321428Y-67125000D01*
X126357142Y-67196428D01*
X126357142Y-67267857D01*
X126000000Y-67339285D01*
X126964285Y-67553571D02*
X126892857Y-67589285D01*
X126750000Y-67589285D01*
X126678571Y-67553571D01*
X126642857Y-67482142D01*
X126642857Y-67196428D01*
X126678571Y-67125000D01*
X126750000Y-67089285D01*
X126892857Y-67089285D01*
X126964285Y-67125000D01*
X127000000Y-67196428D01*
X127000000Y-67267857D01*
X126642857Y-67339285D01*
X127321428Y-67089285D02*
X127321428Y-67589285D01*
X127321428Y-67160714D02*
X127357142Y-67125000D01*
X127428571Y-67089285D01*
X127535714Y-67089285D01*
X127607142Y-67125000D01*
X127642857Y-67196428D01*
X127642857Y-67589285D01*
X128535714Y-66803571D02*
X127892857Y-67767857D01*
X129214285Y-67517857D02*
X129178571Y-67553571D01*
X129071428Y-67589285D01*
X129000000Y-67589285D01*
X128892857Y-67553571D01*
X128821428Y-67482142D01*
X128785714Y-67410714D01*
X128750000Y-67267857D01*
X128750000Y-67160714D01*
X128785714Y-67017857D01*
X128821428Y-66946428D01*
X128892857Y-66875000D01*
X129000000Y-66839285D01*
X129071428Y-66839285D01*
X129178571Y-66875000D01*
X129214285Y-66910714D01*
D16*
%TO.C,R1*%
X83976666Y-63356190D02*
X83810000Y-63118095D01*
X83690952Y-63356190D02*
X83690952Y-62856190D01*
X83881428Y-62856190D01*
X83929047Y-62880000D01*
X83952857Y-62903809D01*
X83976666Y-62951428D01*
X83976666Y-63022857D01*
X83952857Y-63070476D01*
X83929047Y-63094285D01*
X83881428Y-63118095D01*
X83690952Y-63118095D01*
X84452857Y-63356190D02*
X84167142Y-63356190D01*
X84310000Y-63356190D02*
X84310000Y-62856190D01*
X84262380Y-62927619D01*
X84214761Y-62975238D01*
X84167142Y-62999047D01*
D15*
%TO.C,D1*%
X85690952Y-63356190D02*
X85690952Y-62856190D01*
X85810000Y-62856190D01*
X85881428Y-62880000D01*
X85929047Y-62927619D01*
X85952857Y-62975238D01*
X85976666Y-63070476D01*
X85976666Y-63141904D01*
X85952857Y-63237142D01*
X85929047Y-63284761D01*
X85881428Y-63332380D01*
X85810000Y-63356190D01*
X85690952Y-63356190D01*
X86452857Y-63356190D02*
X86167142Y-63356190D01*
X86310000Y-63356190D02*
X86310000Y-62856190D01*
X86262380Y-62927619D01*
X86214761Y-62975238D01*
X86167142Y-62999047D01*
D17*
%TO.C,R1*%
X84795000Y-63357064D02*
X84795000Y-62902936D01*
X83325000Y-63357064D02*
X83325000Y-62902936D01*
%TO.C,D1*%
X85100000Y-62130000D02*
X85100000Y-64990000D01*
X87020000Y-64990000D02*
X87020000Y-62130000D01*
X85100000Y-64990000D02*
X87020000Y-64990000D01*
%TD*%
%LPC*%
D18*
%TO.C,J4*%
X106560000Y-74330000D03*
X106560000Y-67330000D03*
X111560000Y-74330000D03*
X111560000Y-67330000D03*
X116560000Y-74330000D03*
X116560000Y-67330000D03*
X121560000Y-74330000D03*
X121560000Y-67330000D03*
%TD*%
D19*
%TO.C,J3*%
X90060000Y-60880000D03*
X91330000Y-60880000D03*
X96410000Y-60880000D03*
X97680000Y-60880000D03*
%TD*%
D20*
%TO.C,J5*%
X126960000Y-69880000D03*
D21*
X126960000Y-74420000D03*
%TD*%
D22*
%TO.C,R1*%
X84060000Y-64130000D03*
X84060000Y-62130000D03*
%TD*%
D23*
%TO.C,D1*%
X86060000Y-64155000D03*
X86060000Y-62105000D03*
%TD*%
D19*
%TO.C,J1*%
X90060000Y-65380000D03*
X92600000Y-65380000D03*
X97680000Y-65380000D03*
X98950000Y-65380000D03*
%TD*%
M02*
