%TF.GenerationSoftware,KiCad,Pcbnew,(6.0.1)*%
%TF.CreationDate,2022-02-21T19:23:01-07:00*%
%TF.ProjectId,MShaw_4gbNandExtensionQSB_V2,4d536861-775f-4346-9762-4e616e644578,rev?*%
%TF.SameCoordinates,Original*%
%TF.FileFunction,Copper,L1,Top*%
%TF.FilePolarity,Positive*%
%FSLAX46Y46*%
G04 Gerber Fmt 4.6, Leading zero omitted, Abs format (unit mm)*
G04 Created by KiCad (PCBNEW (6.0.1)) date 2022-02-21 19:23:01*
%MOMM*%
%LPD*%
G01*
G04 APERTURE LIST*
G04 Aperture macros list*
%AMRoundRect*
0 Rectangle with rounded corners*
0 $1 Rounding radius*
0 $2 $3 $4 $5 $6 $7 $8 $9 X,Y pos of 4 corners*
0 Add a 4 corners polygon primitive as box body*
4,1,4,$2,$3,$4,$5,$6,$7,$8,$9,$2,$3,0*
0 Add four circle primitives for the rounded corners*
1,1,$1+$1,$2,$3*
1,1,$1+$1,$4,$5*
1,1,$1+$1,$6,$7*
1,1,$1+$1,$8,$9*
0 Add four rect primitives between the rounded corners*
20,1,$1+$1,$2,$3,$4,$5,0*
20,1,$1+$1,$4,$5,$6,$7,0*
20,1,$1+$1,$6,$7,$8,$9,0*
20,1,$1+$1,$8,$9,$2,$3,0*%
G04 Aperture macros list end*
%TA.AperFunction,SMDPad,CuDef*%
%ADD10RoundRect,0.750000X0.750000X-0.750000X0.750000X0.750000X-0.750000X0.750000X-0.750000X-0.750000X0*%
%TD*%
%TA.AperFunction,ComponentPad*%
%ADD11RoundRect,0.250000X0.250000X-0.750000X0.250000X0.750000X-0.250000X0.750000X-0.250000X-0.750000X0*%
%TD*%
%TA.AperFunction,SMDPad,CuDef*%
%ADD12RoundRect,0.750000X-0.750000X-0.750000X0.750000X-0.750000X0.750000X0.750000X-0.750000X0.750000X0*%
%TD*%
%TA.AperFunction,SMDPad,CuDef*%
%ADD13RoundRect,0.500000X-0.500000X-0.500000X0.500000X-0.500000X0.500000X0.500000X-0.500000X0.500000X0*%
%TD*%
%TA.AperFunction,SMDPad,CuDef*%
%ADD14RoundRect,0.250000X0.450000X-0.350000X0.450000X0.350000X-0.450000X0.350000X-0.450000X-0.350000X0*%
%TD*%
%TA.AperFunction,SMDPad,CuDef*%
%ADD15RoundRect,0.250000X0.450000X-0.325000X0.450000X0.325000X-0.450000X0.325000X-0.450000X-0.325000X0*%
%TD*%
%TA.AperFunction,ViaPad*%
%ADD16C,0.800000*%
%TD*%
%TA.AperFunction,Conductor*%
%ADD17C,0.250000*%
%TD*%
%TA.AperFunction,Conductor*%
%ADD18C,1.000000*%
%TD*%
G04 APERTURE END LIST*
D10*
%TO.P,J4,1,Pin_1*%
%TO.N,Net-(J1-Pad7)*%
X106560000Y-74330000D03*
%TO.P,J4,2,Pin_2*%
%TO.N,Net-(J2-Pad2)*%
X106560000Y-67330000D03*
%TO.P,J4,3,Pin_3*%
%TO.N,Net-(J2-Pad3)*%
X111560000Y-74330000D03*
%TO.P,J4,4,Pin_4*%
%TO.N,Net-(D1-Pad1)*%
X111560000Y-67330000D03*
%TO.P,J4,5,Pin_5*%
%TO.N,Net-(J2-Pad5)*%
X116560000Y-74330000D03*
%TO.P,J4,6,Pin_6*%
%TO.N,Net-(J1-Pad1)*%
X116560000Y-67330000D03*
%TO.P,J4,7,Pin_7*%
%TO.N,Net-(J1-Pad8)*%
X121560000Y-74330000D03*
%TO.P,J4,8,Pin_8*%
%TO.N,Net-(J2-Pad8)*%
X121560000Y-67330000D03*
%TD*%
D11*
%TO.P,J3,1,Pin_1*%
%TO.N,Net-(J2-Pad5)*%
X90060000Y-60880000D03*
%TO.P,J3,2,Pin_2*%
%TO.N,Net-(J2-Pad3)*%
X91330000Y-60880000D03*
%TO.P,J3,6,Pin_6*%
%TO.N,Net-(J2-Pad2)*%
X96410000Y-60880000D03*
%TO.P,J3,7,Pin_7*%
%TO.N,Net-(J2-Pad8)*%
X97680000Y-60880000D03*
%TD*%
D12*
%TO.P,J5,1,Pin_1*%
%TO.N,Net-(J5-Pad1)*%
X126960000Y-69880000D03*
D13*
%TO.P,J5,2,Pin_2*%
X126960000Y-74420000D03*
%TD*%
D14*
%TO.P,R1,1*%
%TO.N,Net-(D1-Pad2)*%
X84060000Y-64130000D03*
%TO.P,R1,2*%
%TO.N,Net-(J2-Pad5)*%
X84060000Y-62130000D03*
%TD*%
D15*
%TO.P,D1,1,K*%
%TO.N,Net-(D1-Pad1)*%
X86060000Y-64155000D03*
%TO.P,D1,2,A*%
%TO.N,Net-(D1-Pad2)*%
X86060000Y-62105000D03*
%TD*%
D11*
%TO.P,J1,1,Pin_1*%
%TO.N,Net-(J1-Pad1)*%
X90060000Y-65380000D03*
%TO.P,J1,3,Pin_3*%
%TO.N,Net-(D1-Pad1)*%
X92600000Y-65380000D03*
%TO.P,J1,7,Pin_7*%
%TO.N,Net-(J1-Pad7)*%
X97680000Y-65380000D03*
%TO.P,J1,8,Pin_8*%
%TO.N,Net-(J1-Pad8)*%
X98950000Y-65380000D03*
%TD*%
D16*
%TO.N,Net-(D1-Pad1)*%
X87560000Y-63630000D03*
X108100000Y-69400000D03*
%TO.N,Net-(J2-Pad2)*%
X104433017Y-66606983D03*
%TO.N,Net-(J2-Pad3)*%
X110560000Y-72030000D03*
%TO.N,Net-(J1-Pad8)*%
X119060000Y-74330000D03*
%TD*%
D17*
%TO.N,Net-(J2-Pad5)*%
X90060000Y-61422493D02*
X91329427Y-62691920D01*
X91329427Y-62691920D02*
X89970960Y-62691920D01*
X117755080Y-65505480D02*
X102621198Y-65505480D01*
X118760000Y-72130000D02*
X118760000Y-66510400D01*
X102621198Y-65505480D02*
X100257158Y-63141440D01*
X100257158Y-63141440D02*
X91778947Y-63141440D01*
X118760000Y-66510400D02*
X117755080Y-65505480D01*
X91778947Y-63141440D02*
X91329427Y-62691920D01*
X84984520Y-61205480D02*
X88484520Y-61205480D01*
X90060000Y-60880000D02*
X90060000Y-61422493D01*
X84060000Y-62130000D02*
X84984520Y-61205480D01*
X116560000Y-74330000D02*
X118760000Y-72130000D01*
X89970960Y-62691920D02*
X88484520Y-61205480D01*
X90060000Y-61005020D02*
X89934980Y-61005020D01*
%TO.N,Net-(D1-Pad1)*%
X87035000Y-64155000D02*
X87560000Y-63630000D01*
X109490000Y-69400000D02*
X108100000Y-69400000D01*
X86060000Y-64155000D02*
X87035000Y-64155000D01*
X111560000Y-67330000D02*
X109490000Y-69400000D01*
%TO.N,Net-(J2-Pad8)*%
X102456436Y-64705000D02*
X118935000Y-64705000D01*
X97680000Y-62250000D02*
X98121920Y-62691920D01*
X97680000Y-60880000D02*
X97680000Y-62250000D01*
X97680000Y-60880000D02*
X98060000Y-60880000D01*
X100443356Y-62691920D02*
X102456436Y-64705000D01*
X97805000Y-60755000D02*
X97680000Y-60880000D01*
X118935000Y-64705000D02*
X121560000Y-67330000D01*
X98121920Y-62691920D02*
X100443356Y-62691920D01*
%TO.N,Net-(J1-Pad7)*%
X104310000Y-72080000D02*
X104310000Y-68730000D01*
X98477027Y-64040480D02*
X99620480Y-64040480D01*
X97680000Y-64837507D02*
X98477027Y-64040480D01*
X106560000Y-74330000D02*
X104310000Y-72080000D01*
X97680000Y-65380000D02*
X97680000Y-64837507D01*
X104310000Y-68730000D02*
X99620480Y-64040480D01*
%TO.N,Net-(J2-Pad2)*%
X105836983Y-66606983D02*
X106560000Y-67330000D01*
X96410000Y-60880000D02*
X96410000Y-61422493D01*
X104433017Y-66606983D02*
X105836983Y-66606983D01*
%TO.N,Net-(J2-Pad3)*%
X111560000Y-73030000D02*
X111560000Y-74330000D01*
X110560000Y-72030000D02*
X111560000Y-73030000D01*
%TO.N,Net-(J1-Pad8)*%
X98950000Y-64490000D02*
X98950000Y-65380000D01*
X98950000Y-65115000D02*
X98950000Y-65254980D01*
X119060000Y-74330000D02*
X121560000Y-74330000D01*
%TO.N,Net-(J1-Pad1)*%
X106350000Y-70150000D02*
X113740000Y-70150000D01*
X104759520Y-68549120D02*
X105527210Y-69316810D01*
X105527210Y-69327210D02*
X106350000Y-70150000D01*
X103995718Y-67780000D02*
X104010000Y-67780000D01*
X104010000Y-67780000D02*
X104759520Y-68529520D01*
X99806678Y-63590960D02*
X103995718Y-67780000D01*
X105527210Y-69316810D02*
X105527210Y-69327210D01*
X91849040Y-63590960D02*
X99806678Y-63590960D01*
X90060000Y-65380000D02*
X91849040Y-63590960D01*
X113740000Y-70150000D02*
X116560000Y-67330000D01*
X104759520Y-68529520D02*
X104759520Y-68549120D01*
%TO.N,Net-(D1-Pad2)*%
X86060000Y-62130000D02*
X84060000Y-64130000D01*
X86060000Y-62105000D02*
X86060000Y-62130000D01*
D18*
%TO.N,Net-(J5-Pad1)*%
X126960000Y-69880000D02*
X126960000Y-74420000D01*
%TD*%
M02*
