%TF.GenerationSoftware,KiCad,Pcbnew,(6.0.1)*%
%TF.CreationDate,2022-02-26T10:03:47-07:00*%
%TF.ProjectId,MShaw_4gbNandExtensionQSB_V2,4d536861-775f-4346-9762-4e616e644578,rev?*%
%TF.SameCoordinates,Original*%
%TF.FileFunction,Copper,L2,Bot*%
%TF.FilePolarity,Positive*%
%FSLAX46Y46*%
G04 Gerber Fmt 4.6, Leading zero omitted, Abs format (unit mm)*
G04 Created by KiCad (PCBNEW (6.0.1)) date 2022-02-26 10:03:47*
%MOMM*%
%LPD*%
G01*
G04 APERTURE LIST*
G04 Aperture macros list*
%AMRoundRect*
0 Rectangle with rounded corners*
0 $1 Rounding radius*
0 $2 $3 $4 $5 $6 $7 $8 $9 X,Y pos of 4 corners*
0 Add a 4 corners polygon primitive as box body*
4,1,4,$2,$3,$4,$5,$6,$7,$8,$9,$2,$3,0*
0 Add four circle primitives for the rounded corners*
1,1,$1+$1,$2,$3*
1,1,$1+$1,$4,$5*
1,1,$1+$1,$6,$7*
1,1,$1+$1,$8,$9*
0 Add four rect primitives between the rounded corners*
20,1,$1+$1,$2,$3,$4,$5,0*
20,1,$1+$1,$4,$5,$6,$7,0*
20,1,$1+$1,$6,$7,$8,$9,0*
20,1,$1+$1,$8,$9,$2,$3,0*%
G04 Aperture macros list end*
%TA.AperFunction,ComponentPad*%
%ADD10RoundRect,0.250000X0.250000X-0.750000X0.250000X0.750000X-0.250000X0.750000X-0.250000X-0.750000X0*%
%TD*%
%TA.AperFunction,ViaPad*%
%ADD11C,0.800000*%
%TD*%
%TA.AperFunction,Conductor*%
%ADD12C,0.250000*%
%TD*%
G04 APERTURE END LIST*
D10*
%TO.P,J3,1,Pin_1*%
%TO.N,Net-(J2-Pad5)*%
X90060000Y-60880000D03*
%TO.P,J3,2,Pin_2*%
%TO.N,Net-(J2-Pad3)*%
X91330000Y-60880000D03*
%TO.P,J3,6,Pin_6*%
%TO.N,Net-(J2-Pad2)*%
X96410000Y-60880000D03*
%TO.P,J3,7,Pin_7*%
%TO.N,Net-(J2-Pad8)*%
X97680000Y-60880000D03*
%TD*%
%TO.P,J1,1,Pin_1*%
%TO.N,Net-(J1-Pad1)*%
X90060000Y-65380000D03*
%TO.P,J1,3,Pin_3*%
%TO.N,Net-(D1-Pad1)*%
X92600000Y-65380000D03*
%TO.P,J1,7,Pin_7*%
%TO.N,Net-(J1-Pad7)*%
X97680000Y-65380000D03*
%TO.P,J1,8,Pin_8*%
%TO.N,Net-(J1-Pad8)*%
X98950000Y-65380000D03*
%TD*%
D11*
%TO.N,Net-(D1-Pad1)*%
X87560000Y-63630000D03*
X108100000Y-69400000D03*
%TO.N,Net-(J2-Pad2)*%
X104433017Y-66606983D03*
%TO.N,Net-(J2-Pad3)*%
X110560000Y-72030000D03*
%TO.N,Net-(J1-Pad8)*%
X119060000Y-74330000D03*
%TD*%
D12*
%TO.N,Net-(D1-Pad1)*%
X90975020Y-63630000D02*
X87560000Y-63630000D01*
X105565718Y-69400000D02*
X104032859Y-67867141D01*
X93060000Y-63630000D02*
X92600000Y-64090000D01*
X103877859Y-67712141D02*
X99795718Y-63630000D01*
X92600000Y-65254980D02*
X90975020Y-63630000D01*
X92600000Y-64090000D02*
X92600000Y-65254980D01*
X108100000Y-69400000D02*
X105565718Y-69400000D01*
X104032859Y-67867141D02*
X104145718Y-67980000D01*
X103877859Y-67712141D02*
X104032859Y-67867141D01*
X99795718Y-63630000D02*
X93060000Y-63630000D01*
%TO.N,Net-(J1-Pad7)*%
X97680000Y-65380000D02*
X97680000Y-64837507D01*
%TO.N,Net-(J2-Pad2)*%
X96410000Y-61422493D02*
X96410000Y-60880000D01*
X104433017Y-66606983D02*
X104044137Y-66606983D01*
X97617508Y-62630000D02*
X97088754Y-62101246D01*
X97088754Y-62101246D02*
X96410000Y-61422493D01*
X97417987Y-62430480D02*
X97367507Y-62380000D01*
X100067154Y-62630000D02*
X97617508Y-62630000D01*
X97367507Y-62380000D02*
X97088754Y-62101246D01*
X104044137Y-66606983D02*
X100067154Y-62630000D01*
%TO.N,Net-(J2-Pad3)*%
X91330000Y-60880000D02*
X93580000Y-63130000D01*
X104281436Y-67480000D02*
X108910000Y-67480000D01*
X108910000Y-67480000D02*
X110560000Y-69130000D01*
X110560000Y-69130000D02*
X110560000Y-72030000D01*
X93580000Y-63130000D02*
X99931436Y-63130000D01*
X99931436Y-63130000D02*
X104281436Y-67480000D01*
%TO.N,Net-(J1-Pad8)*%
X109860000Y-74330000D02*
X119060000Y-74330000D01*
X99310000Y-64130000D02*
X98950000Y-64490000D01*
X98950000Y-64490000D02*
X98950000Y-65380000D01*
X104260000Y-68730000D02*
X99660000Y-64130000D01*
X104710000Y-69180000D02*
X104260000Y-68730000D01*
X104260000Y-68730000D02*
X109860000Y-74330000D01*
X99660000Y-64130000D02*
X99310000Y-64130000D01*
%TD*%
M02*
