%TF.GenerationSoftware,KiCad,Pcbnew,(6.0.1)*%
%TF.CreationDate,2022-02-28T01:07:11-07:00*%
%TF.ProjectId,MShaw_4gbNandExtensionQSB_V2,4d536861-775f-4346-9762-4e616e644578,rev?*%
%TF.SameCoordinates,Original*%
%TF.FileFunction,Copper,L1,Top*%
%TF.FilePolarity,Positive*%
%FSLAX46Y46*%
G04 Gerber Fmt 4.6, Leading zero omitted, Abs format (unit mm)*
G04 Created by KiCad (PCBNEW (6.0.1)) date 2022-02-28 01:07:11*
%MOMM*%
%LPD*%
G01*
G04 APERTURE LIST*
G04 Aperture macros list*
%AMRoundRect*
0 Rectangle with rounded corners*
0 $1 Rounding radius*
0 $2 $3 $4 $5 $6 $7 $8 $9 X,Y pos of 4 corners*
0 Add a 4 corners polygon primitive as box body*
4,1,4,$2,$3,$4,$5,$6,$7,$8,$9,$2,$3,0*
0 Add four circle primitives for the rounded corners*
1,1,$1+$1,$2,$3*
1,1,$1+$1,$4,$5*
1,1,$1+$1,$6,$7*
1,1,$1+$1,$8,$9*
0 Add four rect primitives between the rounded corners*
20,1,$1+$1,$2,$3,$4,$5,0*
20,1,$1+$1,$4,$5,$6,$7,0*
20,1,$1+$1,$6,$7,$8,$9,0*
20,1,$1+$1,$8,$9,$2,$3,0*%
G04 Aperture macros list end*
%ADD10C,0.100000*%
%ADD11C,0.150000*%
%ADD12C,0.300000*%
%ADD13C,0.400000*%
%TA.AperFunction,SMDPad,CuDef*%
%ADD14RoundRect,0.750000X0.750000X-0.750000X0.750000X0.750000X-0.750000X0.750000X-0.750000X-0.750000X0*%
%TD*%
%TA.AperFunction,ComponentPad*%
%ADD15RoundRect,0.250000X0.250000X-0.750000X0.250000X0.750000X-0.250000X0.750000X-0.250000X-0.750000X0*%
%TD*%
%TA.AperFunction,SMDPad,CuDef*%
%ADD16RoundRect,0.750000X-0.750000X-0.750000X0.750000X-0.750000X0.750000X0.750000X-0.750000X0.750000X0*%
%TD*%
%TA.AperFunction,SMDPad,CuDef*%
%ADD17RoundRect,0.500000X-0.500000X-0.500000X0.500000X-0.500000X0.500000X0.500000X-0.500000X0.500000X0*%
%TD*%
%TA.AperFunction,SMDPad,CuDef*%
%ADD18RoundRect,0.250000X0.450000X-0.350000X0.450000X0.350000X-0.450000X0.350000X-0.450000X-0.350000X0*%
%TD*%
%TA.AperFunction,SMDPad,CuDef*%
%ADD19RoundRect,0.250000X0.450000X-0.325000X0.450000X0.325000X-0.450000X0.325000X-0.450000X-0.325000X0*%
%TD*%
%TA.AperFunction,ViaPad*%
%ADD20C,0.800000*%
%TD*%
%TA.AperFunction,Conductor*%
%ADD21C,0.250000*%
%TD*%
%TA.AperFunction,Conductor*%
%ADD22C,1.000000*%
%TD*%
G04 APERTURE END LIST*
D10*
D11*
X177002200Y-166007200D02*
X177002200Y-198007200D01*
X285002200Y-198007200D01*
X285002200Y-166007200D01*
X177002200Y-166007200D01*
D10*
D11*
X10000000Y-10000000D02*
X10000000Y-200007200D01*
X287002200Y-200007200D01*
X287002200Y-10000000D01*
X10000000Y-10000000D01*
D10*
D11*
X12000000Y-12000000D02*
X12000000Y-198007200D01*
X285002200Y-198007200D01*
X285002200Y-12000000D01*
X12000000Y-12000000D01*
D10*
D11*
X60000000Y-12000000D02*
X60000000Y-10000000D01*
D10*
D11*
X110000000Y-12000000D02*
X110000000Y-10000000D01*
D10*
D11*
X160000000Y-12000000D02*
X160000000Y-10000000D01*
D10*
D11*
X210000000Y-12000000D02*
X210000000Y-10000000D01*
D10*
D11*
X260000000Y-12000000D02*
X260000000Y-10000000D01*
D10*
D11*
X36065476Y-11588095D02*
X35322619Y-11588095D01*
X35694047Y-11588095D02*
X35694047Y-10288095D01*
X35570238Y-10473809D01*
X35446428Y-10597619D01*
X35322619Y-10659523D01*
D10*
D11*
X85322619Y-10411904D02*
X85384523Y-10350000D01*
X85508333Y-10288095D01*
X85817857Y-10288095D01*
X85941666Y-10350000D01*
X86003571Y-10411904D01*
X86065476Y-10535714D01*
X86065476Y-10659523D01*
X86003571Y-10845238D01*
X85260714Y-11588095D01*
X86065476Y-11588095D01*
D10*
D11*
X135260714Y-10288095D02*
X136065476Y-10288095D01*
X135632142Y-10783333D01*
X135817857Y-10783333D01*
X135941666Y-10845238D01*
X136003571Y-10907142D01*
X136065476Y-11030952D01*
X136065476Y-11340476D01*
X136003571Y-11464285D01*
X135941666Y-11526190D01*
X135817857Y-11588095D01*
X135446428Y-11588095D01*
X135322619Y-11526190D01*
X135260714Y-11464285D01*
D10*
D11*
X185941666Y-10721428D02*
X185941666Y-11588095D01*
X185632142Y-10226190D02*
X185322619Y-11154761D01*
X186127380Y-11154761D01*
D10*
D11*
X236003571Y-10288095D02*
X235384523Y-10288095D01*
X235322619Y-10907142D01*
X235384523Y-10845238D01*
X235508333Y-10783333D01*
X235817857Y-10783333D01*
X235941666Y-10845238D01*
X236003571Y-10907142D01*
X236065476Y-11030952D01*
X236065476Y-11340476D01*
X236003571Y-11464285D01*
X235941666Y-11526190D01*
X235817857Y-11588095D01*
X235508333Y-11588095D01*
X235384523Y-11526190D01*
X235322619Y-11464285D01*
D10*
D11*
X285941666Y-10288095D02*
X285694047Y-10288095D01*
X285570238Y-10350000D01*
X285508333Y-10411904D01*
X285384523Y-10597619D01*
X285322619Y-10845238D01*
X285322619Y-11340476D01*
X285384523Y-11464285D01*
X285446428Y-11526190D01*
X285570238Y-11588095D01*
X285817857Y-11588095D01*
X285941666Y-11526190D01*
X286003571Y-11464285D01*
X286065476Y-11340476D01*
X286065476Y-11030952D01*
X286003571Y-10907142D01*
X285941666Y-10845238D01*
X285817857Y-10783333D01*
X285570238Y-10783333D01*
X285446428Y-10845238D01*
X285384523Y-10907142D01*
X285322619Y-11030952D01*
D10*
D11*
X60000000Y-198007200D02*
X60000000Y-200007200D01*
D10*
D11*
X110000000Y-198007200D02*
X110000000Y-200007200D01*
D10*
D11*
X160000000Y-198007200D02*
X160000000Y-200007200D01*
D10*
D11*
X210000000Y-198007200D02*
X210000000Y-200007200D01*
D10*
D11*
X260000000Y-198007200D02*
X260000000Y-200007200D01*
D10*
D11*
X36065476Y-199595295D02*
X35322619Y-199595295D01*
X35694047Y-199595295D02*
X35694047Y-198295295D01*
X35570238Y-198481009D01*
X35446428Y-198604819D01*
X35322619Y-198666723D01*
D10*
D11*
X85322619Y-198419104D02*
X85384523Y-198357200D01*
X85508333Y-198295295D01*
X85817857Y-198295295D01*
X85941666Y-198357200D01*
X86003571Y-198419104D01*
X86065476Y-198542914D01*
X86065476Y-198666723D01*
X86003571Y-198852438D01*
X85260714Y-199595295D01*
X86065476Y-199595295D01*
D10*
D11*
X135260714Y-198295295D02*
X136065476Y-198295295D01*
X135632142Y-198790533D01*
X135817857Y-198790533D01*
X135941666Y-198852438D01*
X136003571Y-198914342D01*
X136065476Y-199038152D01*
X136065476Y-199347676D01*
X136003571Y-199471485D01*
X135941666Y-199533390D01*
X135817857Y-199595295D01*
X135446428Y-199595295D01*
X135322619Y-199533390D01*
X135260714Y-199471485D01*
D10*
D11*
X185941666Y-198728628D02*
X185941666Y-199595295D01*
X185632142Y-198233390D02*
X185322619Y-199161961D01*
X186127380Y-199161961D01*
D10*
D11*
X236003571Y-198295295D02*
X235384523Y-198295295D01*
X235322619Y-198914342D01*
X235384523Y-198852438D01*
X235508333Y-198790533D01*
X235817857Y-198790533D01*
X235941666Y-198852438D01*
X236003571Y-198914342D01*
X236065476Y-199038152D01*
X236065476Y-199347676D01*
X236003571Y-199471485D01*
X235941666Y-199533390D01*
X235817857Y-199595295D01*
X235508333Y-199595295D01*
X235384523Y-199533390D01*
X235322619Y-199471485D01*
D10*
D11*
X285941666Y-198295295D02*
X285694047Y-198295295D01*
X285570238Y-198357200D01*
X285508333Y-198419104D01*
X285384523Y-198604819D01*
X285322619Y-198852438D01*
X285322619Y-199347676D01*
X285384523Y-199471485D01*
X285446428Y-199533390D01*
X285570238Y-199595295D01*
X285817857Y-199595295D01*
X285941666Y-199533390D01*
X286003571Y-199471485D01*
X286065476Y-199347676D01*
X286065476Y-199038152D01*
X286003571Y-198914342D01*
X285941666Y-198852438D01*
X285817857Y-198790533D01*
X285570238Y-198790533D01*
X285446428Y-198852438D01*
X285384523Y-198914342D01*
X285322619Y-199038152D01*
D10*
D11*
X10000000Y-60000000D02*
X12000000Y-60000000D01*
D10*
D11*
X10000000Y-110000000D02*
X12000000Y-110000000D01*
D10*
D11*
X10000000Y-160000000D02*
X12000000Y-160000000D01*
D10*
D11*
X10690476Y-35216666D02*
X11309523Y-35216666D01*
X10566666Y-35588095D02*
X11000000Y-34288095D01*
X11433333Y-35588095D01*
D10*
D11*
X11092857Y-84907142D02*
X11278571Y-84969047D01*
X11340476Y-85030952D01*
X11402380Y-85154761D01*
X11402380Y-85340476D01*
X11340476Y-85464285D01*
X11278571Y-85526190D01*
X11154761Y-85588095D01*
X10659523Y-85588095D01*
X10659523Y-84288095D01*
X11092857Y-84288095D01*
X11216666Y-84350000D01*
X11278571Y-84411904D01*
X11340476Y-84535714D01*
X11340476Y-84659523D01*
X11278571Y-84783333D01*
X11216666Y-84845238D01*
X11092857Y-84907142D01*
X10659523Y-84907142D01*
D10*
D11*
X11402380Y-135464285D02*
X11340476Y-135526190D01*
X11154761Y-135588095D01*
X11030952Y-135588095D01*
X10845238Y-135526190D01*
X10721428Y-135402380D01*
X10659523Y-135278571D01*
X10597619Y-135030952D01*
X10597619Y-134845238D01*
X10659523Y-134597619D01*
X10721428Y-134473809D01*
X10845238Y-134350000D01*
X11030952Y-134288095D01*
X11154761Y-134288095D01*
X11340476Y-134350000D01*
X11402380Y-134411904D01*
D10*
D11*
X10659523Y-185588095D02*
X10659523Y-184288095D01*
X10969047Y-184288095D01*
X11154761Y-184350000D01*
X11278571Y-184473809D01*
X11340476Y-184597619D01*
X11402380Y-184845238D01*
X11402380Y-185030952D01*
X11340476Y-185278571D01*
X11278571Y-185402380D01*
X11154761Y-185526190D01*
X10969047Y-185588095D01*
X10659523Y-185588095D01*
D10*
D11*
X287002200Y-60000000D02*
X285002200Y-60000000D01*
D10*
D11*
X287002200Y-110000000D02*
X285002200Y-110000000D01*
D10*
D11*
X287002200Y-160000000D02*
X285002200Y-160000000D01*
D10*
D11*
X285692676Y-35216666D02*
X286311723Y-35216666D01*
X285568866Y-35588095D02*
X286002200Y-34288095D01*
X286435533Y-35588095D01*
D10*
D11*
X286095057Y-84907142D02*
X286280771Y-84969047D01*
X286342676Y-85030952D01*
X286404580Y-85154761D01*
X286404580Y-85340476D01*
X286342676Y-85464285D01*
X286280771Y-85526190D01*
X286156961Y-85588095D01*
X285661723Y-85588095D01*
X285661723Y-84288095D01*
X286095057Y-84288095D01*
X286218866Y-84350000D01*
X286280771Y-84411904D01*
X286342676Y-84535714D01*
X286342676Y-84659523D01*
X286280771Y-84783333D01*
X286218866Y-84845238D01*
X286095057Y-84907142D01*
X285661723Y-84907142D01*
D10*
D11*
X286404580Y-135464285D02*
X286342676Y-135526190D01*
X286156961Y-135588095D01*
X286033152Y-135588095D01*
X285847438Y-135526190D01*
X285723628Y-135402380D01*
X285661723Y-135278571D01*
X285599819Y-135030952D01*
X285599819Y-134845238D01*
X285661723Y-134597619D01*
X285723628Y-134473809D01*
X285847438Y-134350000D01*
X286033152Y-134288095D01*
X286156961Y-134288095D01*
X286342676Y-134350000D01*
X286404580Y-134411904D01*
D10*
D11*
X285661723Y-185588095D02*
X285661723Y-184288095D01*
X285971247Y-184288095D01*
X286156961Y-184350000D01*
X286280771Y-184473809D01*
X286342676Y-184597619D01*
X286404580Y-184845238D01*
X286404580Y-185030952D01*
X286342676Y-185278571D01*
X286280771Y-185402380D01*
X286156961Y-185526190D01*
X285971247Y-185588095D01*
X285661723Y-185588095D01*
D10*
D11*
X200434342Y-193785771D02*
X200434342Y-192285771D01*
X200791485Y-192285771D01*
X201005771Y-192357200D01*
X201148628Y-192500057D01*
X201220057Y-192642914D01*
X201291485Y-192928628D01*
X201291485Y-193142914D01*
X201220057Y-193428628D01*
X201148628Y-193571485D01*
X201005771Y-193714342D01*
X200791485Y-193785771D01*
X200434342Y-193785771D01*
X202577200Y-193785771D02*
X202577200Y-193000057D01*
X202505771Y-192857200D01*
X202362914Y-192785771D01*
X202077200Y-192785771D01*
X201934342Y-192857200D01*
X202577200Y-193714342D02*
X202434342Y-193785771D01*
X202077200Y-193785771D01*
X201934342Y-193714342D01*
X201862914Y-193571485D01*
X201862914Y-193428628D01*
X201934342Y-193285771D01*
X202077200Y-193214342D01*
X202434342Y-193214342D01*
X202577200Y-193142914D01*
X203077200Y-192785771D02*
X203648628Y-192785771D01*
X203291485Y-192285771D02*
X203291485Y-193571485D01*
X203362914Y-193714342D01*
X203505771Y-193785771D01*
X203648628Y-193785771D01*
X204720057Y-193714342D02*
X204577200Y-193785771D01*
X204291485Y-193785771D01*
X204148628Y-193714342D01*
X204077200Y-193571485D01*
X204077200Y-193000057D01*
X204148628Y-192857200D01*
X204291485Y-192785771D01*
X204577200Y-192785771D01*
X204720057Y-192857200D01*
X204791485Y-193000057D01*
X204791485Y-193142914D01*
X204077200Y-193285771D01*
X205434342Y-193642914D02*
X205505771Y-193714342D01*
X205434342Y-193785771D01*
X205362914Y-193714342D01*
X205434342Y-193642914D01*
X205434342Y-193785771D01*
X205434342Y-192857200D02*
X205505771Y-192928628D01*
X205434342Y-193000057D01*
X205362914Y-192928628D01*
X205434342Y-192857200D01*
X205434342Y-193000057D01*
D10*
D11*
X177002200Y-194507200D02*
X285002200Y-194507200D01*
D10*
D11*
X178434342Y-196585771D02*
X178434342Y-195085771D01*
X179291485Y-196585771D02*
X178648628Y-195728628D01*
X179291485Y-195085771D02*
X178434342Y-195942914D01*
X179934342Y-196585771D02*
X179934342Y-195585771D01*
X179934342Y-195085771D02*
X179862914Y-195157200D01*
X179934342Y-195228628D01*
X180005771Y-195157200D01*
X179934342Y-195085771D01*
X179934342Y-195228628D01*
X181505771Y-196442914D02*
X181434342Y-196514342D01*
X181220057Y-196585771D01*
X181077200Y-196585771D01*
X180862914Y-196514342D01*
X180720057Y-196371485D01*
X180648628Y-196228628D01*
X180577200Y-195942914D01*
X180577200Y-195728628D01*
X180648628Y-195442914D01*
X180720057Y-195300057D01*
X180862914Y-195157200D01*
X181077200Y-195085771D01*
X181220057Y-195085771D01*
X181434342Y-195157200D01*
X181505771Y-195228628D01*
X182791485Y-196585771D02*
X182791485Y-195800057D01*
X182720057Y-195657200D01*
X182577200Y-195585771D01*
X182291485Y-195585771D01*
X182148628Y-195657200D01*
X182791485Y-196514342D02*
X182648628Y-196585771D01*
X182291485Y-196585771D01*
X182148628Y-196514342D01*
X182077200Y-196371485D01*
X182077200Y-196228628D01*
X182148628Y-196085771D01*
X182291485Y-196014342D01*
X182648628Y-196014342D01*
X182791485Y-195942914D01*
X184148628Y-196585771D02*
X184148628Y-195085771D01*
X184148628Y-196514342D02*
X184005771Y-196585771D01*
X183720057Y-196585771D01*
X183577200Y-196514342D01*
X183505771Y-196442914D01*
X183434342Y-196300057D01*
X183434342Y-195871485D01*
X183505771Y-195728628D01*
X183577200Y-195657200D01*
X183720057Y-195585771D01*
X184005771Y-195585771D01*
X184148628Y-195657200D01*
X186005771Y-195800057D02*
X186505771Y-195800057D01*
X186720057Y-196585771D02*
X186005771Y-196585771D01*
X186005771Y-195085771D01*
X186720057Y-195085771D01*
X187362914Y-196442914D02*
X187434342Y-196514342D01*
X187362914Y-196585771D01*
X187291485Y-196514342D01*
X187362914Y-196442914D01*
X187362914Y-196585771D01*
X188077200Y-196585771D02*
X188077200Y-195085771D01*
X188434342Y-195085771D01*
X188648628Y-195157200D01*
X188791485Y-195300057D01*
X188862914Y-195442914D01*
X188934342Y-195728628D01*
X188934342Y-195942914D01*
X188862914Y-196228628D01*
X188791485Y-196371485D01*
X188648628Y-196514342D01*
X188434342Y-196585771D01*
X188077200Y-196585771D01*
X189577200Y-196442914D02*
X189648628Y-196514342D01*
X189577200Y-196585771D01*
X189505771Y-196514342D01*
X189577200Y-196442914D01*
X189577200Y-196585771D01*
X190220057Y-196157200D02*
X190934342Y-196157200D01*
X190077200Y-196585771D02*
X190577200Y-195085771D01*
X191077200Y-196585771D01*
X191577200Y-196442914D02*
X191648628Y-196514342D01*
X191577200Y-196585771D01*
X191505771Y-196514342D01*
X191577200Y-196442914D01*
X191577200Y-196585771D01*
X194577200Y-196585771D02*
X194577200Y-195085771D01*
X194720057Y-196014342D02*
X195148628Y-196585771D01*
X195148628Y-195585771D02*
X194577200Y-196157200D01*
X195791485Y-196585771D02*
X195791485Y-195585771D01*
X195791485Y-195085771D02*
X195720057Y-195157200D01*
X195791485Y-195228628D01*
X195862914Y-195157200D01*
X195791485Y-195085771D01*
X195791485Y-195228628D01*
X197148628Y-196514342D02*
X197005771Y-196585771D01*
X196720057Y-196585771D01*
X196577200Y-196514342D01*
X196505771Y-196442914D01*
X196434342Y-196300057D01*
X196434342Y-195871485D01*
X196505771Y-195728628D01*
X196577200Y-195657200D01*
X196720057Y-195585771D01*
X197005771Y-195585771D01*
X197148628Y-195657200D01*
X198434342Y-196585771D02*
X198434342Y-195800057D01*
X198362914Y-195657200D01*
X198220057Y-195585771D01*
X197934342Y-195585771D01*
X197791485Y-195657200D01*
X198434342Y-196514342D02*
X198291485Y-196585771D01*
X197934342Y-196585771D01*
X197791485Y-196514342D01*
X197720057Y-196371485D01*
X197720057Y-196228628D01*
X197791485Y-196085771D01*
X197934342Y-196014342D01*
X198291485Y-196014342D01*
X198434342Y-195942914D01*
X199791485Y-196585771D02*
X199791485Y-195085771D01*
X199791485Y-196514342D02*
X199648628Y-196585771D01*
X199362914Y-196585771D01*
X199220057Y-196514342D01*
X199148628Y-196442914D01*
X199077200Y-196300057D01*
X199077200Y-195871485D01*
X199148628Y-195728628D01*
X199220057Y-195657200D01*
X199362914Y-195585771D01*
X199648628Y-195585771D01*
X199791485Y-195657200D01*
X202077200Y-197157200D02*
X202005771Y-197085771D01*
X201862914Y-196871485D01*
X201791485Y-196728628D01*
X201720057Y-196514342D01*
X201648628Y-196157200D01*
X201648628Y-195871485D01*
X201720057Y-195514342D01*
X201791485Y-195300057D01*
X201862914Y-195157200D01*
X202005771Y-194942914D01*
X202077200Y-194871485D01*
X203291485Y-195085771D02*
X203005771Y-195085771D01*
X202862914Y-195157200D01*
X202791485Y-195228628D01*
X202648628Y-195442914D01*
X202577200Y-195728628D01*
X202577200Y-196300057D01*
X202648628Y-196442914D01*
X202720057Y-196514342D01*
X202862914Y-196585771D01*
X203148628Y-196585771D01*
X203291485Y-196514342D01*
X203362914Y-196442914D01*
X203434342Y-196300057D01*
X203434342Y-195942914D01*
X203362914Y-195800057D01*
X203291485Y-195728628D01*
X203148628Y-195657200D01*
X202862914Y-195657200D01*
X202720057Y-195728628D01*
X202648628Y-195800057D01*
X202577200Y-195942914D01*
X204077200Y-196442914D02*
X204148628Y-196514342D01*
X204077200Y-196585771D01*
X204005771Y-196514342D01*
X204077200Y-196442914D01*
X204077200Y-196585771D01*
X205077200Y-195085771D02*
X205220057Y-195085771D01*
X205362914Y-195157200D01*
X205434342Y-195228628D01*
X205505771Y-195371485D01*
X205577200Y-195657200D01*
X205577200Y-196014342D01*
X205505771Y-196300057D01*
X205434342Y-196442914D01*
X205362914Y-196514342D01*
X205220057Y-196585771D01*
X205077200Y-196585771D01*
X204934342Y-196514342D01*
X204862914Y-196442914D01*
X204791485Y-196300057D01*
X204720057Y-196014342D01*
X204720057Y-195657200D01*
X204791485Y-195371485D01*
X204862914Y-195228628D01*
X204934342Y-195157200D01*
X205077200Y-195085771D01*
X206220057Y-196442914D02*
X206291485Y-196514342D01*
X206220057Y-196585771D01*
X206148628Y-196514342D01*
X206220057Y-196442914D01*
X206220057Y-196585771D01*
X207720057Y-196585771D02*
X206862914Y-196585771D01*
X207291485Y-196585771D02*
X207291485Y-195085771D01*
X207148628Y-195300057D01*
X207005771Y-195442914D01*
X206862914Y-195514342D01*
X208220057Y-197157200D02*
X208291485Y-197085771D01*
X208434342Y-196871485D01*
X208505771Y-196728628D01*
X208577200Y-196514342D01*
X208648628Y-196157200D01*
X208648628Y-195871485D01*
X208577200Y-195514342D01*
X208505771Y-195300057D01*
X208434342Y-195157200D01*
X208291485Y-194942914D01*
X208220057Y-194871485D01*
D10*
D11*
X177002200Y-191507200D02*
X285002200Y-191507200D01*
D10*
D12*
X264411485Y-193785771D02*
X263911485Y-193071485D01*
X263554342Y-193785771D02*
X263554342Y-192285771D01*
X264125771Y-192285771D01*
X264268628Y-192357200D01*
X264340057Y-192428628D01*
X264411485Y-192571485D01*
X264411485Y-192785771D01*
X264340057Y-192928628D01*
X264268628Y-193000057D01*
X264125771Y-193071485D01*
X263554342Y-193071485D01*
X265625771Y-193714342D02*
X265482914Y-193785771D01*
X265197200Y-193785771D01*
X265054342Y-193714342D01*
X264982914Y-193571485D01*
X264982914Y-193000057D01*
X265054342Y-192857200D01*
X265197200Y-192785771D01*
X265482914Y-192785771D01*
X265625771Y-192857200D01*
X265697200Y-193000057D01*
X265697200Y-193142914D01*
X264982914Y-193285771D01*
X266197200Y-192785771D02*
X266554342Y-193785771D01*
X266911485Y-192785771D01*
X267482914Y-193642914D02*
X267554342Y-193714342D01*
X267482914Y-193785771D01*
X267411485Y-193714342D01*
X267482914Y-193642914D01*
X267482914Y-193785771D01*
X267482914Y-192857200D02*
X267554342Y-192928628D01*
X267482914Y-193000057D01*
X267411485Y-192928628D01*
X267482914Y-192857200D01*
X267482914Y-193000057D01*
D10*
D11*
X178362914Y-193714342D02*
X178577200Y-193785771D01*
X178934342Y-193785771D01*
X179077200Y-193714342D01*
X179148628Y-193642914D01*
X179220057Y-193500057D01*
X179220057Y-193357200D01*
X179148628Y-193214342D01*
X179077200Y-193142914D01*
X178934342Y-193071485D01*
X178648628Y-193000057D01*
X178505771Y-192928628D01*
X178434342Y-192857200D01*
X178362914Y-192714342D01*
X178362914Y-192571485D01*
X178434342Y-192428628D01*
X178505771Y-192357200D01*
X178648628Y-192285771D01*
X179005771Y-192285771D01*
X179220057Y-192357200D01*
X179862914Y-193785771D02*
X179862914Y-192785771D01*
X179862914Y-192285771D02*
X179791485Y-192357200D01*
X179862914Y-192428628D01*
X179934342Y-192357200D01*
X179862914Y-192285771D01*
X179862914Y-192428628D01*
X180434342Y-192785771D02*
X181220057Y-192785771D01*
X180434342Y-193785771D01*
X181220057Y-193785771D01*
X182362914Y-193714342D02*
X182220057Y-193785771D01*
X181934342Y-193785771D01*
X181791485Y-193714342D01*
X181720057Y-193571485D01*
X181720057Y-193000057D01*
X181791485Y-192857200D01*
X181934342Y-192785771D01*
X182220057Y-192785771D01*
X182362914Y-192857200D01*
X182434342Y-193000057D01*
X182434342Y-193142914D01*
X181720057Y-193285771D01*
X183077200Y-193642914D02*
X183148628Y-193714342D01*
X183077200Y-193785771D01*
X183005771Y-193714342D01*
X183077200Y-193642914D01*
X183077200Y-193785771D01*
X183077200Y-192857200D02*
X183148628Y-192928628D01*
X183077200Y-193000057D01*
X183005771Y-192928628D01*
X183077200Y-192857200D01*
X183077200Y-193000057D01*
X184862914Y-193357200D02*
X185577200Y-193357200D01*
X184720057Y-193785771D02*
X185220057Y-192285771D01*
X185720057Y-193785771D01*
X186862914Y-192785771D02*
X186862914Y-193785771D01*
X186505771Y-192214342D02*
X186148628Y-193285771D01*
X187077200Y-193285771D01*
D10*
D11*
X263434342Y-196585771D02*
X263434342Y-195085771D01*
X264791485Y-196585771D02*
X264791485Y-195085771D01*
X264791485Y-196514342D02*
X264648628Y-196585771D01*
X264362914Y-196585771D01*
X264220057Y-196514342D01*
X264148628Y-196442914D01*
X264077200Y-196300057D01*
X264077200Y-195871485D01*
X264148628Y-195728628D01*
X264220057Y-195657200D01*
X264362914Y-195585771D01*
X264648628Y-195585771D01*
X264791485Y-195657200D01*
X265505771Y-196442914D02*
X265577200Y-196514342D01*
X265505771Y-196585771D01*
X265434342Y-196514342D01*
X265505771Y-196442914D01*
X265505771Y-196585771D01*
X265505771Y-195657200D02*
X265577200Y-195728628D01*
X265505771Y-195800057D01*
X265434342Y-195728628D01*
X265505771Y-195657200D01*
X265505771Y-195800057D01*
X268148628Y-196585771D02*
X267291485Y-196585771D01*
X267720057Y-196585771D02*
X267720057Y-195085771D01*
X267577200Y-195300057D01*
X267434342Y-195442914D01*
X267291485Y-195514342D01*
X269862914Y-195014342D02*
X268577200Y-196942914D01*
X271148628Y-196585771D02*
X270291485Y-196585771D01*
X270720057Y-196585771D02*
X270720057Y-195085771D01*
X270577200Y-195300057D01*
X270434342Y-195442914D01*
X270291485Y-195514342D01*
D10*
D11*
X177002200Y-187507200D02*
X285002200Y-187507200D01*
D10*
D13*
X178714580Y-188211961D02*
X179857438Y-188211961D01*
X179036009Y-190211961D02*
X179286009Y-188211961D01*
X180274104Y-190211961D02*
X180440771Y-188878628D01*
X180524104Y-188211961D02*
X180416961Y-188307200D01*
X180500295Y-188402438D01*
X180607438Y-188307200D01*
X180524104Y-188211961D01*
X180500295Y-188402438D01*
X181107438Y-188878628D02*
X181869342Y-188878628D01*
X181476485Y-188211961D02*
X181262200Y-189926247D01*
X181333628Y-190116723D01*
X181512200Y-190211961D01*
X181702676Y-190211961D01*
X182655057Y-190211961D02*
X182476485Y-190116723D01*
X182405057Y-189926247D01*
X182619342Y-188211961D01*
X184190771Y-190116723D02*
X183988390Y-190211961D01*
X183607438Y-190211961D01*
X183428866Y-190116723D01*
X183357438Y-189926247D01*
X183452676Y-189164342D01*
X183571723Y-188973866D01*
X183774104Y-188878628D01*
X184155057Y-188878628D01*
X184333628Y-188973866D01*
X184405057Y-189164342D01*
X184381247Y-189354819D01*
X183405057Y-189545295D01*
X185155057Y-190021485D02*
X185238390Y-190116723D01*
X185131247Y-190211961D01*
X185047914Y-190116723D01*
X185155057Y-190021485D01*
X185131247Y-190211961D01*
X185286009Y-188973866D02*
X185369342Y-189069104D01*
X185262200Y-189164342D01*
X185178866Y-189069104D01*
X185286009Y-188973866D01*
X185262200Y-189164342D01*
D10*
D11*
X178934342Y-185600057D02*
X178434342Y-185600057D01*
X178434342Y-186385771D02*
X178434342Y-184885771D01*
X179148628Y-184885771D01*
X179720057Y-186385771D02*
X179720057Y-185385771D01*
X179720057Y-184885771D02*
X179648628Y-184957200D01*
X179720057Y-185028628D01*
X179791485Y-184957200D01*
X179720057Y-184885771D01*
X179720057Y-185028628D01*
X180648628Y-186385771D02*
X180505771Y-186314342D01*
X180434342Y-186171485D01*
X180434342Y-184885771D01*
X181791485Y-186314342D02*
X181648628Y-186385771D01*
X181362914Y-186385771D01*
X181220057Y-186314342D01*
X181148628Y-186171485D01*
X181148628Y-185600057D01*
X181220057Y-185457200D01*
X181362914Y-185385771D01*
X181648628Y-185385771D01*
X181791485Y-185457200D01*
X181862914Y-185600057D01*
X181862914Y-185742914D01*
X181148628Y-185885771D01*
X182505771Y-186242914D02*
X182577200Y-186314342D01*
X182505771Y-186385771D01*
X182434342Y-186314342D01*
X182505771Y-186242914D01*
X182505771Y-186385771D01*
X182505771Y-185457200D02*
X182577200Y-185528628D01*
X182505771Y-185600057D01*
X182434342Y-185528628D01*
X182505771Y-185457200D01*
X182505771Y-185600057D01*
X184362914Y-186385771D02*
X184362914Y-184885771D01*
X184862914Y-185957200D01*
X185362914Y-184885771D01*
X185362914Y-186385771D01*
X186005771Y-186314342D02*
X186220057Y-186385771D01*
X186577200Y-186385771D01*
X186720057Y-186314342D01*
X186791485Y-186242914D01*
X186862914Y-186100057D01*
X186862914Y-185957200D01*
X186791485Y-185814342D01*
X186720057Y-185742914D01*
X186577200Y-185671485D01*
X186291485Y-185600057D01*
X186148628Y-185528628D01*
X186077200Y-185457200D01*
X186005771Y-185314342D01*
X186005771Y-185171485D01*
X186077200Y-185028628D01*
X186148628Y-184957200D01*
X186291485Y-184885771D01*
X186648628Y-184885771D01*
X186862914Y-184957200D01*
X187505771Y-186385771D02*
X187505771Y-184885771D01*
X188148628Y-186385771D02*
X188148628Y-185600057D01*
X188077200Y-185457200D01*
X187934342Y-185385771D01*
X187720057Y-185385771D01*
X187577200Y-185457200D01*
X187505771Y-185528628D01*
X189505771Y-186385771D02*
X189505771Y-185600057D01*
X189434342Y-185457200D01*
X189291485Y-185385771D01*
X189005771Y-185385771D01*
X188862914Y-185457200D01*
X189505771Y-186314342D02*
X189362914Y-186385771D01*
X189005771Y-186385771D01*
X188862914Y-186314342D01*
X188791485Y-186171485D01*
X188791485Y-186028628D01*
X188862914Y-185885771D01*
X189005771Y-185814342D01*
X189362914Y-185814342D01*
X189505771Y-185742914D01*
X190077200Y-185385771D02*
X190362914Y-186385771D01*
X190648628Y-185671485D01*
X190934342Y-186385771D01*
X191220057Y-185385771D01*
X191434342Y-186528628D02*
X192577200Y-186528628D01*
X193577200Y-185385771D02*
X193577200Y-186385771D01*
X193220057Y-184814342D02*
X192862914Y-185885771D01*
X193791485Y-185885771D01*
X195005771Y-185385771D02*
X195005771Y-186600057D01*
X194934342Y-186742914D01*
X194862914Y-186814342D01*
X194720057Y-186885771D01*
X194505771Y-186885771D01*
X194362914Y-186814342D01*
X195005771Y-186314342D02*
X194862914Y-186385771D01*
X194577200Y-186385771D01*
X194434342Y-186314342D01*
X194362914Y-186242914D01*
X194291485Y-186100057D01*
X194291485Y-185671485D01*
X194362914Y-185528628D01*
X194434342Y-185457200D01*
X194577200Y-185385771D01*
X194862914Y-185385771D01*
X195005771Y-185457200D01*
X195720057Y-186385771D02*
X195720057Y-184885771D01*
X195720057Y-185457200D02*
X195862914Y-185385771D01*
X196148628Y-185385771D01*
X196291485Y-185457200D01*
X196362914Y-185528628D01*
X196434342Y-185671485D01*
X196434342Y-186100057D01*
X196362914Y-186242914D01*
X196291485Y-186314342D01*
X196148628Y-186385771D01*
X195862914Y-186385771D01*
X195720057Y-186314342D01*
X197077200Y-186385771D02*
X197077200Y-184885771D01*
X197934342Y-186385771D01*
X197934342Y-184885771D01*
X199291485Y-186385771D02*
X199291485Y-185600057D01*
X199220057Y-185457200D01*
X199077200Y-185385771D01*
X198791485Y-185385771D01*
X198648628Y-185457200D01*
X199291485Y-186314342D02*
X199148628Y-186385771D01*
X198791485Y-186385771D01*
X198648628Y-186314342D01*
X198577200Y-186171485D01*
X198577200Y-186028628D01*
X198648628Y-185885771D01*
X198791485Y-185814342D01*
X199148628Y-185814342D01*
X199291485Y-185742914D01*
X200005771Y-185385771D02*
X200005771Y-186385771D01*
X200005771Y-185528628D02*
X200077200Y-185457200D01*
X200220057Y-185385771D01*
X200434342Y-185385771D01*
X200577200Y-185457200D01*
X200648628Y-185600057D01*
X200648628Y-186385771D01*
X202005771Y-186385771D02*
X202005771Y-184885771D01*
X202005771Y-186314342D02*
X201862914Y-186385771D01*
X201577200Y-186385771D01*
X201434342Y-186314342D01*
X201362914Y-186242914D01*
X201291485Y-186100057D01*
X201291485Y-185671485D01*
X201362914Y-185528628D01*
X201434342Y-185457200D01*
X201577200Y-185385771D01*
X201862914Y-185385771D01*
X202005771Y-185457200D01*
X202720057Y-185600057D02*
X203220057Y-185600057D01*
X203434342Y-186385771D02*
X202720057Y-186385771D01*
X202720057Y-184885771D01*
X203434342Y-184885771D01*
X203934342Y-186385771D02*
X204720057Y-185385771D01*
X203934342Y-185385771D02*
X204720057Y-186385771D01*
X205077200Y-185385771D02*
X205648628Y-185385771D01*
X205291485Y-184885771D02*
X205291485Y-186171485D01*
X205362914Y-186314342D01*
X205505771Y-186385771D01*
X205648628Y-186385771D01*
X206720057Y-186314342D02*
X206577200Y-186385771D01*
X206291485Y-186385771D01*
X206148628Y-186314342D01*
X206077200Y-186171485D01*
X206077200Y-185600057D01*
X206148628Y-185457200D01*
X206291485Y-185385771D01*
X206577200Y-185385771D01*
X206720057Y-185457200D01*
X206791485Y-185600057D01*
X206791485Y-185742914D01*
X206077200Y-185885771D01*
X207434342Y-185385771D02*
X207434342Y-186385771D01*
X207434342Y-185528628D02*
X207505771Y-185457200D01*
X207648628Y-185385771D01*
X207862914Y-185385771D01*
X208005771Y-185457200D01*
X208077200Y-185600057D01*
X208077200Y-186385771D01*
X208720057Y-186314342D02*
X208862914Y-186385771D01*
X209148628Y-186385771D01*
X209291485Y-186314342D01*
X209362914Y-186171485D01*
X209362914Y-186100057D01*
X209291485Y-185957200D01*
X209148628Y-185885771D01*
X208934342Y-185885771D01*
X208791485Y-185814342D01*
X208720057Y-185671485D01*
X208720057Y-185600057D01*
X208791485Y-185457200D01*
X208934342Y-185385771D01*
X209148628Y-185385771D01*
X209291485Y-185457200D01*
X210005771Y-186385771D02*
X210005771Y-185385771D01*
X210005771Y-184885771D02*
X209934342Y-184957200D01*
X210005771Y-185028628D01*
X210077200Y-184957200D01*
X210005771Y-184885771D01*
X210005771Y-185028628D01*
X210934342Y-186385771D02*
X210791485Y-186314342D01*
X210720057Y-186242914D01*
X210648628Y-186100057D01*
X210648628Y-185671485D01*
X210720057Y-185528628D01*
X210791485Y-185457200D01*
X210934342Y-185385771D01*
X211148628Y-185385771D01*
X211291485Y-185457200D01*
X211362914Y-185528628D01*
X211434342Y-185671485D01*
X211434342Y-186100057D01*
X211362914Y-186242914D01*
X211291485Y-186314342D01*
X211148628Y-186385771D01*
X210934342Y-186385771D01*
X212077200Y-185385771D02*
X212077200Y-186385771D01*
X212077200Y-185528628D02*
X212148628Y-185457200D01*
X212291485Y-185385771D01*
X212505771Y-185385771D01*
X212648628Y-185457200D01*
X212720057Y-185600057D01*
X212720057Y-186385771D01*
X214434342Y-186528628D02*
X214291485Y-186457200D01*
X214148628Y-186314342D01*
X213934342Y-186100057D01*
X213791485Y-186028628D01*
X213648628Y-186028628D01*
X213720057Y-186385771D02*
X213577200Y-186314342D01*
X213434342Y-186171485D01*
X213362914Y-185885771D01*
X213362914Y-185385771D01*
X213434342Y-185100057D01*
X213577200Y-184957200D01*
X213720057Y-184885771D01*
X214005771Y-184885771D01*
X214148628Y-184957200D01*
X214291485Y-185100057D01*
X214362914Y-185385771D01*
X214362914Y-185885771D01*
X214291485Y-186171485D01*
X214148628Y-186314342D01*
X214005771Y-186385771D01*
X213720057Y-186385771D01*
X214934342Y-186314342D02*
X215148628Y-186385771D01*
X215505771Y-186385771D01*
X215648628Y-186314342D01*
X215720057Y-186242914D01*
X215791485Y-186100057D01*
X215791485Y-185957200D01*
X215720057Y-185814342D01*
X215648628Y-185742914D01*
X215505771Y-185671485D01*
X215220057Y-185600057D01*
X215077200Y-185528628D01*
X215005771Y-185457200D01*
X214934342Y-185314342D01*
X214934342Y-185171485D01*
X215005771Y-185028628D01*
X215077200Y-184957200D01*
X215220057Y-184885771D01*
X215577200Y-184885771D01*
X215791485Y-184957200D01*
X216934342Y-185600057D02*
X217148628Y-185671485D01*
X217220057Y-185742914D01*
X217291485Y-185885771D01*
X217291485Y-186100057D01*
X217220057Y-186242914D01*
X217148628Y-186314342D01*
X217005771Y-186385771D01*
X216434342Y-186385771D01*
X216434342Y-184885771D01*
X216934342Y-184885771D01*
X217077200Y-184957200D01*
X217148628Y-185028628D01*
X217220057Y-185171485D01*
X217220057Y-185314342D01*
X217148628Y-185457200D01*
X217077200Y-185528628D01*
X216934342Y-185600057D01*
X216434342Y-185600057D01*
X217577200Y-186528628D02*
X218720057Y-186528628D01*
X218862914Y-184885771D02*
X219362914Y-186385771D01*
X219862914Y-184885771D01*
X220291485Y-185028628D02*
X220362914Y-184957200D01*
X220505771Y-184885771D01*
X220862914Y-184885771D01*
X221005771Y-184957200D01*
X221077200Y-185028628D01*
X221148628Y-185171485D01*
X221148628Y-185314342D01*
X221077200Y-185528628D01*
X220220057Y-186385771D01*
X221148628Y-186385771D01*
X221791485Y-186242914D02*
X221862914Y-186314342D01*
X221791485Y-186385771D01*
X221720057Y-186314342D01*
X221791485Y-186242914D01*
X221791485Y-186385771D01*
X222505771Y-186385771D02*
X222505771Y-184885771D01*
X222648628Y-185814342D02*
X223077200Y-186385771D01*
X223077200Y-185385771D02*
X222505771Y-185957200D01*
X223720057Y-186385771D02*
X223720057Y-185385771D01*
X223720057Y-184885771D02*
X223648628Y-184957200D01*
X223720057Y-185028628D01*
X223791485Y-184957200D01*
X223720057Y-184885771D01*
X223720057Y-185028628D01*
X225077200Y-186314342D02*
X224934342Y-186385771D01*
X224648628Y-186385771D01*
X224505771Y-186314342D01*
X224434342Y-186242914D01*
X224362914Y-186100057D01*
X224362914Y-185671485D01*
X224434342Y-185528628D01*
X224505771Y-185457200D01*
X224648628Y-185385771D01*
X224934342Y-185385771D01*
X225077200Y-185457200D01*
X226362914Y-186385771D02*
X226362914Y-185600057D01*
X226291485Y-185457200D01*
X226148628Y-185385771D01*
X225862914Y-185385771D01*
X225720057Y-185457200D01*
X226362914Y-186314342D02*
X226220057Y-186385771D01*
X225862914Y-186385771D01*
X225720057Y-186314342D01*
X225648628Y-186171485D01*
X225648628Y-186028628D01*
X225720057Y-185885771D01*
X225862914Y-185814342D01*
X226220057Y-185814342D01*
X226362914Y-185742914D01*
X227720057Y-186385771D02*
X227720057Y-184885771D01*
X227720057Y-186314342D02*
X227577200Y-186385771D01*
X227291485Y-186385771D01*
X227148628Y-186314342D01*
X227077200Y-186242914D01*
X227005771Y-186100057D01*
X227005771Y-185671485D01*
X227077200Y-185528628D01*
X227148628Y-185457200D01*
X227291485Y-185385771D01*
X227577200Y-185385771D01*
X227720057Y-185457200D01*
X228077200Y-186528628D02*
X229220057Y-186528628D01*
X229577200Y-185385771D02*
X229577200Y-186885771D01*
X229577200Y-185457200D02*
X229720057Y-185385771D01*
X230005771Y-185385771D01*
X230148628Y-185457200D01*
X230220057Y-185528628D01*
X230291485Y-185671485D01*
X230291485Y-186100057D01*
X230220057Y-186242914D01*
X230148628Y-186314342D01*
X230005771Y-186385771D01*
X229720057Y-186385771D01*
X229577200Y-186314342D01*
X231577200Y-186314342D02*
X231434342Y-186385771D01*
X231148628Y-186385771D01*
X231005771Y-186314342D01*
X230934342Y-186242914D01*
X230862914Y-186100057D01*
X230862914Y-185671485D01*
X230934342Y-185528628D01*
X231005771Y-185457200D01*
X231148628Y-185385771D01*
X231434342Y-185385771D01*
X231577200Y-185457200D01*
X232220057Y-186385771D02*
X232220057Y-184885771D01*
X232220057Y-185457200D02*
X232362914Y-185385771D01*
X232648628Y-185385771D01*
X232791485Y-185457200D01*
X232862914Y-185528628D01*
X232934342Y-185671485D01*
X232934342Y-186100057D01*
X232862914Y-186242914D01*
X232791485Y-186314342D01*
X232648628Y-186385771D01*
X232362914Y-186385771D01*
X232220057Y-186314342D01*
D10*
D11*
X177002200Y-181507200D02*
X285002200Y-181507200D01*
D10*
D11*
X178362914Y-183614342D02*
X178577200Y-183685771D01*
X178934342Y-183685771D01*
X179077200Y-183614342D01*
X179148628Y-183542914D01*
X179220057Y-183400057D01*
X179220057Y-183257200D01*
X179148628Y-183114342D01*
X179077200Y-183042914D01*
X178934342Y-182971485D01*
X178648628Y-182900057D01*
X178505771Y-182828628D01*
X178434342Y-182757200D01*
X178362914Y-182614342D01*
X178362914Y-182471485D01*
X178434342Y-182328628D01*
X178505771Y-182257200D01*
X178648628Y-182185771D01*
X179005771Y-182185771D01*
X179220057Y-182257200D01*
X179862914Y-183685771D02*
X179862914Y-182185771D01*
X180505771Y-183685771D02*
X180505771Y-182900057D01*
X180434342Y-182757200D01*
X180291485Y-182685771D01*
X180077200Y-182685771D01*
X179934342Y-182757200D01*
X179862914Y-182828628D01*
X181791485Y-183614342D02*
X181648628Y-183685771D01*
X181362914Y-183685771D01*
X181220057Y-183614342D01*
X181148628Y-183471485D01*
X181148628Y-182900057D01*
X181220057Y-182757200D01*
X181362914Y-182685771D01*
X181648628Y-182685771D01*
X181791485Y-182757200D01*
X181862914Y-182900057D01*
X181862914Y-183042914D01*
X181148628Y-183185771D01*
X183077200Y-183614342D02*
X182934342Y-183685771D01*
X182648628Y-183685771D01*
X182505771Y-183614342D01*
X182434342Y-183471485D01*
X182434342Y-182900057D01*
X182505771Y-182757200D01*
X182648628Y-182685771D01*
X182934342Y-182685771D01*
X183077200Y-182757200D01*
X183148628Y-182900057D01*
X183148628Y-183042914D01*
X182434342Y-183185771D01*
X183577200Y-182685771D02*
X184148628Y-182685771D01*
X183791485Y-182185771D02*
X183791485Y-183471485D01*
X183862914Y-183614342D01*
X184005771Y-183685771D01*
X184148628Y-183685771D01*
X184648628Y-183542914D02*
X184720057Y-183614342D01*
X184648628Y-183685771D01*
X184577200Y-183614342D01*
X184648628Y-183542914D01*
X184648628Y-183685771D01*
X184648628Y-182757200D02*
X184720057Y-182828628D01*
X184648628Y-182900057D01*
X184577200Y-182828628D01*
X184648628Y-182757200D01*
X184648628Y-182900057D01*
D10*
D12*
D10*
D11*
D10*
D11*
D10*
D11*
D10*
D11*
D10*
D11*
X197002200Y-191507200D02*
X197002200Y-194507200D01*
D10*
D11*
X261002200Y-191507200D02*
X261002200Y-198007200D01*
D14*
%TO.P,J4,1,Pin_1*%
%TO.N,Net-(J1-Pad7)*%
X106560000Y-74330000D03*
%TO.P,J4,2,Pin_2*%
%TO.N,Net-(J2-Pad2)*%
X106560000Y-67330000D03*
%TO.P,J4,3,Pin_3*%
%TO.N,Net-(J2-Pad3)*%
X111560000Y-74330000D03*
%TO.P,J4,4,Pin_4*%
%TO.N,GND*%
X111560000Y-67330000D03*
%TO.P,J4,5,Pin_5*%
%TO.N,+5V*%
X116560000Y-74330000D03*
%TO.P,J4,6,Pin_6*%
%TO.N,Net-(J1-Pad1)*%
X116560000Y-67330000D03*
%TO.P,J4,7,Pin_7*%
%TO.N,Net-(J1-Pad8)*%
X121560000Y-74330000D03*
%TO.P,J4,8,Pin_8*%
%TO.N,Net-(J2-Pad8)*%
X121560000Y-67330000D03*
%TD*%
D15*
%TO.P,J3,1,Pin_1*%
%TO.N,+5V*%
X90060000Y-60880000D03*
%TO.P,J3,2,Pin_2*%
%TO.N,Net-(J2-Pad3)*%
X91330000Y-60880000D03*
%TO.P,J3,6,Pin_6*%
%TO.N,Net-(J2-Pad2)*%
X96410000Y-60880000D03*
%TO.P,J3,7,Pin_7*%
%TO.N,Net-(J2-Pad8)*%
X97680000Y-60880000D03*
%TD*%
D16*
%TO.P,J5,1,Pin_1*%
%TO.N,Net-(J5-Pad1)*%
X126960000Y-69880000D03*
D17*
%TO.P,J5,2,Pin_2*%
X126960000Y-74420000D03*
%TD*%
D18*
%TO.P,R1,1*%
%TO.N,Net-(D1-Pad2)*%
X84060000Y-64130000D03*
%TO.P,R1,2*%
%TO.N,+5V*%
X84060000Y-62130000D03*
%TD*%
D19*
%TO.P,D1,1,K*%
%TO.N,GND*%
X86060000Y-64155000D03*
%TO.P,D1,2,A*%
%TO.N,Net-(D1-Pad2)*%
X86060000Y-62105000D03*
%TD*%
D15*
%TO.P,J1,1,Pin_1*%
%TO.N,Net-(J1-Pad1)*%
X90060000Y-65380000D03*
%TO.P,J1,3,Pin_3*%
%TO.N,GND*%
X92600000Y-65380000D03*
%TO.P,J1,7,Pin_7*%
%TO.N,Net-(J1-Pad7)*%
X97680000Y-65380000D03*
%TO.P,J1,8,Pin_8*%
%TO.N,Net-(J1-Pad8)*%
X98950000Y-65380000D03*
%TD*%
D20*
%TO.N,GND*%
X109030000Y-75070000D03*
%TO.N,Net-(J2-Pad3)*%
X110560000Y-70970000D03*
%TO.N,GND*%
X114000000Y-71750000D03*
X116500000Y-63500000D03*
X124750000Y-72250000D03*
X87560000Y-63630000D03*
X108100000Y-69400000D03*
%TO.N,Net-(J2-Pad2)*%
X104433017Y-66606983D03*
%TO.N,Net-(J1-Pad8)*%
X119060000Y-74330000D03*
%TD*%
D21*
%TO.N,Net-(J2-Pad3)*%
X111560000Y-74330000D02*
X110560000Y-73330000D01*
X110560000Y-73330000D02*
X110560000Y-70970000D01*
%TO.N,Net-(J2-Pad8)*%
X97680000Y-62250000D02*
X97680000Y-61005020D01*
%TO.N,Net-(J1-Pad1)*%
X90060000Y-64070000D02*
X90060000Y-65254980D01*
X90539040Y-63590960D02*
X90060000Y-64070000D01*
X104692858Y-68472858D02*
X99810960Y-63590960D01*
X104692858Y-68482458D02*
X104692858Y-68472858D01*
X99810960Y-63590960D02*
X90539040Y-63590960D01*
X106350000Y-70139600D02*
X104692858Y-68482458D01*
X113740000Y-70150000D02*
X106350000Y-70150000D01*
X116560000Y-67330000D02*
X113740000Y-70150000D01*
X106350000Y-70150000D02*
X106350000Y-70139600D01*
%TO.N,Net-(J2-Pad8)*%
X116750000Y-65055960D02*
X102807396Y-65055960D01*
X102807396Y-65055960D02*
X102125718Y-64374282D01*
X119865000Y-65635000D02*
X119285960Y-65055960D01*
X119865000Y-65635000D02*
X121560000Y-67330000D01*
X119285960Y-65055960D02*
X116750000Y-65055960D01*
%TO.N,+5V*%
X90060000Y-61422493D02*
X91329427Y-62691920D01*
X91329427Y-62691920D02*
X89970960Y-62691920D01*
X117755080Y-65505480D02*
X102621198Y-65505480D01*
X118760000Y-72130000D02*
X118760000Y-66510400D01*
X102621198Y-65505480D02*
X100257158Y-63141440D01*
X100257158Y-63141440D02*
X91778947Y-63141440D01*
X118760000Y-66510400D02*
X117755080Y-65505480D01*
X91778947Y-63141440D02*
X91329427Y-62691920D01*
X84984520Y-61205480D02*
X88484520Y-61205480D01*
X84060000Y-62130000D02*
X84984520Y-61205480D01*
X116560000Y-74330000D02*
X118760000Y-72130000D01*
X89970960Y-62691920D02*
X88484520Y-61205480D01*
%TO.N,GND*%
X87035000Y-64155000D02*
X87560000Y-63630000D01*
X109490000Y-69400000D02*
X108100000Y-69400000D01*
X86060000Y-64155000D02*
X87035000Y-64155000D01*
X111560000Y-67330000D02*
X109490000Y-69400000D01*
%TO.N,Net-(J2-Pad8)*%
X97680000Y-62250000D02*
X98121920Y-62691920D01*
X100443356Y-62691920D02*
X102456436Y-64705000D01*
X98121920Y-62691920D02*
X100443356Y-62691920D01*
%TO.N,Net-(J1-Pad7)*%
X104310000Y-72080000D02*
X104310000Y-68730000D01*
X98477027Y-64040480D02*
X99620480Y-64040480D01*
X97680000Y-64837507D02*
X98477027Y-64040480D01*
X106560000Y-74330000D02*
X104310000Y-72080000D01*
X104310000Y-68730000D02*
X99620480Y-64040480D01*
%TO.N,Net-(J2-Pad2)*%
X105836983Y-66606983D02*
X106560000Y-67330000D01*
X104433017Y-66606983D02*
X105836983Y-66606983D01*
%TO.N,Net-(J2-Pad3)*%
X111560000Y-73030000D02*
X111560000Y-74330000D01*
%TO.N,Net-(J1-Pad8)*%
X119060000Y-74330000D02*
X121560000Y-74330000D01*
%TO.N,Net-(D1-Pad2)*%
X86060000Y-62130000D02*
X84060000Y-64130000D01*
X86060000Y-62105000D02*
X86060000Y-62130000D01*
D22*
%TO.N,Net-(J5-Pad1)*%
X126960000Y-69880000D02*
X126960000Y-74420000D01*
%TD*%
%TA.AperFunction,Conductor*%
%TO.N,GND*%
G36*
X123418518Y-64358002D02*
G01*
X123436294Y-64371817D01*
X125401780Y-66203293D01*
X125406158Y-66207872D01*
X125409160Y-66212631D01*
X125415888Y-66218573D01*
X125458501Y-66256207D01*
X125460992Y-66258467D01*
X125480370Y-66276524D01*
X125484049Y-66279084D01*
X125485980Y-66280642D01*
X125490254Y-66284251D01*
X125503915Y-66296315D01*
X125518228Y-66308956D01*
X125526352Y-66312770D01*
X125526353Y-66312771D01*
X125529716Y-66314350D01*
X125535500Y-66317065D01*
X125553905Y-66327687D01*
X125569570Y-66338586D01*
X125578081Y-66341439D01*
X125578082Y-66341439D01*
X125603787Y-66350054D01*
X125617287Y-66355465D01*
X125649948Y-66370799D01*
X125668800Y-66373734D01*
X125689453Y-66378765D01*
X125699028Y-66381974D01*
X125699030Y-66381974D01*
X125707541Y-66384827D01*
X125726961Y-66385583D01*
X125743600Y-66386231D01*
X125750757Y-66386925D01*
X125750761Y-66386876D01*
X125755613Y-66387251D01*
X125760423Y-66388000D01*
X125786611Y-66388000D01*
X125791511Y-66388095D01*
X125843975Y-66390137D01*
X125843976Y-66390137D01*
X125852946Y-66390486D01*
X125860725Y-66388536D01*
X125871097Y-66388000D01*
X132297389Y-66388000D01*
X132365510Y-66408002D01*
X132386485Y-66424905D01*
X133015096Y-67053517D01*
X133049121Y-67115829D01*
X133052000Y-67142612D01*
X133052000Y-76117388D01*
X133031998Y-76185509D01*
X133015096Y-76206483D01*
X132386485Y-76835095D01*
X132324172Y-76869120D01*
X132297389Y-76872000D01*
X125672070Y-76872000D01*
X125660375Y-76871456D01*
X125656361Y-76871082D01*
X125647632Y-76868990D01*
X125638670Y-76869432D01*
X125638667Y-76869432D01*
X125589736Y-76871847D01*
X125583526Y-76872000D01*
X125563523Y-76872000D01*
X125559087Y-76872635D01*
X125559076Y-76872636D01*
X125557171Y-76872909D01*
X125545520Y-76874029D01*
X125502295Y-76876162D01*
X125491100Y-76880044D01*
X125467680Y-76885726D01*
X125455955Y-76887405D01*
X125447781Y-76891121D01*
X125447779Y-76891122D01*
X125416572Y-76905311D01*
X125405703Y-76909656D01*
X125373291Y-76920895D01*
X125373289Y-76920896D01*
X125364811Y-76923836D01*
X125357497Y-76929038D01*
X125357496Y-76929039D01*
X125355154Y-76930705D01*
X125334281Y-76942726D01*
X125323490Y-76947633D01*
X125316689Y-76953493D01*
X125290702Y-76975884D01*
X125281497Y-76983098D01*
X125277682Y-76985812D01*
X125277678Y-76985815D01*
X125273703Y-76988643D01*
X125259811Y-77002188D01*
X125254106Y-77007417D01*
X125220055Y-77036757D01*
X125220051Y-77036762D01*
X125213253Y-77042619D01*
X125208372Y-77050149D01*
X125202469Y-77056916D01*
X125202090Y-77056585D01*
X125194414Y-77065949D01*
X124347623Y-77891571D01*
X123431188Y-78785096D01*
X123430039Y-78786216D01*
X123367301Y-78819450D01*
X123342078Y-78822000D01*
X118330940Y-78822000D01*
X118324645Y-78821636D01*
X118319217Y-78820204D01*
X118277018Y-78821327D01*
X118253419Y-78821955D01*
X118250067Y-78822000D01*
X118223523Y-78822000D01*
X118219081Y-78822636D01*
X118216657Y-78822809D01*
X118211063Y-78823082D01*
X118191909Y-78823592D01*
X118182730Y-78823836D01*
X118182729Y-78823836D01*
X118173754Y-78824075D01*
X118155565Y-78829923D01*
X118134862Y-78834697D01*
X118124839Y-78836132D01*
X118124835Y-78836133D01*
X118115955Y-78837405D01*
X118107789Y-78841118D01*
X118107785Y-78841119D01*
X118083137Y-78852326D01*
X118069556Y-78857577D01*
X118062198Y-78859943D01*
X118035224Y-78868616D01*
X118019405Y-78879336D01*
X118000875Y-78889729D01*
X117983490Y-78897633D01*
X117976692Y-78903490D01*
X117976691Y-78903491D01*
X117956168Y-78921175D01*
X117950466Y-78925540D01*
X117950498Y-78925581D01*
X117946707Y-78928602D01*
X117942668Y-78931339D01*
X117939103Y-78934661D01*
X117939096Y-78934666D01*
X117923481Y-78949214D01*
X117919844Y-78952473D01*
X117873253Y-78992619D01*
X117868899Y-78999336D01*
X117861692Y-79006782D01*
X116515627Y-80260880D01*
X116452151Y-80292681D01*
X116381559Y-80285116D01*
X116326263Y-80240587D01*
X116311012Y-80210886D01*
X116247504Y-80032194D01*
X116246064Y-80028141D01*
X116119683Y-79784238D01*
X115961268Y-79559814D01*
X115958329Y-79556667D01*
X115776706Y-79362196D01*
X115776701Y-79362191D01*
X115773769Y-79359052D01*
X115560680Y-79185691D01*
X115325969Y-79042961D01*
X115322022Y-79041247D01*
X115322019Y-79041245D01*
X115077961Y-78935235D01*
X115077959Y-78935234D01*
X115074010Y-78933519D01*
X115069869Y-78932359D01*
X115069867Y-78932358D01*
X114932676Y-78893919D01*
X114809494Y-78859405D01*
X114537351Y-78822000D01*
X114262649Y-78822000D01*
X113990506Y-78859405D01*
X113867324Y-78893919D01*
X113730133Y-78932358D01*
X113730131Y-78932359D01*
X113725990Y-78933519D01*
X113722041Y-78935234D01*
X113722039Y-78935235D01*
X113477981Y-79041245D01*
X113477978Y-79041247D01*
X113474031Y-79042961D01*
X113239320Y-79185691D01*
X113026231Y-79359052D01*
X113023299Y-79362191D01*
X113023294Y-79362196D01*
X112841671Y-79556667D01*
X112838732Y-79559814D01*
X112680317Y-79784238D01*
X112553936Y-80028141D01*
X112552496Y-80032194D01*
X112488988Y-80210886D01*
X112447328Y-80268375D01*
X112381201Y-80294215D01*
X112311601Y-80280202D01*
X112284373Y-80260880D01*
X111127936Y-79183455D01*
X110938200Y-79006682D01*
X110933836Y-79002118D01*
X110930840Y-78997369D01*
X110881443Y-78953743D01*
X110878983Y-78951511D01*
X110878302Y-78950876D01*
X110859600Y-78933452D01*
X110855917Y-78930890D01*
X110854038Y-78929374D01*
X110849749Y-78925753D01*
X110821772Y-78901044D01*
X110804475Y-78892923D01*
X110786078Y-78882306D01*
X110770396Y-78871397D01*
X110736196Y-78859937D01*
X110722699Y-78854529D01*
X110690052Y-78839201D01*
X110681179Y-78837820D01*
X110681177Y-78837819D01*
X110671181Y-78836263D01*
X110650538Y-78831237D01*
X110632421Y-78825166D01*
X110623452Y-78824818D01*
X110623449Y-78824817D01*
X110596389Y-78823766D01*
X110589241Y-78823073D01*
X110589237Y-78823124D01*
X110584389Y-78822749D01*
X110579577Y-78822000D01*
X110553359Y-78822000D01*
X110548468Y-78821905D01*
X110495987Y-78819866D01*
X110495984Y-78819866D01*
X110487016Y-78819518D01*
X110479251Y-78821465D01*
X110468908Y-78822000D01*
X105322612Y-78822000D01*
X105254491Y-78801998D01*
X105233517Y-78785096D01*
X104604905Y-78156485D01*
X104570880Y-78094172D01*
X104568000Y-78067389D01*
X104568000Y-75900345D01*
X104588002Y-75832224D01*
X104641658Y-75785731D01*
X104711932Y-75775627D01*
X104776512Y-75805121D01*
X104797465Y-75828435D01*
X104840620Y-75890527D01*
X104999473Y-76049380D01*
X105183945Y-76177591D01*
X105388206Y-76271110D01*
X105605800Y-76326978D01*
X105659705Y-76331362D01*
X105744908Y-76338293D01*
X105744918Y-76338293D01*
X105747458Y-76338500D01*
X107372542Y-76338500D01*
X107375082Y-76338293D01*
X107375092Y-76338293D01*
X107460295Y-76331362D01*
X107514200Y-76326978D01*
X107731794Y-76271110D01*
X107936055Y-76177591D01*
X108120527Y-76049380D01*
X108279380Y-75890527D01*
X108407591Y-75706055D01*
X108501110Y-75501794D01*
X108556978Y-75284200D01*
X108565514Y-75179251D01*
X108568293Y-75145092D01*
X108568293Y-75145082D01*
X108568500Y-75142542D01*
X108568500Y-73517458D01*
X108565811Y-73484391D01*
X108558945Y-73399987D01*
X108556978Y-73375800D01*
X108501110Y-73158206D01*
X108407591Y-72953945D01*
X108279380Y-72769473D01*
X108120527Y-72610620D01*
X107936055Y-72482409D01*
X107731794Y-72388890D01*
X107562558Y-72345438D01*
X107519396Y-72334356D01*
X107519395Y-72334356D01*
X107514200Y-72333022D01*
X107460295Y-72328638D01*
X107375092Y-72321707D01*
X107375082Y-72321707D01*
X107372542Y-72321500D01*
X105747458Y-72321500D01*
X105744918Y-72321707D01*
X105744908Y-72321707D01*
X105659705Y-72328638D01*
X105605800Y-72333022D01*
X105594848Y-72335834D01*
X105558542Y-72345155D01*
X105487587Y-72342721D01*
X105438113Y-72312208D01*
X104980405Y-71854500D01*
X104946379Y-71792188D01*
X104943500Y-71765405D01*
X104943500Y-69933194D01*
X104963502Y-69865073D01*
X105017158Y-69818580D01*
X105087432Y-69808476D01*
X105152012Y-69837970D01*
X105158595Y-69844099D01*
X105824691Y-70510195D01*
X105841981Y-70531776D01*
X105858000Y-70557018D01*
X105863779Y-70562445D01*
X105863780Y-70562446D01*
X105864007Y-70562659D01*
X105879688Y-70580446D01*
X105884528Y-70587107D01*
X105890637Y-70592161D01*
X105890638Y-70592162D01*
X105927796Y-70622903D01*
X105933730Y-70628134D01*
X105968898Y-70661158D01*
X105968901Y-70661160D01*
X105974679Y-70666586D01*
X105981903Y-70670558D01*
X106001506Y-70683881D01*
X106001746Y-70684080D01*
X106001753Y-70684084D01*
X106007856Y-70689133D01*
X106015101Y-70692542D01*
X106058676Y-70713047D01*
X106065708Y-70716629D01*
X106114940Y-70743695D01*
X106122615Y-70745665D01*
X106122621Y-70745668D01*
X106122919Y-70745744D01*
X106145228Y-70753776D01*
X106145503Y-70753906D01*
X106145511Y-70753909D01*
X106152682Y-70757283D01*
X106207849Y-70767806D01*
X106215558Y-70769529D01*
X106249551Y-70778257D01*
X106262293Y-70781529D01*
X106262294Y-70781529D01*
X106269970Y-70783500D01*
X106278207Y-70783500D01*
X106301816Y-70785732D01*
X106302119Y-70785790D01*
X106302123Y-70785790D01*
X106309906Y-70787275D01*
X106365951Y-70783749D01*
X106373862Y-70783500D01*
X109526160Y-70783500D01*
X109594281Y-70803502D01*
X109640774Y-70857158D01*
X109651470Y-70922669D01*
X109647186Y-70963432D01*
X109646496Y-70970000D01*
X109666458Y-71159928D01*
X109725473Y-71341556D01*
X109820960Y-71506944D01*
X109894137Y-71588215D01*
X109924853Y-71652221D01*
X109926500Y-71672524D01*
X109926500Y-72631403D01*
X109906498Y-72699524D01*
X109889595Y-72720498D01*
X109840620Y-72769473D01*
X109712409Y-72953945D01*
X109618890Y-73158206D01*
X109563022Y-73375800D01*
X109561055Y-73399987D01*
X109554190Y-73484391D01*
X109551500Y-73517458D01*
X109551500Y-75142542D01*
X109551707Y-75145082D01*
X109551707Y-75145092D01*
X109554486Y-75179251D01*
X109563022Y-75284200D01*
X109618890Y-75501794D01*
X109712409Y-75706055D01*
X109840620Y-75890527D01*
X109999473Y-76049380D01*
X110183945Y-76177591D01*
X110388206Y-76271110D01*
X110605800Y-76326978D01*
X110659705Y-76331362D01*
X110744908Y-76338293D01*
X110744918Y-76338293D01*
X110747458Y-76338500D01*
X112372542Y-76338500D01*
X112375082Y-76338293D01*
X112375092Y-76338293D01*
X112460295Y-76331362D01*
X112514200Y-76326978D01*
X112731794Y-76271110D01*
X112936055Y-76177591D01*
X113120527Y-76049380D01*
X113279380Y-75890527D01*
X113407591Y-75706055D01*
X113501110Y-75501794D01*
X113556978Y-75284200D01*
X113565514Y-75179251D01*
X113568293Y-75145092D01*
X113568293Y-75145082D01*
X113568500Y-75142542D01*
X113568500Y-73517458D01*
X113565811Y-73484391D01*
X113558945Y-73399987D01*
X113556978Y-73375800D01*
X113501110Y-73158206D01*
X113407591Y-72953945D01*
X113279380Y-72769473D01*
X113120527Y-72610620D01*
X112936055Y-72482409D01*
X112731794Y-72388890D01*
X112562558Y-72345438D01*
X112519396Y-72334356D01*
X112519395Y-72334356D01*
X112514200Y-72333022D01*
X112460295Y-72328638D01*
X112375092Y-72321707D01*
X112375082Y-72321707D01*
X112372542Y-72321500D01*
X111319500Y-72321500D01*
X111251379Y-72301498D01*
X111204886Y-72247842D01*
X111193500Y-72195500D01*
X111193500Y-71672524D01*
X111213502Y-71604403D01*
X111225858Y-71588221D01*
X111299040Y-71506944D01*
X111394527Y-71341556D01*
X111453542Y-71159928D01*
X111473504Y-70970000D01*
X111472814Y-70963432D01*
X111468530Y-70922669D01*
X111481303Y-70852831D01*
X111529805Y-70800985D01*
X111593840Y-70783500D01*
X113661233Y-70783500D01*
X113672416Y-70784027D01*
X113679909Y-70785702D01*
X113687835Y-70785453D01*
X113687836Y-70785453D01*
X113747986Y-70783562D01*
X113751945Y-70783500D01*
X113779856Y-70783500D01*
X113783791Y-70783003D01*
X113783856Y-70782995D01*
X113795693Y-70782062D01*
X113827951Y-70781048D01*
X113831970Y-70780922D01*
X113839889Y-70780673D01*
X113859343Y-70775021D01*
X113878700Y-70771013D01*
X113890930Y-70769468D01*
X113890931Y-70769468D01*
X113898797Y-70768474D01*
X113906168Y-70765555D01*
X113906170Y-70765555D01*
X113939912Y-70752196D01*
X113951142Y-70748351D01*
X113985983Y-70738229D01*
X113985984Y-70738229D01*
X113993593Y-70736018D01*
X114000412Y-70731985D01*
X114000417Y-70731983D01*
X114011028Y-70725707D01*
X114028776Y-70717012D01*
X114047617Y-70709552D01*
X114083387Y-70683564D01*
X114093307Y-70677048D01*
X114124535Y-70658580D01*
X114124538Y-70658578D01*
X114131362Y-70654542D01*
X114145683Y-70640221D01*
X114160717Y-70627380D01*
X114170694Y-70620131D01*
X114177107Y-70615472D01*
X114205298Y-70581395D01*
X114213288Y-70572616D01*
X115438113Y-69347791D01*
X115500425Y-69313765D01*
X115558543Y-69314845D01*
X115600604Y-69325645D01*
X115600616Y-69325647D01*
X115605800Y-69326978D01*
X115684803Y-69333404D01*
X115744908Y-69338293D01*
X115744918Y-69338293D01*
X115747458Y-69338500D01*
X117372542Y-69338500D01*
X117375082Y-69338293D01*
X117375092Y-69338293D01*
X117460295Y-69331362D01*
X117514200Y-69326978D01*
X117561456Y-69314845D01*
X117726361Y-69272505D01*
X117726362Y-69272505D01*
X117731794Y-69271110D01*
X117924110Y-69183060D01*
X117930960Y-69179924D01*
X117930963Y-69179922D01*
X117936055Y-69177591D01*
X117938774Y-69175701D01*
X118007152Y-69159490D01*
X118074122Y-69183060D01*
X118117717Y-69239095D01*
X118126500Y-69285314D01*
X118126500Y-71815406D01*
X118106498Y-71883527D01*
X118089595Y-71904501D01*
X117681887Y-72312209D01*
X117619575Y-72346235D01*
X117561457Y-72345155D01*
X117519396Y-72334355D01*
X117519384Y-72334353D01*
X117514200Y-72333022D01*
X117435197Y-72326596D01*
X117375092Y-72321707D01*
X117375082Y-72321707D01*
X117372542Y-72321500D01*
X115747458Y-72321500D01*
X115744918Y-72321707D01*
X115744908Y-72321707D01*
X115659705Y-72328638D01*
X115605800Y-72333022D01*
X115600605Y-72334356D01*
X115600604Y-72334356D01*
X115557442Y-72345438D01*
X115388206Y-72388890D01*
X115183945Y-72482409D01*
X114999473Y-72610620D01*
X114840620Y-72769473D01*
X114712409Y-72953945D01*
X114618890Y-73158206D01*
X114563022Y-73375800D01*
X114561055Y-73399987D01*
X114554190Y-73484391D01*
X114551500Y-73517458D01*
X114551500Y-75142542D01*
X114551707Y-75145082D01*
X114551707Y-75145092D01*
X114554486Y-75179251D01*
X114563022Y-75284200D01*
X114618890Y-75501794D01*
X114712409Y-75706055D01*
X114840620Y-75890527D01*
X114999473Y-76049380D01*
X115183945Y-76177591D01*
X115388206Y-76271110D01*
X115605800Y-76326978D01*
X115659705Y-76331362D01*
X115744908Y-76338293D01*
X115744918Y-76338293D01*
X115747458Y-76338500D01*
X117372542Y-76338500D01*
X117375082Y-76338293D01*
X117375092Y-76338293D01*
X117460295Y-76331362D01*
X117514200Y-76326978D01*
X117731794Y-76271110D01*
X117936055Y-76177591D01*
X118120527Y-76049380D01*
X118279380Y-75890527D01*
X118407591Y-75706055D01*
X118501110Y-75501794D01*
X118556978Y-75284200D01*
X118557413Y-75278849D01*
X118558299Y-75273569D01*
X118560719Y-75273975D01*
X118582928Y-75217235D01*
X118640441Y-75175609D01*
X118711329Y-75171685D01*
X118733816Y-75179251D01*
X118771677Y-75196108D01*
X118771685Y-75196111D01*
X118777712Y-75198794D01*
X118859996Y-75216284D01*
X118958056Y-75237128D01*
X118958061Y-75237128D01*
X118964513Y-75238500D01*
X119155487Y-75238500D01*
X119161939Y-75237128D01*
X119161944Y-75237128D01*
X119260004Y-75216284D01*
X119342288Y-75198794D01*
X119348315Y-75196111D01*
X119348323Y-75196108D01*
X119386184Y-75179251D01*
X119456551Y-75169817D01*
X119520848Y-75199924D01*
X119558661Y-75260013D01*
X119561169Y-75273658D01*
X119561701Y-75273569D01*
X119562587Y-75278849D01*
X119563022Y-75284200D01*
X119618890Y-75501794D01*
X119712409Y-75706055D01*
X119840620Y-75890527D01*
X119999473Y-76049380D01*
X120183945Y-76177591D01*
X120388206Y-76271110D01*
X120605800Y-76326978D01*
X120659705Y-76331362D01*
X120744908Y-76338293D01*
X120744918Y-76338293D01*
X120747458Y-76338500D01*
X122372542Y-76338500D01*
X122375082Y-76338293D01*
X122375092Y-76338293D01*
X122460295Y-76331362D01*
X122514200Y-76326978D01*
X122731794Y-76271110D01*
X122936055Y-76177591D01*
X123120527Y-76049380D01*
X123279380Y-75890527D01*
X123407591Y-75706055D01*
X123501110Y-75501794D01*
X123556978Y-75284200D01*
X123565514Y-75179251D01*
X123568293Y-75145092D01*
X123568293Y-75145082D01*
X123568500Y-75142542D01*
X123568500Y-73517458D01*
X123565811Y-73484391D01*
X123558945Y-73399987D01*
X123556978Y-73375800D01*
X123501110Y-73158206D01*
X123407591Y-72953945D01*
X123279380Y-72769473D01*
X123120527Y-72610620D01*
X122936055Y-72482409D01*
X122731794Y-72388890D01*
X122562558Y-72345438D01*
X122519396Y-72334356D01*
X122519395Y-72334356D01*
X122514200Y-72333022D01*
X122460295Y-72328638D01*
X122375092Y-72321707D01*
X122375082Y-72321707D01*
X122372542Y-72321500D01*
X120747458Y-72321500D01*
X120744918Y-72321707D01*
X120744908Y-72321707D01*
X120659705Y-72328638D01*
X120605800Y-72333022D01*
X120600605Y-72334356D01*
X120600604Y-72334356D01*
X120557442Y-72345438D01*
X120388206Y-72388890D01*
X120183945Y-72482409D01*
X119999473Y-72610620D01*
X119840620Y-72769473D01*
X119712409Y-72953945D01*
X119618890Y-73158206D01*
X119563022Y-73375800D01*
X119562587Y-73381151D01*
X119561701Y-73386431D01*
X119559281Y-73386025D01*
X119537072Y-73442765D01*
X119479559Y-73484391D01*
X119408671Y-73488315D01*
X119386184Y-73480749D01*
X119348323Y-73463892D01*
X119348315Y-73463889D01*
X119342288Y-73461206D01*
X119223723Y-73436004D01*
X119161944Y-73422872D01*
X119161939Y-73422872D01*
X119155487Y-73421500D01*
X118964513Y-73421500D01*
X118958061Y-73422872D01*
X118958056Y-73422872D01*
X118896277Y-73436004D01*
X118777712Y-73461206D01*
X118771685Y-73463889D01*
X118771677Y-73463892D01*
X118733816Y-73480749D01*
X118663449Y-73490183D01*
X118599152Y-73460076D01*
X118561339Y-73399987D01*
X118558831Y-73386342D01*
X118558299Y-73386431D01*
X118557413Y-73381151D01*
X118556978Y-73375800D01*
X118552000Y-73356412D01*
X118544845Y-73328542D01*
X118547279Y-73257587D01*
X118577792Y-73208113D01*
X119152253Y-72633652D01*
X119160539Y-72626112D01*
X119167018Y-72622000D01*
X119173976Y-72614591D01*
X119213643Y-72572349D01*
X119216398Y-72569507D01*
X119236135Y-72549770D01*
X119238615Y-72546573D01*
X119246320Y-72537551D01*
X119271159Y-72511100D01*
X119276586Y-72505321D01*
X119280405Y-72498375D01*
X119280407Y-72498372D01*
X119286348Y-72487566D01*
X119297199Y-72471047D01*
X119304758Y-72461301D01*
X119309614Y-72455041D01*
X119312759Y-72447772D01*
X119312762Y-72447768D01*
X119327174Y-72414463D01*
X119332391Y-72403813D01*
X119353695Y-72365060D01*
X119358733Y-72345437D01*
X119365137Y-72326734D01*
X119370033Y-72315420D01*
X119370033Y-72315419D01*
X119373181Y-72308145D01*
X119374420Y-72300322D01*
X119374423Y-72300312D01*
X119380099Y-72264476D01*
X119382505Y-72252856D01*
X119391528Y-72217711D01*
X119391528Y-72217710D01*
X119393500Y-72210030D01*
X119393500Y-72189776D01*
X119395051Y-72170065D01*
X119396980Y-72157886D01*
X119398220Y-72150057D01*
X119394059Y-72106038D01*
X119393500Y-72094181D01*
X119393500Y-70692542D01*
X124951500Y-70692542D01*
X124951707Y-70695082D01*
X124951707Y-70695092D01*
X124956491Y-70753906D01*
X124963022Y-70834200D01*
X124964356Y-70839395D01*
X124964356Y-70839396D01*
X124985737Y-70922669D01*
X125018890Y-71051794D01*
X125112409Y-71256055D01*
X125240620Y-71440527D01*
X125399473Y-71599380D01*
X125583945Y-71727591D01*
X125722509Y-71791031D01*
X125783112Y-71818778D01*
X125783114Y-71818779D01*
X125788206Y-71821110D01*
X125793630Y-71822503D01*
X125793634Y-71822504D01*
X125825306Y-71830635D01*
X125856835Y-71838731D01*
X125917840Y-71875044D01*
X125949530Y-71938576D01*
X125951500Y-71960772D01*
X125951500Y-72979460D01*
X125931498Y-73047581D01*
X125895595Y-73084163D01*
X125816777Y-73136927D01*
X125676927Y-73276777D01*
X125673500Y-73281896D01*
X125673496Y-73281901D01*
X125570334Y-73436004D01*
X125570332Y-73436008D01*
X125566905Y-73441127D01*
X125490900Y-73623716D01*
X125451808Y-73817592D01*
X125451500Y-73823672D01*
X125451500Y-75016328D01*
X125451808Y-75022408D01*
X125452733Y-75026995D01*
X125452733Y-75026996D01*
X125482699Y-75175609D01*
X125490900Y-75216284D01*
X125566905Y-75398873D01*
X125570332Y-75403992D01*
X125570334Y-75403996D01*
X125673496Y-75558099D01*
X125673500Y-75558104D01*
X125676927Y-75563223D01*
X125816777Y-75703073D01*
X125821896Y-75706500D01*
X125821901Y-75706504D01*
X125976004Y-75809666D01*
X125976008Y-75809668D01*
X125981127Y-75813095D01*
X126163716Y-75889100D01*
X126169752Y-75890317D01*
X126169755Y-75890318D01*
X126353004Y-75927267D01*
X126357592Y-75928192D01*
X126363672Y-75928500D01*
X127556328Y-75928500D01*
X127562408Y-75928192D01*
X127566996Y-75927267D01*
X127750245Y-75890318D01*
X127750248Y-75890317D01*
X127756284Y-75889100D01*
X127938873Y-75813095D01*
X127943992Y-75809668D01*
X127943996Y-75809666D01*
X128098099Y-75706504D01*
X128098104Y-75706500D01*
X128103223Y-75703073D01*
X128243073Y-75563223D01*
X128246500Y-75558104D01*
X128246504Y-75558099D01*
X128349666Y-75403996D01*
X128349668Y-75403992D01*
X128353095Y-75398873D01*
X128429100Y-75216284D01*
X128437302Y-75175609D01*
X128467267Y-75026996D01*
X128467267Y-75026995D01*
X128468192Y-75022408D01*
X128468500Y-75016328D01*
X128468500Y-73823672D01*
X128468192Y-73817592D01*
X128429100Y-73623716D01*
X128353095Y-73441127D01*
X128349668Y-73436008D01*
X128349666Y-73436004D01*
X128246504Y-73281901D01*
X128246500Y-73281896D01*
X128243073Y-73276777D01*
X128103223Y-73136927D01*
X128024405Y-73084163D01*
X127978926Y-73029647D01*
X127968500Y-72979460D01*
X127968500Y-71960772D01*
X127988502Y-71892651D01*
X128042158Y-71846158D01*
X128063162Y-71838731D01*
X128094694Y-71830635D01*
X128126366Y-71822504D01*
X128126370Y-71822503D01*
X128131794Y-71821110D01*
X128136886Y-71818779D01*
X128136888Y-71818778D01*
X128197491Y-71791031D01*
X128336055Y-71727591D01*
X128520527Y-71599380D01*
X128679380Y-71440527D01*
X128807591Y-71256055D01*
X128901110Y-71051794D01*
X128934263Y-70922669D01*
X128955644Y-70839396D01*
X128955644Y-70839395D01*
X128956978Y-70834200D01*
X128963509Y-70753906D01*
X128968293Y-70695092D01*
X128968293Y-70695082D01*
X128968500Y-70692542D01*
X128968500Y-69067458D01*
X128966676Y-69045024D01*
X128957413Y-68931151D01*
X128956978Y-68925800D01*
X128946739Y-68885919D01*
X128902505Y-68713639D01*
X128902505Y-68713638D01*
X128901110Y-68708206D01*
X128807591Y-68503945D01*
X128679380Y-68319473D01*
X128520527Y-68160620D01*
X128336055Y-68032409D01*
X128131794Y-67938890D01*
X127914200Y-67883022D01*
X127860295Y-67878638D01*
X127775092Y-67871707D01*
X127775082Y-67871707D01*
X127772542Y-67871500D01*
X126147458Y-67871500D01*
X126144918Y-67871707D01*
X126144908Y-67871707D01*
X126059705Y-67878638D01*
X126005800Y-67883022D01*
X125788206Y-67938890D01*
X125583945Y-68032409D01*
X125399473Y-68160620D01*
X125240620Y-68319473D01*
X125112409Y-68503945D01*
X125018890Y-68708206D01*
X125017495Y-68713638D01*
X125017495Y-68713639D01*
X124973262Y-68885919D01*
X124963022Y-68925800D01*
X124962587Y-68931151D01*
X124953325Y-69045024D01*
X124951500Y-69067458D01*
X124951500Y-70692542D01*
X119393500Y-70692542D01*
X119393500Y-68587389D01*
X119413502Y-68519268D01*
X119467158Y-68472775D01*
X119537432Y-68462671D01*
X119602012Y-68492165D01*
X119634063Y-68534937D01*
X119710069Y-68700947D01*
X119710074Y-68700956D01*
X119712409Y-68706055D01*
X119840620Y-68890527D01*
X119999473Y-69049380D01*
X120183945Y-69177591D01*
X120388206Y-69271110D01*
X120393638Y-69272505D01*
X120393639Y-69272505D01*
X120558545Y-69314845D01*
X120605800Y-69326978D01*
X120659705Y-69331362D01*
X120744908Y-69338293D01*
X120744918Y-69338293D01*
X120747458Y-69338500D01*
X122372542Y-69338500D01*
X122375082Y-69338293D01*
X122375092Y-69338293D01*
X122460295Y-69331362D01*
X122514200Y-69326978D01*
X122561456Y-69314845D01*
X122726361Y-69272505D01*
X122726362Y-69272505D01*
X122731794Y-69271110D01*
X122936055Y-69177591D01*
X123120527Y-69049380D01*
X123279380Y-68890527D01*
X123407591Y-68706055D01*
X123501110Y-68501794D01*
X123544844Y-68331458D01*
X123555644Y-68289396D01*
X123555644Y-68289395D01*
X123556978Y-68284200D01*
X123568500Y-68142542D01*
X123568500Y-66517458D01*
X123567118Y-66500460D01*
X123560813Y-66422950D01*
X123556978Y-66375800D01*
X123533473Y-66284251D01*
X123502505Y-66163639D01*
X123502505Y-66163638D01*
X123501110Y-66158206D01*
X123407591Y-65953945D01*
X123279380Y-65769473D01*
X123120527Y-65610620D01*
X122954167Y-65494997D01*
X122940661Y-65485610D01*
X122940659Y-65485609D01*
X122936055Y-65482409D01*
X122731794Y-65388890D01*
X122726361Y-65387495D01*
X122519396Y-65334356D01*
X122519395Y-65334356D01*
X122514200Y-65333022D01*
X122460295Y-65328638D01*
X122375092Y-65321707D01*
X122375082Y-65321707D01*
X122372542Y-65321500D01*
X120747458Y-65321500D01*
X120744918Y-65321707D01*
X120744908Y-65321707D01*
X120659705Y-65328638D01*
X120605800Y-65333022D01*
X120593211Y-65336254D01*
X120558542Y-65345155D01*
X120487587Y-65342721D01*
X120438113Y-65312208D01*
X119789612Y-64663707D01*
X119782072Y-64655421D01*
X119777960Y-64648942D01*
X119728308Y-64602316D01*
X119725467Y-64599562D01*
X119705730Y-64579825D01*
X119702533Y-64577346D01*
X119693512Y-64569640D01*
X119678827Y-64555850D01*
X119642861Y-64494638D01*
X119645698Y-64423698D01*
X119686438Y-64365554D01*
X119752146Y-64338665D01*
X119765079Y-64338000D01*
X123350397Y-64338000D01*
X123418518Y-64358002D01*
G37*
%TD.AperFunction*%
%TA.AperFunction,Conductor*%
G36*
X109530026Y-66158982D02*
G01*
X109576519Y-66212638D01*
X109586623Y-66282912D01*
X109583947Y-66296315D01*
X109564851Y-66370690D01*
X109563082Y-66381234D01*
X109552207Y-66514930D01*
X109552000Y-66520036D01*
X109552000Y-67057885D01*
X109556475Y-67073124D01*
X109557865Y-67074329D01*
X109565548Y-67076000D01*
X109624000Y-67076000D01*
X109692121Y-67096002D01*
X109738614Y-67149658D01*
X109750000Y-67202000D01*
X109750000Y-67458000D01*
X109729998Y-67526121D01*
X109676342Y-67572614D01*
X109624000Y-67584000D01*
X109570116Y-67584000D01*
X109554877Y-67588475D01*
X109553672Y-67589865D01*
X109552001Y-67597548D01*
X109552001Y-68139961D01*
X109552209Y-68145071D01*
X109563082Y-68278767D01*
X109564852Y-68289320D01*
X109617967Y-68496185D01*
X109621701Y-68506731D01*
X109710510Y-68700705D01*
X109716047Y-68710414D01*
X109727464Y-68726840D01*
X109750000Y-68798751D01*
X109750000Y-69000000D01*
X109898610Y-69000000D01*
X109966731Y-69020002D01*
X109987705Y-69036905D01*
X109995824Y-69045024D01*
X110004403Y-69052197D01*
X110179588Y-69173954D01*
X110189295Y-69179490D01*
X110383269Y-69268299D01*
X110392948Y-69271726D01*
X110450485Y-69313318D01*
X110476402Y-69379415D01*
X110462471Y-69449032D01*
X110413113Y-69500065D01*
X110350891Y-69516500D01*
X107770618Y-69516500D01*
X107702497Y-69496498D01*
X107656004Y-69442842D01*
X107645900Y-69372568D01*
X107675394Y-69307988D01*
X107728055Y-69272070D01*
X107731794Y-69271110D01*
X107936055Y-69177591D01*
X108120527Y-69049380D01*
X108279380Y-68890527D01*
X108407591Y-68706055D01*
X108501110Y-68501794D01*
X108544844Y-68331458D01*
X108555644Y-68289396D01*
X108555644Y-68289395D01*
X108556978Y-68284200D01*
X108568500Y-68142542D01*
X108568500Y-66517458D01*
X108567118Y-66500460D01*
X108560813Y-66422950D01*
X108556978Y-66375800D01*
X108536570Y-66296315D01*
X108539003Y-66225360D01*
X108579411Y-66166984D01*
X108644965Y-66139721D01*
X108658612Y-66138980D01*
X109461905Y-66138980D01*
X109530026Y-66158982D01*
G37*
%TD.AperFunction*%
%TA.AperFunction,Conductor*%
G36*
X116478399Y-62879798D02*
G01*
X116505627Y-62899120D01*
X117099785Y-63452683D01*
X117812861Y-64117039D01*
X117851799Y-64153317D01*
X117856164Y-64157882D01*
X117859160Y-64162631D01*
X117903759Y-64202019D01*
X117941577Y-64262104D01*
X117940907Y-64333097D01*
X117901961Y-64392459D01*
X117837105Y-64421341D01*
X117820351Y-64422460D01*
X115219165Y-64422460D01*
X115151044Y-64402458D01*
X115104551Y-64348802D01*
X115094447Y-64278528D01*
X115123941Y-64213948D01*
X115168966Y-64180892D01*
X115312019Y-64118755D01*
X115312022Y-64118753D01*
X115315969Y-64117039D01*
X115550680Y-63974309D01*
X115763769Y-63800948D01*
X115766701Y-63797809D01*
X115766706Y-63797804D01*
X115948329Y-63603333D01*
X115948330Y-63603332D01*
X115951268Y-63600186D01*
X116109683Y-63375762D01*
X116236064Y-63131859D01*
X116292705Y-62972486D01*
X116301012Y-62949114D01*
X116342672Y-62891625D01*
X116408799Y-62865785D01*
X116478399Y-62879798D01*
G37*
%TD.AperFunction*%
%TD*%
M02*
