%TF.GenerationSoftware,KiCad,Pcbnew,(6.0.1)*%
%TF.CreationDate,2022-03-09T13:14:17-07:00*%
%TF.ProjectId,MShaw_4gbNandExtensionQSB_V2.6,4d536861-775f-4346-9762-4e616e644578,rev?*%
%TF.SameCoordinates,Original*%
%TF.FileFunction,Legend,Top*%
%TF.FilePolarity,Positive*%
%FSLAX46Y46*%
G04 Gerber Fmt 4.6, Leading zero omitted, Abs format (unit mm)*
G04 Created by KiCad (PCBNEW (6.0.1)) date 2022-03-09 13:14:17*
%MOMM*%
%LPD*%
G01*
G04 APERTURE LIST*
G04 Aperture macros list*
%AMRoundRect*
0 Rectangle with rounded corners*
0 $1 Rounding radius*
0 $2 $3 $4 $5 $6 $7 $8 $9 X,Y pos of 4 corners*
0 Add a 4 corners polygon primitive as box body*
4,1,4,$2,$3,$4,$5,$6,$7,$8,$9,$2,$3,0*
0 Add four circle primitives for the rounded corners*
1,1,$1+$1,$2,$3*
1,1,$1+$1,$4,$5*
1,1,$1+$1,$6,$7*
1,1,$1+$1,$8,$9*
0 Add four rect primitives between the rounded corners*
20,1,$1+$1,$2,$3,$4,$5,0*
20,1,$1+$1,$4,$5,$6,$7,0*
20,1,$1+$1,$6,$7,$8,$9,0*
20,1,$1+$1,$8,$9,$2,$3,0*%
G04 Aperture macros list end*
%ADD10C,0.100000*%
%ADD11C,0.150000*%
%ADD12C,0.080000*%
%ADD13C,0.093750*%
%ADD14C,0.120000*%
%ADD15RoundRect,0.250000X0.450000X-0.262500X0.450000X0.262500X-0.450000X0.262500X-0.450000X-0.262500X0*%
%ADD16RoundRect,0.250000X0.250000X-0.750000X0.250000X0.750000X-0.250000X0.750000X-0.250000X-0.750000X0*%
%ADD17RoundRect,0.750000X-0.750000X-0.750000X0.750000X-0.750000X0.750000X0.750000X-0.750000X0.750000X0*%
%ADD18RoundRect,0.500000X-0.500000X-0.500000X0.500000X-0.500000X0.500000X0.500000X-0.500000X0.500000X0*%
%ADD19RoundRect,0.750000X0.750000X-0.750000X0.750000X0.750000X-0.750000X0.750000X-0.750000X-0.750000X0*%
G04 APERTURE END LIST*
D10*
X135235000Y-96150000D02*
X135485000Y-95900000D01*
X134750000Y-98900000D02*
X138560000Y-98900000D01*
X133480000Y-98900000D02*
X133485000Y-95675000D01*
X137785000Y-98400000D02*
X138035000Y-98650000D01*
X132695000Y-98400000D02*
X132945000Y-98650000D01*
X137785000Y-98650000D02*
X138035000Y-98400000D01*
D11*
X130940000Y-98720000D02*
X130940000Y-95700000D01*
D10*
X136535000Y-96150000D02*
X136785000Y-95900000D01*
D11*
X165410000Y-100550000D02*
X165410000Y-100050000D01*
D10*
X133985000Y-96150000D02*
X134235000Y-95900000D01*
X138560000Y-98900000D02*
X138560000Y-95700000D01*
X132210000Y-98800000D02*
X132210000Y-95700000D01*
D11*
X141100000Y-98900000D02*
X141095000Y-95700000D01*
X170017500Y-108470000D02*
X170367500Y-108020000D01*
X165410000Y-100050000D02*
X172410000Y-100050000D01*
D10*
X136535000Y-95900000D02*
X136785000Y-96150000D01*
D11*
X165410000Y-110050000D02*
X165410000Y-110550000D01*
D10*
X135260000Y-98650000D02*
X135510000Y-98400000D01*
X135235000Y-95900000D02*
X135485000Y-96150000D01*
X133985000Y-95900000D02*
X134235000Y-96150000D01*
X141095000Y-95700000D02*
X139830000Y-95700000D01*
X130960000Y-97400000D02*
X141100000Y-97400000D01*
X135260000Y-98400000D02*
X135510000Y-98650000D01*
X132210000Y-98900000D02*
X133480000Y-98900000D01*
D11*
X170882500Y-108470000D02*
X170017500Y-108470000D01*
D10*
X137290000Y-98800000D02*
X137290000Y-95675000D01*
X136020000Y-98900000D02*
X136010000Y-95680000D01*
X132695000Y-98650000D02*
X132945000Y-98400000D01*
X136510000Y-98400000D02*
X136760000Y-98650000D01*
D11*
X165410000Y-110550000D02*
X172410000Y-110550000D01*
X165410000Y-110050000D02*
X165410000Y-100550000D01*
D10*
X136510000Y-98650000D02*
X136760000Y-98400000D01*
X134750000Y-98900000D02*
X134750000Y-95675000D01*
X137290000Y-95675000D02*
X133510000Y-95675000D01*
D11*
X170367500Y-108920000D02*
X170017500Y-108470000D01*
D10*
X139835000Y-98900000D02*
X139830000Y-95700000D01*
X158124285Y-106009285D02*
X157695714Y-106009285D01*
X157910000Y-106009285D02*
X157910000Y-105259285D01*
X157838571Y-105366428D01*
X157767142Y-105437857D01*
X157695714Y-105473571D01*
X156267142Y-98089285D02*
X156410000Y-98089285D01*
X156481428Y-98125000D01*
X156552857Y-98196428D01*
X156588571Y-98339285D01*
X156588571Y-98589285D01*
X156552857Y-98732142D01*
X156481428Y-98803571D01*
X156410000Y-98839285D01*
X156267142Y-98839285D01*
X156195714Y-98803571D01*
X156124285Y-98732142D01*
X156088571Y-98589285D01*
X156088571Y-98339285D01*
X156124285Y-98196428D01*
X156195714Y-98125000D01*
X156267142Y-98089285D01*
X156910000Y-98839285D02*
X156910000Y-98339285D01*
X156910000Y-98482142D02*
X156945714Y-98410714D01*
X156981428Y-98375000D01*
X157052857Y-98339285D01*
X157124285Y-98339285D01*
X157695714Y-98839285D02*
X157695714Y-98446428D01*
X157660000Y-98375000D01*
X157588571Y-98339285D01*
X157445714Y-98339285D01*
X157374285Y-98375000D01*
X157695714Y-98803571D02*
X157624285Y-98839285D01*
X157445714Y-98839285D01*
X157374285Y-98803571D01*
X157338571Y-98732142D01*
X157338571Y-98660714D01*
X157374285Y-98589285D01*
X157445714Y-98553571D01*
X157624285Y-98553571D01*
X157695714Y-98517857D01*
X158052857Y-98339285D02*
X158052857Y-98839285D01*
X158052857Y-98410714D02*
X158088571Y-98375000D01*
X158160000Y-98339285D01*
X158267142Y-98339285D01*
X158338571Y-98375000D01*
X158374285Y-98446428D01*
X158374285Y-98839285D01*
X159052857Y-98339285D02*
X159052857Y-98946428D01*
X159017142Y-99017857D01*
X158981428Y-99053571D01*
X158910000Y-99089285D01*
X158802857Y-99089285D01*
X158731428Y-99053571D01*
X159052857Y-98803571D02*
X158981428Y-98839285D01*
X158838571Y-98839285D01*
X158767142Y-98803571D01*
X158731428Y-98767857D01*
X158695714Y-98696428D01*
X158695714Y-98482142D01*
X158731428Y-98410714D01*
X158767142Y-98375000D01*
X158838571Y-98339285D01*
X158981428Y-98339285D01*
X159052857Y-98375000D01*
X159695714Y-98803571D02*
X159624285Y-98839285D01*
X159481428Y-98839285D01*
X159410000Y-98803571D01*
X159374285Y-98732142D01*
X159374285Y-98446428D01*
X159410000Y-98375000D01*
X159481428Y-98339285D01*
X159624285Y-98339285D01*
X159695714Y-98375000D01*
X159731428Y-98446428D01*
X159731428Y-98517857D01*
X159374285Y-98589285D01*
X147767142Y-106009285D02*
X147338571Y-106009285D01*
X147552857Y-106009285D02*
X147552857Y-105259285D01*
X147481428Y-105366428D01*
X147410000Y-105437857D01*
X147338571Y-105473571D01*
X148410000Y-105509285D02*
X148410000Y-106009285D01*
X148231428Y-105223571D02*
X148052857Y-105759285D01*
X148517142Y-105759285D01*
D11*
X147107142Y-112037857D02*
X147071428Y-112073571D01*
X146964285Y-112109285D01*
X146892857Y-112109285D01*
X146785714Y-112073571D01*
X146714285Y-112002142D01*
X146678571Y-111930714D01*
X146642857Y-111787857D01*
X146642857Y-111680714D01*
X146678571Y-111537857D01*
X146714285Y-111466428D01*
X146785714Y-111395000D01*
X146892857Y-111359285D01*
X146964285Y-111359285D01*
X147071428Y-111395000D01*
X147107142Y-111430714D01*
X147535714Y-112109285D02*
X147464285Y-112073571D01*
X147428571Y-112037857D01*
X147392857Y-111966428D01*
X147392857Y-111752142D01*
X147428571Y-111680714D01*
X147464285Y-111645000D01*
X147535714Y-111609285D01*
X147642857Y-111609285D01*
X147714285Y-111645000D01*
X147750000Y-111680714D01*
X147785714Y-111752142D01*
X147785714Y-111966428D01*
X147750000Y-112037857D01*
X147714285Y-112073571D01*
X147642857Y-112109285D01*
X147535714Y-112109285D01*
X148107142Y-112109285D02*
X148107142Y-111609285D01*
X148107142Y-111752142D02*
X148142857Y-111680714D01*
X148178571Y-111645000D01*
X148250000Y-111609285D01*
X148321428Y-111609285D01*
X148678571Y-112109285D02*
X148607142Y-112073571D01*
X148571428Y-112037857D01*
X148535714Y-111966428D01*
X148535714Y-111752142D01*
X148571428Y-111680714D01*
X148607142Y-111645000D01*
X148678571Y-111609285D01*
X148785714Y-111609285D01*
X148857142Y-111645000D01*
X148892857Y-111680714D01*
X148928571Y-111752142D01*
X148928571Y-111966428D01*
X148892857Y-112037857D01*
X148857142Y-112073571D01*
X148785714Y-112109285D01*
X148678571Y-112109285D01*
X149250000Y-111609285D02*
X149250000Y-112109285D01*
X149250000Y-111680714D02*
X149285714Y-111645000D01*
X149357142Y-111609285D01*
X149464285Y-111609285D01*
X149535714Y-111645000D01*
X149571428Y-111716428D01*
X149571428Y-112109285D01*
X150250000Y-112109285D02*
X150250000Y-111716428D01*
X150214285Y-111645000D01*
X150142857Y-111609285D01*
X150000000Y-111609285D01*
X149928571Y-111645000D01*
X150250000Y-112073571D02*
X150178571Y-112109285D01*
X150000000Y-112109285D01*
X149928571Y-112073571D01*
X149892857Y-112002142D01*
X149892857Y-111930714D01*
X149928571Y-111859285D01*
X150000000Y-111823571D01*
X150178571Y-111823571D01*
X150250000Y-111787857D01*
X151500000Y-111609285D02*
X151500000Y-112109285D01*
X151321428Y-111323571D02*
X151142857Y-111859285D01*
X151607142Y-111859285D01*
X152285714Y-111395000D02*
X152214285Y-111359285D01*
X152107142Y-111359285D01*
X152000000Y-111395000D01*
X151928571Y-111466428D01*
X151892857Y-111537857D01*
X151857142Y-111680714D01*
X151857142Y-111787857D01*
X151892857Y-111930714D01*
X151928571Y-112002142D01*
X152000000Y-112073571D01*
X152107142Y-112109285D01*
X152178571Y-112109285D01*
X152285714Y-112073571D01*
X152321428Y-112037857D01*
X152321428Y-111787857D01*
X152178571Y-111787857D01*
X152892857Y-111716428D02*
X153000000Y-111752142D01*
X153035714Y-111787857D01*
X153071428Y-111859285D01*
X153071428Y-111966428D01*
X153035714Y-112037857D01*
X153000000Y-112073571D01*
X152928571Y-112109285D01*
X152642857Y-112109285D01*
X152642857Y-111359285D01*
X152892857Y-111359285D01*
X152964285Y-111395000D01*
X153000000Y-111430714D01*
X153035714Y-111502142D01*
X153035714Y-111573571D01*
X153000000Y-111645000D01*
X152964285Y-111680714D01*
X152892857Y-111716428D01*
X152642857Y-111716428D01*
X153964285Y-112109285D02*
X153964285Y-111359285D01*
X154392857Y-112109285D01*
X154392857Y-111359285D01*
X154714285Y-111895000D02*
X155071428Y-111895000D01*
X154642857Y-112109285D02*
X154892857Y-111359285D01*
X155142857Y-112109285D01*
X155392857Y-112109285D02*
X155392857Y-111359285D01*
X155821428Y-112109285D01*
X155821428Y-111359285D01*
X156178571Y-112109285D02*
X156178571Y-111359285D01*
X156357142Y-111359285D01*
X156464285Y-111395000D01*
X156535714Y-111466428D01*
X156571428Y-111537857D01*
X156607142Y-111680714D01*
X156607142Y-111787857D01*
X156571428Y-111930714D01*
X156535714Y-112002142D01*
X156464285Y-112073571D01*
X156357142Y-112109285D01*
X156178571Y-112109285D01*
X157500000Y-111716428D02*
X157750000Y-111716428D01*
X157857142Y-112109285D02*
X157500000Y-112109285D01*
X157500000Y-111359285D01*
X157857142Y-111359285D01*
X158107142Y-112109285D02*
X158500000Y-111609285D01*
X158107142Y-111609285D02*
X158500000Y-112109285D01*
X158678571Y-111609285D02*
X158964285Y-111609285D01*
X158785714Y-111359285D02*
X158785714Y-112002142D01*
X158821428Y-112073571D01*
X158892857Y-112109285D01*
X158964285Y-112109285D01*
X159500000Y-112073571D02*
X159428571Y-112109285D01*
X159285714Y-112109285D01*
X159214285Y-112073571D01*
X159178571Y-112002142D01*
X159178571Y-111716428D01*
X159214285Y-111645000D01*
X159285714Y-111609285D01*
X159428571Y-111609285D01*
X159500000Y-111645000D01*
X159535714Y-111716428D01*
X159535714Y-111787857D01*
X159178571Y-111859285D01*
X159857142Y-111609285D02*
X159857142Y-112109285D01*
X159857142Y-111680714D02*
X159892857Y-111645000D01*
X159964285Y-111609285D01*
X160071428Y-111609285D01*
X160142857Y-111645000D01*
X160178571Y-111716428D01*
X160178571Y-112109285D01*
X160500000Y-112073571D02*
X160571428Y-112109285D01*
X160714285Y-112109285D01*
X160785714Y-112073571D01*
X160821428Y-112002142D01*
X160821428Y-111966428D01*
X160785714Y-111895000D01*
X160714285Y-111859285D01*
X160607142Y-111859285D01*
X160535714Y-111823571D01*
X160500000Y-111752142D01*
X160500000Y-111716428D01*
X160535714Y-111645000D01*
X160607142Y-111609285D01*
X160714285Y-111609285D01*
X160785714Y-111645000D01*
X161142857Y-112109285D02*
X161142857Y-111609285D01*
X161142857Y-111359285D02*
X161107142Y-111395000D01*
X161142857Y-111430714D01*
X161178571Y-111395000D01*
X161142857Y-111359285D01*
X161142857Y-111430714D01*
X161607142Y-112109285D02*
X161535714Y-112073571D01*
X161500000Y-112037857D01*
X161464285Y-111966428D01*
X161464285Y-111752142D01*
X161500000Y-111680714D01*
X161535714Y-111645000D01*
X161607142Y-111609285D01*
X161714285Y-111609285D01*
X161785714Y-111645000D01*
X161821428Y-111680714D01*
X161857142Y-111752142D01*
X161857142Y-111966428D01*
X161821428Y-112037857D01*
X161785714Y-112073571D01*
X161714285Y-112109285D01*
X161607142Y-112109285D01*
X162178571Y-111609285D02*
X162178571Y-112109285D01*
X162178571Y-111680714D02*
X162214285Y-111645000D01*
X162285714Y-111609285D01*
X162392857Y-111609285D01*
X162464285Y-111645000D01*
X162500000Y-111716428D01*
X162500000Y-112109285D01*
X163928571Y-112180714D02*
X163857142Y-112145000D01*
X163785714Y-112073571D01*
X163678571Y-111966428D01*
X163607142Y-111930714D01*
X163535714Y-111930714D01*
X163571428Y-112109285D02*
X163500000Y-112073571D01*
X163428571Y-112002142D01*
X163392857Y-111859285D01*
X163392857Y-111609285D01*
X163428571Y-111466428D01*
X163500000Y-111395000D01*
X163571428Y-111359285D01*
X163714285Y-111359285D01*
X163785714Y-111395000D01*
X163857142Y-111466428D01*
X163892857Y-111609285D01*
X163892857Y-111859285D01*
X163857142Y-112002142D01*
X163785714Y-112073571D01*
X163714285Y-112109285D01*
X163571428Y-112109285D01*
X164178571Y-112073571D02*
X164285714Y-112109285D01*
X164464285Y-112109285D01*
X164535714Y-112073571D01*
X164571428Y-112037857D01*
X164607142Y-111966428D01*
X164607142Y-111895000D01*
X164571428Y-111823571D01*
X164535714Y-111787857D01*
X164464285Y-111752142D01*
X164321428Y-111716428D01*
X164250000Y-111680714D01*
X164214285Y-111645000D01*
X164178571Y-111573571D01*
X164178571Y-111502142D01*
X164214285Y-111430714D01*
X164250000Y-111395000D01*
X164321428Y-111359285D01*
X164500000Y-111359285D01*
X164607142Y-111395000D01*
X165178571Y-111716428D02*
X165285714Y-111752142D01*
X165321428Y-111787857D01*
X165357142Y-111859285D01*
X165357142Y-111966428D01*
X165321428Y-112037857D01*
X165285714Y-112073571D01*
X165214285Y-112109285D01*
X164928571Y-112109285D01*
X164928571Y-111359285D01*
X165178571Y-111359285D01*
X165250000Y-111395000D01*
X165285714Y-111430714D01*
X165321428Y-111502142D01*
X165321428Y-111573571D01*
X165285714Y-111645000D01*
X165250000Y-111680714D01*
X165178571Y-111716428D01*
X164928571Y-111716428D01*
D10*
X146535000Y-98839285D02*
X146535000Y-98089285D01*
X146820714Y-98089285D01*
X146892142Y-98125000D01*
X146927857Y-98160714D01*
X146963571Y-98232142D01*
X146963571Y-98339285D01*
X146927857Y-98410714D01*
X146892142Y-98446428D01*
X146820714Y-98482142D01*
X146535000Y-98482142D01*
X147606428Y-98339285D02*
X147606428Y-98839285D01*
X147285000Y-98339285D02*
X147285000Y-98732142D01*
X147320714Y-98803571D01*
X147392142Y-98839285D01*
X147499285Y-98839285D01*
X147570714Y-98803571D01*
X147606428Y-98767857D01*
X147963571Y-98839285D02*
X147963571Y-98339285D01*
X147963571Y-98482142D02*
X147999285Y-98410714D01*
X148035000Y-98375000D01*
X148106428Y-98339285D01*
X148177857Y-98339285D01*
X148427857Y-98339285D02*
X148427857Y-99089285D01*
X148427857Y-98375000D02*
X148499285Y-98339285D01*
X148642142Y-98339285D01*
X148713571Y-98375000D01*
X148749285Y-98410714D01*
X148785000Y-98482142D01*
X148785000Y-98696428D01*
X148749285Y-98767857D01*
X148713571Y-98803571D01*
X148642142Y-98839285D01*
X148499285Y-98839285D01*
X148427857Y-98803571D01*
X149213571Y-98839285D02*
X149142142Y-98803571D01*
X149106428Y-98732142D01*
X149106428Y-98089285D01*
X149785000Y-98803571D02*
X149713571Y-98839285D01*
X149570714Y-98839285D01*
X149499285Y-98803571D01*
X149463571Y-98732142D01*
X149463571Y-98446428D01*
X149499285Y-98375000D01*
X149570714Y-98339285D01*
X149713571Y-98339285D01*
X149785000Y-98375000D01*
X149820714Y-98446428D01*
X149820714Y-98517857D01*
X149463571Y-98589285D01*
X156463571Y-110232142D02*
X156463571Y-110589285D01*
X156213571Y-109839285D02*
X156463571Y-110232142D01*
X156713571Y-109839285D01*
X157249285Y-110553571D02*
X157177857Y-110589285D01*
X157035000Y-110589285D01*
X156963571Y-110553571D01*
X156927857Y-110482142D01*
X156927857Y-110196428D01*
X156963571Y-110125000D01*
X157035000Y-110089285D01*
X157177857Y-110089285D01*
X157249285Y-110125000D01*
X157285000Y-110196428D01*
X157285000Y-110267857D01*
X156927857Y-110339285D01*
X157713571Y-110589285D02*
X157642142Y-110553571D01*
X157606428Y-110482142D01*
X157606428Y-109839285D01*
X158106428Y-110589285D02*
X158035000Y-110553571D01*
X157999285Y-110482142D01*
X157999285Y-109839285D01*
X158499285Y-110589285D02*
X158427857Y-110553571D01*
X158392142Y-110517857D01*
X158356428Y-110446428D01*
X158356428Y-110232142D01*
X158392142Y-110160714D01*
X158427857Y-110125000D01*
X158499285Y-110089285D01*
X158606428Y-110089285D01*
X158677857Y-110125000D01*
X158713571Y-110160714D01*
X158749285Y-110232142D01*
X158749285Y-110446428D01*
X158713571Y-110517857D01*
X158677857Y-110553571D01*
X158606428Y-110589285D01*
X158499285Y-110589285D01*
X158999285Y-110089285D02*
X159142142Y-110589285D01*
X159285000Y-110232142D01*
X159427857Y-110589285D01*
X159570714Y-110089285D01*
X170842321Y-107398571D02*
X170878035Y-107291428D01*
X170878035Y-107112857D01*
X170842321Y-107041428D01*
X170806607Y-107005714D01*
X170735178Y-106970000D01*
X170663750Y-106970000D01*
X170592321Y-107005714D01*
X170556607Y-107041428D01*
X170520892Y-107112857D01*
X170485178Y-107255714D01*
X170449464Y-107327142D01*
X170413750Y-107362857D01*
X170342321Y-107398571D01*
X170270892Y-107398571D01*
X170199464Y-107362857D01*
X170163750Y-107327142D01*
X170128035Y-107255714D01*
X170128035Y-107077142D01*
X170163750Y-106970000D01*
X170878035Y-106541428D02*
X170842321Y-106612857D01*
X170806607Y-106648571D01*
X170735178Y-106684285D01*
X170520892Y-106684285D01*
X170449464Y-106648571D01*
X170413750Y-106612857D01*
X170378035Y-106541428D01*
X170378035Y-106434285D01*
X170413750Y-106362857D01*
X170449464Y-106327142D01*
X170520892Y-106291428D01*
X170735178Y-106291428D01*
X170806607Y-106327142D01*
X170842321Y-106362857D01*
X170878035Y-106434285D01*
X170878035Y-106541428D01*
X170878035Y-105862857D02*
X170842321Y-105934285D01*
X170770892Y-105970000D01*
X170128035Y-105970000D01*
X170878035Y-105255714D02*
X170128035Y-105255714D01*
X170842321Y-105255714D02*
X170878035Y-105327142D01*
X170878035Y-105470000D01*
X170842321Y-105541428D01*
X170806607Y-105577142D01*
X170735178Y-105612857D01*
X170520892Y-105612857D01*
X170449464Y-105577142D01*
X170413750Y-105541428D01*
X170378035Y-105470000D01*
X170378035Y-105327142D01*
X170413750Y-105255714D01*
X170842321Y-104612857D02*
X170878035Y-104684285D01*
X170878035Y-104827142D01*
X170842321Y-104898571D01*
X170770892Y-104934285D01*
X170485178Y-104934285D01*
X170413750Y-104898571D01*
X170378035Y-104827142D01*
X170378035Y-104684285D01*
X170413750Y-104612857D01*
X170485178Y-104577142D01*
X170556607Y-104577142D01*
X170628035Y-104934285D01*
X170878035Y-104255714D02*
X170378035Y-104255714D01*
X170520892Y-104255714D02*
X170449464Y-104220000D01*
X170413750Y-104184285D01*
X170378035Y-104112857D01*
X170378035Y-104041428D01*
X171692678Y-108362857D02*
X171728392Y-108255714D01*
X171764107Y-108220000D01*
X171835535Y-108184285D01*
X171942678Y-108184285D01*
X172014107Y-108220000D01*
X172049821Y-108255714D01*
X172085535Y-108327142D01*
X172085535Y-108612857D01*
X171335535Y-108612857D01*
X171335535Y-108362857D01*
X171371250Y-108291428D01*
X171406964Y-108255714D01*
X171478392Y-108220000D01*
X171549821Y-108220000D01*
X171621250Y-108255714D01*
X171656964Y-108291428D01*
X171692678Y-108362857D01*
X171692678Y-108612857D01*
X172085535Y-107755714D02*
X172049821Y-107827142D01*
X172014107Y-107862857D01*
X171942678Y-107898571D01*
X171728392Y-107898571D01*
X171656964Y-107862857D01*
X171621250Y-107827142D01*
X171585535Y-107755714D01*
X171585535Y-107648571D01*
X171621250Y-107577142D01*
X171656964Y-107541428D01*
X171728392Y-107505714D01*
X171942678Y-107505714D01*
X172014107Y-107541428D01*
X172049821Y-107577142D01*
X172085535Y-107648571D01*
X172085535Y-107755714D01*
X171585535Y-107291428D02*
X171585535Y-107005714D01*
X171335535Y-107184285D02*
X171978392Y-107184285D01*
X172049821Y-107148571D01*
X172085535Y-107077142D01*
X172085535Y-107005714D01*
X171585535Y-106862857D02*
X171585535Y-106577142D01*
X171335535Y-106755714D02*
X171978392Y-106755714D01*
X172049821Y-106720000D01*
X172085535Y-106648571D01*
X172085535Y-106577142D01*
X172085535Y-106220000D02*
X172049821Y-106291428D01*
X172014107Y-106327142D01*
X171942678Y-106362857D01*
X171728392Y-106362857D01*
X171656964Y-106327142D01*
X171621250Y-106291428D01*
X171585535Y-106220000D01*
X171585535Y-106112857D01*
X171621250Y-106041428D01*
X171656964Y-106005714D01*
X171728392Y-105970000D01*
X171942678Y-105970000D01*
X172014107Y-106005714D01*
X172049821Y-106041428D01*
X172085535Y-106112857D01*
X172085535Y-106220000D01*
X172085535Y-105648571D02*
X171585535Y-105648571D01*
X171656964Y-105648571D02*
X171621250Y-105612857D01*
X171585535Y-105541428D01*
X171585535Y-105434285D01*
X171621250Y-105362857D01*
X171692678Y-105327142D01*
X172085535Y-105327142D01*
X171692678Y-105327142D02*
X171621250Y-105291428D01*
X171585535Y-105220000D01*
X171585535Y-105112857D01*
X171621250Y-105041428D01*
X171692678Y-105005714D01*
X172085535Y-105005714D01*
X172085535Y-104077142D02*
X171335535Y-104077142D01*
X171335535Y-103791428D01*
X171371250Y-103720000D01*
X171406964Y-103684285D01*
X171478392Y-103648571D01*
X171585535Y-103648571D01*
X171656964Y-103684285D01*
X171692678Y-103720000D01*
X171728392Y-103791428D01*
X171728392Y-104077142D01*
X172085535Y-103005714D02*
X171692678Y-103005714D01*
X171621250Y-103041428D01*
X171585535Y-103112857D01*
X171585535Y-103255714D01*
X171621250Y-103327142D01*
X172049821Y-103005714D02*
X172085535Y-103077142D01*
X172085535Y-103255714D01*
X172049821Y-103327142D01*
X171978392Y-103362857D01*
X171906964Y-103362857D01*
X171835535Y-103327142D01*
X171799821Y-103255714D01*
X171799821Y-103077142D01*
X171764107Y-103005714D01*
X172085535Y-102327142D02*
X171335535Y-102327142D01*
X172049821Y-102327142D02*
X172085535Y-102398571D01*
X172085535Y-102541428D01*
X172049821Y-102612857D01*
X172014107Y-102648571D01*
X171942678Y-102684285D01*
X171728392Y-102684285D01*
X171656964Y-102648571D01*
X171621250Y-102612857D01*
X171585535Y-102541428D01*
X171585535Y-102398571D01*
X171621250Y-102327142D01*
X172793035Y-109220000D02*
X172793035Y-108934285D01*
X172543035Y-109112857D02*
X173185892Y-109112857D01*
X173257321Y-109077142D01*
X173293035Y-109005714D01*
X173293035Y-108934285D01*
X173293035Y-108577142D02*
X173257321Y-108648571D01*
X173221607Y-108684285D01*
X173150178Y-108720000D01*
X172935892Y-108720000D01*
X172864464Y-108684285D01*
X172828750Y-108648571D01*
X172793035Y-108577142D01*
X172793035Y-108470000D01*
X172828750Y-108398571D01*
X172864464Y-108362857D01*
X172935892Y-108327142D01*
X173150178Y-108327142D01*
X173221607Y-108362857D01*
X173257321Y-108398571D01*
X173293035Y-108470000D01*
X173293035Y-108577142D01*
X172543035Y-107505714D02*
X173293035Y-107005714D01*
X172543035Y-107005714D02*
X173293035Y-107505714D01*
X173293035Y-106720000D02*
X172543035Y-106720000D01*
X172828750Y-106720000D02*
X172793035Y-106648571D01*
X172793035Y-106505714D01*
X172828750Y-106434285D01*
X172864464Y-106398571D01*
X172935892Y-106362857D01*
X173150178Y-106362857D01*
X173221607Y-106398571D01*
X173257321Y-106434285D01*
X173293035Y-106505714D01*
X173293035Y-106648571D01*
X173257321Y-106720000D01*
X173293035Y-105934285D02*
X173257321Y-106005714D01*
X173221607Y-106041428D01*
X173150178Y-106077142D01*
X172935892Y-106077142D01*
X172864464Y-106041428D01*
X172828750Y-106005714D01*
X172793035Y-105934285D01*
X172793035Y-105827142D01*
X172828750Y-105755714D01*
X172864464Y-105720000D01*
X172935892Y-105684285D01*
X173150178Y-105684285D01*
X173221607Y-105720000D01*
X173257321Y-105755714D01*
X173293035Y-105827142D01*
X173293035Y-105934285D01*
X173293035Y-105434285D02*
X172793035Y-105041428D01*
X172793035Y-105434285D02*
X173293035Y-105041428D01*
X172543035Y-104255714D02*
X172543035Y-103791428D01*
X172828750Y-104041428D01*
X172828750Y-103934285D01*
X172864464Y-103862857D01*
X172900178Y-103827142D01*
X172971607Y-103791428D01*
X173150178Y-103791428D01*
X173221607Y-103827142D01*
X173257321Y-103862857D01*
X173293035Y-103934285D01*
X173293035Y-104148571D01*
X173257321Y-104220000D01*
X173221607Y-104255714D01*
X172543035Y-103148571D02*
X172543035Y-103291428D01*
X172578750Y-103362857D01*
X172614464Y-103398571D01*
X172721607Y-103470000D01*
X172864464Y-103505714D01*
X173150178Y-103505714D01*
X173221607Y-103470000D01*
X173257321Y-103434285D01*
X173293035Y-103362857D01*
X173293035Y-103220000D01*
X173257321Y-103148571D01*
X173221607Y-103112857D01*
X173150178Y-103077142D01*
X172971607Y-103077142D01*
X172900178Y-103112857D01*
X172864464Y-103148571D01*
X172828750Y-103220000D01*
X172828750Y-103362857D01*
X172864464Y-103434285D01*
X172900178Y-103470000D01*
X172971607Y-103505714D01*
X172543035Y-102612857D02*
X172543035Y-102541428D01*
X172578750Y-102470000D01*
X172614464Y-102434285D01*
X172685892Y-102398571D01*
X172828750Y-102362857D01*
X173007321Y-102362857D01*
X173150178Y-102398571D01*
X173221607Y-102434285D01*
X173257321Y-102470000D01*
X173293035Y-102541428D01*
X173293035Y-102612857D01*
X173257321Y-102684285D01*
X173221607Y-102720000D01*
X173150178Y-102755714D01*
X173007321Y-102791428D01*
X172828750Y-102791428D01*
X172685892Y-102755714D01*
X172614464Y-102720000D01*
X172578750Y-102684285D01*
X172543035Y-102612857D01*
X174429107Y-106809285D02*
X174464821Y-106845000D01*
X174500535Y-106952142D01*
X174500535Y-107023571D01*
X174464821Y-107130714D01*
X174393392Y-107202142D01*
X174321964Y-107237857D01*
X174179107Y-107273571D01*
X174071964Y-107273571D01*
X173929107Y-107237857D01*
X173857678Y-107202142D01*
X173786250Y-107130714D01*
X173750535Y-107023571D01*
X173750535Y-106952142D01*
X173786250Y-106845000D01*
X173821964Y-106809285D01*
X174500535Y-106487857D02*
X174000535Y-106487857D01*
X174143392Y-106487857D02*
X174071964Y-106452142D01*
X174036250Y-106416428D01*
X174000535Y-106345000D01*
X174000535Y-106273571D01*
X174000535Y-106095000D02*
X174500535Y-105916428D01*
X174000535Y-105737857D02*
X174500535Y-105916428D01*
X174679107Y-105987857D01*
X174714821Y-106023571D01*
X174750535Y-106095000D01*
X174464821Y-105487857D02*
X174500535Y-105416428D01*
X174500535Y-105273571D01*
X174464821Y-105202142D01*
X174393392Y-105166428D01*
X174357678Y-105166428D01*
X174286250Y-105202142D01*
X174250535Y-105273571D01*
X174250535Y-105380714D01*
X174214821Y-105452142D01*
X174143392Y-105487857D01*
X174107678Y-105487857D01*
X174036250Y-105452142D01*
X174000535Y-105380714D01*
X174000535Y-105273571D01*
X174036250Y-105202142D01*
X174000535Y-104952142D02*
X174000535Y-104666428D01*
X173750535Y-104845000D02*
X174393392Y-104845000D01*
X174464821Y-104809285D01*
X174500535Y-104737857D01*
X174500535Y-104666428D01*
X174500535Y-104095000D02*
X174107678Y-104095000D01*
X174036250Y-104130714D01*
X174000535Y-104202142D01*
X174000535Y-104345000D01*
X174036250Y-104416428D01*
X174464821Y-104095000D02*
X174500535Y-104166428D01*
X174500535Y-104345000D01*
X174464821Y-104416428D01*
X174393392Y-104452142D01*
X174321964Y-104452142D01*
X174250535Y-104416428D01*
X174214821Y-104345000D01*
X174214821Y-104166428D01*
X174179107Y-104095000D01*
X174500535Y-103630714D02*
X174464821Y-103702142D01*
X174393392Y-103737857D01*
X173750535Y-103737857D01*
X162767142Y-106009285D02*
X162338571Y-106009285D01*
X162552857Y-106009285D02*
X162552857Y-105259285D01*
X162481428Y-105366428D01*
X162410000Y-105437857D01*
X162338571Y-105473571D01*
X163410000Y-105259285D02*
X163267142Y-105259285D01*
X163195714Y-105295000D01*
X163160000Y-105330714D01*
X163088571Y-105437857D01*
X163052857Y-105580714D01*
X163052857Y-105866428D01*
X163088571Y-105937857D01*
X163124285Y-105973571D01*
X163195714Y-106009285D01*
X163338571Y-106009285D01*
X163410000Y-105973571D01*
X163445714Y-105937857D01*
X163481428Y-105866428D01*
X163481428Y-105687857D01*
X163445714Y-105616428D01*
X163410000Y-105580714D01*
X163338571Y-105545000D01*
X163195714Y-105545000D01*
X163124285Y-105580714D01*
X163088571Y-105616428D01*
X163052857Y-105687857D01*
X162767142Y-103809285D02*
X162338571Y-103809285D01*
X162552857Y-103809285D02*
X162552857Y-103059285D01*
X162481428Y-103166428D01*
X162410000Y-103237857D01*
X162338571Y-103273571D01*
X163017142Y-103059285D02*
X163481428Y-103059285D01*
X163231428Y-103345000D01*
X163338571Y-103345000D01*
X163410000Y-103380714D01*
X163445714Y-103416428D01*
X163481428Y-103487857D01*
X163481428Y-103666428D01*
X163445714Y-103737857D01*
X163410000Y-103773571D01*
X163338571Y-103809285D01*
X163124285Y-103809285D01*
X163052857Y-103773571D01*
X163017142Y-103737857D01*
X147767142Y-103809285D02*
X147338571Y-103809285D01*
X147552857Y-103809285D02*
X147552857Y-103059285D01*
X147481428Y-103166428D01*
X147410000Y-103237857D01*
X147338571Y-103273571D01*
X148481428Y-103809285D02*
X148052857Y-103809285D01*
X148267142Y-103809285D02*
X148267142Y-103059285D01*
X148195714Y-103166428D01*
X148124285Y-103237857D01*
X148052857Y-103273571D01*
D12*
X129381309Y-97645238D02*
X129357500Y-97621428D01*
X129333690Y-97573809D01*
X129333690Y-97454761D01*
X129357500Y-97407142D01*
X129381309Y-97383333D01*
X129428928Y-97359523D01*
X129476547Y-97359523D01*
X129547976Y-97383333D01*
X129833690Y-97669047D01*
X129833690Y-97359523D01*
X129833690Y-97145238D02*
X129333690Y-97145238D01*
X129643214Y-97097619D02*
X129833690Y-96954761D01*
X129500357Y-96954761D02*
X129690833Y-97145238D01*
X130638690Y-98407142D02*
X130400595Y-98573809D01*
X130638690Y-98692857D02*
X130138690Y-98692857D01*
X130138690Y-98502380D01*
X130162500Y-98454761D01*
X130186309Y-98430952D01*
X130233928Y-98407142D01*
X130305357Y-98407142D01*
X130352976Y-98430952D01*
X130376785Y-98454761D01*
X130400595Y-98502380D01*
X130400595Y-98692857D01*
X130614880Y-98002380D02*
X130638690Y-98050000D01*
X130638690Y-98145238D01*
X130614880Y-98192857D01*
X130567261Y-98216666D01*
X130376785Y-98216666D01*
X130329166Y-98192857D01*
X130305357Y-98145238D01*
X130305357Y-98050000D01*
X130329166Y-98002380D01*
X130376785Y-97978571D01*
X130424404Y-97978571D01*
X130472023Y-98216666D01*
X130614880Y-97788095D02*
X130638690Y-97740476D01*
X130638690Y-97645238D01*
X130614880Y-97597619D01*
X130567261Y-97573809D01*
X130543452Y-97573809D01*
X130495833Y-97597619D01*
X130472023Y-97645238D01*
X130472023Y-97716666D01*
X130448214Y-97764285D01*
X130400595Y-97788095D01*
X130376785Y-97788095D01*
X130329166Y-97764285D01*
X130305357Y-97716666D01*
X130305357Y-97645238D01*
X130329166Y-97597619D01*
X130638690Y-97359523D02*
X130305357Y-97359523D01*
X130138690Y-97359523D02*
X130162500Y-97383333D01*
X130186309Y-97359523D01*
X130162500Y-97335714D01*
X130138690Y-97359523D01*
X130186309Y-97359523D01*
X130614880Y-97145238D02*
X130638690Y-97097619D01*
X130638690Y-97002380D01*
X130614880Y-96954761D01*
X130567261Y-96930952D01*
X130543452Y-96930952D01*
X130495833Y-96954761D01*
X130472023Y-97002380D01*
X130472023Y-97073809D01*
X130448214Y-97121428D01*
X130400595Y-97145238D01*
X130376785Y-97145238D01*
X130329166Y-97121428D01*
X130305357Y-97073809D01*
X130305357Y-97002380D01*
X130329166Y-96954761D01*
X130305357Y-96788095D02*
X130305357Y-96597619D01*
X130138690Y-96716666D02*
X130567261Y-96716666D01*
X130614880Y-96692857D01*
X130638690Y-96645238D01*
X130638690Y-96597619D01*
X130638690Y-96359523D02*
X130614880Y-96407142D01*
X130591071Y-96430952D01*
X130543452Y-96454761D01*
X130400595Y-96454761D01*
X130352976Y-96430952D01*
X130329166Y-96407142D01*
X130305357Y-96359523D01*
X130305357Y-96288095D01*
X130329166Y-96240476D01*
X130352976Y-96216666D01*
X130400595Y-96192857D01*
X130543452Y-96192857D01*
X130591071Y-96216666D01*
X130614880Y-96240476D01*
X130638690Y-96288095D01*
X130638690Y-96359523D01*
X130638690Y-95978571D02*
X130305357Y-95978571D01*
X130400595Y-95978571D02*
X130352976Y-95954761D01*
X130329166Y-95930952D01*
X130305357Y-95883333D01*
X130305357Y-95835714D01*
D10*
X166564285Y-100545000D02*
X166492857Y-100509285D01*
X166385714Y-100509285D01*
X166278571Y-100545000D01*
X166207142Y-100616428D01*
X166171428Y-100687857D01*
X166135714Y-100830714D01*
X166135714Y-100937857D01*
X166171428Y-101080714D01*
X166207142Y-101152142D01*
X166278571Y-101223571D01*
X166385714Y-101259285D01*
X166457142Y-101259285D01*
X166564285Y-101223571D01*
X166600000Y-101187857D01*
X166600000Y-100937857D01*
X166457142Y-100937857D01*
X166921428Y-101259285D02*
X166921428Y-100759285D01*
X166921428Y-100902142D02*
X166957142Y-100830714D01*
X166992857Y-100795000D01*
X167064285Y-100759285D01*
X167135714Y-100759285D01*
X167671428Y-101223571D02*
X167600000Y-101259285D01*
X167457142Y-101259285D01*
X167385714Y-101223571D01*
X167350000Y-101152142D01*
X167350000Y-100866428D01*
X167385714Y-100795000D01*
X167457142Y-100759285D01*
X167600000Y-100759285D01*
X167671428Y-100795000D01*
X167707142Y-100866428D01*
X167707142Y-100937857D01*
X167350000Y-101009285D01*
X168314285Y-101223571D02*
X168242857Y-101259285D01*
X168100000Y-101259285D01*
X168028571Y-101223571D01*
X167992857Y-101152142D01*
X167992857Y-100866428D01*
X168028571Y-100795000D01*
X168100000Y-100759285D01*
X168242857Y-100759285D01*
X168314285Y-100795000D01*
X168350000Y-100866428D01*
X168350000Y-100937857D01*
X167992857Y-101009285D01*
X168671428Y-100759285D02*
X168671428Y-101259285D01*
X168671428Y-100830714D02*
X168707142Y-100795000D01*
X168778571Y-100759285D01*
X168885714Y-100759285D01*
X168957142Y-100795000D01*
X168992857Y-100866428D01*
X168992857Y-101259285D01*
X169885714Y-100473571D02*
X169242857Y-101437857D01*
X170564285Y-101187857D02*
X170528571Y-101223571D01*
X170421428Y-101259285D01*
X170350000Y-101259285D01*
X170242857Y-101223571D01*
X170171428Y-101152142D01*
X170135714Y-101080714D01*
X170100000Y-100937857D01*
X170100000Y-100830714D01*
X170135714Y-100687857D01*
X170171428Y-100616428D01*
X170242857Y-100545000D01*
X170350000Y-100509285D01*
X170421428Y-100509285D01*
X170528571Y-100545000D01*
X170564285Y-100580714D01*
X162481428Y-110589285D02*
X162231428Y-110232142D01*
X162052857Y-110589285D02*
X162052857Y-109839285D01*
X162338571Y-109839285D01*
X162410000Y-109875000D01*
X162445714Y-109910714D01*
X162481428Y-109982142D01*
X162481428Y-110089285D01*
X162445714Y-110160714D01*
X162410000Y-110196428D01*
X162338571Y-110232142D01*
X162052857Y-110232142D01*
X163088571Y-110553571D02*
X163017142Y-110589285D01*
X162874285Y-110589285D01*
X162802857Y-110553571D01*
X162767142Y-110482142D01*
X162767142Y-110196428D01*
X162802857Y-110125000D01*
X162874285Y-110089285D01*
X163017142Y-110089285D01*
X163088571Y-110125000D01*
X163124285Y-110196428D01*
X163124285Y-110267857D01*
X162767142Y-110339285D01*
X163767142Y-110589285D02*
X163767142Y-109839285D01*
X163767142Y-110553571D02*
X163695714Y-110589285D01*
X163552857Y-110589285D01*
X163481428Y-110553571D01*
X163445714Y-110517857D01*
X163410000Y-110446428D01*
X163410000Y-110232142D01*
X163445714Y-110160714D01*
X163481428Y-110125000D01*
X163552857Y-110089285D01*
X163695714Y-110089285D01*
X163767142Y-110125000D01*
X152106428Y-110196428D02*
X152213571Y-110232142D01*
X152249285Y-110267857D01*
X152285000Y-110339285D01*
X152285000Y-110446428D01*
X152249285Y-110517857D01*
X152213571Y-110553571D01*
X152142142Y-110589285D01*
X151856428Y-110589285D01*
X151856428Y-109839285D01*
X152106428Y-109839285D01*
X152177857Y-109875000D01*
X152213571Y-109910714D01*
X152249285Y-109982142D01*
X152249285Y-110053571D01*
X152213571Y-110125000D01*
X152177857Y-110160714D01*
X152106428Y-110196428D01*
X151856428Y-110196428D01*
X152713571Y-110589285D02*
X152642142Y-110553571D01*
X152606428Y-110482142D01*
X152606428Y-109839285D01*
X153320714Y-110089285D02*
X153320714Y-110589285D01*
X152999285Y-110089285D02*
X152999285Y-110482142D01*
X153035000Y-110553571D01*
X153106428Y-110589285D01*
X153213571Y-110589285D01*
X153285000Y-110553571D01*
X153320714Y-110517857D01*
X153963571Y-110553571D02*
X153892142Y-110589285D01*
X153749285Y-110589285D01*
X153677857Y-110553571D01*
X153642142Y-110482142D01*
X153642142Y-110196428D01*
X153677857Y-110125000D01*
X153749285Y-110089285D01*
X153892142Y-110089285D01*
X153963571Y-110125000D01*
X153999285Y-110196428D01*
X153999285Y-110267857D01*
X153642142Y-110339285D01*
X157695714Y-103130714D02*
X157731428Y-103095000D01*
X157802857Y-103059285D01*
X157981428Y-103059285D01*
X158052857Y-103095000D01*
X158088571Y-103130714D01*
X158124285Y-103202142D01*
X158124285Y-103273571D01*
X158088571Y-103380714D01*
X157660000Y-103809285D01*
X158124285Y-103809285D01*
X161660000Y-98446428D02*
X161767142Y-98482142D01*
X161802857Y-98517857D01*
X161838571Y-98589285D01*
X161838571Y-98696428D01*
X161802857Y-98767857D01*
X161767142Y-98803571D01*
X161695714Y-98839285D01*
X161410000Y-98839285D01*
X161410000Y-98089285D01*
X161660000Y-98089285D01*
X161731428Y-98125000D01*
X161767142Y-98160714D01*
X161802857Y-98232142D01*
X161802857Y-98303571D01*
X161767142Y-98375000D01*
X161731428Y-98410714D01*
X161660000Y-98446428D01*
X161410000Y-98446428D01*
X162160000Y-98839285D02*
X162160000Y-98339285D01*
X162160000Y-98482142D02*
X162195714Y-98410714D01*
X162231428Y-98375000D01*
X162302857Y-98339285D01*
X162374285Y-98339285D01*
X162731428Y-98839285D02*
X162660000Y-98803571D01*
X162624285Y-98767857D01*
X162588571Y-98696428D01*
X162588571Y-98482142D01*
X162624285Y-98410714D01*
X162660000Y-98375000D01*
X162731428Y-98339285D01*
X162838571Y-98339285D01*
X162910000Y-98375000D01*
X162945714Y-98410714D01*
X162981428Y-98482142D01*
X162981428Y-98696428D01*
X162945714Y-98767857D01*
X162910000Y-98803571D01*
X162838571Y-98839285D01*
X162731428Y-98839285D01*
X163231428Y-98339285D02*
X163374285Y-98839285D01*
X163517142Y-98482142D01*
X163660000Y-98839285D01*
X163802857Y-98339285D01*
X164088571Y-98339285D02*
X164088571Y-98839285D01*
X164088571Y-98410714D02*
X164124285Y-98375000D01*
X164195714Y-98339285D01*
X164302857Y-98339285D01*
X164374285Y-98375000D01*
X164410000Y-98446428D01*
X164410000Y-98839285D01*
D12*
X124333690Y-98288095D02*
X123833690Y-98288095D01*
X123833690Y-98097619D01*
X123857500Y-98050000D01*
X123881309Y-98026190D01*
X123928928Y-98002380D01*
X124000357Y-98002380D01*
X124047976Y-98026190D01*
X124071785Y-98050000D01*
X124095595Y-98097619D01*
X124095595Y-98288095D01*
X124333690Y-97716666D02*
X124309880Y-97764285D01*
X124286071Y-97788095D01*
X124238452Y-97811904D01*
X124095595Y-97811904D01*
X124047976Y-97788095D01*
X124024166Y-97764285D01*
X124000357Y-97716666D01*
X124000357Y-97645238D01*
X124024166Y-97597619D01*
X124047976Y-97573809D01*
X124095595Y-97550000D01*
X124238452Y-97550000D01*
X124286071Y-97573809D01*
X124309880Y-97597619D01*
X124333690Y-97645238D01*
X124333690Y-97716666D01*
X124000357Y-97383333D02*
X124333690Y-97288095D01*
X124095595Y-97192857D01*
X124333690Y-97097619D01*
X124000357Y-97002380D01*
X124309880Y-96621428D02*
X124333690Y-96669047D01*
X124333690Y-96764285D01*
X124309880Y-96811904D01*
X124262261Y-96835714D01*
X124071785Y-96835714D01*
X124024166Y-96811904D01*
X124000357Y-96764285D01*
X124000357Y-96669047D01*
X124024166Y-96621428D01*
X124071785Y-96597619D01*
X124119404Y-96597619D01*
X124167023Y-96835714D01*
X124333690Y-96383333D02*
X124000357Y-96383333D01*
X124095595Y-96383333D02*
X124047976Y-96359523D01*
X124024166Y-96335714D01*
X124000357Y-96288095D01*
X124000357Y-96240476D01*
X125138690Y-97621428D02*
X125138690Y-97859523D01*
X124638690Y-97859523D01*
X124876785Y-97454761D02*
X124876785Y-97288095D01*
X125138690Y-97216666D02*
X125138690Y-97454761D01*
X124638690Y-97454761D01*
X124638690Y-97216666D01*
X125138690Y-97002380D02*
X124638690Y-97002380D01*
X124638690Y-96883333D01*
X124662500Y-96811904D01*
X124710119Y-96764285D01*
X124757738Y-96740476D01*
X124852976Y-96716666D01*
X124924404Y-96716666D01*
X125019642Y-96740476D01*
X125067261Y-96764285D01*
X125114880Y-96811904D01*
X125138690Y-96883333D01*
X125138690Y-97002380D01*
D10*
X152660000Y-105259285D02*
X153124285Y-105259285D01*
X152874285Y-105545000D01*
X152981428Y-105545000D01*
X153052857Y-105580714D01*
X153088571Y-105616428D01*
X153124285Y-105687857D01*
X153124285Y-105866428D01*
X153088571Y-105937857D01*
X153052857Y-105973571D01*
X152981428Y-106009285D01*
X152767142Y-106009285D01*
X152695714Y-105973571D01*
X152660000Y-105937857D01*
X147267142Y-109875000D02*
X147195714Y-109839285D01*
X147088571Y-109839285D01*
X146981428Y-109875000D01*
X146910000Y-109946428D01*
X146874285Y-110017857D01*
X146838571Y-110160714D01*
X146838571Y-110267857D01*
X146874285Y-110410714D01*
X146910000Y-110482142D01*
X146981428Y-110553571D01*
X147088571Y-110589285D01*
X147160000Y-110589285D01*
X147267142Y-110553571D01*
X147302857Y-110517857D01*
X147302857Y-110267857D01*
X147160000Y-110267857D01*
X147624285Y-110589285D02*
X147624285Y-110089285D01*
X147624285Y-110232142D02*
X147660000Y-110160714D01*
X147695714Y-110125000D01*
X147767142Y-110089285D01*
X147838571Y-110089285D01*
X148374285Y-110553571D02*
X148302857Y-110589285D01*
X148160000Y-110589285D01*
X148088571Y-110553571D01*
X148052857Y-110482142D01*
X148052857Y-110196428D01*
X148088571Y-110125000D01*
X148160000Y-110089285D01*
X148302857Y-110089285D01*
X148374285Y-110125000D01*
X148410000Y-110196428D01*
X148410000Y-110267857D01*
X148052857Y-110339285D01*
X148660000Y-110089285D02*
X148838571Y-110589285D01*
X149017142Y-110089285D02*
X148838571Y-110589285D01*
X148767142Y-110767857D01*
X148731428Y-110803571D01*
X148660000Y-110839285D01*
X152052857Y-98446428D02*
X152160000Y-98482142D01*
X152195714Y-98517857D01*
X152231428Y-98589285D01*
X152231428Y-98696428D01*
X152195714Y-98767857D01*
X152160000Y-98803571D01*
X152088571Y-98839285D01*
X151802857Y-98839285D01*
X151802857Y-98089285D01*
X152052857Y-98089285D01*
X152124285Y-98125000D01*
X152160000Y-98160714D01*
X152195714Y-98232142D01*
X152195714Y-98303571D01*
X152160000Y-98375000D01*
X152124285Y-98410714D01*
X152052857Y-98446428D01*
X151802857Y-98446428D01*
X152660000Y-98839285D02*
X152588571Y-98803571D01*
X152552857Y-98732142D01*
X152552857Y-98089285D01*
X153267142Y-98839285D02*
X153267142Y-98446428D01*
X153231428Y-98375000D01*
X153160000Y-98339285D01*
X153017142Y-98339285D01*
X152945714Y-98375000D01*
X153267142Y-98803571D02*
X153195714Y-98839285D01*
X153017142Y-98839285D01*
X152945714Y-98803571D01*
X152910000Y-98732142D01*
X152910000Y-98660714D01*
X152945714Y-98589285D01*
X153017142Y-98553571D01*
X153195714Y-98553571D01*
X153267142Y-98517857D01*
X153945714Y-98803571D02*
X153874285Y-98839285D01*
X153731428Y-98839285D01*
X153660000Y-98803571D01*
X153624285Y-98767857D01*
X153588571Y-98696428D01*
X153588571Y-98482142D01*
X153624285Y-98410714D01*
X153660000Y-98375000D01*
X153731428Y-98339285D01*
X153874285Y-98339285D01*
X153945714Y-98375000D01*
X154267142Y-98839285D02*
X154267142Y-98089285D01*
X154338571Y-98553571D02*
X154552857Y-98839285D01*
X154552857Y-98339285D02*
X154267142Y-98625000D01*
D13*
X152477857Y-103095000D02*
X152406428Y-103059285D01*
X152299285Y-103059285D01*
X152192142Y-103095000D01*
X152120714Y-103166428D01*
X152085000Y-103237857D01*
X152049285Y-103380714D01*
X152049285Y-103487857D01*
X152085000Y-103630714D01*
X152120714Y-103702142D01*
X152192142Y-103773571D01*
X152299285Y-103809285D01*
X152370714Y-103809285D01*
X152477857Y-103773571D01*
X152513571Y-103737857D01*
X152513571Y-103487857D01*
X152370714Y-103487857D01*
X152835000Y-103309285D02*
X152835000Y-103809285D01*
X152835000Y-103380714D02*
X152870714Y-103345000D01*
X152942142Y-103309285D01*
X153049285Y-103309285D01*
X153120714Y-103345000D01*
X153156428Y-103416428D01*
X153156428Y-103809285D01*
X153835000Y-103809285D02*
X153835000Y-103059285D01*
X153835000Y-103773571D02*
X153763571Y-103809285D01*
X153620714Y-103809285D01*
X153549285Y-103773571D01*
X153513571Y-103737857D01*
X153477857Y-103666428D01*
X153477857Y-103452142D01*
X153513571Y-103380714D01*
X153549285Y-103345000D01*
X153620714Y-103309285D01*
X153763571Y-103309285D01*
X153835000Y-103345000D01*
D14*
%TO.C,R1*%
X127525000Y-97527064D02*
X127525000Y-97072936D01*
X128995000Y-97527064D02*
X128995000Y-97072936D01*
%TO.C,D1*%
X126995000Y-97527064D02*
X126995000Y-97072936D01*
X125525000Y-97527064D02*
X125525000Y-97072936D01*
%TD*%
%LPC*%
D15*
%TO.C,R1*%
X128260000Y-98212500D03*
X128260000Y-96387500D03*
%TD*%
D16*
%TO.C,J3*%
X131570000Y-95500000D03*
X132840000Y-95500000D03*
X137920000Y-95500000D03*
X139190000Y-95500000D03*
%TD*%
D17*
%TO.C,J5*%
X168310000Y-103550000D03*
D18*
X168310000Y-108090000D03*
%TD*%
D19*
%TO.C,J4*%
X147910000Y-108000000D03*
X147910000Y-101000000D03*
X152910000Y-108000000D03*
X152910000Y-101000000D03*
X157910000Y-108000000D03*
X157910000Y-101000000D03*
X162910000Y-108000000D03*
X162910000Y-101000000D03*
%TD*%
D15*
%TO.C,D1*%
X126260000Y-98212500D03*
X126260000Y-96387500D03*
%TD*%
D16*
%TO.C,J1*%
X131570000Y-99050000D03*
X134110000Y-99050000D03*
X139190000Y-99050000D03*
X140460000Y-99050000D03*
%TD*%
M02*
