%TF.GenerationSoftware,KiCad,Pcbnew,(6.0.1)*%
%TF.CreationDate,2022-03-09T13:14:17-07:00*%
%TF.ProjectId,MShaw_4gbNandExtensionQSB_V2.6,4d536861-775f-4346-9762-4e616e644578,rev?*%
%TF.SameCoordinates,Original*%
%TF.FileFunction,Copper,L1,Top*%
%TF.FilePolarity,Positive*%
%FSLAX46Y46*%
G04 Gerber Fmt 4.6, Leading zero omitted, Abs format (unit mm)*
G04 Created by KiCad (PCBNEW (6.0.1)) date 2022-03-09 13:14:17*
%MOMM*%
%LPD*%
G01*
G04 APERTURE LIST*
G04 Aperture macros list*
%AMRoundRect*
0 Rectangle with rounded corners*
0 $1 Rounding radius*
0 $2 $3 $4 $5 $6 $7 $8 $9 X,Y pos of 4 corners*
0 Add a 4 corners polygon primitive as box body*
4,1,4,$2,$3,$4,$5,$6,$7,$8,$9,$2,$3,0*
0 Add four circle primitives for the rounded corners*
1,1,$1+$1,$2,$3*
1,1,$1+$1,$4,$5*
1,1,$1+$1,$6,$7*
1,1,$1+$1,$8,$9*
0 Add four rect primitives between the rounded corners*
20,1,$1+$1,$2,$3,$4,$5,0*
20,1,$1+$1,$4,$5,$6,$7,0*
20,1,$1+$1,$6,$7,$8,$9,0*
20,1,$1+$1,$8,$9,$2,$3,0*%
G04 Aperture macros list end*
%TA.AperFunction,SMDPad,CuDef*%
%ADD10RoundRect,0.250000X0.450000X-0.262500X0.450000X0.262500X-0.450000X0.262500X-0.450000X-0.262500X0*%
%TD*%
%TA.AperFunction,ComponentPad*%
%ADD11RoundRect,0.250000X0.250000X-0.750000X0.250000X0.750000X-0.250000X0.750000X-0.250000X-0.750000X0*%
%TD*%
%TA.AperFunction,SMDPad,CuDef*%
%ADD12RoundRect,0.750000X-0.750000X-0.750000X0.750000X-0.750000X0.750000X0.750000X-0.750000X0.750000X0*%
%TD*%
%TA.AperFunction,SMDPad,CuDef*%
%ADD13RoundRect,0.500000X-0.500000X-0.500000X0.500000X-0.500000X0.500000X0.500000X-0.500000X0.500000X0*%
%TD*%
%TA.AperFunction,SMDPad,CuDef*%
%ADD14RoundRect,0.750000X0.750000X-0.750000X0.750000X0.750000X-0.750000X0.750000X-0.750000X-0.750000X0*%
%TD*%
%TA.AperFunction,ViaPad*%
%ADD15C,0.800000*%
%TD*%
%TA.AperFunction,Conductor*%
%ADD16C,0.250000*%
%TD*%
%TA.AperFunction,Conductor*%
%ADD17C,1.000000*%
%TD*%
G04 APERTURE END LIST*
D10*
%TO.P,R1,1*%
%TO.N,Net-(D1-Pad2)*%
X128260000Y-98212500D03*
%TO.P,R1,2*%
%TO.N,+5V*%
X128260000Y-96387500D03*
%TD*%
D11*
%TO.P,J3,1,Pin_1*%
%TO.N,+5V*%
X131570000Y-95500000D03*
%TO.P,J3,2,Pin_2*%
%TO.N,Net-(J2-Pad3)*%
X132840000Y-95500000D03*
%TO.P,J3,6,Pin_6*%
%TO.N,Net-(J2-Pad2)*%
X137920000Y-95500000D03*
%TO.P,J3,7,Pin_7*%
%TO.N,Net-(J2-Pad8)*%
X139190000Y-95500000D03*
%TD*%
D12*
%TO.P,J5,1,Pin_1*%
%TO.N,Net-(J5-Pad1)*%
X168310000Y-103550000D03*
D13*
%TO.P,J5,2,Pin_2*%
X168310000Y-108090000D03*
%TD*%
D14*
%TO.P,J4,1,Pin_1*%
%TO.N,Net-(J1-Pad7)*%
X147910000Y-108000000D03*
%TO.P,J4,2,Pin_2*%
%TO.N,Net-(J2-Pad2)*%
X147910000Y-101000000D03*
%TO.P,J4,3,Pin_3*%
%TO.N,Net-(J2-Pad3)*%
X152910000Y-108000000D03*
%TO.P,J4,4,Pin_4*%
%TO.N,GND*%
X152910000Y-101000000D03*
%TO.P,J4,5,Pin_5*%
%TO.N,+5V*%
X157910000Y-108000000D03*
%TO.P,J4,6,Pin_6*%
%TO.N,Net-(J1-Pad1)*%
X157910000Y-101000000D03*
%TO.P,J4,7,Pin_7*%
%TO.N,Net-(J1-Pad8)*%
X162910000Y-108000000D03*
%TO.P,J4,8,Pin_8*%
%TO.N,Net-(J2-Pad8)*%
X162910000Y-101000000D03*
%TD*%
D10*
%TO.P,D1,1,K*%
%TO.N,GND*%
X126260000Y-98212500D03*
%TO.P,D1,2,A*%
%TO.N,Net-(D1-Pad2)*%
X126260000Y-96387500D03*
%TD*%
D11*
%TO.P,J1,1,Pin_1*%
%TO.N,Net-(J1-Pad1)*%
X131570000Y-99050000D03*
%TO.P,J1,3,Pin_3*%
%TO.N,GND*%
X134110000Y-99050000D03*
%TO.P,J1,7,Pin_7*%
%TO.N,Net-(J1-Pad7)*%
X139190000Y-99050000D03*
%TO.P,J1,8,Pin_8*%
%TO.N,Net-(J1-Pad8)*%
X140460000Y-99050000D03*
%TD*%
D15*
%TO.N,GND*%
X124760000Y-98300000D03*
X150380000Y-108740000D03*
X157850000Y-97170000D03*
X149450000Y-103070000D03*
X166100000Y-105920000D03*
X155350000Y-105420000D03*
%TO.N,Net-(J2-Pad2)*%
X145760000Y-99800000D03*
%TO.N,Net-(J2-Pad3)*%
X151910000Y-104640000D03*
%TO.N,Net-(J1-Pad8)*%
X160410000Y-108000000D03*
%TD*%
D16*
%TO.N,+5V*%
X131570000Y-96540000D02*
X131570000Y-96042494D01*
X128760000Y-96387500D02*
X129172500Y-96800000D01*
X159265080Y-99055480D02*
X160270000Y-100060400D01*
X143561916Y-99055480D02*
X159265080Y-99055480D01*
X132353946Y-96826440D02*
X141332875Y-96826440D01*
X131570000Y-96042494D02*
X132353946Y-96826440D01*
X129172500Y-96800000D02*
X131310000Y-96800000D01*
X160270000Y-105680000D02*
X158070000Y-107880000D01*
X141332875Y-96826440D02*
X143561916Y-99055480D01*
X160270000Y-100060400D02*
X160270000Y-105680000D01*
X131310000Y-96800000D02*
X131570000Y-96540000D01*
%TO.N,GND*%
X124760000Y-98300000D02*
X126172500Y-98300000D01*
X151000000Y-102950000D02*
X149610000Y-102950000D01*
X126172500Y-98300000D02*
X126260000Y-98212500D01*
X153070000Y-100880000D02*
X151000000Y-102950000D01*
%TO.N,Net-(J2-Pad8)*%
X142101077Y-96958923D02*
X143748114Y-98605960D01*
X139190000Y-95675020D02*
X139460020Y-95675020D01*
X143748114Y-98605960D02*
X160795960Y-98605960D01*
X139460020Y-95675020D02*
X140035000Y-96250000D01*
X160795960Y-98605960D02*
X163070000Y-100880000D01*
X141392153Y-96250000D02*
X142101077Y-96958923D01*
X140035000Y-96250000D02*
X141392153Y-96250000D01*
%TO.N,Net-(J1-Pad7)*%
X139766254Y-97931254D02*
X139190000Y-98507507D01*
X145820000Y-102590000D02*
X145820000Y-105630000D01*
X145820000Y-105630000D02*
X148070000Y-107880000D01*
X140960480Y-97725480D02*
X141683802Y-98448802D01*
X139766254Y-97931254D02*
X139972028Y-97725480D01*
X141683802Y-98448802D02*
X141683802Y-98453802D01*
X139972028Y-97725480D02*
X140960480Y-97725480D01*
X139972027Y-97725480D02*
X139766254Y-97931254D01*
X141683802Y-98453802D02*
X145820000Y-102590000D01*
%TO.N,Net-(J2-Pad2)*%
X146710000Y-99800000D02*
X145760000Y-99800000D01*
X147910000Y-101000000D02*
X146710000Y-99800000D01*
%TO.N,Net-(J2-Pad3)*%
X152070000Y-106880000D02*
X152070000Y-104520000D01*
X153070000Y-107880000D02*
X152070000Y-106880000D01*
%TO.N,Net-(J1-Pad8)*%
X160570000Y-107880000D02*
X163070000Y-107880000D01*
%TO.N,Net-(J1-Pad1)*%
X158070000Y-100880000D02*
X155250000Y-103700000D01*
X132769500Y-97725480D02*
X131570000Y-98924980D01*
X147565718Y-103700000D02*
X145352859Y-101487141D01*
X145352859Y-101482141D02*
X141146678Y-97275960D01*
X155250000Y-103700000D02*
X147565718Y-103700000D01*
X141146678Y-97275960D02*
X138784040Y-97275960D01*
X138334520Y-97725480D02*
X132769500Y-97725480D01*
X145352859Y-101487141D02*
X145352859Y-101482141D01*
X138784040Y-97275960D02*
X138334520Y-97725480D01*
%TO.N,Net-(D1-Pad2)*%
X126460000Y-97300000D02*
X126260000Y-97100000D01*
X128260000Y-98212500D02*
X128260000Y-97600000D01*
X127960000Y-97300000D02*
X126460000Y-97300000D01*
X126260000Y-97100000D02*
X126260000Y-96387500D01*
X128260000Y-97600000D02*
X127960000Y-97300000D01*
D17*
%TO.N,Net-(J5-Pad1)*%
X168470000Y-103430000D02*
X168470000Y-107970000D01*
%TD*%
%TA.AperFunction,Conductor*%
%TO.N,GND*%
G36*
X164768518Y-98028002D02*
G01*
X164786294Y-98041817D01*
X166751780Y-99873293D01*
X166756158Y-99877872D01*
X166759160Y-99882631D01*
X166765888Y-99888573D01*
X166808501Y-99926207D01*
X166810992Y-99928467D01*
X166830370Y-99946524D01*
X166834049Y-99949084D01*
X166835980Y-99950642D01*
X166840254Y-99954251D01*
X166856472Y-99968573D01*
X166868228Y-99978956D01*
X166876352Y-99982770D01*
X166876353Y-99982771D01*
X166879716Y-99984350D01*
X166885500Y-99987065D01*
X166903905Y-99997687D01*
X166919570Y-100008586D01*
X166928081Y-100011439D01*
X166928082Y-100011439D01*
X166953787Y-100020054D01*
X166967287Y-100025465D01*
X166999948Y-100040799D01*
X167018800Y-100043734D01*
X167039453Y-100048765D01*
X167049028Y-100051974D01*
X167049030Y-100051974D01*
X167057541Y-100054827D01*
X167076961Y-100055583D01*
X167093600Y-100056231D01*
X167100757Y-100056925D01*
X167100761Y-100056876D01*
X167105613Y-100057251D01*
X167110423Y-100058000D01*
X167136611Y-100058000D01*
X167141511Y-100058095D01*
X167193975Y-100060137D01*
X167193976Y-100060137D01*
X167202946Y-100060486D01*
X167210725Y-100058536D01*
X167221097Y-100058000D01*
X173647389Y-100058000D01*
X173715510Y-100078002D01*
X173736485Y-100094905D01*
X174365096Y-100723517D01*
X174399121Y-100785829D01*
X174402000Y-100812612D01*
X174402000Y-109787388D01*
X174381998Y-109855509D01*
X174365096Y-109876483D01*
X173736485Y-110505095D01*
X173674172Y-110539120D01*
X173647389Y-110542000D01*
X167022070Y-110542000D01*
X167010375Y-110541456D01*
X167006361Y-110541082D01*
X166997632Y-110538990D01*
X166988670Y-110539432D01*
X166988667Y-110539432D01*
X166939736Y-110541847D01*
X166933526Y-110542000D01*
X166913523Y-110542000D01*
X166909087Y-110542635D01*
X166909076Y-110542636D01*
X166907171Y-110542909D01*
X166895520Y-110544029D01*
X166852295Y-110546162D01*
X166841100Y-110550044D01*
X166817680Y-110555726D01*
X166805955Y-110557405D01*
X166797781Y-110561121D01*
X166797779Y-110561122D01*
X166766572Y-110575311D01*
X166755703Y-110579656D01*
X166723291Y-110590895D01*
X166723289Y-110590896D01*
X166714811Y-110593836D01*
X166707497Y-110599038D01*
X166707496Y-110599039D01*
X166705154Y-110600705D01*
X166684281Y-110612726D01*
X166673490Y-110617633D01*
X166666689Y-110623493D01*
X166640702Y-110645884D01*
X166631497Y-110653098D01*
X166627682Y-110655812D01*
X166627678Y-110655815D01*
X166623703Y-110658643D01*
X166609811Y-110672188D01*
X166604106Y-110677417D01*
X166570055Y-110706757D01*
X166570051Y-110706762D01*
X166563253Y-110712619D01*
X166558372Y-110720149D01*
X166552469Y-110726916D01*
X166552090Y-110726585D01*
X166544414Y-110735949D01*
X165697623Y-111561571D01*
X164781188Y-112455096D01*
X164780039Y-112456216D01*
X164717301Y-112489450D01*
X164692078Y-112492000D01*
X159680940Y-112492000D01*
X159674645Y-112491636D01*
X159669217Y-112490204D01*
X159627018Y-112491327D01*
X159603419Y-112491955D01*
X159600067Y-112492000D01*
X159573523Y-112492000D01*
X159569081Y-112492636D01*
X159566657Y-112492809D01*
X159561063Y-112493082D01*
X159541909Y-112493592D01*
X159532730Y-112493836D01*
X159532729Y-112493836D01*
X159523754Y-112494075D01*
X159505565Y-112499923D01*
X159484862Y-112504697D01*
X159474839Y-112506132D01*
X159474835Y-112506133D01*
X159465955Y-112507405D01*
X159457789Y-112511118D01*
X159457785Y-112511119D01*
X159433137Y-112522326D01*
X159419556Y-112527577D01*
X159412198Y-112529943D01*
X159385224Y-112538616D01*
X159369405Y-112549336D01*
X159350875Y-112559729D01*
X159333490Y-112567633D01*
X159326692Y-112573490D01*
X159326691Y-112573491D01*
X159306168Y-112591175D01*
X159300466Y-112595540D01*
X159300498Y-112595581D01*
X159296707Y-112598602D01*
X159292668Y-112601339D01*
X159289103Y-112604661D01*
X159289096Y-112604666D01*
X159273481Y-112619214D01*
X159269844Y-112622473D01*
X159223253Y-112662619D01*
X159218899Y-112669336D01*
X159211692Y-112676782D01*
X157865627Y-113930880D01*
X157802151Y-113962681D01*
X157731559Y-113955116D01*
X157676263Y-113910587D01*
X157661012Y-113880886D01*
X157597504Y-113702194D01*
X157596064Y-113698141D01*
X157469683Y-113454238D01*
X157311268Y-113229814D01*
X157308329Y-113226667D01*
X157126706Y-113032196D01*
X157126701Y-113032191D01*
X157123769Y-113029052D01*
X156910680Y-112855691D01*
X156675969Y-112712961D01*
X156672022Y-112711247D01*
X156672019Y-112711245D01*
X156427961Y-112605235D01*
X156427959Y-112605234D01*
X156424010Y-112603519D01*
X156419869Y-112602359D01*
X156419867Y-112602358D01*
X156282676Y-112563919D01*
X156159494Y-112529405D01*
X155887351Y-112492000D01*
X155612649Y-112492000D01*
X155340506Y-112529405D01*
X155217324Y-112563919D01*
X155080133Y-112602358D01*
X155080131Y-112602359D01*
X155075990Y-112603519D01*
X155072041Y-112605234D01*
X155072039Y-112605235D01*
X154827981Y-112711245D01*
X154827978Y-112711247D01*
X154824031Y-112712961D01*
X154589320Y-112855691D01*
X154376231Y-113029052D01*
X154373299Y-113032191D01*
X154373294Y-113032196D01*
X154191671Y-113226667D01*
X154188732Y-113229814D01*
X154030317Y-113454238D01*
X153903936Y-113698141D01*
X153902496Y-113702194D01*
X153838988Y-113880886D01*
X153797328Y-113938375D01*
X153731201Y-113964215D01*
X153661601Y-113950202D01*
X153634373Y-113930880D01*
X152477936Y-112853455D01*
X152288200Y-112676682D01*
X152283836Y-112672118D01*
X152280840Y-112667369D01*
X152231443Y-112623743D01*
X152228983Y-112621511D01*
X152228302Y-112620876D01*
X152209600Y-112603452D01*
X152205917Y-112600890D01*
X152204038Y-112599374D01*
X152199749Y-112595753D01*
X152171772Y-112571044D01*
X152154475Y-112562923D01*
X152136078Y-112552306D01*
X152120396Y-112541397D01*
X152086196Y-112529937D01*
X152072699Y-112524529D01*
X152040052Y-112509201D01*
X152031179Y-112507820D01*
X152031177Y-112507819D01*
X152021181Y-112506263D01*
X152000538Y-112501237D01*
X151982421Y-112495166D01*
X151973452Y-112494818D01*
X151973449Y-112494817D01*
X151946389Y-112493766D01*
X151939241Y-112493073D01*
X151939237Y-112493124D01*
X151934389Y-112492749D01*
X151929577Y-112492000D01*
X151903359Y-112492000D01*
X151898468Y-112491905D01*
X151845987Y-112489866D01*
X151845984Y-112489866D01*
X151837016Y-112489518D01*
X151829251Y-112491465D01*
X151818908Y-112492000D01*
X146772612Y-112492000D01*
X146704491Y-112471998D01*
X146683517Y-112455096D01*
X146054905Y-111826485D01*
X146020880Y-111764172D01*
X146018000Y-111737389D01*
X146018000Y-109692097D01*
X146038002Y-109623976D01*
X146091658Y-109577483D01*
X146161932Y-109567379D01*
X146226512Y-109596873D01*
X146233095Y-109603002D01*
X146349473Y-109719380D01*
X146533945Y-109847591D01*
X146738206Y-109941110D01*
X146955800Y-109996978D01*
X147009705Y-110001362D01*
X147094908Y-110008293D01*
X147094918Y-110008293D01*
X147097458Y-110008500D01*
X148722542Y-110008500D01*
X148725082Y-110008293D01*
X148725092Y-110008293D01*
X148810295Y-110001362D01*
X148864200Y-109996978D01*
X149081794Y-109941110D01*
X149286055Y-109847591D01*
X149470527Y-109719380D01*
X149629380Y-109560527D01*
X149757591Y-109376055D01*
X149851110Y-109171794D01*
X149906978Y-108954200D01*
X149915514Y-108849251D01*
X149918293Y-108815092D01*
X149918293Y-108815082D01*
X149918500Y-108812542D01*
X149918500Y-107187458D01*
X149915811Y-107154391D01*
X149908945Y-107069987D01*
X149906978Y-107045800D01*
X149851110Y-106828206D01*
X149757591Y-106623945D01*
X149629380Y-106439473D01*
X149470527Y-106280620D01*
X149286055Y-106152409D01*
X149081794Y-106058890D01*
X148864200Y-106003022D01*
X148810295Y-105998638D01*
X148725092Y-105991707D01*
X148725082Y-105991707D01*
X148722542Y-105991500D01*
X147129595Y-105991500D01*
X147061474Y-105971498D01*
X147040500Y-105954595D01*
X146490405Y-105404500D01*
X146456379Y-105342188D01*
X146453500Y-105315405D01*
X146453500Y-103787876D01*
X146473502Y-103719755D01*
X146527158Y-103673262D01*
X146597432Y-103663158D01*
X146662012Y-103692652D01*
X146668595Y-103698781D01*
X147062061Y-104092247D01*
X147069605Y-104100537D01*
X147073718Y-104107018D01*
X147079495Y-104112443D01*
X147123385Y-104153658D01*
X147126227Y-104156413D01*
X147145948Y-104176134D01*
X147149143Y-104178612D01*
X147158165Y-104186318D01*
X147190397Y-104216586D01*
X147197346Y-104220406D01*
X147208150Y-104226346D01*
X147224674Y-104237199D01*
X147240677Y-104249613D01*
X147281261Y-104267176D01*
X147291891Y-104272383D01*
X147330658Y-104293695D01*
X147338335Y-104295666D01*
X147338340Y-104295668D01*
X147350276Y-104298732D01*
X147368984Y-104305137D01*
X147387573Y-104313181D01*
X147395401Y-104314421D01*
X147395408Y-104314423D01*
X147431242Y-104320099D01*
X147442862Y-104322505D01*
X147474677Y-104330673D01*
X147485688Y-104333500D01*
X147505942Y-104333500D01*
X147525652Y-104335051D01*
X147545661Y-104338220D01*
X147553553Y-104337474D01*
X147572298Y-104335702D01*
X147589680Y-104334059D01*
X147601537Y-104333500D01*
X150888773Y-104333500D01*
X150956894Y-104353502D01*
X151003387Y-104407158D01*
X151014083Y-104472670D01*
X150996496Y-104640000D01*
X151016458Y-104829928D01*
X151075473Y-105011556D01*
X151170960Y-105176944D01*
X151298747Y-105318866D01*
X151330847Y-105342188D01*
X151384561Y-105381214D01*
X151427915Y-105437437D01*
X151436500Y-105483150D01*
X151436500Y-106154263D01*
X151416498Y-106222384D01*
X151382410Y-106257728D01*
X151354081Y-106277417D01*
X151354080Y-106277418D01*
X151349473Y-106280620D01*
X151190620Y-106439473D01*
X151062409Y-106623945D01*
X150968890Y-106828206D01*
X150913022Y-107045800D01*
X150911055Y-107069987D01*
X150904190Y-107154391D01*
X150901500Y-107187458D01*
X150901500Y-108812542D01*
X150901707Y-108815082D01*
X150901707Y-108815092D01*
X150904486Y-108849251D01*
X150913022Y-108954200D01*
X150968890Y-109171794D01*
X151062409Y-109376055D01*
X151190620Y-109560527D01*
X151349473Y-109719380D01*
X151533945Y-109847591D01*
X151738206Y-109941110D01*
X151955800Y-109996978D01*
X152009705Y-110001362D01*
X152094908Y-110008293D01*
X152094918Y-110008293D01*
X152097458Y-110008500D01*
X153722542Y-110008500D01*
X153725082Y-110008293D01*
X153725092Y-110008293D01*
X153810295Y-110001362D01*
X153864200Y-109996978D01*
X154081794Y-109941110D01*
X154286055Y-109847591D01*
X154470527Y-109719380D01*
X154629380Y-109560527D01*
X154757591Y-109376055D01*
X154851110Y-109171794D01*
X154906978Y-108954200D01*
X154915514Y-108849251D01*
X154918293Y-108815092D01*
X154918293Y-108815082D01*
X154918500Y-108812542D01*
X154918500Y-107187458D01*
X154915811Y-107154391D01*
X154908945Y-107069987D01*
X154906978Y-107045800D01*
X154851110Y-106828206D01*
X154757591Y-106623945D01*
X154629380Y-106439473D01*
X154470527Y-106280620D01*
X154286055Y-106152409D01*
X154081794Y-106058890D01*
X153864200Y-106003022D01*
X153810295Y-105998638D01*
X153725092Y-105991707D01*
X153725082Y-105991707D01*
X153722542Y-105991500D01*
X152829500Y-105991500D01*
X152761379Y-105971498D01*
X152714886Y-105917842D01*
X152703500Y-105865500D01*
X152703500Y-105116378D01*
X152720381Y-105053378D01*
X152741223Y-105017279D01*
X152741224Y-105017278D01*
X152744527Y-105011556D01*
X152803542Y-104829928D01*
X152823504Y-104640000D01*
X152805917Y-104472670D01*
X152818689Y-104402832D01*
X152867191Y-104350985D01*
X152931227Y-104333500D01*
X155171233Y-104333500D01*
X155182416Y-104334027D01*
X155189909Y-104335702D01*
X155197835Y-104335453D01*
X155197836Y-104335453D01*
X155257986Y-104333562D01*
X155261945Y-104333500D01*
X155289856Y-104333500D01*
X155293791Y-104333003D01*
X155293856Y-104332995D01*
X155305693Y-104332062D01*
X155337951Y-104331048D01*
X155341970Y-104330922D01*
X155349889Y-104330673D01*
X155369343Y-104325021D01*
X155388700Y-104321013D01*
X155400930Y-104319468D01*
X155400931Y-104319468D01*
X155408797Y-104318474D01*
X155416168Y-104315555D01*
X155416170Y-104315555D01*
X155449912Y-104302196D01*
X155461142Y-104298351D01*
X155495983Y-104288229D01*
X155495984Y-104288229D01*
X155503593Y-104286018D01*
X155510412Y-104281985D01*
X155510417Y-104281983D01*
X155521028Y-104275707D01*
X155538776Y-104267012D01*
X155557617Y-104259552D01*
X155577987Y-104244753D01*
X155593387Y-104233564D01*
X155603307Y-104227048D01*
X155634535Y-104208580D01*
X155634538Y-104208578D01*
X155641362Y-104204542D01*
X155655683Y-104190221D01*
X155670717Y-104177380D01*
X155672432Y-104176134D01*
X155687107Y-104165472D01*
X155715298Y-104131395D01*
X155723288Y-104122616D01*
X156819941Y-103025963D01*
X156882253Y-102991937D01*
X156940373Y-102993017D01*
X156950611Y-102995646D01*
X156950614Y-102995647D01*
X156955800Y-102996978D01*
X157034803Y-103003404D01*
X157094908Y-103008293D01*
X157094918Y-103008293D01*
X157097458Y-103008500D01*
X158722542Y-103008500D01*
X158725082Y-103008293D01*
X158725092Y-103008293D01*
X158810295Y-103001362D01*
X158864200Y-102996978D01*
X158879628Y-102993017D01*
X159076361Y-102942505D01*
X159076362Y-102942505D01*
X159081794Y-102941110D01*
X159286055Y-102847591D01*
X159438589Y-102741577D01*
X159505943Y-102719124D01*
X159574743Y-102736650D01*
X159623146Y-102788589D01*
X159636500Y-102845042D01*
X159636500Y-105365406D01*
X159616498Y-105433527D01*
X159599595Y-105454501D01*
X159063715Y-105990381D01*
X159001403Y-106024407D01*
X158943285Y-106023327D01*
X158869396Y-106004355D01*
X158869384Y-106004353D01*
X158864200Y-106003022D01*
X158785197Y-105996596D01*
X158725092Y-105991707D01*
X158725082Y-105991707D01*
X158722542Y-105991500D01*
X157097458Y-105991500D01*
X157094918Y-105991707D01*
X157094908Y-105991707D01*
X157009705Y-105998638D01*
X156955800Y-106003022D01*
X156738206Y-106058890D01*
X156533945Y-106152409D01*
X156349473Y-106280620D01*
X156190620Y-106439473D01*
X156062409Y-106623945D01*
X155968890Y-106828206D01*
X155913022Y-107045800D01*
X155911055Y-107069987D01*
X155904190Y-107154391D01*
X155901500Y-107187458D01*
X155901500Y-108812542D01*
X155901707Y-108815082D01*
X155901707Y-108815092D01*
X155904486Y-108849251D01*
X155913022Y-108954200D01*
X155968890Y-109171794D01*
X156062409Y-109376055D01*
X156190620Y-109560527D01*
X156349473Y-109719380D01*
X156533945Y-109847591D01*
X156738206Y-109941110D01*
X156955800Y-109996978D01*
X157009705Y-110001362D01*
X157094908Y-110008293D01*
X157094918Y-110008293D01*
X157097458Y-110008500D01*
X158722542Y-110008500D01*
X158725082Y-110008293D01*
X158725092Y-110008293D01*
X158810295Y-110001362D01*
X158864200Y-109996978D01*
X159081794Y-109941110D01*
X159286055Y-109847591D01*
X159470527Y-109719380D01*
X159629380Y-109560527D01*
X159757591Y-109376055D01*
X159851110Y-109171794D01*
X159906978Y-108954200D01*
X159907413Y-108948849D01*
X159908299Y-108943569D01*
X159910719Y-108943975D01*
X159932928Y-108887235D01*
X159990441Y-108845609D01*
X160061329Y-108841685D01*
X160083816Y-108849251D01*
X160121677Y-108866108D01*
X160121685Y-108866111D01*
X160127712Y-108868794D01*
X160209996Y-108886284D01*
X160308056Y-108907128D01*
X160308061Y-108907128D01*
X160314513Y-108908500D01*
X160505487Y-108908500D01*
X160511939Y-108907128D01*
X160511944Y-108907128D01*
X160610004Y-108886284D01*
X160692288Y-108868794D01*
X160698315Y-108866111D01*
X160698323Y-108866108D01*
X160736184Y-108849251D01*
X160806551Y-108839817D01*
X160870848Y-108869924D01*
X160908661Y-108930013D01*
X160911169Y-108943658D01*
X160911701Y-108943569D01*
X160912587Y-108948849D01*
X160913022Y-108954200D01*
X160968890Y-109171794D01*
X161062409Y-109376055D01*
X161190620Y-109560527D01*
X161349473Y-109719380D01*
X161533945Y-109847591D01*
X161738206Y-109941110D01*
X161955800Y-109996978D01*
X162009705Y-110001362D01*
X162094908Y-110008293D01*
X162094918Y-110008293D01*
X162097458Y-110008500D01*
X163722542Y-110008500D01*
X163725082Y-110008293D01*
X163725092Y-110008293D01*
X163810295Y-110001362D01*
X163864200Y-109996978D01*
X164081794Y-109941110D01*
X164286055Y-109847591D01*
X164470527Y-109719380D01*
X164629380Y-109560527D01*
X164757591Y-109376055D01*
X164851110Y-109171794D01*
X164906978Y-108954200D01*
X164915514Y-108849251D01*
X164918293Y-108815092D01*
X164918293Y-108815082D01*
X164918500Y-108812542D01*
X164918500Y-107187458D01*
X164915811Y-107154391D01*
X164908945Y-107069987D01*
X164906978Y-107045800D01*
X164851110Y-106828206D01*
X164757591Y-106623945D01*
X164629380Y-106439473D01*
X164470527Y-106280620D01*
X164286055Y-106152409D01*
X164081794Y-106058890D01*
X163864200Y-106003022D01*
X163810295Y-105998638D01*
X163725092Y-105991707D01*
X163725082Y-105991707D01*
X163722542Y-105991500D01*
X162097458Y-105991500D01*
X162094918Y-105991707D01*
X162094908Y-105991707D01*
X162009705Y-105998638D01*
X161955800Y-106003022D01*
X161738206Y-106058890D01*
X161533945Y-106152409D01*
X161349473Y-106280620D01*
X161190620Y-106439473D01*
X161062409Y-106623945D01*
X160968890Y-106828206D01*
X160913022Y-107045800D01*
X160912587Y-107051151D01*
X160911701Y-107056431D01*
X160909281Y-107056025D01*
X160887072Y-107112765D01*
X160829559Y-107154391D01*
X160758671Y-107158315D01*
X160736184Y-107150749D01*
X160698323Y-107133892D01*
X160698315Y-107133889D01*
X160692288Y-107131206D01*
X160573723Y-107106004D01*
X160511944Y-107092872D01*
X160511939Y-107092872D01*
X160505487Y-107091500D01*
X160314513Y-107091500D01*
X160308061Y-107092872D01*
X160308056Y-107092872D01*
X160246277Y-107106004D01*
X160127712Y-107131206D01*
X160121685Y-107133889D01*
X160121677Y-107133892D01*
X160083816Y-107150749D01*
X160013449Y-107160183D01*
X159949152Y-107130076D01*
X159911339Y-107069987D01*
X159908831Y-107056342D01*
X159908299Y-107056431D01*
X159907413Y-107051150D01*
X159906978Y-107045800D01*
X159905644Y-107040604D01*
X159905642Y-107040591D01*
X159903017Y-107030367D01*
X159905451Y-106959412D01*
X159935964Y-106909941D01*
X160662253Y-106183652D01*
X160670539Y-106176112D01*
X160677018Y-106172000D01*
X160723644Y-106122348D01*
X160726398Y-106119507D01*
X160746135Y-106099770D01*
X160748615Y-106096573D01*
X160756320Y-106087551D01*
X160781159Y-106061100D01*
X160786586Y-106055321D01*
X160790405Y-106048375D01*
X160790407Y-106048372D01*
X160796348Y-106037566D01*
X160807199Y-106021047D01*
X160814758Y-106011301D01*
X160819614Y-106005041D01*
X160822759Y-105997772D01*
X160822762Y-105997768D01*
X160837174Y-105964463D01*
X160842391Y-105953813D01*
X160863695Y-105915060D01*
X160868733Y-105895437D01*
X160875137Y-105876734D01*
X160880033Y-105865420D01*
X160880033Y-105865419D01*
X160883181Y-105858145D01*
X160884420Y-105850322D01*
X160884423Y-105850312D01*
X160890099Y-105814476D01*
X160892505Y-105802856D01*
X160901528Y-105767711D01*
X160901528Y-105767710D01*
X160903500Y-105760030D01*
X160903500Y-105739776D01*
X160905051Y-105720065D01*
X160906980Y-105707886D01*
X160908220Y-105700057D01*
X160904059Y-105656038D01*
X160903500Y-105644181D01*
X160903500Y-104362542D01*
X166301500Y-104362542D01*
X166313022Y-104504200D01*
X166368890Y-104721794D01*
X166462409Y-104926055D01*
X166590620Y-105110527D01*
X166749473Y-105269380D01*
X166854230Y-105342188D01*
X166910382Y-105381214D01*
X166933945Y-105397591D01*
X167138206Y-105491110D01*
X167143638Y-105492505D01*
X167143639Y-105492505D01*
X167350607Y-105545645D01*
X167350611Y-105545646D01*
X167355800Y-105546978D01*
X167357372Y-105547106D01*
X167420217Y-105577603D01*
X167457193Y-105638210D01*
X167461500Y-105670871D01*
X167461500Y-106558604D01*
X167441498Y-106626725D01*
X167383921Y-106674929D01*
X167336815Y-106694537D01*
X167336812Y-106694538D01*
X167331127Y-106696905D01*
X167326008Y-106700332D01*
X167326004Y-106700334D01*
X167171901Y-106803496D01*
X167171896Y-106803500D01*
X167166777Y-106806927D01*
X167026927Y-106946777D01*
X167023500Y-106951896D01*
X167023496Y-106951901D01*
X166920334Y-107106004D01*
X166920332Y-107106008D01*
X166916905Y-107111127D01*
X166840900Y-107293716D01*
X166801808Y-107487592D01*
X166801500Y-107493672D01*
X166801500Y-108686328D01*
X166801808Y-108692408D01*
X166802733Y-108696995D01*
X166802733Y-108696996D01*
X166832699Y-108845609D01*
X166840900Y-108886284D01*
X166916905Y-109068873D01*
X166920332Y-109073992D01*
X166920334Y-109073996D01*
X167023496Y-109228099D01*
X167023500Y-109228104D01*
X167026927Y-109233223D01*
X167166777Y-109373073D01*
X167171896Y-109376500D01*
X167171901Y-109376504D01*
X167326004Y-109479666D01*
X167326008Y-109479668D01*
X167331127Y-109483095D01*
X167513716Y-109559100D01*
X167519752Y-109560317D01*
X167519755Y-109560318D01*
X167701050Y-109596873D01*
X167707592Y-109598192D01*
X167713672Y-109598500D01*
X168906328Y-109598500D01*
X168912408Y-109598192D01*
X168918950Y-109596873D01*
X169100245Y-109560318D01*
X169100248Y-109560317D01*
X169106284Y-109559100D01*
X169288873Y-109483095D01*
X169293992Y-109479668D01*
X169293996Y-109479666D01*
X169448099Y-109376504D01*
X169448104Y-109376500D01*
X169453223Y-109373073D01*
X169593073Y-109233223D01*
X169596500Y-109228104D01*
X169596504Y-109228099D01*
X169699666Y-109073996D01*
X169699668Y-109073992D01*
X169703095Y-109068873D01*
X169779100Y-108886284D01*
X169787302Y-108845609D01*
X169817267Y-108696996D01*
X169817267Y-108696995D01*
X169818192Y-108692408D01*
X169818500Y-108686328D01*
X169818500Y-107493672D01*
X169818192Y-107487592D01*
X169779100Y-107293716D01*
X169703095Y-107111127D01*
X169699668Y-107106008D01*
X169699666Y-107106004D01*
X169596504Y-106951901D01*
X169596500Y-106951896D01*
X169593073Y-106946777D01*
X169515405Y-106869109D01*
X169481379Y-106806797D01*
X169478500Y-106780014D01*
X169478500Y-105573509D01*
X169498502Y-105505388D01*
X169552048Y-105458946D01*
X169680947Y-105399931D01*
X169680959Y-105399924D01*
X169686055Y-105397591D01*
X169709619Y-105381214D01*
X169765770Y-105342188D01*
X169870527Y-105269380D01*
X170029380Y-105110527D01*
X170157591Y-104926055D01*
X170251110Y-104721794D01*
X170306978Y-104504200D01*
X170318500Y-104362542D01*
X170318500Y-102737458D01*
X170316676Y-102715024D01*
X170307413Y-102601151D01*
X170306978Y-102595800D01*
X170298859Y-102564176D01*
X170252505Y-102383639D01*
X170252505Y-102383638D01*
X170251110Y-102378206D01*
X170157591Y-102173945D01*
X170029380Y-101989473D01*
X169870527Y-101830620D01*
X169686055Y-101702409D01*
X169481794Y-101608890D01*
X169264200Y-101553022D01*
X169210295Y-101548638D01*
X169125092Y-101541707D01*
X169125082Y-101541707D01*
X169122542Y-101541500D01*
X167497458Y-101541500D01*
X167494918Y-101541707D01*
X167494908Y-101541707D01*
X167409705Y-101548638D01*
X167355800Y-101553022D01*
X167138206Y-101608890D01*
X166933945Y-101702409D01*
X166749473Y-101830620D01*
X166590620Y-101989473D01*
X166462409Y-102173945D01*
X166368890Y-102378206D01*
X166367495Y-102383638D01*
X166367495Y-102383639D01*
X166321142Y-102564176D01*
X166313022Y-102595800D01*
X166312587Y-102601151D01*
X166303325Y-102715024D01*
X166301500Y-102737458D01*
X166301500Y-104362542D01*
X160903500Y-104362542D01*
X160903500Y-102549482D01*
X160923502Y-102481361D01*
X160977158Y-102434868D01*
X161047432Y-102424764D01*
X161112012Y-102454258D01*
X161132965Y-102477572D01*
X161190620Y-102560527D01*
X161349473Y-102719380D01*
X161533945Y-102847591D01*
X161738206Y-102941110D01*
X161743638Y-102942505D01*
X161743639Y-102942505D01*
X161940373Y-102993017D01*
X161955800Y-102996978D01*
X162009705Y-103001362D01*
X162094908Y-103008293D01*
X162094918Y-103008293D01*
X162097458Y-103008500D01*
X163722542Y-103008500D01*
X163725082Y-103008293D01*
X163725092Y-103008293D01*
X163810295Y-103001362D01*
X163864200Y-102996978D01*
X163879628Y-102993017D01*
X164076361Y-102942505D01*
X164076362Y-102942505D01*
X164081794Y-102941110D01*
X164286055Y-102847591D01*
X164470527Y-102719380D01*
X164629380Y-102560527D01*
X164757591Y-102376055D01*
X164851110Y-102171794D01*
X164855752Y-102153715D01*
X164905644Y-101959396D01*
X164905644Y-101959395D01*
X164906978Y-101954200D01*
X164918500Y-101812542D01*
X164918500Y-100187458D01*
X164916532Y-100163253D01*
X164909597Y-100078002D01*
X164906978Y-100045800D01*
X164900494Y-100020544D01*
X164852505Y-99833639D01*
X164852505Y-99833638D01*
X164851110Y-99828206D01*
X164757591Y-99623945D01*
X164629380Y-99439473D01*
X164470527Y-99280620D01*
X164304167Y-99164997D01*
X164290661Y-99155610D01*
X164290659Y-99155609D01*
X164286055Y-99152409D01*
X164081794Y-99058890D01*
X164076361Y-99057495D01*
X163869396Y-99004356D01*
X163869395Y-99004356D01*
X163864200Y-99003022D01*
X163810295Y-98998638D01*
X163725092Y-98991707D01*
X163725082Y-98991707D01*
X163722542Y-98991500D01*
X162129595Y-98991500D01*
X162061474Y-98971498D01*
X162040500Y-98954595D01*
X161309000Y-98223095D01*
X161274974Y-98160783D01*
X161280039Y-98089968D01*
X161322586Y-98033132D01*
X161389106Y-98008321D01*
X161398095Y-98008000D01*
X164700397Y-98008000D01*
X164768518Y-98028002D01*
G37*
%TD.AperFunction*%
%TA.AperFunction,Conductor*%
G36*
X150910837Y-99708982D02*
G01*
X150957330Y-99762638D01*
X150967434Y-99832912D01*
X150964757Y-99846315D01*
X150914853Y-100040678D01*
X150913082Y-100051234D01*
X150902207Y-100184930D01*
X150902000Y-100190036D01*
X150902000Y-100727885D01*
X150906475Y-100743124D01*
X150907865Y-100744329D01*
X150915548Y-100746000D01*
X151134000Y-100746000D01*
X151202121Y-100766002D01*
X151248614Y-100819658D01*
X151260000Y-100872000D01*
X151260000Y-101128000D01*
X151239998Y-101196121D01*
X151186342Y-101242614D01*
X151134000Y-101254000D01*
X150920116Y-101254000D01*
X150904877Y-101258475D01*
X150903672Y-101259865D01*
X150902001Y-101267548D01*
X150902001Y-101809961D01*
X150902209Y-101815071D01*
X150913082Y-101948767D01*
X150914852Y-101959320D01*
X150967967Y-102166185D01*
X150971701Y-102176731D01*
X151060510Y-102370705D01*
X151066046Y-102380412D01*
X151187803Y-102555597D01*
X151194976Y-102564176D01*
X151345824Y-102715024D01*
X151354403Y-102722197D01*
X151519633Y-102837035D01*
X151564155Y-102892337D01*
X151571710Y-102962930D01*
X151539901Y-103026402D01*
X151478826Y-103062601D01*
X151447723Y-103066500D01*
X149373153Y-103066500D01*
X149305032Y-103046498D01*
X149258539Y-102992842D01*
X149248435Y-102922568D01*
X149277929Y-102857988D01*
X149301243Y-102837035D01*
X149370948Y-102788589D01*
X149470527Y-102719380D01*
X149629380Y-102560527D01*
X149757591Y-102376055D01*
X149851110Y-102171794D01*
X149855752Y-102153715D01*
X149905644Y-101959396D01*
X149905644Y-101959395D01*
X149906978Y-101954200D01*
X149918500Y-101812542D01*
X149918500Y-100187458D01*
X149916532Y-100163253D01*
X149909597Y-100078002D01*
X149906978Y-100045800D01*
X149883629Y-99954861D01*
X149855760Y-99846314D01*
X149858193Y-99775359D01*
X149898601Y-99716984D01*
X149964155Y-99689721D01*
X149977802Y-99688980D01*
X150842716Y-99688980D01*
X150910837Y-99708982D01*
G37*
%TD.AperFunction*%
%TA.AperFunction,Conductor*%
G36*
X157828399Y-96549798D02*
G01*
X157855627Y-96569120D01*
X158105434Y-96801859D01*
X159111088Y-97738803D01*
X159127690Y-97754271D01*
X159163897Y-97815341D01*
X159161338Y-97886292D01*
X159120827Y-97944596D01*
X159055226Y-97971743D01*
X159041800Y-97972460D01*
X156810757Y-97972460D01*
X156742636Y-97952458D01*
X156696143Y-97898802D01*
X156686039Y-97828528D01*
X156715533Y-97763948D01*
X156745290Y-97738803D01*
X156897003Y-97646545D01*
X156900680Y-97644309D01*
X157113769Y-97470948D01*
X157116701Y-97467809D01*
X157116706Y-97467804D01*
X157298329Y-97273333D01*
X157298330Y-97273332D01*
X157301268Y-97270186D01*
X157459683Y-97045762D01*
X157586064Y-96801859D01*
X157651012Y-96619114D01*
X157692672Y-96561625D01*
X157758799Y-96535785D01*
X157828399Y-96549798D01*
G37*
%TD.AperFunction*%
%TD*%
M02*
